<svg width="118" height="98" viewBox="0 0 118 98" fill="none" xmlns="http://www.w3.org/2000/svg">
<path d="M72.0264 49.6978C85.4719 45.9639 95.2846 36.2558 101.172 28.8295C107.561 20.7393 110.776 13.4375 110.818 13.3545L111.402 13.5619C111.361 13.6449 108.104 20.9883 101.673 29.1614C95.7439 36.7122 85.8059 46.4618 72.1934 50.2787L72.0264 49.6978Z" fill="#D7AC5C"/>
<path d="M110.484 10.6158C109.147 12.5658 108.813 14.7646 109.356 16.756C111.486 16.3826 113.49 15.138 114.826 13.2296C116.162 11.3211 116.496 9.08077 115.954 7.08936C113.824 7.46275 111.82 8.70738 110.484 10.6158Z" fill="#D7AC5C"/>
<path d="M111.319 18.2092C108.981 18.9145 107.185 20.4496 106.266 22.275C108.187 23.2293 110.609 23.4782 112.947 22.7729C115.286 22.0676 117.081 20.5326 118 18.7071C116.079 17.7529 113.657 17.5039 111.319 18.2092Z" fill="#D7AC5C"/>
<path d="M109.732 25.0533C107.311 24.6799 104.972 25.2607 103.26 26.5053C104.513 28.1649 106.517 29.4095 108.981 29.7829C111.403 30.1563 113.741 29.5754 115.453 28.3308C114.2 26.6713 112.154 25.4267 109.732 25.0533Z" fill="#D7AC5C"/>
<path d="M104.68 31.4839C102.258 31.1105 99.9198 31.6914 98.2078 32.936C99.4604 34.5955 101.465 35.8402 103.928 36.2136C106.35 36.5869 108.689 36.0061 110.401 34.7615C109.148 33.102 107.102 31.8573 104.68 31.4839Z" fill="#D7AC5C"/>
<path d="M105.682 21.2367C105.682 19.1623 104.805 17.2539 103.427 15.9263C102.049 17.1294 101.172 18.9549 101.172 21.0293C101.172 23.1037 102.049 25.0121 103.427 26.3397C104.805 25.1366 105.682 23.3111 105.682 21.2367Z" fill="#D7AC5C"/>
<path d="M100.379 27.9174C100.421 25.843 99.5436 23.893 98.2074 22.5654C96.7877 23.7271 95.9109 25.5526 95.8691 27.6269C95.8273 29.7013 96.7042 31.6513 98.0404 32.9789C99.4601 31.8172 100.379 29.9918 100.379 27.9174Z" fill="#D7AC5C"/>
<path d="M60.9495 54.6602C47.504 50.9263 37.6912 41.2182 31.8036 33.7919C25.4149 25.7017 22.1997 18.3999 22.1579 18.3169L21.5733 18.5243C21.6151 18.6073 24.8721 25.9507 31.3025 34.1238C37.2319 41.6746 47.1699 51.4242 60.7824 55.2411L60.9495 54.6602Z" fill="#519DB2"/>
<path d="M22.4921 15.5782C23.8283 17.5282 24.1623 19.727 23.6195 21.7184C21.4899 21.345 19.4856 20.1004 18.1494 18.192C16.8132 16.2835 16.4792 14.0432 17.022 12.0518C19.1516 12.4251 21.1559 13.6698 22.4921 15.5782Z" fill="#519DB2"/>
<path d="M21.6567 23.1716C23.9951 23.8769 25.7906 25.412 26.7092 27.2375C24.7884 28.1917 22.3666 28.4406 20.0282 27.7353C17.6899 27.03 15.8944 25.495 14.9757 23.6695C16.8965 22.7153 19.3184 22.4663 21.6567 23.1716Z" fill="#519DB2"/>
<path d="M23.2436 30.0162C25.6655 29.6428 28.0038 30.2236 29.7158 31.4682C28.4631 33.1277 26.4588 34.3724 23.9952 34.7458C21.5733 35.1192 19.235 34.5383 17.523 33.2937C18.7757 31.6342 20.8217 30.3895 23.2436 30.0162Z" fill="#519DB2"/>
<path d="M28.2959 36.4463C30.7177 36.0729 33.0561 36.6538 34.7681 37.8984C33.5154 39.5579 31.5111 40.8026 29.0475 41.176C26.6256 41.5493 24.2873 40.9685 22.5753 39.7239C23.8279 38.0644 25.874 36.8197 28.2959 36.4463Z" fill="#519DB2"/>
<path d="M27.2938 26.1991C27.2938 24.1247 28.1707 22.2163 29.5486 20.8887C30.9266 22.0918 31.8035 23.9173 31.8035 25.9917C31.8035 28.0661 30.9266 29.9745 29.5486 31.3021C28.1707 30.099 27.2938 28.2735 27.2938 26.1991Z" fill="#519DB2"/>
<path d="M32.5968 32.8798C32.5551 30.8054 33.432 28.8554 34.7682 27.5278C36.1879 28.6895 37.0647 30.515 37.1065 32.5894C37.1482 34.6637 36.2714 36.6137 34.9352 37.9413C33.5155 36.7796 32.5968 34.9542 32.5968 32.8798Z" fill="#519DB2"/>
<path d="M96.3277 41.5835C95.4091 41.1271 94.4069 41.0856 93.4883 41.376C93.6971 42.2473 94.3234 43.0356 95.2003 43.4919C96.1189 43.9483 97.1211 43.9898 98.0397 43.6994C97.8309 42.8281 97.2463 42.0399 96.3277 41.5835Z" fill="#BDBAAC"/>
<path d="M55.5694 67.5753C55.5694 67.5753 63.9624 16.0474 72.3136 16.0474C79.955 16.0474 70.7687 35.1318 71.6873 39.2391C72.6059 43.3464 80.0385 26.6683 87.5964 18.9101C95.1543 11.1518 99.7892 15.4251 95.4048 24.8428C91.1457 33.9287 75.7794 44.5911 79.2034 45.5038C82.6274 46.4165 101.961 33.7627 104.842 38.4094C108.391 44.1347 78.6606 54.2577 81.667 55.3779C84.6317 56.4981 98.8288 51.1461 98.8288 55.7098C98.8288 60.2735 79.2452 61.3936 79.7462 63.3851C80.5814 66.5796 98.6201 59.8586 99.5804 64.2978C100.583 68.82 77.1574 67.6998 77.7837 71.2677C78.1178 73.3007 100.416 70.7284 101.209 73.5081C103.046 79.8972 52.7717 83.2992 52.7717 83.2992L55.5694 67.5753Z" fill="#BDBAAC"/>
<path d="M36.7858 77.5492C36.7858 77.5492 20.2503 63.1114 18.079 64.1901C15.9077 65.2688 1.37653 58.2989 0.0820881 62.0742C-1.50465 66.7209 20.4591 70.8282 18.6636 72.0313C16.8263 73.2345 5.84445 70.7037 6.42903 74.0642C7.05538 77.4247 20.2086 75.8897 20.1251 77.3833C19.9998 79.831 7.13889 77.0928 7.09713 80.4534C7.05538 83.8968 22.4634 80.2459 22.5052 82.9011C22.5469 84.4362 13.11 84.6436 12.943 86.801C12.609 91.6966 43.5086 90.5349 43.5086 90.5349L36.7858 77.5492Z" fill="#BDBAAC"/>
<path d="M55.4084 88.9983C55.4084 88.9983 39.5828 51.9496 37.662 43.5276C35.7413 35.1056 43.5079 40.416 43.5079 40.416C43.5079 40.416 34.6138 23.6549 38.0379 19.2157C41.4619 14.7765 46.4309 19.1742 46.4309 19.1742C46.4309 19.1742 46.5561 0.670652 50.69 0.0483343C58.3731 -1.11333 59.5006 19.0498 59.5006 19.0498C59.5006 19.0498 60.5027 10.3373 64.8871 12.0383C71.4846 14.6106 64.5531 32.8237 64.5531 32.8237C64.5531 32.8237 72.445 31.6621 75.702 35.2715C81.4226 41.7436 55.4084 88.9983 55.4084 88.9983Z" fill="#C2E3DD"/>
<path d="M60.4619 86.0528C60.4619 86.0528 30.0216 80.9913 23.4241 75.6393C16.8266 70.2874 23.3406 67.8811 23.3406 67.8811C23.3406 67.8811 8.05779 60.0814 8.22481 54.8124C8.39184 49.502 15.9915 52.1987 15.9915 52.1987C15.9915 52.1987 3.13055 37.595 6.17876 34.8568C11.8576 29.7123 26.7646 44.8553 26.7646 44.8553C26.7646 44.8553 22.3384 37.6364 26.9734 36.5163C33.9884 34.8153 39.1662 52.5721 39.1662 52.5721C39.1662 52.5721 37.83 45.5606 42.6737 46.4734C51.4007 48.1329 60.4619 86.0528 60.4619 86.0528Z" fill="#C2E3DD"/>
<path d="M59.9832 98.0003C83.8787 98.0003 103.25 78.6948 103.25 54.8803C103.25 31.0657 83.8787 11.7603 59.9832 11.7603C36.0877 11.7603 16.7166 31.0657 16.7166 54.8803C16.7166 78.6948 36.0877 98.0003 59.9832 98.0003Z" fill="#F1E7E3"/>
<path d="M76.0772 23.3799H45.1137C43.7058 23.3799 42.5645 24.5145 42.5645 25.9142V86.7629C42.5645 88.1626 43.7058 89.2972 45.1137 89.2972H76.0772C77.4852 89.2972 78.6265 88.1626 78.6265 86.7629V25.9142C78.6265 24.5145 77.4852 23.3799 76.0772 23.3799Z" fill="white"/>
<path d="M58.5505 40.7563H48.7395C48.6917 40.7563 48.6531 40.676 48.6531 40.5791C48.6531 40.4811 48.6923 40.4019 48.7395 40.4019H58.5505C58.5983 40.4019 58.6369 40.4822 58.6369 40.5791C58.6369 40.6771 58.5977 40.7563 58.5505 40.7563Z" fill="#918F8F"/>
<path d="M62.6324 42.8832H48.6166C48.5484 42.8832 48.4932 42.5618 48.4932 42.1743C48.4932 41.7824 48.5491 41.4653 48.6166 41.4653H62.6324C62.7006 41.4653 62.7558 41.7868 62.7558 42.1743C62.7558 42.5662 62.6998 42.8832 62.6324 42.8832Z" fill="#918F8F"/>
<path d="M58.5505 45.2378H48.7395C48.6917 45.2378 48.6531 45.1574 48.6531 45.0605C48.6531 44.9626 48.6923 44.8833 48.7395 44.8833H58.5505C58.5983 44.8833 58.6369 44.9637 58.6369 45.0605C58.6369 45.1585 58.5977 45.2378 58.5505 45.2378Z" fill="#918F8F"/>
<path d="M62.6324 47.3646H48.6166C48.5484 47.3646 48.4932 47.0432 48.4932 46.6557C48.4932 46.2638 48.5491 45.9468 48.6166 45.9468H62.6324C62.7006 45.9468 62.7558 46.2682 62.7558 46.6557C62.7558 47.0476 62.6998 47.3646 62.6324 47.3646Z" fill="#918F8F"/>
<path d="M58.5505 49.7192H48.7395C48.6917 49.7192 48.6531 49.6389 48.6531 49.542C48.6531 49.444 48.6923 49.3647 48.7395 49.3647H58.5505C58.5983 49.3647 58.6369 49.4451 58.6369 49.542C58.6369 49.64 58.5977 49.7192 58.5505 49.7192Z" fill="#918F8F"/>
<path d="M62.6324 51.8461H48.6166C48.5484 51.8461 48.4932 51.5247 48.4932 51.1372C48.4932 50.7453 48.5491 50.4282 48.6166 50.4282H62.6324C62.7006 50.4282 62.7558 50.7497 62.7558 51.1372C62.7558 51.5291 62.6998 51.8461 62.6324 51.8461Z" fill="#918F8F"/>
<path d="M58.5505 54.2002H48.7395C48.6917 54.2002 48.6531 54.1198 48.6531 54.0229C48.6531 53.925 48.6923 53.8457 48.7395 53.8457H58.5505C58.5983 53.8457 58.6369 53.9261 58.6369 54.0229C58.6369 54.1209 58.5977 54.2002 58.5505 54.2002Z" fill="#918F8F"/>
<path d="M62.6324 56.3271H48.6166C48.5484 56.3271 48.4932 56.0056 48.4932 55.6181C48.4932 55.2262 48.5491 54.9092 48.6166 54.9092H62.6324C62.7006 54.9092 62.7558 55.2306 62.7558 55.6181C62.7558 56.01 62.6998 56.3271 62.6324 56.3271Z" fill="#918F8F"/>
<path d="M69.4978 33.7705H52.8627C52.6678 33.7705 52.5098 33.612 52.5098 33.4197C52.5098 33.226 52.6692 33.0688 52.8627 33.0688H69.4978C69.6926 33.0688 69.8507 33.2273 69.8507 33.4197C69.8507 33.6134 69.6913 33.7705 69.4978 33.7705Z" fill="#4399F0"/>
<path d="M65.9801 31.5449H56.3811C56.2321 31.5449 56.1113 31.665 56.1113 31.8131V31.9797C56.1113 32.1278 56.2321 32.2479 56.3811 32.2479H65.9801C66.1291 32.2479 66.2499 32.1278 66.2499 31.9797V31.8131C66.2499 31.665 66.1291 31.5449 65.9801 31.5449Z" fill="#4399F0"/>
<path d="M63.8758 79.4008H57.3566C57.1879 79.4008 57.0505 79.2417 57.0505 79.0464C57.0505 78.851 57.1879 78.6919 57.3566 78.6919H63.8758C64.0445 78.6919 64.1819 78.851 64.1819 79.0464C64.1819 79.2417 64.0445 79.4008 63.8758 79.4008Z" fill="#7B6961"/>
<path d="M65.4697 81.8392H55.7589C55.5314 81.8392 55.3447 81.6536 55.3447 81.4274C55.3447 81.2012 55.5314 81.0156 55.7589 81.0156H65.4697C65.6972 81.0156 65.8839 81.2012 65.8839 81.4274C65.8839 81.6536 65.6972 81.8392 65.4697 81.8392Z" fill="#7B6961"/>
<path d="M77.4205 14.4134L78.154 15.0559C78.4211 15.2898 78.4469 15.6953 78.2116 15.9608L77.7686 16.4607L76.0679 14.9712L76.5109 14.4713C76.7462 14.2058 77.1541 14.1802 77.4212 14.4141L77.4205 14.4134Z" fill="url(#paint0_linear_6062_2186)"/>
<path d="M65.4749 26.3986C65.423 26.3528 65.4161 26.2741 65.4598 26.2199L74.7853 14.7879C74.805 14.7632 74.8344 14.747 74.8661 14.7415L75.8094 14.5905C75.8806 14.5796 75.9471 14.6272 75.9591 14.6983C75.9701 14.7691 75.9222 14.8352 75.8507 14.8471L75.1319 14.962C75.0196 14.98 74.9175 15.0387 74.8454 15.1273L65.6626 26.3837C65.6175 26.4395 65.535 26.4475 65.4788 26.4026C65.4769 26.4021 65.4765 26.4 65.4746 26.3995L65.4749 26.3986Z" fill="url(#paint1_linear_6062_2186)"/>
<path d="M56.6019 39.8647L55.568 40.9847L55.5406 41.0044L54.5566 41.7015L52.7717 42.9668L53.8092 41.0472L54.3813 39.9899L54.3969 39.9581L55.3834 38.7975L56.6019 39.8647Z" fill="url(#paint2_linear_6062_2186)"/>
<path d="M54.5569 41.7005L52.772 42.9658L53.8095 41.0463L54.5569 41.7005Z" fill="url(#paint3_linear_6062_2186)"/>
<path d="M78.2266 16.473L56.797 40.3366L55.5681 40.9845L55.5456 41.0084L55.5407 41.0041L54.3814 39.9896L54.3747 39.9848L54.397 39.9578L54.9564 38.7244L75.9981 14.5229L78.2266 16.473Z" fill="#2E6491"/>
<path d="M54.1982 78.6919H49.9194V82.9455H54.1982V78.6919Z" fill="white"/>
<defs>
<linearGradient id="paint0_linear_6062_2186" x1="83.6254" y1="7.69981" x2="61.791" y2="34.1525" gradientUnits="userSpaceOnUse">
<stop stop-color="#2F3B7A"/>
<stop offset="1" stop-color="#4D5AA1"/>
</linearGradient>
<linearGradient id="paint1_linear_6062_2186" x1="82.2391" y1="6.55638" x2="60.4049" y2="33.0082" gradientUnits="userSpaceOnUse">
<stop stop-color="#2F3B7A"/>
<stop offset="1" stop-color="#4D5AA1"/>
</linearGradient>
<linearGradient id="paint2_linear_6062_2186" x1="82.9016" y1="7.10337" x2="61.0675" y2="33.5552" gradientUnits="userSpaceOnUse">
<stop stop-color="#2F3B7A"/>
<stop offset="1" stop-color="#4D5AA1"/>
</linearGradient>
<linearGradient id="paint3_linear_6062_2186" x1="82.8442" y1="7.05606" x2="61.011" y2="33.5081" gradientUnits="userSpaceOnUse">
<stop stop-color="#2F3B7A"/>
<stop offset="1" stop-color="#4D5AA1"/>
</linearGradient>
</defs>
</svg>
