<svg width="29" height="46" viewBox="0 0 29 46" fill="none" xmlns="http://www.w3.org/2000/svg">
<path d="M5.91546 28.096V32.0877C5.90126 32.215 5.84446 32.4132 5.77346 32.6538C5.75926 32.7105 5.74506 32.7529 5.71666 32.8096C5.12025 34.5081 4.48115 35.8579 3.84114 37.7478C3.20113 39.6377 2.90441 40.5961 2.93342 41.4008C2.89082 42.1368 3.91104 44.6479 3.84114 45.6763H3.16063C3.12196 45.4232 3.06533 45.3224 2.93342 45.1806V45.6763H0.771606L1.0448 41.8686C0.732397 39.4623 2.13821 30.7713 2.56422 28.28C2.60682 28.0111 2.64942 27.8271 2.66362 27.7138C2.67782 27.6431 2.67782 27.6147 2.67782 27.6147L5.60306 28.0535L5.91546 28.096Z" fill="#B18A67"/>
<path d="M4.83974 20.1035C4.79507 19.009 4.05796 17.9815 3.56654 18.2942C3.07513 18.607 2.53904 19.4558 1.98062 21.0194C1.42219 22.5829 1.84658 23.8338 1.71256 26.4026C1.57854 28.9713 0.729746 30.1999 1.08714 30.1999C1.44453 30.1775 1.08714 30.1999 1.64556 30.6466C2.20399 31.0933 2.62839 31.3614 3.54421 31.7188C4.46003 32.0762 5.33115 32.3442 5.95659 31.8305C6.58203 31.3167 6.04595 30.87 6.24698 29.1724C6.49269 27.4748 5.06311 24.839 4.83974 20.1035Z" fill="#F0A2ED" fill-opacity="0.99"/>
<rect x="12.3649" y="18.6709" width="4.05888" height="2.43533" fill="#B18A67"/>
<path d="M19.3405 9.0407C19.3405 10.3362 17.9333 11.3861 16.2134 11.3861C14.4934 11.3861 13.0862 10.3362 13.0862 9.0407C13.0862 7.74515 14.4934 6.69531 16.2134 6.69531C17.9556 6.69531 19.3405 7.74515 19.3405 9.0407Z" fill="#72594B"/>
<path d="M16.1423 30.3789C16.0083 30.2225 15.8296 30.0662 15.4498 30.2002C15.0701 30.3342 14.7127 30.5129 14.601 30.6693C14.467 30.8256 14.5117 31.0043 14.5117 31.0937C14.5117 31.183 14.3553 31.317 14.4 31.4734C14.4447 31.6744 14.4223 31.7861 14.467 31.8308C14.7797 32.2552 14.9361 32.3445 15.2488 32.3669C15.5615 32.3892 15.8966 32.3892 16.1423 32.2775C16.388 32.1658 16.723 31.8308 16.7454 31.6968C16.7677 31.5627 16.7454 31.183 16.6337 30.982C16.4997 30.8033 16.2763 30.5352 16.1423 30.3789Z" fill="#EF8031"/>
<path d="M14.9584 32.0317C14.9137 32.0093 14.8467 31.987 14.8021 31.9647C14.668 31.853 14.7127 31.7636 14.7574 31.6296C14.8467 31.3839 14.5564 31.2722 14.6904 31.0489C14.8021 30.8925 15.0031 30.6915 15.1371 30.5574C15.2711 30.4234 15.4722 30.3564 15.6508 30.3787C16.0082 30.4011 15.8742 30.7138 16.0753 30.8702C16.1869 30.9595 16.3656 30.9372 16.455 31.0265C16.656 31.2275 16.3433 31.4509 16.321 31.6743C16.321 31.8083 16.3656 31.92 16.2316 31.987C16.1199 32.0317 15.9859 32.0093 15.8742 32.0764C15.7625 32.1434 15.7179 32.2551 15.6285 32.2997C15.4722 32.3891 15.3605 32.3221 15.2711 32.188C15.2041 32.121 15.1818 32.0093 15.1148 31.9423C15.0477 31.853 14.9361 31.786 14.9137 31.6966C14.8914 31.6073 14.9361 31.5179 14.9137 31.4509C14.9137 31.3839 14.8244 31.2722 14.8244 31.2052C14.8244 31.0712 15.2711 30.8478 15.4051 30.8478C15.5392 30.8702 15.5392 31.0042 15.6285 31.0935C15.6955 31.1605 15.8072 31.1829 15.8966 31.2276C15.8966 31.3616 15.8742 31.4509 15.8072 31.5849C15.8072 31.5849 15.6955 31.7413 15.6508 31.786C15.5168 31.8753 15.4498 31.8083 15.3158 31.7636C15.2264 31.719 15.0924 31.6966 15.0701 31.6073C14.9584 31.3169 15.4722 31.2276 15.4051 31.4509C15.6285 31.4062 15.6955 31.5849 15.4722 31.6296C15.4052 31.652 15.2265 31.6296 15.1818 31.5849C15.1148 31.4956 15.2041 31.4286 15.2488 31.3616" stroke="#FFE6D0" stroke-width="4.05888" stroke-miterlimit="10" stroke-linecap="round" stroke-linejoin="round"/>
<path d="M16.2764 11.4814C16.2764 11.3921 14.7128 11.057 15.2042 11.0347L11.8983 11.0793C11.8313 11.0793 10.9602 11.191 10.9378 11.2804C10.8485 12.2409 11.3623 14.6756 10.1114 15.2787C7.72132 21.332 20.9002 20.0365 17.4826 15.1894C16.7231 14.832 16.0083 13.7821 16.2764 11.4814Z" fill="#B18A67"/>
<path d="M17.84 5.92003C17.639 5.8977 17.3933 6.5008 17.2816 7.30493C17.1699 8.08672 17.2369 8.75684 17.4379 8.80151C17.639 8.82385 17.8847 8.22075 17.9964 7.41661C18.108 6.61248 18.041 5.94237 17.84 5.92003Z" fill="#B18A67"/>
<path d="M8.99448 5.94296C8.79344 5.9653 8.72642 6.63541 8.8381 7.43954C8.94979 8.22134 9.19549 8.84677 9.39653 8.82444C9.59756 8.8021 9.66459 8.13199 9.5529 7.32786C9.46355 6.54606 9.19551 5.92063 8.99448 5.94296Z" fill="#B18A67"/>
<g opacity="0.5">
<mask id="mask0_7390_5486" style="mask-type:luminance" maskUnits="userSpaceOnUse" x="10" y="11" width="7" height="3">
<path d="M16.2764 11.0776H10.9379V13.356H16.2764V11.0776Z" fill="white"/>
</mask>
<g mask="url(#mask0_7390_5486)">
<mask id="mask1_7390_5486" style="mask-type:luminance" maskUnits="userSpaceOnUse" x="10" y="11" width="7" height="3">
<path d="M16.2764 11.0767H10.9379V13.355H16.2764V11.0767Z" fill="white"/>
</mask>
<g mask="url(#mask1_7390_5486)">
<path d="M15.204 11.0767L11.8982 11.1213C11.8312 11.1213 10.96 11.233 10.9377 11.3224C10.9153 11.4787 10.9377 11.3447 10.9377 11.5681C11.8758 12.7966 13.0373 13.3774 13.9532 13.3774C14.5786 13.3774 15.4721 13.0647 16.2315 12.0818C16.2315 11.9031 16.2539 11.7244 16.2762 11.5234C16.2986 11.4117 14.7126 11.0767 15.204 11.0767Z" fill="#B18A67"/>
</g>
</g>
</g>
<path d="M12.9705 0.33552C10.6251 0.357857 8.90519 1.89911 9.30726 6.4782C9.77633 11.9061 12.2111 13.0006 13.864 13.0006C15.1819 13.0006 17.773 11.2136 17.505 5.85276C17.2592 0.357857 16.7008 0.290846 12.9705 0.33552Z" fill="#B18A67"/>
<path d="M15.0032 0.111964C13.3056 0.0226155 12.1664 0.0226157 11.1836 0.491693C10.2007 0.96077 9.57532 1.80958 9.24027 2.39034C8.63717 3.50719 8.6595 5.09312 8.70417 5.8079C8.74885 6.52269 9.01688 6.16529 9.08389 6.63437C9.1509 7.05877 9.10625 6.99176 9.21794 7.23747C9.46364 7.77356 9.37428 7.10345 9.37428 6.36633C9.37428 5.29415 9.37428 3.88692 10.4018 3.01578C11.4293 2.12229 11.5857 2.41268 12.6802 2.25632C13.797 2.09996 14.1544 2.16697 14.9585 2.50202C15.7627 2.83708 16.4998 2.94876 16.9242 3.7529C17.3486 4.55703 17.3486 5.13779 17.3263 6.03127C17.3039 6.92475 17.1699 7.34916 17.3933 7.08111C17.6613 6.76839 17.4379 6.03127 17.8847 6.03127C17.9964 6.03127 18.1527 6.03127 18.1527 5.65154C18.1527 4.7804 18.2868 3.46252 17.8623 2.61371C17.4826 1.74257 16.7008 0.201312 15.0032 0.111964Z" fill="#72594B"/>
<path d="M15.0031 0.044674C14.5787 0.022337 14.065 0 13.6183 0C12.5461 0 11.809 0.134022 11.1612 0.424403C10.089 0.915817 9.46356 1.85397 9.19551 2.36772C8.59241 3.48457 8.59244 5.00349 8.65945 5.80762C8.68178 6.20969 8.77113 6.29904 8.90515 6.36605C8.97216 6.41072 9.01683 6.4554 9.03917 6.63409C9.0615 6.72344 9.0615 6.79045 9.0615 6.85746C9.08383 7.0585 9.08383 7.0585 9.17318 7.25953C9.24019 7.43822 9.28488 7.4829 9.35189 7.4829C9.37423 7.4829 9.39655 7.4829 9.41888 7.46056C9.46356 7.41589 9.46357 7.25953 9.46357 6.81279C9.46357 6.67877 9.46357 6.52241 9.46357 6.36605C9.46357 5.33855 9.46357 3.93131 10.4687 3.06017C11.2282 2.4124 11.4962 2.39006 12.0323 2.36772C12.2334 2.36772 12.4344 2.34539 12.7248 2.30071C13.1045 2.25604 13.3949 2.2337 13.6183 2.2337C14.1097 2.2337 14.4447 2.34539 14.9808 2.56876C15.1372 2.63577 15.3159 2.70278 15.4722 2.74745C16.0753 2.97082 16.5891 3.17186 16.9241 3.79729C17.3485 4.60142 17.3485 5.13751 17.3262 6.05333C17.3262 6.34371 17.3039 6.56708 17.2815 6.74578C17.2592 7.0585 17.2592 7.17018 17.3039 7.21485C17.3262 7.23719 17.3485 7.23719 17.3709 7.23719C17.4156 7.23719 17.4602 7.21485 17.5272 7.12551C17.6389 6.99148 17.6836 6.76811 17.7059 6.56708C17.7506 6.2767 17.7729 6.098 17.974 6.098C18.1303 6.098 18.2867 6.05333 18.2867 5.6736C18.2867 5.51724 18.2867 5.33855 18.2867 5.15985C18.309 4.33338 18.3314 3.32821 17.974 2.59109C17.5272 1.71995 16.7454 0.134022 15.0031 0.044674ZM18.1527 5.15985C18.1527 5.33855 18.1527 5.51724 18.1527 5.6736C18.1527 5.98632 18.041 5.98632 17.9516 5.98632C17.6389 5.98632 17.5942 6.29904 17.5719 6.56708C17.5496 6.74578 17.5272 6.94681 17.4155 7.0585C17.3932 7.08083 17.3932 7.08083 17.3932 7.10317C17.3932 7.03616 17.3932 6.90214 17.4155 6.76811C17.4379 6.58942 17.4602 6.34371 17.4602 6.07567C17.4825 5.18219 17.4826 4.60142 17.0582 3.77495C16.7008 3.10484 16.1647 2.90381 15.5392 2.68044C15.3829 2.61343 15.2265 2.56876 15.0702 2.50174C14.5341 2.27837 14.1767 2.16669 13.6629 2.16669C13.4172 2.16669 13.1492 2.18903 12.7471 2.2337C12.4791 2.27837 12.2557 2.27837 12.077 2.30071C11.5186 2.32305 11.2282 2.34539 10.4464 3.0155C9.39657 3.93131 9.39655 5.36088 9.39655 6.41072C9.39655 6.56708 9.39655 6.72344 9.39655 6.85746C9.39655 7.03616 9.39655 7.23719 9.39655 7.34888C9.37422 7.32654 9.37423 7.28187 9.35189 7.23719C9.26254 7.0585 9.26254 7.0585 9.2402 6.85746C9.2402 6.81279 9.21787 6.72344 9.21787 6.63409C9.1732 6.41072 9.10618 6.34371 9.01683 6.29904C8.92749 6.25436 8.86046 6.18735 8.83813 5.82996C8.79345 5.18219 8.74879 3.57392 9.35189 2.45707C9.61993 1.96566 10.223 1.04984 11.2729 0.580762C11.8983 0.290381 12.5907 0.178696 13.6629 0.178696C14.132 0.178696 14.6234 0.201033 15.0478 0.22337C16.7231 0.312718 17.4825 1.85397 17.8846 2.70278C18.1973 3.32821 18.175 4.33338 18.1527 5.15985Z" fill="#72594B"/>
<path d="M8.97248 6.36759C8.97248 6.32227 8.94983 6.32227 8.94983 6.32227C8.94983 6.32227 8.94982 6.32227 8.97248 6.36759Z" fill="white"/>
<path d="M24.6081 45.4774C24.4741 44.4722 24.5188 42.5959 23.9827 40.1389C23.0892 36.0512 22.5754 27.7195 23.3796 25.7315C24.4964 22.9617 23.9157 19.5441 24.7868 18.7177C24.2731 17.4668 22.4861 16.5063 21.8383 16.3053C19.6046 15.6352 19.987 16.4288 17.6416 15.4237C17.9766 16.4065 15.7626 18.3603 14.2214 20.862C12.4344 18.5166 10.3348 15.5012 10.6698 14.6523C8.12341 15.8139 6.67148 16.2606 3.72299 18.0922C2.71783 18.7177 2.33812 20.2366 2.18176 20.5493C3.09758 21.4205 4.3261 23.6988 5.71099 26.3346C6.51513 27.8535 6.78318 34.4429 5.21959 41.4344C4.83986 43.1767 4.83987 44.8967 4.8622 45.9688H24.6305C24.6305 45.8125 24.6304 45.6561 24.6081 45.4774Z" fill="#F0A2ED" fill-opacity="0.99"/>
<path d="M6.42553 24.4596C6.35852 24.4596 6.31384 24.4372 6.31384 24.3702C6.31384 24.3032 6.35852 24.2139 6.42553 24.2139C6.38085 24.2139 6.35851 24.2362 6.33617 24.2809C6.31384 24.3032 6.31384 24.3479 6.31384 24.3926C6.31384 24.4149 6.33617 24.4372 6.35851 24.4596C6.35851 24.4596 6.40319 24.4819 6.42553 24.4596C6.44786 24.4819 6.44786 24.4819 6.42553 24.4596C6.44786 24.4819 6.44786 24.4819 6.42553 24.4596C6.44786 24.4596 6.44786 24.4596 6.42553 24.4596Z" fill="#231F20"/>
<path d="M6.47028 24.4815C6.40327 24.4815 6.35859 24.4592 6.35859 24.4145C6.33626 24.3475 6.38094 24.2582 6.44795 24.2358C6.42561 24.2582 6.40326 24.2805 6.38092 24.3028C6.35859 24.3475 6.35859 24.3699 6.35859 24.4145C6.35859 24.4369 6.38092 24.4592 6.40326 24.4815C6.40326 24.4815 6.4256 24.4815 6.47028 24.4815Z" fill="#231F20"/>
<path d="M6.71617 24.2137C6.6715 24.1914 6.62683 24.169 6.58215 24.1914C6.64916 24.169 6.69383 24.1914 6.71617 24.2137C6.76084 24.2584 6.76086 24.3031 6.76086 24.3477C6.76086 24.3924 6.71618 24.4148 6.67151 24.4148C6.71618 24.3924 6.76086 24.3701 6.76086 24.3254C6.7832 24.3031 6.76084 24.2361 6.71617 24.2137Z" fill="#231F20"/>
<path d="M6.67151 24.1684C6.62683 24.1461 6.60449 24.1684 6.58215 24.1908C6.60449 24.1461 6.64917 24.1684 6.67151 24.1684C6.71618 24.1908 6.76086 24.2801 6.76086 24.3471C6.76086 24.3695 6.73851 24.4141 6.69384 24.4365C6.73851 24.4141 6.76086 24.3918 6.76086 24.3471C6.7832 24.2578 6.73852 24.1908 6.67151 24.1684Z" fill="#231F20"/>
<path d="M6.85021 25.1078C6.85021 25.1078 6.73854 25.0854 6.78321 25.0854L6.55984 25.1301L6.49282 25.1525C6.49282 25.2195 6.55984 25.3758 6.47049 25.4205C6.38114 25.8449 7.22994 25.6215 6.96189 25.3535C6.91722 25.3312 6.85021 25.2641 6.85021 25.1078Z" fill="#F0BEB4"/>
<path d="M7.22978 25.3971C7.07342 25.3748 7.07342 25.3748 6.91706 25.3301C7.0064 25.5981 6.53733 25.7098 6.47032 25.4194C6.35863 25.4864 6.29161 25.5311 6.15759 25.6205C6.33629 25.7545 6.55967 25.7992 6.78304 25.7768C7.00641 25.7545 7.18511 25.6428 7.31913 25.4864C7.2968 25.4418 7.27445 25.3971 7.22978 25.3971Z" fill="#6D9E9E"/>
<path d="M6.89465 24.7275C6.87231 24.7275 6.87231 24.7722 6.87231 24.8169C6.87231 24.8616 6.89465 24.9062 6.89465 24.9062C6.91698 24.9062 6.91698 24.8616 6.91698 24.8169C6.93931 24.7722 6.91698 24.7275 6.89465 24.7275Z" fill="#F0BEB4"/>
<path d="M6.314 24.8164C6.29167 24.8164 6.314 24.8611 6.314 24.9058C6.33634 24.9504 6.35867 24.9951 6.35867 24.9951C6.381 24.9951 6.35867 24.9504 6.35867 24.9058C6.33633 24.8611 6.314 24.8164 6.314 24.8164Z" fill="#F0BEB4"/>
<path d="M6.71606 24.8168L6.69373 24.8391L6.71606 24.8168C6.76073 24.8168 6.78307 24.7945 6.80541 24.8168C6.78307 24.7721 6.73839 24.7945 6.71606 24.8168Z" fill="#231F20"/>
<path d="M6.44789 24.8389C6.42555 24.8389 6.4032 24.8612 6.4032 24.8612C6.4032 24.8612 6.44789 24.8165 6.53724 24.8612C6.51491 24.8389 6.47023 24.8389 6.44789 24.8389Z" fill="#231F20"/>
<path d="M6.42556 24.7719C6.40322 24.7719 6.42556 24.7719 6.42556 24.7719C6.40322 24.7942 6.4032 24.7942 6.4032 24.7942C6.4032 24.7942 6.42555 24.7719 6.47022 24.7495C6.49256 24.7495 6.53724 24.7495 6.55957 24.7719C6.49256 24.7272 6.44789 24.7495 6.42556 24.7719Z" fill="#231F20"/>
<path d="M6.64905 24.7722C6.67138 24.7722 6.67138 24.7722 6.64905 24.7722C6.67138 24.7722 6.67138 24.7722 6.64905 24.7722C6.67138 24.7275 6.73838 24.7052 6.8054 24.7275C6.73838 24.6828 6.69372 24.7275 6.64905 24.7722Z" fill="#231F20"/>
<path d="M6.67217 24.9951C6.67217 24.9951 6.64949 25.0178 6.62683 24.9951C6.64949 24.9951 6.64951 24.9951 6.67217 24.9951Z" fill="#231F20"/>
<path d="M6.53748 25.0623C6.55981 25.1069 6.62682 25.1293 6.64916 25.1069C6.71617 25.1069 6.73851 25.0623 6.76085 25.0176C6.69383 25.0176 6.69383 25.0176 6.64916 25.0399C6.62682 25.0176 6.58215 25.0399 6.53748 25.0623Z" fill="white"/>
<path d="M6.87244 24.5271C6.82777 24.4824 6.76075 24.3707 6.64907 24.3931C6.53738 24.3931 6.47035 24.4154 6.40334 24.4601C6.33633 24.5047 6.31399 24.5718 6.29166 24.5941C6.26932 24.6834 6.26932 24.7728 6.29166 24.8175C6.29166 24.8621 6.31401 24.8398 6.31401 24.8621C6.31401 24.8845 6.31401 24.8845 6.33635 24.9068C6.35868 24.9291 6.33635 24.9068 6.33635 24.8398C6.33635 24.7728 6.314 24.6834 6.38101 24.6164C6.44802 24.5494 6.44801 24.5718 6.51503 24.5494C6.58204 24.5271 6.60439 24.5271 6.6714 24.5494C6.71607 24.5718 6.78308 24.5718 6.80542 24.6164C6.85009 24.6611 6.85008 24.7058 6.85008 24.7728C6.85008 24.8398 6.8501 24.8621 6.87244 24.8398C6.89478 24.8175 6.87243 24.7728 6.89477 24.7728C6.89477 24.7728 6.9171 24.7728 6.9171 24.7504C6.9171 24.6611 6.89478 24.5718 6.87244 24.5271Z" fill="#72594B"/>
<path d="M6.9171 24.6834C6.9171 24.6388 6.89478 24.5718 6.87244 24.5271C6.82777 24.4824 6.76075 24.3707 6.64907 24.3931C6.62673 24.3931 6.58205 24.3931 6.55972 24.3931C6.4927 24.3931 6.44801 24.4154 6.40334 24.4377C6.33633 24.4824 6.31399 24.5494 6.29166 24.5941C6.26932 24.6834 6.26932 24.7728 6.29166 24.8175C6.29166 24.8398 6.31401 24.8398 6.31401 24.8621C6.31401 24.8621 6.31401 24.8621 6.33635 24.8845C6.33635 24.8845 6.33635 24.8845 6.33635 24.9068C6.33635 24.9291 6.33634 24.9291 6.35868 24.9291C6.35868 24.9291 6.35867 24.9515 6.38101 24.9515C6.38101 24.9515 6.38101 24.9291 6.38101 24.9068V24.8845C6.38101 24.8175 6.35869 24.7281 6.4257 24.6611C6.47037 24.6164 6.49269 24.6164 6.51503 24.5941C6.53736 24.5941 6.53738 24.5941 6.55972 24.5941C6.58205 24.5941 6.60437 24.5718 6.62671 24.5718C6.64905 24.5718 6.67139 24.5718 6.71606 24.5718C6.7384 24.5718 6.73842 24.5718 6.76075 24.5718C6.80543 24.5718 6.82777 24.5941 6.87244 24.6164C6.91711 24.6611 6.9171 24.7058 6.9171 24.7504C6.9171 24.7728 6.9171 24.7951 6.9171 24.7951C6.9171 24.8175 6.9171 24.8175 6.9171 24.8175C6.9171 24.8175 6.9171 24.7951 6.9171 24.7728C6.9171 24.7504 6.9171 24.7504 6.93943 24.7504C6.93943 24.7504 6.96177 24.7504 6.96177 24.7281C6.91709 24.7058 6.9171 24.7058 6.9171 24.6834ZM6.89477 24.7504C6.87243 24.7504 6.87244 24.7728 6.87244 24.7951C6.87244 24.8175 6.87244 24.8175 6.87244 24.8175V24.7951C6.87244 24.7728 6.87244 24.7728 6.87244 24.7504C6.87244 24.6834 6.85009 24.6611 6.82775 24.5941C6.80541 24.5494 6.76074 24.5494 6.71606 24.5271H6.69373C6.64906 24.5271 6.62672 24.5047 6.60438 24.5271C6.58204 24.5271 6.55972 24.5271 6.53738 24.5494C6.51505 24.5494 6.51503 24.5494 6.49269 24.5494C6.44802 24.5494 6.44801 24.5718 6.40334 24.6164C6.33633 24.6834 6.35868 24.7728 6.35868 24.8398V24.8621C6.35868 24.8845 6.35868 24.8845 6.35868 24.8845C6.35868 24.8621 6.35868 24.8621 6.35868 24.8621C6.35868 24.8621 6.35868 24.8621 6.35868 24.8398C6.35868 24.8175 6.35868 24.8175 6.33635 24.8175C6.33635 24.8175 6.31401 24.8175 6.31401 24.7951C6.31401 24.7505 6.29168 24.6388 6.31401 24.5718C6.33635 24.5271 6.35869 24.4824 6.4257 24.4377C6.47037 24.4154 6.51504 24.3931 6.58205 24.3931C6.60438 24.3931 6.64906 24.3931 6.6714 24.3931C6.78309 24.3931 6.8501 24.4824 6.87244 24.5271C6.89478 24.5718 6.9171 24.6388 6.9171 24.6834C6.9171 24.7058 6.9171 24.7058 6.9171 24.7281C6.9171 24.7504 6.91711 24.7504 6.89477 24.7504Z" fill="#72594B"/>
<path d="M6.53724 24.3926C6.51491 24.3926 6.49255 24.4596 6.49255 24.5489C6.49255 24.4819 6.51491 24.4149 6.53724 24.3926Z" fill="#231F20"/>
<path d="M6.51498 24.3926C6.4703 24.3926 6.44798 24.4596 6.47031 24.5489C6.47031 24.5043 6.47031 24.4819 6.47031 24.4373C6.49265 24.4373 6.49264 24.4149 6.51498 24.3926C6.51498 24.4149 6.51498 24.4149 6.51498 24.3926Z" fill="#231F20"/>
<path d="M6.44817 24.4155C6.42583 24.4379 6.40348 24.4825 6.38114 24.5272C6.38114 24.5495 6.38114 24.5719 6.38114 24.5942C6.38114 24.5719 6.35881 24.5719 6.38114 24.5272C6.40348 24.4825 6.42583 24.4379 6.44817 24.4155C6.4705 24.4155 6.44817 24.4155 6.44817 24.4155Z" fill="#231F20"/>
<path d="M6.4257 24.437C6.40337 24.4593 6.38102 24.504 6.35868 24.5487C6.35868 24.5934 6.35868 24.6157 6.35868 24.638C6.35868 24.6157 6.33635 24.5934 6.35868 24.571C6.38102 24.504 6.40337 24.4593 6.4257 24.437Z" fill="#231F20"/>
<path d="M6.38097 24.4819C6.35863 24.5043 6.35864 24.5489 6.3363 24.5936C6.3363 24.6383 6.3363 24.683 6.35864 24.7053C6.31396 24.6383 6.35863 24.5043 6.38097 24.4819Z" fill="#231F20"/>
<path d="M6.33615 24.5264C6.31381 24.5264 6.33615 24.5264 6.33615 24.5264C6.31381 24.571 6.29148 24.6157 6.31382 24.6604C6.31382 24.7051 6.33614 24.7274 6.35848 24.7497C6.31381 24.6827 6.29148 24.6381 6.33615 24.5264Z" fill="#231F20"/>
<path d="M6.55972 24.3926C6.53738 24.3926 6.53738 24.3926 6.55972 24.3926C6.53738 24.3926 6.53738 24.3926 6.55972 24.3926C6.55972 24.3926 6.55972 24.3926 6.58205 24.4373C6.58205 24.4596 6.60438 24.5043 6.60438 24.5266C6.60438 24.4819 6.58205 24.4596 6.58205 24.4373C6.55972 24.3926 6.55972 24.3926 6.55972 24.3926Z" fill="#231F20"/>
<path d="M6.55969 24.3926C6.58203 24.3926 6.62669 24.4596 6.62669 24.5266C6.62669 24.4596 6.60437 24.3926 6.55969 24.3926Z" fill="#231F20"/>
<path d="M6.60437 24.3926C6.62671 24.3926 6.64906 24.4149 6.64906 24.4373C6.6714 24.4596 6.67139 24.5043 6.69372 24.5489C6.69372 24.4596 6.64904 24.3926 6.60437 24.3926Z" fill="#231F20"/>
<path d="M6.64908 24.3917C6.62674 24.3917 6.62674 24.3917 6.64908 24.3917C6.62674 24.3917 6.64908 24.3917 6.64908 24.3917C6.67141 24.3917 6.69373 24.414 6.71607 24.4363C6.73841 24.4587 6.76076 24.5033 6.76076 24.548C6.73843 24.4587 6.69375 24.3693 6.64908 24.3917Z" fill="#231F20"/>
<path d="M6.67126 24.3691C6.67126 24.3691 6.67126 24.3915 6.67126 24.3691C6.67126 24.3915 6.67126 24.3915 6.67126 24.3691C6.6936 24.3691 6.71593 24.3915 6.71593 24.4138C6.7606 24.4585 6.78295 24.5478 6.78295 24.5478C6.78295 24.5255 6.7606 24.4362 6.71593 24.3915C6.71593 24.4138 6.6936 24.3691 6.67126 24.3691Z" fill="#231F20"/>
<path d="M6.71619 24.3926C6.73852 24.4149 6.76087 24.4596 6.78321 24.5043C6.80555 24.5489 6.82788 24.5936 6.80554 24.6159C6.82788 24.5713 6.78321 24.5266 6.78321 24.4819C6.78321 24.4373 6.73852 24.3926 6.71619 24.3926Z" fill="#231F20"/>
<path d="M6.78308 24.4155C6.82776 24.4602 6.85008 24.5496 6.85008 24.5942C6.85008 24.6166 6.85008 24.6389 6.82774 24.6389C6.85008 24.6389 6.85008 24.6166 6.85008 24.5719C6.85008 24.5496 6.85008 24.5049 6.82774 24.4825C6.82774 24.4602 6.80542 24.4379 6.78308 24.4155Z" fill="#231F20"/>
<path d="M6.33619 24.839C6.31385 24.839 6.31383 24.8166 6.2915 24.7943C6.26916 24.772 6.26917 24.7273 6.26917 24.6826C6.26917 24.7273 6.26916 24.7496 6.2915 24.7943C6.31383 24.8166 6.33619 24.839 6.33619 24.839C6.35852 24.839 6.35852 24.839 6.33619 24.839C6.35852 24.839 6.35852 24.839 6.33619 24.839Z" fill="#231F20"/>
<path d="M6.89465 24.5713C6.91698 24.6383 6.89465 24.7053 6.87231 24.75C6.89465 24.7276 6.89465 24.7053 6.89465 24.683C6.91698 24.6606 6.89465 24.616 6.89465 24.5713Z" fill="#231F20"/>
<path d="M6.49281 24.1911C6.49281 24.1687 6.49281 24.1911 6.49281 24.1911C6.47047 24.1911 6.42579 24.1911 6.40346 24.1911C6.38112 24.1911 6.35879 24.2134 6.35879 24.2358C6.33646 24.2804 6.33646 24.3028 6.35879 24.3474C6.38113 24.3921 6.4258 24.4144 6.49281 24.4144C6.44814 24.4144 6.40346 24.3921 6.38113 24.3474C6.35879 24.3251 6.35879 24.2804 6.38113 24.2358C6.38113 24.2134 6.4258 24.1911 6.49281 24.1911Z" fill="#231F20"/>
<path d="M6.60417 24.1689C6.5595 24.1689 6.51482 24.1689 6.49249 24.1913C6.47015 24.2136 6.42549 24.236 6.42549 24.2806C6.42549 24.303 6.42549 24.3253 6.42549 24.3476C6.42549 24.37 6.44781 24.3923 6.49249 24.4147C6.42548 24.37 6.40316 24.3253 6.42549 24.2806C6.44783 24.2136 6.51482 24.1689 6.60417 24.1689C6.62651 24.1689 6.60417 24.1689 6.60417 24.1689Z" fill="#231F20"/>
<path d="M6.53747 24.1689C6.4928 24.1689 6.47046 24.1913 6.44812 24.236C6.47046 24.1913 6.51514 24.1689 6.53747 24.1689C6.58215 24.1689 6.62682 24.2136 6.64916 24.2583C6.6715 24.303 6.67147 24.3476 6.6268 24.3923C6.67147 24.3476 6.6715 24.2806 6.64916 24.236C6.64916 24.1913 6.58215 24.1689 6.53747 24.1689Z" fill="#231F20"/>
<path d="M6.51498 25.3307C6.47031 25.3531 6.24694 25.4871 6.17992 25.5541C6.17992 25.5541 6.15759 25.5764 6.15759 25.5988C6.24694 25.6881 6.35864 25.7328 6.44798 25.7551C6.53733 25.7775 6.64902 25.7998 6.78304 25.7775C6.515 25.5094 6.51498 25.3754 6.51498 25.3307C6.51498 25.3307 6.51498 25.3084 6.51498 25.3307Z" fill="#CCFFFF"/>
<path d="M7.2297 25.3527C7.14035 25.308 6.96165 25.308 6.91698 25.2856C6.89464 25.2856 6.91698 25.308 6.91698 25.308C6.91698 25.3527 6.96166 25.576 6.87231 25.7547C6.93933 25.7547 7.05101 25.71 7.11802 25.6654C7.20736 25.6207 7.29671 25.5314 7.36372 25.442C7.34138 25.442 7.2297 25.3527 7.2297 25.3527Z" fill="#CCFFFF"/>
<path d="M6.62682 25.6431C6.60448 25.6431 6.58215 25.6654 6.58215 25.7101C6.58215 25.7324 6.6045 25.7548 6.64918 25.7548C6.67151 25.7548 6.69384 25.7324 6.69384 25.6877C6.69384 25.6654 6.67149 25.6431 6.62682 25.6431Z" fill="white"/>
<path d="M6.62682 25.6431C6.60448 25.6431 6.58215 25.6654 6.58215 25.6877C6.58215 25.7101 6.60448 25.7324 6.62682 25.7324C6.64915 25.7324 6.67151 25.7101 6.67151 25.6877C6.69384 25.6654 6.67149 25.6431 6.62682 25.6431Z" fill="#BCBEC0"/>
<path d="M6.62683 25.6887C6.55982 25.6217 6.49282 25.577 6.47048 25.4876C6.47048 25.4876 6.44815 25.4206 6.44815 25.376C6.44815 25.3089 6.47048 25.2643 6.49281 25.2196V25.1973C6.47048 25.2196 6.44815 25.2419 6.44815 25.2643C6.42581 25.3313 6.42581 25.3983 6.44815 25.4653C6.44815 25.4653 6.44815 25.4653 6.44815 25.4876C6.47049 25.51 6.49281 25.5547 6.51514 25.5993C6.55982 25.6217 6.58215 25.6663 6.62683 25.6887C6.62683 25.711 6.62683 25.711 6.62683 25.6887C6.64917 25.6887 6.62683 25.6887 6.62683 25.6887Z" fill="#231F20"/>
<path d="M6.64932 25.6885C6.62666 25.6885 6.62666 25.6885 6.64932 25.6885C6.62666 25.7111 6.64932 25.7338 6.64932 25.7338C6.64932 25.7338 6.67198 25.7111 6.64932 25.6885Z" fill="white"/>
<path d="M6.64862 25.6885C6.62689 25.6885 6.62689 25.6885 6.64862 25.6885C6.62689 25.7102 6.64862 25.7102 6.64862 25.7102C6.64862 25.7102 6.64862 25.7102 6.64862 25.6885Z" fill="#939598"/>
<path d="M6.96163 25.4644C6.93929 25.4867 6.9393 25.509 6.9393 25.5314C6.9393 25.576 6.91697 25.6207 6.91697 25.6654C6.89463 25.7101 6.87228 25.7324 6.84995 25.7547C6.82761 25.7547 6.80529 25.7547 6.76062 25.7324C6.78296 25.7547 6.80528 25.7547 6.80528 25.7547C6.82762 25.7547 6.82761 25.7547 6.84995 25.7547C6.87228 25.7547 6.89463 25.7101 6.91697 25.6654C6.93931 25.6207 6.9393 25.576 6.9393 25.5314C6.96164 25.509 6.96163 25.4867 6.96163 25.4644Z" fill="#D8DADB"/>
<path d="M6.76114 25.71C6.73848 25.71 6.73848 25.71 6.76114 25.71C6.73848 25.7326 6.73848 25.7326 6.76114 25.7326H6.78379C6.78379 25.7326 6.7838 25.7326 6.76114 25.71C6.7838 25.71 6.76114 25.71 6.76114 25.71Z" fill="white"/>
<path d="M6.76114 25.71C6.73848 25.71 6.73848 25.71 6.76114 25.71ZM6.76114 25.71C6.73848 25.7326 6.73848 25.7326 6.76114 25.7326H6.78379C6.78379 25.7326 6.7838 25.7326 6.76114 25.71Z" stroke="#939598" stroke-width="0.811777" stroke-miterlimit="10"/>
<path d="M6.80537 25.3976C6.80537 25.3753 6.80537 25.3753 6.80537 25.3976C6.78304 25.4199 6.76071 25.4423 6.76071 25.4646C6.73837 25.487 6.69369 25.5316 6.67136 25.5763C6.64902 25.621 6.62669 25.6657 6.64902 25.688C6.64902 25.7103 6.67136 25.7103 6.67136 25.7103C6.69369 25.7103 6.69368 25.7327 6.71602 25.7327C6.67134 25.7327 6.64902 25.7103 6.64902 25.688C6.64902 25.6657 6.64902 25.6433 6.67136 25.5986C6.69369 25.554 6.71603 25.5316 6.76071 25.487C6.78305 25.4199 6.80537 25.4199 6.80537 25.3976C6.82771 25.3976 6.82771 25.3976 6.80537 25.3976Z" fill="#D3D4D6"/>
<path d="M6.73884 25.6885H6.71619V25.7111H6.73884C6.73884 25.7111 6.73886 25.7111 6.76152 25.7111C6.78418 25.7111 6.73884 25.7111 6.73884 25.6885C6.73884 25.7111 6.73884 25.6885 6.73884 25.6885Z" fill="white"/>
<path d="M6.73884 25.6885H6.71619V25.7111H6.73884C6.73884 25.7111 6.73886 25.7111 6.76152 25.7111C6.78418 25.7111 6.73884 25.7111 6.73884 25.6885Z" stroke="#939598" stroke-width="0.811777" stroke-miterlimit="10"/>
<path d="M6.9393 25.4649C6.9393 25.4202 6.96164 25.3979 6.91697 25.3755C6.87229 25.3532 6.82761 25.3979 6.82761 25.3979C6.82761 25.3979 6.82762 25.3979 6.80528 25.3979C6.80528 25.3979 6.80529 25.3979 6.78295 25.3979L6.76062 25.4202C6.76062 25.4202 6.76061 25.4202 6.78295 25.4202L6.80528 25.3979C6.80528 25.3755 6.80528 25.3979 6.82761 25.3979C6.82761 25.3979 6.87229 25.3309 6.91697 25.3532C6.96164 25.3979 6.9393 25.4425 6.9393 25.4649C6.9393 25.4872 6.9393 25.5095 6.9393 25.5095V25.5319C6.9393 25.5319 6.93929 25.5319 6.96163 25.5319C6.96163 25.5096 6.96163 25.5095 6.96163 25.5095C6.96163 25.4872 6.96164 25.4872 6.9393 25.4649C6.96164 25.4649 6.9393 25.4649 6.9393 25.4649Z" fill="#6E7072"/>
<path d="M6.96178 25.3535C6.96178 25.3312 6.96178 25.3535 6.96178 25.3535C6.96178 25.3312 7.02881 25.1748 6.87245 25.0854V25.1078C7.00647 25.1748 6.93944 25.3088 6.93944 25.3088C6.91711 25.3088 6.91712 25.3088 6.89478 25.3088C6.87244 25.3088 6.8501 25.3312 6.82776 25.3758V25.3982H6.85009C6.87243 25.3758 6.89478 25.3535 6.91711 25.3535C6.93945 25.3535 6.93944 25.3535 6.96178 25.3535C6.98411 25.3535 6.98413 25.3758 6.98413 25.3982C6.98413 25.4205 6.98413 25.4428 6.98413 25.4652V25.4875H7.00647C7.00647 25.4652 7.00647 25.4428 7.00647 25.4205C6.98413 25.3758 6.96178 25.3535 6.96178 25.3535Z" fill="#231F20"/>
<path d="M6.96211 25.4863L6.93945 25.5317L6.96211 25.4863Z" fill="white"/>
<path d="M13.5065 29.8203C13.4841 29.8203 13.4618 29.8426 13.4618 29.865C13.4618 29.8873 13.4841 29.9097 13.5065 29.9097C13.5288 29.9097 13.5511 29.8873 13.5511 29.865C13.5511 29.8426 13.5288 29.8203 13.5065 29.8203Z" fill="#F58D67"/>
<path d="M26.1491 21.0405C25.546 18.6281 24.6079 18.025 24.0048 17.556C23.4017 17.0869 23.4017 17.0869 23.1336 18.6952C22.7539 20.8618 23.2676 23.1849 23.2676 24.5698C23.2676 26.3568 22.3518 27.2279 22.4412 28.6575C22.5305 30.087 22.0168 30.5114 22.7762 30.3774C23.5357 30.2434 23.223 29.685 24.4962 29.7296C25.7471 29.7743 25.8364 29.5956 26.9532 29.1042C28.0701 28.6351 27.8468 28.0544 27.534 26.3344C27.266 24.8378 26.7522 23.4529 26.1491 21.0405Z" fill="#F0A2ED" fill-opacity="0.99"/>
<path d="M9.39648 36.7225C9.57518 36.5214 9.8879 37.1245 9.39648 36.7225V36.7225Z" fill="white"/>
<path d="M13.5958 37.347C13.5734 37.347 13.5511 37.3247 13.5287 37.3247C13.3277 37.347 13.4841 37.347 13.5958 37.347Z" fill="white"/>
<path d="M13.1937 40.2285C13.1714 40.2509 13.149 40.2509 13.149 40.2732C13.2607 40.2509 13.4171 40.2285 13.1937 40.2285Z" fill="white"/>
<path d="M17.192 38.9557C16.7676 39.4471 16.9686 38.7993 17.192 38.9557V38.9557Z" fill="#FDC3A8"/>
<path d="M11.5184 25.063C11.3843 25.2193 11.4067 25.1747 11.5184 25.063V25.063Z" fill="#F0C0B6"/>
<circle cx="13.302" cy="4.89724" r="0.359638" fill="#B91717"/>
<path d="M12.7708 21.789C13.0956 20.772 17.3709 17.2601 19.6709 15.4238C21.6602 15.9775 23.027 16.1483 24.5416 17.5515L23.3239 19.6702L20.4827 21.3653L16.8297 23.9078L13.9885 26.4504C13.312 27.0154 11.5532 28.7387 9.92962 31.1117C8.30607 33.4847 5.87074 34.2192 5.05896 34.078C5.68148 32.5625 6.09553 31.7014 6.27663 30.2642C7.0884 28.9929 7.98136 26.3656 8.30607 26.0266C8.71196 25.6028 12.365 23.0603 12.7708 21.789Z" fill="#EB75E6"/>
<path d="M4.24719 40.4529C4.24719 37.7759 5.06827 34.8757 5.47881 33.7603C11.7737 28.3225 23.976 17.8589 24.3044 17.8589C26.9319 20.8706 27.2374 24.5579 26.8268 26.231L22.3109 28.7408C21.353 31.2505 18.6667 36.2556 17.795 37.9432C16.1042 41.2163 8.65909 44.8811 4.78505 44.6359C5.05874 44.357 4.24719 43.13 4.24719 40.4529Z" fill="#F1A3EE"/>
<path d="M19.2651 35.3121C18.0474 34.9063 4.24719 41.8064 4.24719 42.2122C4.24719 43.8358 4.24719 46.0005 4.65308 45.8652L18.8592 38.5592L19.2651 35.3121Z" fill="#EB75E6"/>
<path d="M28.6004 33.6886C28.6004 35.3121 23.7298 36.2592 21.2944 36.5298L20.4827 30.0356L27.3828 25.5708C27.7887 27.6002 28.6004 32.065 28.6004 33.6886Z" fill="#F1A3EE"/>
<path d="M23.0628 31.3852C23.6889 31.3007 23.9381 31.2063 24.153 30.9329C24.2741 30.7278 24.2769 30.2542 24.5383 29.9927" stroke="#EB75E6" stroke-width="0.0811777"/>
<rect x="5.87061" y="23.5415" width="1.62355" height="4.05888" fill="#F1A3EE"/>
<path d="M6.68626 22.1439L9.65696 36.0585C9.69899 36.2547 9.89517 36.3948 10.0914 36.3808L20.5869 35.7362C20.7831 35.7222 20.9092 35.5541 20.8672 35.3719L17.5742 21.4292C17.5321 21.233 17.3359 21.0929 17.1398 21.1069L12.3054 21.4292L11.941 21.4572L6.99453 21.7795C6.78434 21.7795 6.65823 21.9477 6.68626 22.1439Z" fill="#EFDAAF"/>
<path d="M17.2356 34.5006C16.9229 34.6123 15.9471 34.8842 15.612 34.9065C13.8697 35.0182 14.3784 35.5601 13.7976 34.8677C13.4179 34.3986 13.0159 34.3986 12.7478 34.3539C11.5863 34.1753 11.4746 33.7732 10.6034 33.1701C9.95566 32.701 9.73231 32.5447 9.55361 32.9914C9.46426 33.2371 9.3749 33.6168 10.045 34.0859C10.7598 34.5773 11.0502 34.689 10.8938 34.8677C10.7375 35.0241 10.5811 35.1357 10.0227 34.8454C8.48143 33.9742 8.48144 32.1426 7.63263 32.5223C7.2529 32.701 7.7443 32.7904 8.03468 34.2869C8.14637 34.9124 8.68245 35.7835 8.92816 36.744C9.15153 37.6598 9.82166 37.9055 10.4248 37.9502C11.0279 37.9949 12.4128 37.8385 13.753 37.6152C14.7135 37.4588 16.0537 37.3471 18.0193 37.2801C18.3097 36.6993 18.1534 36.5206 17.7066 35.8729C16.9248 34.8007 17.727 34.8357 17.2356 34.5006Z" fill="#B18A67"/>
<path d="M18.8592 45.8654C19.5086 43.2677 17.7768 36.9358 16.8297 34.0946C16.8297 33.7699 18.9945 33.1475 20.0768 32.877C20.7262 33.2017 21.971 41.6712 22.5122 45.8654H18.8592Z" fill="#EB75E6"/>
</svg>
