<svg width="36" height="60" viewBox="0 0 36 60" fill="none" xmlns="http://www.w3.org/2000/svg">
<path d="M7.23344 36.6714V41.8814C7.21543 42.0477 7.14341 42.3063 7.05337 42.6204C7.03536 42.6943 7.01736 42.7497 6.98134 42.8236C6.22504 45.0407 5.41459 46.8025 4.603 49.2692C3.7914 51.7359 3.41513 52.9868 3.45193 54.0372C3.39791 54.9979 4.69164 58.2754 4.603 59.6176H3.74004C3.69101 59.2873 3.61919 59.1558 3.45193 58.9707V59.6176H0.710533L1.05697 54.6478C0.660811 51.507 2.44352 40.1632 2.98374 36.9115C3.03776 36.5605 3.09178 36.3203 3.10979 36.1725C3.1278 36.0802 3.1278 36.0432 3.1278 36.0432L6.83728 36.6159L7.23344 36.6714Z" fill="#B18A67"/>
<path d="M5.86916 26.2398C5.81251 24.8112 4.87778 23.4701 4.25462 23.8783C3.63146 24.2864 2.95166 25.3943 2.24352 27.4352C1.53538 29.476 2.07355 31.1087 1.90359 34.4615C1.73364 37.8143 0.657292 39.4178 1.1105 39.4178C1.56371 39.3887 1.1105 39.4178 1.81864 40.0009C2.52677 40.584 3.06496 40.9339 4.2263 41.4004C5.38765 41.8669 6.49232 42.2167 7.28544 41.5462C8.07855 40.8756 7.39875 40.2925 7.65368 38.0767C7.96526 35.8609 6.15242 32.4207 5.86916 26.2398Z" fill="#F0A2ED" fill-opacity="0.99"/>
<rect x="14.9517" y="22.9204" width="4.98269" height="2.98962" fill="#B18A67"/>
<path d="M24.2576 11.8005C24.2576 13.4915 22.4731 14.8618 20.292 14.8618C18.111 14.8618 16.3264 13.4915 16.3264 11.8005C16.3264 10.1095 18.111 8.73926 20.292 8.73926C22.5014 8.73926 24.2576 10.1095 24.2576 11.8005Z" fill="#72594B"/>
<path d="M20.2017 39.6516C20.0318 39.4475 19.8052 39.2434 19.3236 39.4183C18.8421 39.5933 18.3889 39.8265 18.2473 40.0306C18.0773 40.2347 18.134 40.4679 18.134 40.5845C18.134 40.7011 17.9357 40.8761 17.9923 41.0802C18.049 41.3425 18.0207 41.4883 18.0773 41.5466C18.4739 42.1006 18.6722 42.2172 19.0687 42.2464C19.4653 42.2755 19.8902 42.2755 20.2017 42.1297C20.5133 41.984 20.9382 41.5466 20.9665 41.3717C20.9948 41.1968 20.9665 40.7011 20.8249 40.4387C20.6549 40.2055 20.3717 39.8557 20.2017 39.6516Z" fill="#EF8031"/>
<path d="M18.7008 41.8085C18.6441 41.7793 18.5592 41.7502 18.5025 41.721C18.3325 41.5753 18.3892 41.4586 18.4458 41.2837C18.5591 40.963 18.1909 40.8172 18.3609 40.5257C18.5025 40.3216 18.7574 40.0592 18.9274 39.8843C19.0973 39.7093 19.3522 39.6219 19.5788 39.651C20.0321 39.6802 19.8621 40.0884 20.117 40.2924C20.2587 40.4091 20.4853 40.3799 20.5986 40.4965C20.8535 40.7589 20.4569 41.0505 20.4286 41.342C20.4286 41.5169 20.4853 41.6627 20.3153 41.7502C20.1737 41.8085 20.0037 41.7793 19.8621 41.8668C19.7205 41.9543 19.6638 42.1 19.5505 42.1584C19.3523 42.275 19.2106 42.1875 19.0973 42.0126C19.0124 41.9251 18.984 41.7793 18.899 41.6919C18.8141 41.5753 18.6725 41.4878 18.6441 41.3712C18.6158 41.2546 18.6725 41.1379 18.6441 41.0505C18.6441 40.963 18.5308 40.8172 18.5308 40.7298C18.5308 40.5548 19.0973 40.2633 19.2673 40.2633C19.4372 40.2924 19.4372 40.4674 19.5505 40.584C19.6355 40.6715 19.7771 40.7006 19.8904 40.7589C19.8904 40.9339 19.8621 41.0505 19.7771 41.2254C19.7771 41.2254 19.6355 41.4295 19.5788 41.4878C19.4089 41.6044 19.3239 41.5169 19.154 41.4586C19.0407 41.4003 18.8707 41.3712 18.8424 41.2546C18.7008 40.8755 19.3523 40.7589 19.2673 41.0505C19.5505 40.9922 19.6355 41.2254 19.3523 41.2837C19.2673 41.3129 19.0407 41.2837 18.984 41.2254C18.899 41.1088 19.0124 41.0213 19.069 40.9338" stroke="#FFE6D0" stroke-width="4.98269" stroke-miterlimit="10" stroke-linecap="round" stroke-linejoin="round"/>
<path d="M20.3719 14.9859C20.3719 14.8693 18.3891 14.432 19.0123 14.4028L14.8201 14.4611C14.7352 14.4611 13.6305 14.6069 13.6021 14.7235C13.4888 15.9772 14.1403 19.1551 12.5541 19.9423C9.52328 27.8433 26.2353 26.1523 21.9015 19.8256C20.9385 19.3592 20.032 17.9889 20.3719 14.9859Z" fill="#B18A67"/>
<path d="M22.3548 7.7271C22.0998 7.69795 21.7883 8.48513 21.6466 9.53471C21.505 10.5551 21.59 11.4298 21.8449 11.4881C22.0998 11.5172 22.4114 10.7301 22.553 9.68048C22.6947 8.63091 22.6097 7.75626 22.3548 7.7271Z" fill="#B18A67"/>
<path d="M11.1379 7.75686C10.883 7.78602 10.798 8.66066 10.9396 9.71024C11.0813 10.7307 11.3928 11.547 11.6478 11.5178C11.9027 11.4887 11.9877 10.614 11.8461 9.56447C11.7328 8.54404 11.3929 7.72771 11.1379 7.75686Z" fill="#B18A67"/>
<g opacity="0.5">
<mask id="mask0_7510_6157" style="mask-type:luminance" maskUnits="userSpaceOnUse" x="13" y="14" width="8" height="4">
<path d="M20.3721 14.459H13.6023V17.4328H20.3721V14.459Z" fill="white"/>
</mask>
<g mask="url(#mask0_7510_6157)">
<mask id="mask1_7510_6157" style="mask-type:luminance" maskUnits="userSpaceOnUse" x="13" y="14" width="8" height="4">
<path d="M20.3719 14.458H13.6021V17.4318H20.3719V14.458Z" fill="white"/>
</mask>
<g mask="url(#mask1_7510_6157)">
<path d="M19.0121 14.458L14.8199 14.5163C14.7349 14.5163 13.6302 14.6621 13.6019 14.7787C13.5736 14.9828 13.6019 14.8079 13.6019 15.0994C14.7916 16.7029 16.2645 17.461 17.4258 17.461C18.219 17.461 19.352 17.0528 20.315 15.77C20.315 15.5367 20.3434 15.3035 20.3717 15.0411C20.4 14.8953 18.3889 14.458 19.0121 14.458Z" fill="#B18A67"/>
</g>
</g>
</g>
<path d="M16.1798 0.437916C13.2056 0.467071 11.0245 2.47876 11.5344 8.45552C12.1292 15.5402 15.2167 16.9688 17.3128 16.9688C18.984 16.9688 22.2698 14.6364 21.9299 7.63918C21.6183 0.467071 20.9102 0.379606 16.1798 0.437916Z" fill="#B18A67"/>
<path d="M18.7576 0.146282C16.6048 0.0296619 15.1602 0.0296622 13.9139 0.641916C12.6676 1.25417 11.8745 2.36206 11.4496 3.12009C10.6848 4.57783 10.7131 6.64783 10.7698 7.58079C10.8264 8.51375 11.1663 8.04727 11.2513 8.65952C11.3363 9.21347 11.2797 9.126 11.4213 9.44671C11.7329 10.1464 11.6196 9.27178 11.6196 8.30966C11.6196 6.91023 11.6196 5.07347 12.9225 3.93642C14.2255 2.77023 14.4238 3.14924 15.8117 2.94516C17.228 2.74107 17.6812 2.82854 18.7009 3.26586C19.7206 3.70318 20.6554 3.84896 21.1936 4.89854C21.7318 5.94811 21.7318 6.70614 21.7034 7.87234C21.6751 9.03854 21.5052 9.59248 21.7884 9.24262C22.1283 8.83445 21.8451 7.87234 22.4116 7.87234C22.5532 7.87234 22.7515 7.87234 22.7515 7.3767C22.7515 6.23966 22.9214 4.51952 22.3832 3.41163C21.9017 2.27459 20.9103 0.262901 18.7576 0.146282Z" fill="#72594B"/>
<path d="M18.7573 0.0583098C18.2192 0.0291549 17.5677 0 17.0012 0C15.6415 0 14.7068 0.17493 13.8854 0.553944C12.5257 1.19535 11.7326 2.41986 11.3927 3.09042C10.6279 4.54817 10.6279 6.5307 10.7129 7.58028C10.7413 8.10507 10.8545 8.22169 11.0245 8.30915C11.1095 8.36746 11.1661 8.42577 11.1944 8.65901C11.2228 8.77563 11.2228 8.8631 11.2228 8.95056C11.2511 9.21296 11.2511 9.21296 11.3644 9.47535C11.4494 9.70859 11.506 9.7669 11.591 9.7669C11.6193 9.7669 11.6476 9.7669 11.676 9.73775C11.7326 9.67944 11.7326 9.47535 11.7326 8.89225C11.7326 8.71732 11.7326 8.51324 11.7326 8.30915C11.7326 6.96803 11.7326 5.13127 13.0073 3.99423C13.9703 3.14873 14.3103 3.11958 14.9901 3.09042C15.245 3.09042 15.4999 3.06127 15.8682 3.00296C16.3497 2.94465 16.7179 2.91549 17.0012 2.91549C17.6243 2.91549 18.0492 3.06127 18.729 3.35282C18.9273 3.44028 19.1539 3.52775 19.3522 3.58606C20.117 3.87761 20.7685 4.14 21.1934 4.95634C21.7315 6.00592 21.7315 6.70563 21.7032 7.90099C21.7032 8.28 21.6749 8.57155 21.6466 8.80479C21.6182 9.21296 21.6182 9.35873 21.6749 9.41704C21.7032 9.4462 21.7315 9.4462 21.7599 9.4462C21.8165 9.4462 21.8732 9.41704 21.9581 9.30042C22.0998 9.12549 22.1564 8.83394 22.1847 8.57155C22.2414 8.19254 22.2697 7.9593 22.5246 7.9593C22.7229 7.9593 22.9212 7.90099 22.9212 7.40535C22.9212 7.20127 22.9212 6.96803 22.9212 6.73479C22.9495 5.65606 22.9778 4.34408 22.5246 3.38197C21.9581 2.24493 20.9667 0.17493 18.7573 0.0583098ZM22.7513 6.73479C22.7513 6.96803 22.7513 7.20127 22.7513 7.40535C22.7513 7.81352 22.6096 7.81352 22.4963 7.81352C22.0998 7.81352 22.0431 8.22169 22.0148 8.57155C21.9864 8.80479 21.9581 9.06718 21.8165 9.21296C21.7882 9.24211 21.7882 9.24211 21.7882 9.27127C21.7882 9.1838 21.7882 9.00887 21.8165 8.83394C21.8448 8.6007 21.8731 8.28 21.8731 7.93014C21.9015 6.76394 21.9015 6.00592 21.3633 4.92718C20.9101 4.05254 20.2303 3.79014 19.4372 3.49859C19.2389 3.41113 19.0406 3.35282 18.8423 3.26535C18.1625 2.9738 17.7093 2.82803 17.0578 2.82803C16.7462 2.82803 16.4063 2.85718 15.8965 2.91549C15.5566 2.9738 15.2733 2.9738 15.0467 3.00296C14.3386 3.03211 13.9704 3.06127 12.979 3.93592C11.6477 5.13127 11.6476 6.99718 11.6476 8.36746C11.6476 8.57155 11.6476 8.77563 11.6476 8.95056C11.6476 9.1838 11.6476 9.4462 11.6476 9.59197C11.6193 9.56282 11.6193 9.50451 11.591 9.4462C11.4777 9.21296 11.4777 9.21296 11.4494 8.95056C11.4494 8.89225 11.4211 8.77563 11.4211 8.65901C11.3644 8.36746 11.2794 8.28 11.1661 8.22169C11.0528 8.16338 10.9678 8.07592 10.9395 7.60944C10.8829 6.76394 10.8262 4.66479 11.591 3.20704C11.9309 2.56563 12.6957 1.37028 14.027 0.758028C14.8201 0.379014 15.6982 0.233239 17.0578 0.233239C17.6526 0.233239 18.2758 0.262394 18.814 0.291549C20.9384 0.408169 21.9015 2.41986 22.4113 3.52775C22.8079 4.34408 22.7796 5.65606 22.7513 6.73479Z" fill="#72594B"/>
<path d="M11.1105 8.31057C11.1105 8.25195 11.081 8.25195 11.081 8.25195C11.081 8.25195 11.081 8.25195 11.1105 8.31057Z" fill="white"/>
<path d="M30.9372 59.3585C30.7672 58.0466 30.8239 55.5976 30.1441 52.3905C29.0111 47.0552 28.3596 36.1804 29.3793 33.5856C30.7956 29.9704 30.0591 25.5097 31.1638 24.431C30.5123 22.7983 28.2463 21.5446 27.4249 21.2822C24.5923 20.4076 25.0772 21.4435 22.103 20.1315C22.5279 21.4143 19.7203 23.9645 17.7658 27.2298C15.4998 24.1686 12.8372 20.2326 13.2621 19.1248C10.033 20.6408 8.19183 21.2239 4.45287 23.6146C3.17822 24.431 2.69671 26.4135 2.49844 26.8217C3.65978 27.9587 5.21766 30.9325 6.97384 34.3728C7.99356 36.3553 8.33348 44.956 6.3507 54.0815C5.86916 56.3556 5.86917 58.6005 5.89749 60H30.9656C30.9656 59.7959 30.9655 59.5918 30.9372 59.3585Z" fill="#F0A2ED" fill-opacity="0.99"/>
<path d="M7.87994 31.925C7.79496 31.925 7.73831 31.8958 7.73831 31.8083C7.73831 31.7209 7.79496 31.6042 7.87994 31.6042C7.82329 31.6042 7.79496 31.6334 7.76663 31.6917C7.7383 31.7209 7.73831 31.7792 7.73831 31.8375C7.73831 31.8666 7.76662 31.8958 7.79495 31.925C7.79495 31.925 7.85161 31.9541 7.87994 31.925C7.90826 31.9541 7.90826 31.9541 7.87994 31.925C7.90826 31.9541 7.90826 31.9541 7.87994 31.925C7.90826 31.925 7.90826 31.925 7.87994 31.925Z" fill="#231F20"/>
<path d="M7.93684 31.9545C7.85187 31.9545 7.79522 31.9253 7.79522 31.867C7.76689 31.7796 7.82355 31.6629 7.90853 31.6338C7.8802 31.6629 7.85186 31.6921 7.82354 31.7213C7.79521 31.7796 7.79522 31.8087 7.79522 31.867C7.79522 31.8962 7.82353 31.9253 7.85185 31.9545C7.85185 31.9545 7.88019 31.9545 7.93684 31.9545Z" fill="#231F20"/>
<path d="M8.24851 31.6045C8.19185 31.5753 8.13521 31.5462 8.07856 31.5753C8.16354 31.5462 8.22018 31.5753 8.24851 31.6045C8.30516 31.6628 8.30518 31.7211 8.30518 31.7794C8.30518 31.8377 8.24852 31.8669 8.19187 31.8669C8.24852 31.8377 8.30518 31.8085 8.30518 31.7502C8.3335 31.7211 8.30516 31.6336 8.24851 31.6045Z" fill="#231F20"/>
<path d="M8.19187 31.5453C8.13522 31.5161 8.10689 31.5453 8.07856 31.5744C8.10689 31.5161 8.16354 31.5453 8.19187 31.5453C8.24852 31.5744 8.30518 31.6911 8.30518 31.7785C8.30518 31.8077 8.27684 31.866 8.22019 31.8951C8.27684 31.866 8.30518 31.8368 8.30518 31.7785C8.3335 31.6619 8.27685 31.5744 8.19187 31.5453Z" fill="#231F20"/>
<path d="M8.41863 32.7711C8.41863 32.7711 8.27702 32.7419 8.33367 32.7419L8.05042 32.8003L7.96543 32.8294C7.96543 32.9169 8.05041 33.121 7.93711 33.1793C7.82381 33.7332 8.90016 33.4417 8.56026 33.0918C8.50361 33.0626 8.41863 32.9752 8.41863 32.7711Z" fill="#F0BEB4"/>
<path d="M8.90012 33.1495C8.70184 33.1203 8.70183 33.1203 8.50356 33.062C8.61686 33.4119 8.02202 33.5576 7.93705 33.1786C7.79542 33.2661 7.71043 33.3244 7.54048 33.441C7.76709 33.616 8.05035 33.6743 8.33361 33.6451C8.61686 33.616 8.84347 33.4702 9.01343 33.2661C8.9851 33.2078 8.95677 33.1495 8.90012 33.1495Z" fill="#6D9E9E"/>
<path d="M8.47498 32.2754C8.44666 32.2754 8.44666 32.3337 8.44666 32.392C8.44666 32.4503 8.47498 32.5086 8.47498 32.5086C8.50331 32.5086 8.5033 32.4503 8.5033 32.392C8.53163 32.3337 8.50331 32.2754 8.47498 32.2754Z" fill="#F0BEB4"/>
<path d="M7.73883 32.3914C7.71051 32.3914 7.73883 32.4497 7.73883 32.508C7.76716 32.5663 7.79547 32.6246 7.79547 32.6246C7.82379 32.6246 7.79547 32.5663 7.79547 32.508C7.76714 32.4497 7.73883 32.3914 7.73883 32.3914Z" fill="#F0BEB4"/>
<path d="M8.24836 32.3923L8.22004 32.4217L8.24836 32.3923C8.30501 32.3923 8.33334 32.3629 8.36167 32.3923C8.33334 32.3336 8.27668 32.3629 8.24836 32.3923Z" fill="#231F20"/>
<path d="M7.9083 32.4204C7.87997 32.4204 7.85162 32.4493 7.85162 32.4493C7.85162 32.4493 7.9083 32.3915 8.0216 32.4493C7.99328 32.4204 7.93662 32.4204 7.9083 32.4204Z" fill="#231F20"/>
<path d="M7.87998 32.333C7.87998 32.333 7.85165 32.333 7.87998 32.333C7.85165 32.3624 7.85162 32.3624 7.85162 32.3624C7.85162 32.3624 7.87996 32.333 7.93661 32.3036C7.96494 32.3036 8.0216 32.3036 8.04992 32.333C7.96495 32.2742 7.9083 32.3036 7.87998 32.333Z" fill="#231F20"/>
<path d="M8.16338 32.3341C8.19171 32.3341 8.19171 32.3341 8.16338 32.3341C8.19171 32.3341 8.19171 32.3341 8.16338 32.3341C8.19171 32.2753 8.27667 32.2459 8.36165 32.2753C8.27667 32.2166 8.22003 32.2753 8.16338 32.3341Z" fill="#231F20"/>
<path d="M8.1927 32.624C8.1927 32.624 8.16394 32.6533 8.13521 32.624C8.16394 32.624 8.16396 32.624 8.1927 32.624Z" fill="#231F20"/>
<path d="M8.0219 32.7128C8.05023 32.7716 8.13521 32.8009 8.16353 32.7716C8.24851 32.7716 8.27683 32.7128 8.30516 32.6541C8.22018 32.6541 8.22018 32.6541 8.16353 32.6834C8.13521 32.6541 8.07855 32.6834 8.0219 32.7128Z" fill="white"/>
<path d="M8.44682 32.0132C8.39017 31.9549 8.30519 31.8091 8.16357 31.8383C8.02194 31.8383 7.93694 31.8674 7.85196 31.9258C7.76698 31.9841 7.73866 32.0715 7.71033 32.1007C7.68201 32.2173 7.68201 32.3339 7.71033 32.3922C7.71033 32.4505 7.73868 32.4214 7.73868 32.4505C7.73868 32.4797 7.73868 32.4797 7.767 32.5088C7.79533 32.538 7.767 32.5088 7.767 32.4214C7.767 32.3339 7.73866 32.2173 7.82364 32.1298C7.90862 32.0424 7.90861 32.0715 7.99359 32.0424C8.07856 32.0132 8.10691 32.0132 8.19189 32.0424C8.24854 32.0715 8.33351 32.0715 8.36183 32.1298C8.41848 32.1881 8.41847 32.2465 8.41847 32.3339C8.41847 32.4214 8.4185 32.4505 8.44682 32.4214C8.47515 32.3922 8.44681 32.3339 8.47514 32.3339C8.47514 32.3339 8.50346 32.3339 8.50346 32.3048C8.50346 32.1881 8.47515 32.0715 8.44682 32.0132Z" fill="#72594B"/>
<path d="M8.50346 32.2173C8.50346 32.159 8.47515 32.0715 8.44682 32.0132C8.39017 31.9549 8.30519 31.8091 8.16357 31.8383C8.13524 31.8383 8.07858 31.8383 8.05026 31.8383C7.96528 31.8383 7.90861 31.8674 7.85196 31.8966C7.76698 31.9549 7.73866 32.0424 7.71033 32.1007C7.68201 32.2173 7.68201 32.3339 7.71033 32.3922C7.71033 32.4214 7.73868 32.4214 7.73868 32.4505C7.73868 32.4505 7.73868 32.4505 7.767 32.4797C7.767 32.4797 7.767 32.4797 7.767 32.5088C7.767 32.538 7.767 32.538 7.79532 32.538C7.79532 32.538 7.79531 32.5672 7.82364 32.5672C7.82364 32.5672 7.82364 32.538 7.82364 32.5088V32.4797C7.82364 32.3922 7.79534 32.2756 7.88031 32.1881C7.93696 32.1298 7.96526 32.1298 7.99359 32.1007C8.02191 32.1007 8.02193 32.1007 8.05026 32.1007C8.07858 32.1007 8.10689 32.0715 8.13521 32.0715C8.16354 32.0715 8.19187 32.0715 8.24852 32.0715C8.27685 32.0715 8.27687 32.0715 8.30519 32.0715C8.36185 32.0715 8.39017 32.1007 8.44682 32.1298C8.50347 32.1881 8.50346 32.2465 8.50346 32.3048C8.50346 32.3339 8.50346 32.3631 8.50346 32.3631C8.50346 32.3922 8.50346 32.3922 8.50346 32.3922C8.50346 32.3922 8.50346 32.3631 8.50346 32.3339C8.50346 32.3048 8.50345 32.3048 8.53178 32.3048C8.53178 32.3048 8.5601 32.3048 8.5601 32.2756C8.50344 32.2465 8.50346 32.2465 8.50346 32.2173ZM8.47514 32.3048C8.44681 32.3048 8.44682 32.3339 8.44682 32.3631C8.44682 32.3922 8.44682 32.3922 8.44682 32.3922V32.3631C8.44682 32.3339 8.44682 32.3339 8.44682 32.3048C8.44682 32.2173 8.41848 32.1881 8.39015 32.1007C8.36182 32.0424 8.30517 32.0424 8.24852 32.0132H8.2202C8.16355 32.0132 8.13522 31.9841 8.10689 32.0132C8.07857 32.0132 8.05026 32.0132 8.02194 32.0424C7.99361 32.0424 7.99359 32.0424 7.96527 32.0424C7.90862 32.0424 7.90861 32.0715 7.85196 32.1298C7.76698 32.2173 7.79532 32.3339 7.79532 32.4214V32.4505C7.79532 32.4797 7.79532 32.4797 7.79532 32.4797C7.79532 32.4505 7.79532 32.4505 7.79532 32.4505C7.79532 32.4505 7.79532 32.4505 7.79532 32.4214C7.79532 32.3922 7.79533 32.3922 7.767 32.3922C7.767 32.3922 7.73868 32.3922 7.73868 32.3631C7.73868 32.3048 7.71036 32.159 7.73868 32.0715C7.76701 32.0132 7.79534 31.9549 7.88031 31.8966C7.93696 31.8674 7.9936 31.8383 8.07858 31.8383C8.1069 31.8383 8.16356 31.8383 8.19189 31.8383C8.33351 31.8383 8.4185 31.9549 8.44682 32.0132C8.47515 32.0715 8.50346 32.159 8.50346 32.2173C8.50346 32.2465 8.50346 32.2465 8.50346 32.2756C8.50346 32.3048 8.50347 32.3048 8.47514 32.3048Z" fill="#72594B"/>
<path d="M8.02161 31.8376C7.99328 31.8376 7.96494 31.9251 7.96494 32.0417C7.96494 31.9543 7.99328 31.8668 8.02161 31.8376Z" fill="#231F20"/>
<path d="M7.99368 31.8376C7.93703 31.8376 7.90872 31.9251 7.93704 32.0417C7.93704 31.9834 7.93704 31.9543 7.93704 31.896C7.96537 31.896 7.96535 31.8668 7.99368 31.8376C7.99368 31.8668 7.99368 31.8668 7.99368 31.8376Z" fill="#231F20"/>
<path d="M7.90896 31.8677C7.88063 31.8968 7.85229 31.9551 7.82397 32.0135C7.82397 32.0426 7.82397 32.0718 7.82397 32.1009C7.82397 32.0718 7.79564 32.0718 7.82397 32.0135C7.85229 31.9551 7.88063 31.8968 7.90896 31.8677C7.93728 31.8677 7.90896 31.8677 7.90896 31.8677Z" fill="#231F20"/>
<path d="M7.88048 31.896C7.85215 31.9252 7.82381 31.9835 7.79549 32.0418C7.79549 32.1001 7.79549 32.1292 7.79549 32.1584C7.79549 32.1292 7.76716 32.1001 7.79549 32.0709C7.82381 31.9835 7.85215 31.9252 7.88048 31.896Z" fill="#231F20"/>
<path d="M7.82343 31.9546C7.7951 31.9837 7.79512 32.0421 7.76679 32.1004C7.76679 32.1587 7.76679 32.217 7.79511 32.2461C7.73846 32.1587 7.7951 31.9837 7.82343 31.9546Z" fill="#231F20"/>
<path d="M7.76691 32.0129C7.76691 32.0129 7.73859 32.0129 7.76691 32.0129C7.73859 32.0712 7.71027 32.1296 7.73859 32.1879C7.73859 32.2462 7.76691 32.2753 7.79523 32.3045C7.73858 32.217 7.71026 32.1587 7.76691 32.0129Z" fill="#231F20"/>
<path d="M8.05027 31.8376C8.02194 31.8376 8.02194 31.8376 8.05027 31.8376C8.02194 31.8376 8.02194 31.8376 8.05027 31.8376C8.05027 31.8376 8.05026 31.8376 8.07858 31.896C8.07858 31.9251 8.1069 31.9834 8.1069 32.0126C8.1069 31.9543 8.07858 31.9251 8.07858 31.896C8.05026 31.8376 8.05027 31.8376 8.05027 31.8376Z" fill="#231F20"/>
<path d="M8.05007 31.8376C8.0784 31.8376 8.13503 31.9251 8.13503 32.0126C8.13503 31.9251 8.10672 31.8376 8.05007 31.8376Z" fill="#231F20"/>
<path d="M8.10673 31.8376C8.13505 31.8376 8.1634 31.8668 8.1634 31.896C8.19172 31.9251 8.19171 31.9834 8.22004 32.0417C8.22004 31.9251 8.16338 31.8376 8.10673 31.8376Z" fill="#231F20"/>
<path d="M8.16358 31.8371C8.13525 31.8371 8.13525 31.8371 8.16358 31.8371C8.13525 31.8371 8.16358 31.8371 8.16358 31.8371C8.1919 31.8371 8.22021 31.8662 8.24853 31.8954C8.27686 31.9245 8.30521 31.9828 8.30521 32.0411C8.27688 31.9245 8.22023 31.8079 8.16358 31.8371Z" fill="#231F20"/>
<path d="M8.19156 31.8074C8.19156 31.8074 8.19156 31.8365 8.19156 31.8074C8.19156 31.8365 8.19156 31.8365 8.19156 31.8074C8.21988 31.8074 8.2482 31.8365 8.2482 31.8657C8.30485 31.924 8.33319 32.0406 8.33319 32.0406C8.33319 32.0115 8.30485 31.8948 8.2482 31.8365C8.2482 31.8657 8.21988 31.8074 8.19156 31.8074Z" fill="#231F20"/>
<path d="M8.24852 31.8376C8.27685 31.8668 8.30518 31.9251 8.33351 31.9834C8.36184 32.0417 8.39015 32.1 8.36183 32.1292C8.39015 32.0709 8.33351 32.0126 8.33351 31.9543C8.33351 31.896 8.27685 31.8376 8.24852 31.8376Z" fill="#231F20"/>
<path d="M8.33335 31.8677C8.39 31.926 8.41831 32.0426 8.41831 32.1009C8.41831 32.1301 8.41831 32.1592 8.38999 32.1592C8.41831 32.1592 8.41831 32.1301 8.41831 32.0718C8.41831 32.0426 8.41831 31.9843 8.38999 31.9551C8.38999 31.926 8.36168 31.8968 8.33335 31.8677Z" fill="#231F20"/>
<path d="M7.76696 32.4206C7.73863 32.4206 7.73861 32.3915 7.71029 32.3623C7.68196 32.3332 7.68197 32.2749 7.68197 32.2166C7.68197 32.2749 7.68196 32.304 7.71029 32.3623C7.73861 32.3915 7.76696 32.4206 7.76696 32.4206C7.79528 32.4206 7.79528 32.4206 7.76696 32.4206C7.79528 32.4206 7.79528 32.4206 7.76696 32.4206Z" fill="#231F20"/>
<path d="M8.47498 32.0713C8.50331 32.1588 8.47499 32.2462 8.44666 32.3045C8.47499 32.2754 8.47498 32.2462 8.47498 32.2171C8.50331 32.1879 8.47498 32.1296 8.47498 32.0713Z" fill="#231F20"/>
<path d="M7.96541 31.575C7.96541 31.575 7.96541 31.5458 7.96541 31.575C7.93709 31.575 7.88043 31.575 7.8521 31.575C7.82378 31.575 7.79547 31.6041 7.79547 31.6333C7.76714 31.6916 7.76714 31.7207 7.79547 31.7791C7.82379 31.8374 7.88044 31.8665 7.96541 31.8665C7.90876 31.8665 7.85211 31.8374 7.82379 31.7791C7.79546 31.7499 7.79546 31.6916 7.82379 31.6333C7.82379 31.6041 7.88044 31.575 7.96541 31.575Z" fill="#231F20"/>
<path d="M8.10679 31.5461C8.05014 31.5461 7.99349 31.5461 7.96516 31.5753C7.93684 31.6045 7.88021 31.6336 7.88021 31.6919C7.88021 31.7211 7.88021 31.7502 7.88021 31.7794C7.88021 31.8085 7.90851 31.8377 7.96516 31.8668C7.88019 31.8085 7.85188 31.7502 7.88021 31.6919C7.90853 31.6045 7.99349 31.5461 8.10679 31.5461C8.10679 31.5461 8.13512 31.5461 8.10679 31.5461Z" fill="#231F20"/>
<path d="M8.0219 31.5461C7.96525 31.5461 7.93692 31.5753 7.90859 31.6336C7.93692 31.5753 7.99358 31.5461 8.0219 31.5461C8.07855 31.5461 8.1352 31.6045 8.16353 31.6628C8.19185 31.7211 8.19183 31.7794 8.13518 31.8377C8.19183 31.7794 8.19185 31.6919 8.16353 31.6336C8.16353 31.5753 8.07855 31.5461 8.0219 31.5461Z" fill="#231F20"/>
<path d="M7.99368 33.0628C7.93703 33.0919 7.65378 33.2668 7.5688 33.3543C7.5688 33.3543 7.54048 33.3835 7.54048 33.4126C7.65378 33.5292 7.79542 33.5876 7.90873 33.6167C8.02203 33.6459 8.16366 33.675 8.33361 33.6459C7.9937 33.296 7.99368 33.1211 7.99368 33.0628C7.99368 33.0336 7.99368 33.0628 7.99368 33.0628Z" fill="#CCFFFF"/>
<path d="M8.89986 33.0911C8.78656 33.0328 8.55995 33.0328 8.5033 33.0037C8.47497 33.0037 8.5033 33.0328 8.5033 33.0328C8.5033 33.0911 8.55996 33.3827 8.44666 33.6159C8.53164 33.6159 8.67326 33.5576 8.75824 33.4993C8.87154 33.441 8.98483 33.3244 9.06981 33.2077C9.04148 33.2077 8.89986 33.0911 8.89986 33.0911Z" fill="#CCFFFF"/>
<path d="M8.1352 33.4702C8.10687 33.4702 8.07856 33.4994 8.07856 33.5577C8.07856 33.5868 8.1069 33.616 8.16355 33.616C8.19188 33.616 8.22019 33.5868 8.22019 33.5285C8.22019 33.4994 8.19185 33.4702 8.1352 33.4702Z" fill="white"/>
<path d="M8.1352 33.4702C8.10687 33.4702 8.07856 33.4996 8.07856 33.529C8.07856 33.5584 8.10687 33.5877 8.1352 33.5877C8.16352 33.5877 8.19187 33.5584 8.19187 33.529C8.22019 33.4996 8.19185 33.4702 8.1352 33.4702Z" fill="#BCBEC0"/>
<path d="M8.13536 33.5293C8.05039 33.4419 7.96542 33.3836 7.9371 33.2669C7.9371 33.2669 7.90878 33.1795 7.90878 33.1212C7.90878 33.0337 7.93709 32.9754 7.96542 32.9171V32.8879C7.93709 32.9171 7.90878 32.9462 7.90878 32.9754C7.88045 33.0629 7.88045 33.1503 7.90878 33.2378C7.90878 33.2378 7.90878 33.2378 7.90878 33.2669C7.9371 33.2961 7.96541 33.3544 7.99373 33.4127C8.05039 33.4419 8.07871 33.5002 8.13536 33.5293C8.13536 33.5585 8.13536 33.5585 8.13536 33.5293C8.16369 33.5293 8.13536 33.5293 8.13536 33.5293Z" fill="#231F20"/>
<path d="M8.16446 33.5291C8.13496 33.5291 8.13496 33.5291 8.16446 33.5291C8.13496 33.5584 8.16446 33.5877 8.16446 33.5877C8.16446 33.5877 8.19397 33.5584 8.16446 33.5291Z" fill="white"/>
<path d="M8.163 33.5291C8.13545 33.5291 8.13545 33.5291 8.163 33.5291C8.13545 33.5564 8.163 33.5564 8.163 33.5564C8.163 33.5564 8.163 33.5564 8.163 33.5291Z" fill="#939598"/>
<path d="M8.55977 33.2368C8.53145 33.266 8.53145 33.2951 8.53145 33.3243C8.53145 33.3826 8.50314 33.4409 8.50314 33.4992C8.47481 33.5575 8.44647 33.5867 8.41814 33.6158C8.38982 33.6158 8.36152 33.6158 8.30487 33.5867C8.3332 33.6158 8.36151 33.6158 8.36151 33.6158C8.38983 33.6158 8.38982 33.6158 8.41814 33.6158C8.44647 33.6158 8.47481 33.5575 8.50314 33.4992C8.53146 33.4409 8.53145 33.3826 8.53145 33.3243C8.55978 33.2951 8.55977 33.266 8.55977 33.2368Z" fill="#D8DADB"/>
<path d="M8.30568 33.5579C8.27694 33.5579 8.27694 33.5579 8.30568 33.5579C8.27694 33.5872 8.27694 33.5872 8.30568 33.5872H8.33441C8.33441 33.5872 8.33441 33.5872 8.30568 33.5579C8.30568 33.5579 8.33441 33.5579 8.30568 33.5579Z" fill="white"/>
<path d="M8.30568 33.5579C8.27694 33.5579 8.27694 33.5579 8.30568 33.5579ZM8.30568 33.5579C8.27694 33.5872 8.27694 33.5872 8.30568 33.5872H8.33441C8.33441 33.5872 8.33441 33.5872 8.30568 33.5579Z" stroke="#939598" stroke-width="0.996539" stroke-miterlimit="10"/>
<path d="M8.36193 33.15C8.36193 33.1209 8.36193 33.1209 8.36193 33.15C8.33361 33.1792 8.30529 33.2084 8.30529 33.2375C8.27697 33.2667 8.22031 33.325 8.19198 33.3833C8.16366 33.4416 8.13534 33.4999 8.16367 33.5291C8.16367 33.5582 8.19198 33.5582 8.19198 33.5582C8.22031 33.5582 8.2203 33.5874 8.24862 33.5874C8.19197 33.5874 8.16367 33.5582 8.16367 33.5291C8.16367 33.4999 8.16366 33.4707 8.19198 33.4124C8.22031 33.3541 8.24864 33.325 8.30529 33.2667C8.33362 33.1792 8.36193 33.1792 8.36193 33.15C8.39026 33.15 8.39026 33.15 8.36193 33.15Z" fill="#D3D4D6"/>
<path d="M8.27725 33.5291H8.24852V33.5584H8.27725C8.27725 33.5584 8.27728 33.5584 8.30601 33.5584C8.33475 33.5584 8.27725 33.5584 8.27725 33.5291C8.27725 33.5291 8.27725 33.5584 8.27725 33.5291Z" fill="white"/>
<path d="M8.27725 33.5291H8.24852V33.5584H8.27725C8.27725 33.5584 8.27728 33.5584 8.30601 33.5584C8.33475 33.5584 8.27725 33.5584 8.27725 33.5291Z" stroke="#939598" stroke-width="0.996539" stroke-miterlimit="10"/>
<path d="M8.53145 33.2372C8.53145 33.1789 8.55979 33.1497 8.50314 33.1206C8.44648 33.0914 8.38983 33.1497 8.38983 33.1497C8.38983 33.1497 8.38983 33.1497 8.36151 33.1497C8.36151 33.1497 8.36151 33.1497 8.33319 33.1497L8.30487 33.1789C8.30487 33.1789 8.30486 33.1789 8.33319 33.1789L8.36151 33.1497C8.36151 33.1206 8.3615 33.1497 8.38983 33.1497C8.38983 33.1497 8.44648 33.0622 8.50314 33.0914C8.55979 33.1497 8.53145 33.208 8.53145 33.2372C8.53145 33.2663 8.53145 33.2955 8.53145 33.2955V33.3246C8.53145 33.3246 8.53145 33.3246 8.55977 33.3246C8.55977 33.2955 8.55977 33.2955 8.55977 33.2955C8.55977 33.2663 8.55978 33.2663 8.53145 33.2372C8.53145 33.2372 8.55978 33.2372 8.53145 33.2372Z" fill="#6E7072"/>
<path d="M8.55995 33.0918C8.55995 33.0918 8.55995 33.0626 8.55995 33.0918C8.55995 33.0626 8.64496 32.8586 8.44668 32.7419V32.7711C8.61663 32.8586 8.53163 33.0335 8.53163 33.0335C8.50331 33.0335 8.50332 33.0335 8.475 33.0335C8.44667 33.0335 8.41833 33.0626 8.39001 33.121V33.1501H8.41833C8.44665 33.121 8.47499 33.0918 8.50332 33.0918C8.53164 33.0918 8.53163 33.0918 8.55995 33.0918C8.58828 33.0918 8.58831 33.121 8.58831 33.1501C8.58831 33.1793 8.58831 33.2084 8.58831 33.2376V33.2667H8.61662C8.61662 33.2376 8.61662 33.2084 8.61662 33.1793C8.5883 33.121 8.55995 33.0918 8.55995 33.0918Z" fill="#231F20"/>
<path d="M8.5613 33.2651L8.5318 33.3238L8.5613 33.2651Z" fill="white"/>
<path d="M16.8592 38.9224C16.8309 38.9224 16.8026 38.9517 16.8026 38.9811C16.8026 39.0105 16.8309 39.0399 16.8592 39.0399C16.8876 39.0399 16.9159 39.0105 16.9159 38.9811C16.9159 38.9517 16.8876 38.9224 16.8592 38.9224Z" fill="#F58D67"/>
<path d="M32.8917 27.4631C32.1269 24.3143 30.9372 23.5272 30.1724 22.9149C29.4076 22.3027 29.4076 22.3027 29.0677 24.4018C28.5862 27.2298 29.2377 30.262 29.2377 32.0696C29.2377 34.402 28.0763 35.539 28.1896 37.4049C28.303 39.2708 27.6515 39.8248 28.6145 39.6498C29.5776 39.4749 29.181 38.746 30.7956 38.8043C32.3818 38.8627 32.4951 38.6294 33.9114 37.988C35.3277 37.3758 35.0444 36.6177 34.6479 34.3728C34.308 32.4194 33.6565 30.6118 32.8917 27.4631Z" fill="#F0A2ED" fill-opacity="0.99"/>
<path d="M11.6476 47.9317C12.2707 48.4565 11.8742 47.6693 11.6476 47.9317Z" fill="white"/>
<path d="M16.9728 48.7459C16.9445 48.7459 16.9161 48.717 16.8878 48.717C16.6329 48.7459 16.8312 48.7459 16.9728 48.7459Z" fill="white"/>
<path d="M16.463 52.5076C16.4346 52.5365 16.4063 52.5365 16.4063 52.5654C16.548 52.5365 16.7462 52.5076 16.463 52.5076Z" fill="white"/>
<path d="M21.5332 50.8461C21.2499 50.642 20.995 51.4875 21.5332 50.8461Z" fill="#FDC3A8"/>
<path d="M14.3383 32.7129C14.1967 32.8598 14.1683 32.9185 14.3383 32.7129Z" fill="#F0C0B6"/>
<circle cx="16.102" cy="6.0118" r="0.441492" fill="#B91717"/>
<path d="M15.4501 26.7483C15.8487 25.4998 21.0971 21.1885 23.9206 18.9343C26.3627 19.614 28.0406 19.8237 29.8999 21.5462L28.4051 24.1472L24.9172 26.2281L20.4328 29.3493L16.9449 32.4705C16.1144 33.1641 13.9553 35.2796 11.9622 38.1928C9.9691 41.1059 6.97948 42.0076 5.98294 41.8342C6.74714 39.9738 7.25544 38.9167 7.47775 37.1524C8.47429 35.5918 9.57048 32.3665 9.9691 31.9503C10.4674 31.4301 14.9518 28.3089 15.4501 26.7483Z" fill="#EB75E6"/>
<path d="M4.98611 49.6603C4.98611 46.374 5.99406 42.8137 6.49804 41.4444C14.2257 34.769 29.2052 21.9238 29.6084 21.9238C32.8339 25.621 33.2089 30.1475 32.7049 32.2015L27.1612 35.2825C25.9852 38.3634 22.6876 44.5077 21.6174 46.5794C19.5418 50.5974 10.4022 55.0964 5.64638 54.7953C5.98236 54.453 4.98611 52.9467 4.98611 49.6603Z" fill="#F1A3EE"/>
<path d="M23.4221 43.3495C21.9273 42.8512 4.98611 51.3218 4.98611 51.8201C4.98611 53.8132 4.98611 56.4706 5.48438 56.3045L22.9238 47.3357L23.4221 43.3495Z" fill="#EB75E6"/>
<path d="M34.8823 41.3565C34.8823 43.3496 28.9031 44.5122 25.9135 44.8444L24.917 36.8721L33.3875 31.3911C33.8858 33.8825 34.8823 39.3634 34.8823 41.3565Z" fill="#F1A3EE"/>
<path d="M28.0844 38.5288C28.8531 38.4251 29.159 38.3093 29.4229 37.9736C29.5714 37.7218 29.5749 37.1405 29.8959 36.8195" stroke="#EB75E6" stroke-width="0.0996539"/>
<rect x="6.97916" y="28.8997" width="1.99308" height="4.98269" fill="#F1A3EE"/>
<path d="M8.21072 28.9033L11.9779 47.0651C12.0312 47.3212 12.2799 47.5041 12.5287 47.4858L25.8381 46.6445C26.0869 46.6262 26.2468 46.4067 26.1935 46.1689L22.0176 27.9705C21.9643 27.7145 21.7156 27.5316 21.4668 27.5498L15.3363 27.9705L14.8743 28.0071L8.60165 28.4278C8.33511 28.4278 8.17518 28.6472 8.21072 28.9033Z" fill="#EFDAAF"/>
<path d="M21.5885 45.0312C21.1919 45.177 19.9545 45.5318 19.5296 45.561C17.3202 45.7068 17.9653 46.4141 17.2288 45.5103C16.7473 44.8981 16.2374 44.8981 15.8975 44.8398C14.4246 44.6065 14.2829 44.0817 13.1782 43.2945C12.3568 42.6823 12.0736 42.4782 11.847 43.0613C11.7337 43.382 11.6203 43.8776 12.4701 44.4899C13.3765 45.1313 13.7448 45.2771 13.5465 45.5103C13.3482 45.7144 13.1499 45.8602 12.4418 45.4812C10.4873 44.3441 10.4873 41.9534 9.41098 42.4491C8.92944 42.6823 9.55258 42.7989 9.92082 44.7523C10.0624 45.5686 10.7423 46.7057 11.0538 47.9593C11.3371 49.1547 12.1869 49.4754 12.9517 49.5337C13.7165 49.592 15.4726 49.3879 17.1722 49.0964C18.3902 48.8923 20.0897 48.7465 22.5823 48.6591C22.9506 47.901 22.7523 47.6678 22.1858 46.8223C21.1944 45.4229 22.2116 45.4685 21.5885 45.0312Z" fill="#B18A67"/>
<path d="M22.9238 56.3045C23.721 53.1156 21.5951 45.3426 20.4324 41.8547C20.4324 41.4561 23.0899 40.692 24.4186 40.3599C25.2158 40.7585 26.7438 51.1557 27.4082 56.3045H22.9238Z" fill="#EB75E6"/>
</svg>
