<svg width="44" height="60" viewBox="0 0 44 60" fill="none" xmlns="http://www.w3.org/2000/svg">
<path d="M26.0421 39.234C24.0324 39.9569 24.7091 40.7224 24.7091 40.7224L24.7912 41.6154L25.0577 44.337C25.0577 44.337 26.3497 44.2945 28.2773 43.9756C31.8455 43.3802 37.5669 41.8706 41.0326 38.0646C42.5911 36.3636 43.6985 34.1948 43.9446 31.4306C44.3752 26.8379 42.222 23.6485 39.9252 21.5222C39.4331 21.0757 38.9409 20.6717 38.4692 20.3315C37.3824 21.3096 34.655 23.2445 30.4511 22.8405C26.7188 22.479 25.5294 19.2684 25.2013 18.0352C24.9142 18.0777 24.6271 18.1415 24.3605 18.184C23.4377 18.3541 22.5559 18.5455 21.8997 18.7368C20.2591 19.2046 18.2085 20.5229 16.4038 23.0319C16.2193 23.9036 16.0347 24.8179 15.8707 25.7535L24.0119 27.8798L26.0421 39.234Z" fill="#F0CE88"/>
<path d="M40.4554 38.3257C40.3064 40.4261 40.3703 42.7524 40.6681 44.74C40.9234 46.4791 41.0511 48.7376 41.1149 50.6122C37.5193 52.8256 33.0087 54.4292 26.6897 54.8583V43.4752C31.5406 42.888 36.8171 41.5328 40.4554 38.3257Z" fill="#F0CE88"/>
<path d="M42.2406 59.8409L40.7713 47.1687L17.6308 48.8583L16.8962 59.8409H42.2406Z" fill="#F0CE88"/>
<path d="M24.5259 17.904C24.8648 19.2722 26.0933 22.8342 29.9482 23.2352C34.2903 23.6834 37.1073 21.5368 38.2299 20.4517C36.4719 19.0599 34.9045 18.305 34.5868 18.0456C34.0785 17.6445 33.7608 16.5594 33.6125 15.781C32.7441 16.2292 31.325 16.6538 30.626 16.6302C30.4354 16.6302 30.1177 16.5123 29.7364 16.3C29.567 16.6302 29.2916 16.9841 28.9739 17.0784C28.5926 17.1728 26.5593 17.503 24.5259 17.904Z" fill="#E9AA86"/>
<path d="M31.4315 17.2842C32.2494 17.2842 33.9098 16.8721 34.9259 16.4115C35.1489 16.3146 35.3224 16.2176 35.4711 16.1207C36.8341 15.248 37.4537 13.4056 37.4537 13.4056C39.3371 12.7511 39.7832 11.0542 38.8167 10.5936C37.8502 10.133 37.0571 10.9088 37.0571 10.9088C35.1985 10.0361 35.3967 8.77551 35.3967 8.77551C31.2085 9.45427 30.4155 6.4241 30.4155 6.4241C27.5159 6.06048 27.5159 4.50903 27.5159 4.50903C27.392 6.44834 25.6077 7.58769 25.6077 7.58769C25.6077 7.58769 25.682 12.0481 26.252 13.5511C26.6981 14.7631 28.4824 17.2842 31.4315 17.2842Z" fill="#E9AA86"/>
<path d="M33.9024 16.157C34.0567 16.9319 34.8821 18.3879 35.345 18.7872L30.2961 16.9085C30.9325 16.9319 33.0925 16.6032 33.9024 16.157Z" fill="#BE9285"/>
<path d="M40.3327 41.6395L28.8534 43.5861C32.0432 43.0067 36.9397 41.6163 40.3936 38.3257C40.3123 39.3917 40.292 40.5272 40.3327 41.6395Z" fill="#D68480"/>
<path d="M32.2099 24.0474C33.5238 24.0474 34.8747 23.6053 36.022 22.7487C36.059 22.7211 36.0775 22.6658 36.059 22.6105C36.0405 22.5553 36.0035 22.5276 35.9665 22.5553C34.0604 23.9645 31.5992 24.2408 29.6747 23.1908C29.6377 23.1632 29.6007 23.1908 29.5821 23.2461C29.5636 23.3013 29.5821 23.3566 29.6192 23.3842C30.4149 23.8263 31.3031 24.0474 32.2099 24.0474Z" fill="#D68480"/>
<path d="M32.0325 23.2324H1.05601C3.41856 32.0477 2.93736 38.5888 -7.83781e-06 52.0969H30.2725C32.5507 41.1293 33.9347 35.0007 32.0325 23.2324Z" fill="#EAE5D8"/>
<path d="M15.5635 43.3867C15.1138 43.989 17.636 45.1403 18.4768 45.0872C19.3175 45.034 21.9571 44.5027 21.9571 44.5027C22.0939 44.4672 21.8789 42.3948 21.8007 42.2177C21.742 42.1114 21.6834 42.0051 21.5856 41.9166C21.4487 41.7926 21.2728 41.7217 21.0968 41.6686C20.7644 41.58 20.432 41.5623 20.0996 41.5446C19.3762 41.4915 18.6723 41.4206 17.9684 41.332C17.8707 41.3143 17.988 41.7749 18.0075 41.8103C18.1053 41.9697 18.2617 42.0937 18.4377 42.1823C18.731 42.3771 19.0829 42.5188 19.4153 42.6428C19.3762 42.6428 15.8763 42.9793 15.5635 43.3867Z" fill="#E9AA86"/>
<path d="M42.2942 25.2614C39.575 21.2958 35.4009 23.839 35.8779 28.3864C36.355 32.9554 35.7348 34.3778 31.7038 37.352C27.6727 40.3477 21.2803 40.9727 21.2803 40.9727L21.6381 45.0891C21.6381 45.0891 28.9846 44.6365 34.8761 41.727C40.7676 38.8175 43.129 35.9296 43.5345 32.3735C43.9161 28.7959 43.2006 26.5761 42.2942 25.2614Z" fill="#F0CE88"/>
<path d="M27.1343 39.8286C31.5676 38.6792 35.6437 35.0986 36.4211 31.6728C36.4421 31.6286 36.4001 31.5844 36.3581 31.5623C36.3161 31.5623 36.274 31.5844 36.253 31.6286C35.4756 35.0102 31.4626 38.5245 27.1133 39.6517C27.0713 39.6738 27.0503 39.7181 27.0503 39.7623C27.0503 39.8065 27.0923 39.8286 27.1343 39.8286Z" fill="#D68480"/>
<path d="M24.169 18.3339C24.4549 18.2691 24.7204 18.2258 25.0063 18.1826C26.9667 17.8151 28.9272 17.5124 29.2744 17.4259C29.5807 17.3611 29.8257 17.0152 30.0095 16.7125C28.8047 16.1288 26.9667 14.7668 26.6196 13.7507C26.1499 12.4103 26.0886 8.43237 26.0886 8.43237C26.0886 8.43237 27.559 7.39465 27.6611 5.68674C27.6611 5.68674 27.6611 7.04874 30.0504 7.39465C30.0504 7.39465 30.7038 10.097 34.155 9.49171C34.155 9.49171 33.9917 10.5943 35.5233 11.3942C35.5233 11.3942 36.1768 10.7024 36.9732 11.1131C37.7696 11.5239 37.402 13.0372 35.85 13.621C35.85 13.621 35.3395 15.264 34.2163 16.0423C34.0938 16.1288 33.9304 16.2153 33.767 16.3017C33.9304 17.0152 34.2163 18.0096 34.7064 18.3772C35.0127 18.5934 36.5239 19.2852 38.2189 20.5823C38.6886 20.9498 39.1787 21.339 39.6688 21.793C44.0594 19.8905 42.1398 16.8206 42.1398 16.8206C43.3651 14.529 41.2821 13.0156 41.2821 13.0156C41.2821 13.0156 42.977 5.01655 37.6267 1.47101C32.2763 -2.07453 28.6821 1.90339 28.6821 1.90339C28.6821 1.90339 26.5175 1.16834 25.0267 2.78978C23.536 4.41121 21.7185 10.7456 24.6387 15.2208C24.6591 15.1343 23.2296 16.2369 24.169 18.3339Z" fill="#634240"/>
<path d="M34.2659 9.01795C34.8417 9.01795 35.4366 8.85284 35.9932 8.54622C36.0508 8.49905 36.0892 8.4283 36.0508 8.33395C36.0124 8.26319 35.9548 8.21602 35.8781 8.26319C35.1679 8.66416 34.3811 8.80567 33.6901 8.66415C32.9416 8.49905 32.2699 7.95657 31.886 7.22541C31.7325 6.91879 31.6365 6.58858 31.5214 6.25838C31.4446 5.99893 31.3678 5.76307 31.2527 5.50362C30.8688 4.53659 29.9668 3.59315 28.9688 3.78184C28.892 3.80542 28.8536 3.87618 28.8536 3.97053C28.8728 4.06487 28.9304 4.11204 29.0072 4.11204C29.89 3.94694 30.6769 4.81963 31.0224 5.66872C31.1183 5.90458 31.1951 6.14045 31.2719 6.39989C31.387 6.75368 31.5022 7.10747 31.6557 7.43768C32.0588 8.23961 32.8073 8.82926 33.6326 9.01795C33.8437 8.99436 34.0548 9.01795 34.2659 9.01795Z" fill="#513433"/>
<path d="M39.2402 12.7754C39.2815 12.7754 39.3229 12.753 39.3643 12.7083C39.8816 11.7474 39.7367 10.3619 39.0126 9.35622C38.4539 8.55171 37.5642 7.94833 36.3435 7.47904C36.2401 7.43434 36.1366 7.41199 36.0332 7.3673C35.5366 7.18852 35.0193 7.00974 34.6262 6.65218C34.1917 6.27228 33.902 5.73594 33.5917 5.17725C33.2606 4.59622 32.9296 3.97049 32.4123 3.56824C31.9778 3.23303 31.3778 3.0319 30.7157 3.00955C30.1157 2.9872 29.5364 3.07659 28.9777 3.18833C28.895 3.21068 28.8536 3.27772 28.8536 3.36711C28.8743 3.4565 28.9363 3.50119 29.0191 3.50119C29.5777 3.4118 30.1364 3.30007 30.7157 3.32241C31.3364 3.34476 31.8744 3.52354 32.2675 3.83641C32.7434 4.21631 33.0537 4.775 33.3848 5.35603C33.6951 5.91472 34.0055 6.49575 34.4814 6.898C34.9159 7.27791 35.4538 7.47904 35.9711 7.65782C36.0745 7.70251 36.178 7.72486 36.2814 7.76955C37.4608 8.2165 38.2884 8.79754 38.8264 9.55735C39.4885 10.4736 39.6126 11.725 39.1574 12.5743C39.116 12.6413 39.1367 12.7307 39.1988 12.7754C39.1988 12.753 39.2195 12.7754 39.2402 12.7754Z" fill="#513433"/>
<path d="M40.8717 11.2722C40.9305 11.2722 40.9892 11.2285 40.9892 11.163C41.3416 9.61278 40.8913 7.99702 40.4018 6.62144C39.9907 5.46421 39.4816 4.24147 38.6397 3.32442C37.6999 2.29819 36.3294 1.66499 34.7631 1.53398C33.2947 1.40297 31.8263 1.70866 30.5732 2.03618L30.5145 2.05801C30.2404 2.12351 29.9663 2.18902 29.6922 2.21085C29.6139 2.21085 29.5747 2.27636 29.5747 2.3637C29.5747 2.45103 29.6335 2.4947 29.7118 2.4947C30.0055 2.47287 30.2796 2.38553 30.5732 2.32003L30.632 2.29819C31.8655 1.99251 33.3143 1.68682 34.7435 1.81783C36.2511 1.94884 37.5629 2.56021 38.4635 3.52093C39.2663 4.39431 39.7557 5.57338 40.1669 6.70878C40.6368 8.04068 41.0871 9.61277 40.7347 11.0757C40.7151 11.163 40.7542 11.2285 40.8326 11.2504C40.8521 11.2722 40.8521 11.2722 40.8717 11.2722Z" fill="#513433"/>
<path d="M24.651 9.01793H24.6682C25.634 8.71111 26.479 7.62542 26.8411 6.13851C26.8584 6.0677 26.8756 5.9733 26.8929 5.90249C26.9963 5.47766 27.0998 5.02923 27.3585 4.79321C27.4102 4.74601 27.4275 4.6516 27.393 4.58079C27.3585 4.50999 27.2895 4.48639 27.2378 4.53359C26.9274 4.81681 26.8067 5.31245 26.6859 5.80809C26.6687 5.87889 26.6514 5.9497 26.6342 6.0441C26.2893 7.43661 25.5133 8.45148 24.6165 8.7347C24.5475 8.75831 24.513 8.82911 24.5303 8.92352C24.5475 8.97072 24.5993 9.01793 24.651 9.01793Z" fill="#513433"/>
<path d="M23.2145 9.76945C23.2939 9.76945 23.3535 9.70549 23.3535 9.62022C23.2741 8.17057 23.5919 6.74224 24.2474 5.63369C24.9626 4.41855 26.075 3.56581 27.3066 3.28868C27.386 3.26736 27.4257 3.2034 27.4059 3.11813C27.386 3.03285 27.3264 2.99022 27.247 3.01154C25.9558 3.28867 24.7838 4.20536 24.0289 5.48446C23.3337 6.65697 23.0158 8.12794 23.0953 9.64154C23.0754 9.72681 23.135 9.76945 23.2145 9.76945Z" fill="#513433"/>
<path d="M24.721 18.0357H24.7439C24.8355 18.0059 24.8812 17.9165 24.8584 17.7972C24.7668 17.2008 24.8584 16.5447 25.0644 16.0079C25.362 15.2624 25.8886 14.7853 26.5525 14.666C26.644 14.666 26.6898 14.5467 26.6898 14.4572C26.6669 14.338 26.5982 14.2783 26.5296 14.2783C25.7741 14.3976 25.1789 14.9642 24.8126 15.7992C24.5607 16.4254 24.4692 17.1411 24.5607 17.827C24.5836 17.9761 24.6294 18.0357 24.721 18.0357Z" fill="#513433"/>
<path d="M25.162 13.5269C25.1753 13.5269 25.2019 13.5269 25.2152 13.5073C25.2551 13.468 25.2551 13.3698 25.2285 13.3305C24.7233 12.4071 24.5637 11.0909 24.8429 9.95145C24.8562 9.89251 24.8296 9.81393 24.7897 9.77464C24.7499 9.755 24.6967 9.79429 24.6701 9.85322C24.3776 11.0516 24.5371 12.4857 25.0823 13.4877C25.1089 13.5073 25.1354 13.5269 25.162 13.5269Z" fill="#513433"/>
</svg>
