<svg width="28" height="60" viewBox="0 0 28 60" fill="none" xmlns="http://www.w3.org/2000/svg">
<path d="M22.0537 6.30928C22.0537 6.30928 21.9337 6.76832 21.6424 7.10835C21.4711 7.29537 21.2654 7.44838 20.9741 7.44838L17.7526 2.12689C17.7526 2.12689 17.9411 1.90587 18.2838 1.75286C18.7293 1.54884 19.4148 1.41283 20.3401 1.83787C20.3572 1.83787 22.602 3.21499 22.0537 6.30928Z" fill="#513433"/>
<path d="M14.5484 28.0372C12.2008 27.1701 11.0527 20.5225 11.0527 20.5225C11.601 20.4205 11.978 20.1994 12.2351 19.9104C12.355 19.7914 12.4407 19.6724 12.5264 19.5364C12.5606 19.4854 12.5949 19.4174 12.6121 19.3664C12.8691 18.8223 12.852 18.2783 12.852 18.2783L18.1298 17.1392C18.0098 17.7682 17.9927 18.2783 18.0441 18.7033C18.0784 19.0433 18.1641 19.3154 18.2669 19.5364C18.3697 19.7574 18.5068 19.9274 18.6439 20.0634C18.9695 20.3525 19.2779 20.4035 19.2779 20.4035C19.8262 21.7296 14.5484 28.0372 14.5484 28.0372Z" fill="#B18A67"/>
<path d="M19.1236 15.473C17.2901 19.9444 12.989 18.6523 12.989 18.6523C10.3329 18.0063 9.4247 14.912 9.16766 12.0217C8.92776 9.21645 9.16766 6.92124 9.16766 6.92124C11.1554 2.50083 18.6267 5.96915 18.6267 5.96915C19.4149 7.65231 19.7919 9.16544 19.9118 10.4576C20.2032 13.5859 19.1236 15.473 19.1236 15.473Z" fill="#B18A67"/>
<path d="M18.0268 18.7204C15.9876 20.6416 13.263 19.8255 13.263 19.8255C12.9888 19.7575 12.7489 19.6725 12.5262 19.5535C12.5604 19.5025 12.5947 19.4345 12.6118 19.3835C12.8689 18.8394 12.8518 18.2954 12.8518 18.2954L18.1296 17.1562C18.0096 17.7853 17.9925 18.2954 18.0268 18.7204Z" fill="#7E4F42"/>
<path d="M11.8921 24.0247C11.8921 24.0247 15.0623 24.6027 17.7355 23.8376L14.5311 28.207C14.5482 28.207 11.995 25.6058 11.8921 24.0247Z" fill="white"/>
<path d="M22.6365 41.7915L22.5165 42.3865C22.5165 42.3865 22.9278 43.1006 23.3905 44.0527C23.6989 44.6987 24.0416 45.4298 24.3158 46.1439C24.47 46.5179 24.59 46.8919 24.6756 47.232C24.7442 47.521 24.7956 47.793 24.8127 48.014L25.3954 59.9831H4.35251C4.12974 56.4128 3.64994 46.7899 4.88372 44.2397L5.1579 39.8533L5.17503 39.6833V39.6153L5.22644 38.8162C5.2093 38.8162 5.19217 38.8162 5.17503 38.8162C4.86659 38.8332 3.51285 38.8842 1.73072 38.0681C1.18237 37.8301 0.616891 37.5071 0 37.082C0 37.082 1.69645 24.5179 4.90086 22.5967L9.80171 20.9476L10.8127 20.6075L11.0526 20.5225C11.0698 20.6245 11.4296 22.2907 12.1322 24.0588C12.7319 25.538 13.5716 27.0851 14.6854 27.8502C14.7197 27.7992 16.1763 25.878 17.4443 23.9058C17.4614 23.8888 17.4786 23.8548 17.4957 23.8378C18.3182 22.5457 19.0551 21.2366 19.2607 20.4205V20.4035C19.2778 20.3525 19.2778 20.3015 19.295 20.2505C19.295 20.2505 19.5349 20.4375 19.9461 20.6755C20.4088 20.9476 21.1114 21.2706 21.8996 21.4236C21.8996 21.4236 26.6291 22.5287 27.0918 26.5751L27.9657 40.1763L26.8348 40.2613L22.8764 40.5844H22.8421L22.6365 41.7915Z" fill="#7DC9D6"/>
<g opacity="0.2">
<mask id="mask0_7510_6250" style="mask-type:luminance" maskUnits="userSpaceOnUse" x="4" y="42" width="21" height="13">
<path d="M24.6756 42.5225H4.8665V54.1515H24.6756V42.5225Z" fill="white"/>
</mask>
<g mask="url(#mask0_7510_6250)">
<path d="M24.6926 47.249C24.5212 47.419 24.2642 47.589 23.8701 47.691C22.9961 47.912 19.8089 48.5751 19.1234 50.0882C18.438 51.6014 16.039 53.9816 14.2568 54.1516C12.4919 54.3216 10.9325 51.5844 10.9325 51.5844L15.9362 47.929L8.05366 47.453C7.86517 47.215 8.68769 44.6477 8.68769 44.6477C6.85415 45.1068 5.02062 44.3077 4.88353 44.2567H4.90067L10.1785 42.5396L23.4245 44.0867C23.733 44.7328 24.0757 45.4638 24.3499 46.1779C24.4698 46.5349 24.6069 46.909 24.6926 47.249Z" fill="#231F20"/>
</g>
</g>
<g opacity="0.2">
<mask id="mask1_7510_6250" style="mask-type:luminance" maskUnits="userSpaceOnUse" x="5" y="34" width="7" height="5">
<path d="M11.5154 34.2427H5.19223V38.187H11.5154V34.2427Z" fill="white"/>
</mask>
<g mask="url(#mask1_7510_6250)">
<path d="M5.19223 34.2427C5.19223 34.2427 7.98538 35.7558 11.5154 35.0588L10.4529 38.051C10.4529 38.051 5.4664 38.5781 5.2265 37.439L5.34645 35.6708L5.19223 34.2427Z" fill="#3A2D26"/>
</g>
</g>
<path d="M5.65466 56.7528C5.44903 56.7528 5.22627 56.7528 4.96923 56.7358C4.90068 56.7358 4.86641 56.6848 4.86641 56.6168C4.86641 56.5488 4.91782 56.5148 4.98636 56.5148C6.3401 56.5998 7.14548 56.4468 7.52247 56.0388C7.95087 55.5627 7.83092 54.7467 7.67669 53.7266L7.65956 53.5905C7.36825 51.7714 8.07082 47.317 8.19077 46.5009H4.74646C4.67792 46.5009 4.64365 46.4499 4.64365 46.3989C4.64365 46.3309 4.69505 46.2969 4.74646 46.2969H8.44781L8.43067 46.4159C8.41354 46.4669 7.57388 51.6354 7.86519 53.5565L7.88232 53.6926C8.05368 54.7807 8.19077 55.6307 7.67669 56.1918C7.33398 56.5658 6.68281 56.7528 5.65466 56.7528Z" fill="#ADD5F2"/>
<path d="M22.6023 56.6849C22.0882 56.6849 21.5228 56.6509 20.8887 56.5659C19.6549 56.4129 18.6611 56.1408 18.6439 56.1238C18.3526 56.0558 18.1813 55.6478 18.0784 54.8487C17.9928 54.2707 17.9585 53.4716 17.9756 52.4855C17.9928 50.8193 18.147 49.1532 18.147 49.1362C18.147 49.0682 18.1984 49.0342 18.2669 49.0342C18.3183 49.0342 18.3698 49.0852 18.3698 49.1532C18.3698 49.1702 18.2155 50.8193 18.1984 52.4855C18.1813 53.4546 18.2155 54.2367 18.3012 54.8147C18.4212 55.7328 18.6268 55.8858 18.7125 55.9028C18.7467 55.9028 20.7345 56.4469 22.6023 56.4469C23.3563 56.4469 24.076 56.3619 24.6586 56.1238C24.71 56.1068 24.7786 56.1238 24.7957 56.1748C24.8128 56.2258 24.7957 56.2939 24.7443 56.3109C24.1788 56.5659 23.4591 56.6849 22.6023 56.6849Z" fill="#ADD5F2"/>
<path d="M25.0869 30.4004L21.4712 47.283C21.4198 47.521 21.1799 47.691 20.94 47.674L8.10524 46.8919C7.86534 46.8749 7.71112 46.6709 7.76253 46.4499L11.7895 29.5333C11.8409 29.2953 12.0808 29.1253 12.3207 29.1423L18.2325 29.5333L18.6781 29.5673L24.727 29.9584C24.9841 29.9584 25.1383 30.1624 25.0869 30.4004Z" fill="black"/>
<path d="M26.8862 41.1624C26.8348 42.7435 26.1494 45.9908 21.7283 47.555C21.7283 47.555 18.4554 48.8811 16.9988 51.1763C16.9988 51.1763 15.5251 53.5735 14.3256 53.5735C14.3256 53.5735 12.7834 53.5395 12.6634 52.7234C12.6634 52.7234 12.0637 52.5534 11.9095 52.0434C11.9095 52.0434 11.2583 51.9754 11.0698 51.5503C11.0698 51.5503 10.1959 51.4823 10.5729 50.8363L11.0869 50.6493C11.0869 50.6493 10.1445 50.4792 10.6585 49.9012C10.6585 49.9012 12.2008 48.184 13.2632 48.082C13.2632 48.082 14.8568 47.98 15.5765 47.2999C15.5765 47.2999 20.8887 42.6585 22.5166 41.9275L22.6708 41.3494L22.8764 40.5673C22.8764 40.5673 24.7956 40.3293 26.8348 40.2273C26.8519 40.2443 26.9033 40.6013 26.8862 41.1624Z" fill="#B18A67"/>
<path d="M21.8825 38.2552C22.2423 38.8673 21.197 39.8364 21.197 39.8364C19.6891 42.4546 15.6793 41.9446 15.6793 41.9446C13.6915 41.7576 11.4296 42.7607 11.4296 42.7607C8.46509 44.1888 5.38064 44.2908 5.38064 44.2908C0.719683 44.1718 1.01099 40.6355 1.43939 38.9523C1.57648 38.4253 1.71356 38.0682 1.71356 38.0682C4.19826 38.9693 5.20928 38.7993 5.20928 38.7993V39.6154V39.6834C6.0318 39.2583 12.0979 38.9693 12.0979 38.9693C14.3427 38.6123 15.4565 37.6432 15.4565 37.6432C16.5361 36.096 18.2325 35.705 18.2325 35.705C20.306 34.7699 19.929 35.841 19.929 35.875L21.1628 35.0589C22.1052 34.5659 22.3109 35.382 22.3109 35.382C22.7735 35.569 22.1052 36.6741 22.1052 36.6741C22.7393 36.9461 21.8825 38.2552 21.8825 38.2552Z" fill="#B18A67"/>
<path d="M21.6424 7.10818C21.4711 7.2952 21.2654 7.44821 20.9741 7.44821L17.7526 2.12672C17.7526 2.12672 17.9411 1.9057 18.3009 1.75269C18.3866 1.76969 18.4894 1.80369 18.5923 1.80369C18.5751 1.80369 20.9399 2.27973 21.6424 7.10818Z" fill="#0B1328"/>
<path d="M9.09914 8.62154C9.09914 8.62154 7.77968 7.80547 9.01346 4.26914C9.01346 4.26914 10.7442 0.103758 16.9816 1.6169C17.3244 1.7019 17.8042 2.04194 18.284 2.07594C18.284 2.07594 20.6659 2.56898 21.3513 7.48244C21.3513 7.48244 22.1395 10.8827 20.1346 12.1749H19.8947C19.8947 12.1749 20.5973 5.90129 16.0734 5.17022C14.3427 4.8812 10.1102 4.66018 9.39045 6.88738C9.2705 7.31242 9.15055 6.90438 9.09914 8.62154Z" fill="#513433"/>
<path d="M8.08804 33.2737C7.45401 33.2737 6.95707 33.0527 6.61436 32.5937C6.11742 31.9306 5.94606 30.8255 6.11742 29.2784C6.2545 28.1393 6.52868 27.1872 6.52868 27.1872C6.54581 27.1362 6.61436 27.1022 6.66576 27.1192C6.71717 27.1362 6.75144 27.2042 6.73431 27.2552C6.71717 27.2892 5.65475 30.9955 6.78572 32.4747C7.09416 32.8657 7.52256 33.0697 8.08804 33.0697H8.10518C8.15658 33.0697 8.20799 33.1207 8.20799 33.1717C8.20799 33.2397 8.15658 33.2737 8.10518 33.2737H8.08804Z" fill="#A7A9AC"/>
<path d="M9.8361 33.4096C9.71615 33.4096 9.57906 33.3926 9.44198 33.3586C9.39057 33.3416 9.33916 33.2906 9.3563 33.2226C9.37343 33.1716 9.42484 33.1206 9.49338 33.1376C9.95605 33.2396 10.3159 33.1546 10.5901 32.8826C11.8067 31.6415 10.7272 27.0681 10.71 27.0171C10.6929 26.966 10.7272 26.898 10.7957 26.881C10.8471 26.864 10.9157 26.898 10.9328 26.966C10.9328 26.9831 11.2241 28.1562 11.3441 29.4823C11.5154 31.2844 11.3098 32.4746 10.7614 33.0356C10.4873 33.2906 10.196 33.4096 9.8361 33.4096Z" fill="#A7A9AC"/>
<path d="M10.8814 27.442C10.7614 27.442 10.6586 27.34 10.6586 27.221C10.6415 26.0309 10.2816 25.1638 9.63046 24.7048C9.15066 24.3647 8.68799 24.3647 8.67086 24.3647C7.14576 24.3647 6.80305 27.068 6.80305 27.085C6.78591 27.204 6.6831 27.289 6.56314 27.272C6.44319 27.255 6.35751 27.153 6.37465 27.034C6.37465 27 6.47747 26.2689 6.78591 25.5208C7.21431 24.4837 7.88261 23.9397 8.67086 23.9397C8.68799 23.9397 9.28775 23.9397 9.87037 24.3647C10.2131 24.6028 10.4873 24.9428 10.6929 25.3508C10.9328 25.8609 11.0699 26.4899 11.0699 27.221C11.087 27.34 11.0013 27.425 10.8814 27.442Z" fill="#231F20"/>
<path d="M8.56781 33.0018C8.56781 33.0018 7.86524 32.7297 7.8481 33.1548C7.8481 33.1548 7.72815 33.7158 8.63635 33.3248C8.63635 33.3078 8.77344 33.1888 8.56781 33.0018Z" fill="#F1F2F2"/>
<path d="M8.79073 33.0696C8.79073 33.0696 9.45903 32.7296 9.52757 33.1376C9.52757 33.1376 9.71607 33.6816 8.75646 33.3756C8.75646 33.3926 8.61937 33.2736 8.79073 33.0696Z" fill="#F1F2F2"/>
<path d="M19.9292 11.4606C19.9292 11.4606 20.1862 10.3215 21.1115 11.1036C21.5399 11.4606 21.3343 13.9939 19.6721 13.9939L19.9292 11.4606Z" fill="#B18A67"/>
<path d="M12.612 19.3833C12.5263 19.5703 12.4063 19.7573 12.235 19.9274C11.5324 20.1484 10.9498 20.4544 10.47 20.8794C8.97917 22.2056 9.16767 24.1097 9.16767 24.1267C9.1848 24.2457 9.09912 24.3478 8.97917 24.3648C8.85922 24.3818 8.75641 24.2968 8.73927 24.1777C8.73927 24.1607 8.68786 23.6337 8.82495 22.9196C9.01344 21.9845 9.49325 21.1685 10.1787 20.5564C10.8127 19.9954 11.6352 19.6043 12.612 19.3833Z" fill="#231F20"/>
<path d="M20.0488 24.0589C19.8261 25.436 19.3977 27.1872 18.6951 29.5674L18.2496 29.5334C19.3291 25.8951 20.3059 22.0527 19.4662 20.6416C19.2948 20.3525 19.0378 20.1655 18.7122 20.0975C18.6951 20.0975 18.6608 20.0805 18.6437 20.0805C18.5066 19.9615 18.3695 19.7915 18.2667 19.5535C18.4381 19.5875 18.6265 19.6215 18.815 19.6725C19.2606 19.7745 19.6204 20.0295 19.8432 20.4205C20.2545 21.1176 20.323 22.3077 20.0488 24.0589Z" fill="#231F20"/>
<path d="M19.1236 15.473C17.2901 19.9444 12.989 18.6523 12.989 18.6523C10.3329 18.0062 9.42472 14.9119 9.16768 12.0217C10.3329 12.4637 16.0049 14.3509 19.9119 10.4575C20.2032 13.5858 19.1236 15.473 19.1236 15.473Z" fill="#F8E8DB"/>
<g opacity="0.2">
<mask id="mask2_7510_6250" style="mask-type:luminance" maskUnits="userSpaceOnUse" x="10" y="13" width="8" height="2">
<path d="M17.1701 13.8579H10.8127V14.81H17.1701V13.8579Z" fill="white"/>
</mask>
<g mask="url(#mask2_7510_6250)">
<path d="M14.1886 14.81C13.8459 14.81 13.5032 14.793 13.1433 14.759C11.8924 14.623 10.8985 14.3 10.8985 14.3C10.8471 14.283 10.8129 14.215 10.83 14.164C10.8471 14.113 10.9157 14.079 10.9671 14.096C10.9842 14.096 11.9438 14.419 13.1776 14.555C14.3086 14.674 15.8851 14.657 16.9989 13.892C17.0503 13.858 17.1189 13.875 17.1531 13.926C17.1874 13.977 17.1703 14.045 17.1189 14.079C16.5877 14.436 15.9365 14.657 15.1654 14.759C14.8569 14.793 14.5314 14.81 14.1886 14.81Z" fill="#231F20"/>
</g>
</g>
<g opacity="0.2">
<mask id="mask3_7510_6250" style="mask-type:luminance" maskUnits="userSpaceOnUse" x="11" y="15" width="6" height="2">
<path d="M16.3135 15.3369H11.7896V16.068H16.3135V15.3369Z" fill="white"/>
</mask>
<g mask="url(#mask3_7510_6250)">
<path d="M13.8975 16.0681C13.6576 16.0681 13.4348 16.0511 13.2292 16.0341C12.4067 15.9491 11.8754 15.7281 11.8583 15.7111C11.8069 15.6941 11.7726 15.626 11.8069 15.575C11.824 15.524 11.8926 15.49 11.944 15.524C11.944 15.524 12.4752 15.7451 13.2635 15.8301C13.9832 15.9151 15.0799 15.8981 16.1594 15.354C16.2108 15.32 16.2794 15.354 16.3136 15.405C16.3479 15.456 16.3136 15.524 16.2622 15.558C15.4226 15.9491 14.5829 16.0681 13.8975 16.0681Z" fill="#231F20"/>
</g>
</g>
<g opacity="0.2">
<mask id="mask4_7510_6250" style="mask-type:luminance" maskUnits="userSpaceOnUse" x="13" y="16" width="3" height="2">
<path d="M15.9194 16.697H13.1776V17.2411H15.9194V16.697Z" fill="white"/>
</mask>
<g mask="url(#mask4_7510_6250)">
<path d="M14.3086 17.224C13.7603 17.224 13.3147 17.139 13.2805 17.139C13.2291 17.122 13.1777 17.071 13.1948 17.02C13.2119 16.969 13.2633 16.918 13.3147 16.935C13.3319 16.935 14.9255 17.224 15.7652 16.714C15.8166 16.68 15.8851 16.697 15.9194 16.748C15.9537 16.799 15.9365 16.867 15.8851 16.901C15.4225 17.156 14.8227 17.224 14.3086 17.224Z" fill="#231F20"/>
</g>
</g>
<path d="M17.9241 37.167C17.8727 37.167 17.8385 37.133 17.8213 37.099C17.8042 37.048 17.8213 36.98 17.8899 36.963C18.3354 36.793 19.5692 36.2829 19.8091 35.9089C19.8434 35.8579 19.9119 35.8409 19.9633 35.8749C20.0147 35.9089 20.0318 35.9769 19.9976 36.0279C19.6549 36.5549 18.027 37.15 17.9584 37.167C17.9584 37.167 17.9413 37.167 17.9241 37.167Z" fill="#E58563"/>
<path d="M19.7405 37.507C19.7062 37.507 19.6719 37.49 19.6377 37.456C19.6034 37.405 19.6205 37.337 19.6719 37.303C19.6891 37.286 21.3855 36.3339 22.2766 35.2968C22.3109 35.2458 22.3794 35.2458 22.4308 35.2798C22.4822 35.3138 22.4822 35.3818 22.4479 35.4328C21.5397 36.5039 19.8604 37.456 19.7919 37.49C19.7747 37.49 19.7576 37.507 19.7405 37.507Z" fill="#E58563"/>
<path d="M20.2205 38.5101C20.1862 38.5101 20.1519 38.4931 20.1348 38.4591C20.1005 38.4081 20.1177 38.3401 20.1519 38.3061C20.6146 37.9661 21.8484 37.014 22.054 36.606C22.0883 36.555 22.1397 36.538 22.2082 36.555C22.2596 36.589 22.2768 36.64 22.2596 36.691C21.9855 37.235 20.3576 38.4251 20.289 38.4761C20.2548 38.5101 20.2376 38.5101 20.2205 38.5101Z" fill="#E58563"/>
<path d="M19.9634 39.8023C19.9291 39.8023 19.8777 39.7853 19.8606 39.7342C19.8263 39.6832 19.8606 39.6152 19.912 39.5982C19.9291 39.5982 21.4542 38.8502 21.7969 38.2041C21.8312 38.1531 21.8826 38.1361 21.9511 38.1531C22.0026 38.1871 22.0197 38.2381 22.0025 38.3061C21.6427 39.0202 20.0833 39.7683 20.0319 39.8023C19.9977 39.7853 19.9805 39.8023 19.9634 39.8023Z" fill="#E58563"/>
<path d="M4.31832 40.2614C4.28404 40.2614 4.23264 40.2444 4.2155 40.2104C4.18123 40.1594 4.2155 40.0914 4.26691 40.0574L5.17511 39.5813C5.22652 39.5473 5.29506 39.5813 5.32933 39.6323C5.3636 39.6833 5.32933 39.7513 5.27792 39.7853L4.36972 40.2614C4.35259 40.2614 4.33545 40.2614 4.31832 40.2614Z" fill="#E58563"/>
<path d="M11.0868 50.7683C11.0354 50.7683 11.0011 50.7343 10.984 50.7003C10.9669 50.6493 11.0011 50.5813 11.0525 50.5643C11.0525 50.5643 11.8922 50.2583 13.006 49.4082C13.0574 49.3742 13.126 49.3742 13.1603 49.4252C13.1945 49.4762 13.1945 49.5442 13.1431 49.5782C11.995 50.4453 11.1554 50.7513 11.1211 50.7683C11.1039 50.7683 11.0868 50.7683 11.0868 50.7683Z" fill="#E58563"/>
<path d="M11.0526 51.6692C11.0011 51.6692 10.9497 51.6352 10.9497 51.5842C10.9326 51.5332 10.984 51.4652 11.0354 51.4652C11.4295 51.3972 12.5434 51.1422 12.8347 50.8531C12.869 50.8191 12.9546 50.8191 12.9889 50.8531C13.0232 50.8871 13.0232 50.9551 12.9889 51.0062C12.5776 51.4142 11.1382 51.6692 11.0697 51.6862C11.0697 51.6692 11.0526 51.6692 11.0526 51.6692Z" fill="#E58563"/>
<path d="M11.8924 52.1624C11.841 52.1624 11.7896 52.1114 11.7896 52.0604C11.7896 51.9924 11.8239 51.9414 11.8924 51.9414C12.6293 51.8904 13.863 51.7204 14.0687 51.4823C14.1029 51.4313 14.1715 51.4313 14.2229 51.4823C14.2743 51.5163 14.2743 51.5844 14.2229 51.6354C13.8802 52.0094 12.098 52.1454 11.8924 52.1624Z" fill="#E58563"/>
<path d="M13.0576 52.8594C12.8006 52.8594 12.6464 52.8424 12.6292 52.8254C12.5778 52.8084 12.5264 52.7574 12.5436 52.7064C12.5607 52.6554 12.6121 52.6044 12.6635 52.6214C12.6806 52.6214 13.8116 52.7914 14.8398 52.1454C14.8912 52.1114 14.9597 52.1284 14.994 52.1794C15.0283 52.2304 15.0111 52.2984 14.9597 52.3324C14.2571 52.7744 13.5203 52.8594 13.0576 52.8594Z" fill="#E58563"/>
<path d="M20.1518 13.5009C20.1175 13.5009 20.0661 13.5009 20.0319 13.4839C19.9805 13.4669 19.9291 13.4159 19.9462 13.3649C19.9633 13.3139 20.0147 13.2629 20.0661 13.2799C20.2032 13.2969 20.3232 13.2799 20.426 13.1779C20.7516 12.9059 20.7858 12.1068 20.7858 11.8178C20.7687 11.6478 20.7344 11.5287 20.6659 11.4947C20.6145 11.4607 20.5288 11.4947 20.5288 11.4947C20.4774 11.5287 20.4089 11.4947 20.3746 11.4437C20.3403 11.3927 20.3746 11.3247 20.426 11.2907C20.4945 11.2567 20.6316 11.2227 20.7687 11.2907C20.9058 11.3587 20.9915 11.5288 21.0086 11.8008C21.0086 11.8518 21.0429 12.9229 20.5802 13.3309C20.4603 13.4499 20.306 13.5009 20.1518 13.5009Z" fill="#E58563"/>
<path d="M5.22633 39.6153C4.28386 39.8023 2.39892 39.2582 1.43931 38.9522C1.5764 38.4252 1.71348 38.0681 1.71348 38.0681C4.19818 38.9692 5.2092 38.7992 5.2092 38.7992L5.22633 39.6153Z" fill="#7E4F42"/>
<path d="M26.8861 41.1625C25.5324 41.3665 22.6707 41.3665 22.6707 41.3665L22.8763 40.5844C22.8763 40.5844 24.7955 40.3464 26.8347 40.2444C26.8519 40.2444 26.9033 40.6014 26.8861 41.1625Z" fill="#7E4F42"/>
<path d="M5.22656 39.6832C5.15802 39.6832 5.10661 39.6322 5.12375 39.5641L5.29511 35.9428C4.79817 34.1236 4.83244 32.3045 4.93525 31.0974C5.05521 29.7712 5.29511 28.8702 5.29511 28.8702C5.31224 28.8192 5.36365 28.7852 5.4322 28.7852C5.4836 28.8022 5.51787 28.8532 5.50074 28.9212C5.50074 28.9382 5.26084 29.8223 5.14089 31.1144C5.03807 32.3045 5.0038 34.1236 5.50074 35.9088V35.9258L5.32938 39.5811C5.34652 39.6492 5.29511 39.6832 5.22656 39.6832Z" fill="#5E83A5"/>
</svg>
