<svg width="61" height="60" viewBox="0 0 61 60" fill="none" xmlns="http://www.w3.org/2000/svg">
<g clip-path="url(#clip0_7510_6360)">
<path d="M28.5966 41.776L23.2498 33.3755H27.2599L29.265 39.0878L28.5966 41.776Z" fill="#E9AA86"/>
<path d="M24.972 60.3103C26.8753 54.8275 26.2182 40.6637 25.6517 34.2672L39.927 32.8965L45.3651 50.3728L39.927 60.3103H24.972Z" fill="#7DC9D6"/>
<path d="M3.5033 7.71224C3.37955 7.99471 1.98732 12.5771 3.5033 18.1011C3.89003 19.5292 4.55521 20.7533 5.34414 21.789L2.52874 24.3156C1.95638 23.2328 -0.00820238 20.0157 0.208366 14.9625C0.378527 11.0549 0.88901 7.3356 0.88901 7.3356C0.471342 5.68782 0.858072 4.68345 0.858072 4.68345C0.858072 4.68345 0.718849 3.56924 0.595096 2.98859C0.471342 2.40794 0.718849 2.03131 0.873541 2.23532C1.01276 2.45502 1.56965 4.44806 1.56965 4.44806C1.56965 4.44806 1.33762 2.21963 1.35309 1.67036C1.36856 1.10541 1.67794 0.995558 1.83263 1.16818C2.03373 1.40358 2.31218 4.43236 2.31218 4.43236C2.31218 4.43236 2.29671 1.96853 2.31218 1.26234C2.34311 0.540456 2.71437 0.289365 2.96188 0.540456C3.24033 0.838626 3.20939 4.51083 3.20939 4.51083C3.20939 4.51083 3.65799 2.20393 3.81269 1.70175C3.96738 1.19957 4.41598 1.37219 4.44692 1.74883C4.47786 2.17255 4.36958 2.62765 4.32317 3.03567C4.26129 3.58493 4.21489 4.16558 4.09113 4.69915C4.01379 5.01301 3.96738 5.35826 3.9055 5.68782C4.24582 5.40534 4.60162 5.13856 4.97288 4.90316C5.1121 4.809 5.28226 4.73053 5.40601 4.82469C5.45242 4.85608 5.48336 4.91885 5.49883 4.98162C5.52977 5.09148 5.5143 5.23272 5.46789 5.34257C5.40601 5.48381 5.28226 5.57796 5.17397 5.67212C4.911 5.87614 4.64802 6.08015 4.46239 6.36262C4.27676 6.62941 4.16848 6.95896 3.96738 7.21005C3.82816 7.36699 3.67346 7.5553 3.5033 7.71224Z" fill="#E9AA86"/>
<path d="M61.34 60.3102L59.9849 50.03C59.9849 50.9438 45.6125 53.6852 40.2671 54.8274L39.2474 60.3102H61.34Z" fill="#AFADA0"/>
<mask id="mask0_7510_6360" style="mask-type:luminance" maskUnits="userSpaceOnUse" x="4" y="52" width="1" height="4">
<path d="M4.98661 52.6709H4.81104V55.322H4.98661V52.6709Z" fill="white"/>
</mask>
<g mask="url(#mask0_7510_6360)">
<path d="M4.87451 52.6709C4.90643 52.8972 4.93835 53.1074 4.95432 53.3337C4.97028 53.56 4.98624 53.7701 4.98624 53.9965C4.98624 54.2228 4.98624 54.4329 4.98624 54.6592C4.97028 54.8855 4.97028 55.0957 4.93836 55.322C4.90643 55.0957 4.87451 54.8855 4.85855 54.6592C4.84259 54.4329 4.82663 54.2228 4.82663 53.9965C4.82663 53.7701 4.82663 53.56 4.82663 53.3337C4.82663 53.1074 4.84259 52.8972 4.87451 52.6709Z" fill="#EFEEED"/>
</g>
<path d="M27.2427 33.6381H23.6674L26.0296 31.3264C26.4925 32.0539 26.9075 32.8298 27.2427 33.6381Z" fill="#E9AA86"/>
<path d="M60.2081 50.9673C56.1859 53.5214 51.9403 54.5883 49.5142 55.0086V44.6143C49.7536 44.5335 49.9931 44.4526 50.2484 44.3556C50.3442 44.3233 50.44 44.2748 50.5517 44.2425C50.7113 44.1778 50.8869 44.1132 51.0624 44.0485C51.1742 44 51.2859 43.9515 51.4136 43.903C51.4295 43.903 51.4455 43.8869 51.4455 43.8869C51.5093 43.8707 51.5572 43.8384 51.6211 43.806C51.669 43.7899 51.7328 43.7575 51.7807 43.7414C51.8764 43.6929 51.9722 43.6605 52.068 43.612C52.1159 43.5959 52.1637 43.5635 52.2116 43.5474C52.3553 43.4827 52.483 43.4181 52.6266 43.3534C52.6426 43.3534 52.6426 43.3372 52.6585 43.3372C52.6745 43.3372 52.6745 43.3211 52.6905 43.3211C53.2491 43.0463 53.8237 42.7391 54.3823 42.3996C54.6217 42.2542 54.8452 42.1087 55.0846 41.9632C55.1006 41.947 55.1165 41.947 55.1325 41.9309C55.1963 41.8824 55.2602 41.85 55.324 41.8015C55.324 41.8015 55.34 41.8015 55.34 41.7854C55.4198 41.7369 55.4836 41.6884 55.5634 41.6399C55.6432 41.5914 55.723 41.5267 55.8028 41.4782C55.8348 41.4621 55.8667 41.4297 55.8986 41.4136C56.0263 41.3166 56.138 41.2357 56.2657 41.1388C56.4892 40.9609 56.7126 40.7831 56.9201 40.6053C56.952 40.573 56.9999 40.5406 57.0318 40.5083C57.0318 40.5568 57.0318 40.6053 57.0478 40.6538C57.0478 40.7185 57.0638 40.7831 57.0638 40.8639C57.0638 40.9124 57.0797 40.9771 57.0797 41.0418C57.0797 41.0741 57.0797 41.1064 57.0957 41.1388C57.0957 41.1872 57.1116 41.2357 57.1116 41.2842C57.1116 41.3327 57.1276 41.3974 57.1276 41.4459C57.1436 41.559 57.1595 41.656 57.1595 41.7692C57.1755 41.85 57.1755 41.9147 57.1914 41.9955C57.367 43.2564 57.6543 44.6628 58.181 45.8267C59.0269 47.6534 59.7133 49.2699 60.2081 50.9673Z" fill="#AFADA0"/>
<path d="M48.1577 16.6967C47.6629 16.4381 47.1042 16.4058 46.6094 16.5836C46.7212 17.0685 47.0563 17.505 47.5511 17.7636C48.0459 18.0223 48.6046 18.0546 49.0993 17.8768C48.9717 17.3918 48.6524 16.9554 48.1577 16.6967Z" fill="#BDBCAE"/>
<path d="M43.9599 23.4542C43.9759 23.5027 44.0876 23.6482 44.2791 23.8745C43.928 24.1978 43.497 24.6504 43.5609 24.8929C43.5609 24.8929 41.1667 25.9437 40.3687 28.4493C40.0973 29.306 40.0175 30.179 39.8898 31.0681C39.7302 32.0541 39.6185 33.0564 39.6185 34.0586C36.7615 34.188 33.9204 34.3334 31.0634 34.4466C30.2015 34.4789 29.3397 34.5274 28.4778 34.5598C27.6478 34.5921 26.8178 34.7052 25.9879 34.6568C25.924 33.5737 25.7804 32.4906 25.525 31.4237C25.3335 30.6316 25.1419 29.3545 24.5035 28.7887C24.3439 28.6433 22.8595 28.4169 22.0774 28.2876C20.609 26.8651 19.1885 25.9598 18.7097 25.7012C18.6139 25.6527 18.5022 25.6042 18.3585 25.5395C18.4064 25.1192 18.4383 24.6343 18.4702 24.1008C19.5556 23.8745 22.2849 23.3249 24.8067 22.8722C24.9823 22.8399 25.1579 22.8076 25.3175 22.7753C26.6582 22.5489 27.7116 22.3388 28.4937 22.1771C29.0204 23.0016 30.4569 24.7474 32.7074 24.3756C34.926 24.0038 35.8358 22.1125 36.139 21.2234C36.9371 21.2557 38.1501 21.2719 39.5387 21.288C40.9433 21.3042 42.5234 21.3042 44.1035 21.3042C44.3749 21.87 44.5824 22.2095 44.5824 22.2095C44.5824 22.2095 43.928 23.2764 43.9599 23.4542Z" fill="#7DC9D6"/>
<path d="M26.4447 31.1487L23.6196 33.8806L12.1776 33.6083C12.0499 33.3497 11.9681 32.7329 11.8405 32.6359C11.5532 32.3934 9.34357 32.3218 8.76898 32.4673C8.78494 32.2087 12.401 31.7602 12.1776 31.6956C11.9381 31.6309 13.0531 33.3653 11.8879 34.3837L5.3604 33.9886C4.97734 33.1965 11.6138 33.0642 11.1669 32.466C10.8956 31.2536 10.4884 30.1032 10.2171 29.3435C9.78612 28.1149 11.2545 30.3566 10.2171 28.3359L10.2171 26.6553C9.39277 31.733 7.14793 23.0014 8.2652 23.7127C9.38247 24.4401 10.372 24.8281 10.8988 24.9251C11.0743 25.6848 11.6489 27.3984 13.4206 27.463C15.304 27.5115 16.6766 25.3292 17.0756 24.6018C18.0014 24.9089 19.5177 25.2484 20.3636 25.5878C20.4913 25.6363 20.619 25.6848 20.7147 25.7495C21.1936 26.0081 22.6141 26.9134 24.0825 28.3359C24.8965 29.0957 25.7424 30.0495 26.4447 31.1487Z" fill="#FBBA71"/>
<mask id="mask1_7510_6360" style="mask-type:luminance" maskUnits="userSpaceOnUse" x="18" y="30" width="4" height="5">
<path d="M21.579 30.0154H18.3585V34.7196H21.579V30.0154Z" fill="white"/>
</mask>
<g mask="url(#mask1_7510_6360)">
<path d="M21.579 34.7196L18.3585 30.0154L18.5942 34.7196H21.579Z" fill="white"/>
</g>
<path d="M59.1706 23.2762C59.1706 23.2762 58.0374 23.7289 57.4788 24.5048L57.0159 24.2462C57.0478 23.745 56.8882 22.8721 56.6807 22.7266C56.4094 22.5488 55.3081 22.0153 55.3081 22.0153C55.3081 22.0153 55.34 21.9022 55.3879 21.7244C57.7022 22.3063 59.1706 23.2762 59.1706 23.2762Z" fill="#E9AA86"/>
<path d="M57 24.2461C56.9841 24.3755 56.9681 24.4725 56.9362 24.5371C56.7606 24.8443 52.1958 30.6314 50.1049 30.7608C47.6948 30.9062 46.1306 29.0149 44.1993 25.6364C45.2528 26.6386 47.3117 28.239 48.3811 28.239C49.3866 28.239 51.3498 26.6224 52.9779 25.1191C54.3984 23.7935 55.5476 22.5649 55.5476 22.5649L55.2762 22.0315C55.2762 22.0315 56.3775 22.5488 56.6489 22.7428C56.8883 22.8721 57.0479 23.745 57 24.2461Z" fill="#634240"/>
<path d="M55.3719 21.7407C55.4517 21.4497 55.5475 21.0456 55.5634 20.9163C55.5634 20.7869 55.3879 20.6576 55.2283 20.5768C55.1325 20.5121 55.0367 20.4798 55.0367 20.4798C55.0367 20.4798 55.1165 20.3343 55.2123 20.0433C55.3719 19.5099 55.5954 18.5076 55.5634 16.9719C55.5475 16.4708 55.4517 15.9859 55.2921 15.5332C55.0208 14.7735 54.5579 14.0783 54.0152 13.4802C53.2651 12.6558 52.2914 11.9284 51.2061 11.6536C48.5566 10.9746 46.0507 12.381 44.3748 14.3855C44.1194 14.6926 43.88 15.0159 43.6725 15.3716C42.9224 16.6486 43.0181 17.9904 43.4012 19.3806C43.5927 20.0595 43.8321 20.7223 44.1354 21.3527C44.4067 21.9185 44.6142 22.258 44.6142 22.258C44.6142 22.258 43.9279 23.3087 43.9598 23.4704C43.9758 23.5189 44.0875 23.6644 44.279 23.8907C44.8696 24.5535 46.1305 25.8144 47.1839 26.4448C48.7321 27.3824 50.8071 26.5418 52.9778 25.1354C54.3983 23.8099 55.5475 22.5813 55.5475 22.5813L55.2761 22.0478C55.2921 22.0317 55.34 21.9024 55.3719 21.7407Z" fill="#634240"/>
<path d="M52.9938 25.1189C51.3658 26.6223 49.4026 28.2388 48.3971 28.2388C47.3277 28.2388 45.2687 26.6385 44.2153 25.6362C43.8482 25.2806 43.6088 25.0058 43.5769 24.9088C43.513 24.6663 43.944 24.1975 44.2951 23.8904C44.8857 24.5532 46.1466 25.8141 47.2 26.4445C48.7323 27.3659 50.8231 26.5415 52.9938 25.1189Z" fill="#513433"/>
<path d="M50.7911 19.7359C51.1263 21.6595 49.6419 24.6663 47.5351 24.6663C45.6676 24.6663 44.5184 21.4817 44.4386 21.1422C44.311 20.5765 44.4706 20.3986 44.3429 19.9783C44.279 19.7682 44.1673 19.4772 44.1035 19.2671C43.9917 18.9114 44.0077 18.378 44.1354 18.0385C45.0132 15.6945 46.5295 15.4682 46.5774 15.4844C46.5934 15.5006 50.2325 16.616 50.7911 19.7359Z" fill="#E9AA86"/>
<mask id="mask2_7510_6360" style="mask-type:luminance" maskUnits="userSpaceOnUse" x="45" y="33" width="1" height="3">
<path d="M45.5081 33.3633H45.3325V35.0121H45.5081V33.3633Z" fill="white"/>
</mask>
<g mask="url(#mask2_7510_6360)">
<path d="M45.428 33.3633C45.4599 33.4926 45.4759 33.6381 45.4918 33.7674C45.5078 33.8967 45.5078 34.0422 45.5078 34.1715C45.5078 34.3009 45.5078 34.4464 45.4918 34.5757C45.4759 34.705 45.4599 34.8505 45.428 34.9798C45.3961 34.8505 45.3801 34.705 45.3641 34.5757C45.3482 34.4464 45.3482 34.3009 45.3482 34.1715C45.3482 34.0422 45.3482 33.8967 45.3641 33.7674C45.3641 33.6381 45.3961 33.4926 45.428 33.3633Z" fill="#EFEEED"/>
</g>
<mask id="mask3_7510_6360" style="mask-type:luminance" maskUnits="userSpaceOnUse" x="8" y="40" width="1" height="5">
<path d="M8.67029 40.6375H8.47876V44.1453H8.67029V40.6375Z" fill="white"/>
</mask>
<g mask="url(#mask3_7510_6360)">
<path d="M8.62256 44.1453C8.59064 43.8543 8.55872 43.5633 8.54276 43.2723C8.5268 42.9814 8.51084 42.6904 8.49487 42.3994C8.47891 42.1084 8.47891 41.8175 8.47891 41.5265C8.47891 41.2355 8.47891 40.9445 8.49487 40.6536C8.54276 40.9445 8.57468 41.2355 8.6066 41.5265C8.63852 41.8175 8.65448 42.1084 8.65448 42.3994C8.67044 42.6904 8.67044 42.9814 8.65448 43.2723C8.67044 43.5633 8.65448 43.8543 8.62256 44.1453Z" fill="#EFEEED"/>
</g>
<mask id="mask4_7510_6360" style="mask-type:luminance" maskUnits="userSpaceOnUse" x="13" y="34" width="1" height="6">
<path d="M13.3787 34.8828H13.2031V39.4738H13.3787V34.8828Z" fill="white"/>
</mask>
<g mask="url(#mask4_7510_6360)">
<path d="M13.2829 34.8828C13.3149 35.2708 13.3308 35.6426 13.3468 36.0306C13.3468 36.2245 13.3627 36.4185 13.3627 36.6125V37.1944V37.7764C13.3627 37.9704 13.3627 38.1644 13.3468 38.3584C13.3308 38.7463 13.3149 39.1181 13.2829 39.5061C13.251 39.1181 13.235 38.7463 13.2191 38.3584C13.2191 38.1644 13.2031 37.9704 13.2031 37.7764V37.1944V36.6125C13.2031 36.4185 13.2031 36.2245 13.2191 36.0306C13.235 35.6426 13.251 35.2546 13.2829 34.8828Z" fill="#EFEEED"/>
</g>
<mask id="mask5_7510_6360" style="mask-type:luminance" maskUnits="userSpaceOnUse" x="13" y="33" width="2" height="3">
<path d="M14.0331 33.7515H13.8575V35.4003H14.0331V33.7515Z" fill="white"/>
</mask>
<g mask="url(#mask5_7510_6360)">
<path d="M13.9214 33.7515C13.9533 33.8808 13.9852 34.0263 14.0012 34.1556C14.0171 34.2849 14.0331 34.4304 14.0331 34.5597C14.0331 34.6891 14.0331 34.8345 14.0331 34.9639C14.0171 35.1094 14.0012 35.2387 13.9692 35.3842C13.9373 35.2548 13.9054 35.1094 13.8894 34.98C13.8735 34.8507 13.8575 34.7052 13.8575 34.5759C13.8575 34.4304 13.8575 34.3011 13.8575 34.1718C13.8735 34.0263 13.8894 33.897 13.9214 33.7515Z" fill="#EFEEED"/>
</g>
<mask id="mask6_7510_6360" style="mask-type:luminance" maskUnits="userSpaceOnUse" x="43" y="40" width="8" height="7">
<path d="M50.1209 40.896H43.0023V46.764H50.1209V40.896Z" fill="white"/>
</mask>
<g mask="url(#mask6_7510_6360)">
<path d="M50.1211 45.3576V40.896C48.0781 42.0437 46.1628 42.8358 46.1628 42.8358L46.1947 42.9652C46.0511 42.9652 45.8755 42.9167 45.7797 42.8035C45.6201 42.5934 45.3009 42.3509 44.9977 42.0276C44.7263 41.7366 44.6625 41.3163 44.4869 41.3163C44.2475 41.3163 44.2156 41.7689 44.2156 41.9952C44.2156 42.2215 44.6465 42.9005 44.6944 43.1915C44.7423 43.4663 43.2898 43.9351 43.0504 44.1937C42.811 44.4524 43.3218 44.8888 43.4654 45.0828C43.609 45.2768 43.8165 46.57 44.1517 46.7317C44.5029 46.8933 45.6361 46.3922 46.067 46.0851C46.3064 45.9072 46.6416 45.7456 46.897 45.6324L47.1205 46.473C47.5674 46.3599 48.7165 45.9557 50.1211 45.3576Z" fill="#E5E7E8"/>
</g>
<path d="M20.4753 24.1328C20.4434 24.6663 20.4115 25.1512 20.3636 25.5715C19.5176 25.2482 18.0014 24.8926 17.0756 24.5854C16.6926 24.4561 16.4212 24.3429 16.3414 24.2298C16.1659 23.9711 16.1339 22.8719 16.1499 22.096C16.7883 21.417 17.2831 20.6249 17.5704 20.0753C17.5704 20.0753 18.6877 19.752 18.8792 19.0246C19.0867 18.3133 18.4483 18.1516 18.0173 18.3295C18.0173 18.3295 16.9799 15.9855 15.7189 15.0964C13.8834 16.7129 11.9043 17.8607 9.6857 18.2486C9.6857 18.2486 9.22284 17.9415 8.91958 18.4264C8.61632 18.9114 8.72804 19.8813 9.94108 20.1723C9.94108 20.1723 10.7072 22.1606 11.9362 23.1305C11.8404 23.761 11.6329 24.7956 11.218 24.9087C11.1381 24.9249 11.0424 24.9249 10.8987 24.9087C10.3561 24.8279 9.36648 24.4238 8.26518 23.6963C8.34498 22.5163 8.18537 21.1099 7.91404 18.8467C7.40329 14.369 9.81339 12.1705 12.6385 11.0551C15.4636 9.93966 17.1714 12.3968 17.1714 12.3968C17.1714 12.3968 18.3365 11.8472 19.358 12.9787C20.5711 14.3205 20.6828 20.3501 20.4753 24.1328Z" fill="#634240"/>
<path d="M16.1499 22.0961C15.3678 22.9205 14.3942 23.6318 13.2929 23.6318C12.7981 23.6318 12.3512 23.4378 11.9522 23.1145C10.7232 22.1446 9.95705 20.1562 9.95705 20.1562C8.74401 19.8653 8.61633 18.8953 8.93554 18.4104C9.2388 17.9254 9.70167 18.2326 9.70167 18.2326C11.9202 17.8446 13.8994 16.6969 15.7349 15.0803C16.9958 15.9694 18.0333 18.3134 18.0333 18.3134C18.4802 18.1356 19.1027 18.2972 18.8952 19.0085C18.6877 19.7198 17.5864 20.0592 17.5864 20.0592C17.2831 20.6412 16.7883 21.4171 16.1499 22.0961Z" fill="#E9AA86"/>
<path d="M16.3415 24.2297C16.4213 24.3429 16.6926 24.456 17.0757 24.5854C16.6766 25.3128 15.32 27.4951 13.4206 27.4466C11.6489 27.3981 11.0743 25.6684 10.8988 24.9087C11.0424 24.9248 11.1382 24.9248 11.218 24.9087C11.633 24.7955 11.8405 23.7609 11.9362 23.1305C12.3353 23.4376 12.7822 23.6478 13.277 23.6478C14.3783 23.6316 15.3519 22.9365 16.134 22.1121C16.134 22.8718 16.1659 23.9711 16.3415 24.2297Z" fill="#E9AA86"/>
<path d="M10.2184 33.0725C10.394 33.4281 10.4738 33.8646 10.2822 34.1555C9.93109 34.6567 8.23922 34.7213 7.90404 34.689C7.56886 34.6405 7.02619 33.0886 7.02619 33.0886H6.61121C6.61121 33.0886 7.106 32.3935 7.13792 32.2157C7.13792 32.1995 7.13792 32.1834 7.13792 32.1672C7.69655 32.0217 9.5161 32.2642 9.8034 32.5067C9.93109 32.6037 10.1067 32.8138 10.2184 33.0725Z" fill="#FBBA71"/>
<path d="M6.91452 31.1001C7.13798 31.1648 7.15394 31.9084 7.13797 32.1509C7.13797 32.167 7.13797 32.1993 7.13797 32.1993C7.12201 32.3772 6.61126 33.0723 6.61126 33.0723L5.01517 33.0076C6.18032 32.0054 6.67511 31.0193 6.91452 31.1001Z" fill="#FBBA71"/>
<path d="M57.1351 42.2348L50.3336 44.6219L50.318 44.6378C50.3492 44.6218 50.3805 44.6059 50.4118 44.6059C50.49 44.5741 50.5525 44.5582 50.6307 44.5264C50.787 44.4627 50.959 44.3991 51.131 44.3354C51.2405 44.2877 51.3499 44.2399 51.475 44.1922C51.4906 44.1922 51.5063 44.1763 51.5063 44.1763C51.5532 44.1604 51.6001 44.1444 51.647 44.1126C51.6626 44.1126 51.6626 44.0967 51.6783 44.0967C51.7252 44.0808 51.7877 44.049 51.8346 44.0331C51.8503 44.0171 51.8815 44.0171 51.8972 44.0012C51.9441 43.9853 51.991 43.9535 52.0379 43.9376C52.0692 43.9217 52.0848 43.9217 52.1161 43.9058C52.163 43.8898 52.2099 43.858 52.2568 43.8421C52.2881 43.8262 52.3037 43.8103 52.335 43.8103C52.3819 43.7944 52.4288 43.7625 52.4757 43.7466C52.507 43.7307 52.5226 43.7148 52.5539 43.7148C52.5851 43.6989 52.632 43.683 52.6633 43.6671C52.6789 43.6671 52.679 43.6511 52.6946 43.6511C52.7102 43.6511 52.7102 43.6352 52.7259 43.6352C52.7571 43.6193 52.7884 43.6034 52.804 43.5875C52.9448 43.5079 53.1011 43.4443 53.2418 43.3647C53.2731 43.3488 53.32 43.3329 53.3513 43.301C53.3826 43.2851 53.4295 43.2533 53.4607 43.2374C53.492 43.2215 53.5389 43.1896 53.5702 43.1737C53.6015 43.1578 53.6484 43.126 53.6796 43.1101C53.7265 43.0942 53.7578 43.0623 53.8047 43.0464C53.836 43.0305 53.8829 42.9987 53.9142 42.9828C53.9454 42.9669 53.9767 42.9509 54.008 42.935C54.0393 42.9191 54.0549 42.9032 54.0862 42.8873C54.1018 42.8714 54.1174 42.8714 54.1487 42.8555C54.18 42.8396 54.1956 42.8236 54.2269 42.8077C54.2738 42.7759 54.3207 42.7441 54.3832 42.7122C54.477 42.6486 54.5709 42.6009 54.6647 42.5372C54.696 42.5213 54.7272 42.5054 54.7585 42.4735L54.7741 42.4576C54.8679 42.394 54.9774 42.3303 55.0712 42.2667C55.0868 42.2508 55.1025 42.2508 55.1181 42.2348C55.1807 42.1871 55.2432 42.1553 55.3057 42.1075C55.3057 42.1075 55.3214 42.1075 55.3214 42.0916C55.337 42.0757 55.3683 42.0598 55.3839 42.0439C55.4308 42.0121 55.4777 41.9802 55.5246 41.9484C55.6028 41.9007 55.681 41.837 55.7592 41.7893C55.7904 41.7734 55.8217 41.7415 55.853 41.7256C55.8999 41.6938 55.9468 41.662 55.9937 41.6301C56.025 41.6142 56.0563 41.5824 56.0875 41.5506C56.1344 41.5187 56.1813 41.4869 56.2282 41.4551C56.3221 41.3755 56.4159 41.3119 56.5097 41.2323C56.5253 41.2164 56.5253 41.2164 56.541 41.2005C56.5566 41.1846 56.5722 41.1846 56.5879 41.1687C56.6817 41.0891 56.7755 41.0095 56.8693 40.93C56.9006 40.8981 56.9475 40.8663 56.9788 40.8345C56.9788 40.8822 56.9788 40.93 56.9944 40.9777C56.9944 41.0413 57.01 41.105 57.01 41.1846C57.01 41.2323 57.0257 41.296 57.0257 41.3596C57.0257 41.3914 57.0257 41.4233 57.0413 41.4551C57.0413 41.5028 57.0569 41.5506 57.0569 41.5983C57.0569 41.6461 57.0726 41.7097 57.0726 41.7574C57.0882 41.8688 57.1038 41.9643 57.1038 42.0757C57.1195 42.0916 57.1351 42.1553 57.1351 42.2348Z" fill="#AFADA0"/>
<path d="M16.3415 24.23C16.1659 23.9714 16.134 22.8721 16.1499 22.0962C15.3678 22.9206 14.3942 23.6319 13.2929 23.6319L17.0757 24.5695C16.6926 24.4563 16.4213 24.3432 16.3415 24.23Z" fill="#BE9285"/>
<mask id="mask7_7510_6360" style="mask-type:luminance" maskUnits="userSpaceOnUse" x="8" y="11" width="9" height="5">
<path d="M16.9639 11.4919H8.98343V15.3231H16.9639V11.4919Z" fill="white"/>
</mask>
<g mask="url(#mask7_7510_6360)">
<path d="M9.0951 15.3232C9.07913 15.3232 9.06317 15.3232 9.04721 15.307C8.99933 15.2909 8.96741 15.2262 8.98337 15.1616C9.44624 14.0623 10.0208 12.8176 11.0902 12.1063C12.1117 11.4274 13.3247 11.4112 14.1547 11.5244C14.7293 11.6052 15.2879 11.7507 15.8306 11.9608C16.1818 12.1063 16.6287 12.3165 16.9319 12.7044C16.9638 12.7529 16.9638 12.8176 16.916 12.8499C16.8681 12.8822 16.8042 12.8822 16.7723 12.8338C16.501 12.4943 16.086 12.2841 15.7508 12.1548C15.2241 11.9447 14.6814 11.7992 14.1388 11.7345C13.3407 11.6375 12.1756 11.6375 11.2179 12.2841C10.1964 12.9631 9.63777 14.1593 9.19086 15.2424C9.1749 15.307 9.12702 15.3232 9.0951 15.3232Z" fill="#634240"/>
</g>
<mask id="mask8_7510_6360" style="mask-type:luminance" maskUnits="userSpaceOnUse" x="16" y="12" width="4" height="13">
<path d="M19.9464 12.6902H16.7223V24.216H19.9464V12.6902Z" fill="white"/>
</mask>
<g mask="url(#mask8_7510_6360)">
<path d="M19.6275 24.2001C19.5637 24.2001 19.5158 24.1516 19.5158 24.0869C19.6435 22.2441 19.7871 20.3366 19.7073 18.4453C19.6754 17.734 19.6116 16.8126 19.3562 15.9396C19.1008 15.0667 18.6699 14.3231 18.1112 13.8058C17.7122 13.434 17.2334 13.143 16.7546 12.8682C16.7067 12.8359 16.6907 12.7712 16.7226 12.7227C16.7546 12.6742 16.8184 12.6581 16.8663 12.6904C17.3451 12.9652 17.8399 13.2562 18.2549 13.6442C18.8295 14.1938 19.2923 14.9535 19.5477 15.875C19.8031 16.7641 19.8829 17.7016 19.8989 18.4291C19.9787 20.3204 19.835 22.2279 19.7073 24.0869C19.7393 24.1678 19.6914 24.2001 19.6275 24.2001Z" fill="#634240"/>
</g>
<mask id="mask9_7510_6360" style="mask-type:luminance" maskUnits="userSpaceOnUse" x="17" y="20" width="2" height="5">
<path d="M18.0332 20.8674H17.5863V24.7471H18.0332V20.8674Z" fill="white"/>
</mask>
<g mask="url(#mask9_7510_6360)">
<path d="M17.8895 24.7472C17.8257 24.7472 17.7778 24.6987 17.7778 24.634C17.8417 23.4216 17.7778 22.193 17.5703 20.9806C17.5544 20.916 17.6023 20.8675 17.6501 20.8513C17.714 20.8352 17.7619 20.8836 17.7778 20.9321C17.9853 22.1445 18.0651 23.3893 17.9853 24.634C18.0013 24.7148 17.9534 24.7472 17.8895 24.7472Z" fill="#634240"/>
</g>
<mask id="mask10_7510_6360" style="mask-type:luminance" maskUnits="userSpaceOnUse" x="6" y="11" width="10" height="6">
<path d="M15.3665 11.9297H6.87524V16.5368H15.3665V11.9297Z" fill="white"/>
</mask>
<g mask="url(#mask10_7510_6360)">
<path d="M8.1692 17.4892C8.13727 17.4892 8.10535 17.473 8.07343 17.4407C8.04151 17.3922 8.05747 17.3275 8.10535 17.2952C8.40861 17.1012 8.67995 16.8264 8.93532 16.4708C9.06301 16.2768 9.1907 16.0666 9.30242 15.8726C9.43011 15.6463 9.57376 15.4039 9.73337 15.1937C10.4516 14.1753 11.537 13.4317 12.7979 13.0922C14.0428 12.7527 15.3516 12.8336 16.5008 13.3185C16.5487 13.3347 16.5806 13.3994 16.5647 13.464C16.5487 13.5125 16.4849 13.5448 16.421 13.5287C14.1226 12.5588 11.3135 13.3185 9.90894 15.323C9.76529 15.5332 9.62164 15.7595 9.49396 15.9858C9.38223 16.1798 9.25454 16.3899 9.12685 16.6001C8.87148 16.9881 8.56822 17.279 8.249 17.4892C8.20112 17.473 8.18516 17.4892 8.1692 17.4892Z" fill="#634240"/>
</g>
<mask id="mask11_7510_6360" style="mask-type:luminance" maskUnits="userSpaceOnUse" x="15" y="12" width="3" height="4">
<path d="M17.6562 12.8171H15.4536V15.0156H17.6562V12.8171Z" fill="white"/>
</mask>
<g mask="url(#mask11_7510_6360)">
<path d="M17.5448 15.0157C17.4969 15.0157 17.449 14.9833 17.433 14.9187C17.3532 14.4499 17.1298 13.9973 16.7946 13.6578C16.4594 13.3183 16.0125 13.092 15.5337 13.0273C15.4699 13.0112 15.4379 12.9627 15.4379 12.898C15.4539 12.8334 15.5018 12.801 15.5656 12.801C16.0764 12.8819 16.5712 13.1243 16.9383 13.4961C17.3054 13.8679 17.5607 14.3529 17.6405 14.8702C17.6565 14.9348 17.6086 14.9833 17.5448 14.9995C17.5607 15.0157 17.5448 15.0157 17.5448 15.0157Z" fill="#634240"/>
</g>
<mask id="mask12_7510_6360" style="mask-type:luminance" maskUnits="userSpaceOnUse" x="9" y="20" width="2" height="5">
<path d="M10.0688 20.4958H9.62189V24.5048H10.0688V20.4958Z" fill="white"/>
</mask>
<g mask="url(#mask12_7510_6360)">
<path d="M9.87708 24.5048H9.86112C9.79727 24.4886 9.76535 24.4401 9.78131 24.3755C9.94092 23.5187 9.8292 22.6135 9.73343 21.7567C9.68555 21.3849 9.65363 20.9969 9.6217 20.6251C9.6217 20.5605 9.66959 20.512 9.71747 20.512C9.78131 20.512 9.8292 20.5605 9.8292 20.609C9.84516 20.9808 9.89304 21.3687 9.94092 21.7405C10.0367 22.6296 10.1484 23.5349 9.98881 24.424C9.97285 24.4725 9.92496 24.5048 9.87708 24.5048Z" fill="#634240"/>
</g>
<mask id="mask13_7510_6360" style="mask-type:luminance" maskUnits="userSpaceOnUse" x="8" y="19" width="2" height="5">
<path d="M9.06324 19.6714H8.52057V23.0499H9.06324V19.6714Z" fill="white"/>
</mask>
<g mask="url(#mask13_7510_6360)">
<path d="M8.9511 23.0497C8.88725 23.0497 8.83937 23.0012 8.83937 22.9365C8.87129 21.8858 8.75956 20.8188 8.52015 19.8004C8.50419 19.7358 8.53611 19.6873 8.59995 19.6711C8.6638 19.6549 8.71168 19.6873 8.72764 19.7519C8.96705 20.7865 9.07878 21.8696 9.04686 22.9365C9.04686 23.0012 9.01494 23.0497 8.9511 23.0497Z" fill="#634240"/>
</g>
<mask id="mask14_7510_6360" style="mask-type:luminance" maskUnits="userSpaceOnUse" x="10" y="26" width="5" height="3">
<path d="M14.2246 26.8325H10.4578V28.2227H14.2246V26.8325Z" fill="white"/>
</mask>
<g mask="url(#mask14_7510_6360)">
<path d="M11.511 28.2227C11.1758 28.2227 10.8406 28.1742 10.5214 28.0772C10.4735 28.0611 10.4576 28.0126 10.4735 27.9641C10.4895 27.9156 10.5374 27.8994 10.5853 27.9156C11.8302 28.3036 13.2667 27.8671 14.0967 26.8648C14.1286 26.8325 14.1765 26.8163 14.2084 26.8487C14.2403 26.881 14.2563 26.9295 14.2244 26.9618C13.554 27.7701 12.5325 28.2227 11.511 28.2227Z" fill="#E5E7E8"/>
</g>
<path d="M60.5752 28.9502C60.5752 28.9825 60.5752 29.0149 60.5592 29.0472C60.4794 29.7746 59.4579 30.5829 59.0429 30.4536C58.6279 30.3242 58.3406 26.7032 58.3406 26.7032C58.3406 26.7032 57.1595 27.7863 56.6807 27.4145C56.2178 27.0427 57.1276 26.2344 57.4468 25.4423C57.6543 24.9412 57.4628 24.4886 57.4628 24.4886C58.0214 23.7126 59.1546 23.26 59.1546 23.26C59.1546 23.26 60.4156 25.1029 60.639 25.7495C60.7827 26.1698 60.655 28.1419 60.5752 28.9502Z" fill="#E9AA86"/>
<path d="M50.3602 40.0719C50.3442 40.0719 50.3123 40.0557 50.2964 40.0396C50.2804 40.0072 50.2964 39.9749 50.3283 39.9587C53.1374 38.5039 55.4677 36.9358 55.7071 32.361C55.7071 32.3287 55.739 32.2964 55.771 32.2964C55.8029 32.2964 55.8348 32.3287 55.8348 32.361C55.7231 34.511 55.1325 36.1761 54.0312 37.4693C53.0257 38.6494 51.669 39.393 50.3762 40.0719C50.3762 40.0719 50.3602 40.0719 50.3602 40.0719Z" fill="white"/>
<path d="M51.6531 24.4886C51.6212 24.4886 51.5893 24.4724 51.5574 24.4401C51.5255 24.3916 51.5414 24.3269 51.5893 24.2946C52.9619 23.357 54.0952 22.08 54.8613 20.5928C54.8932 20.5443 54.9571 20.5119 55.0049 20.5443C55.0528 20.5766 55.0848 20.6413 55.0528 20.6898C54.2707 22.2093 53.1216 23.5187 51.701 24.4724C51.6851 24.4886 51.6691 24.4886 51.6531 24.4886Z" fill="#513433"/>
<path d="M51.1104 20.237C51.0466 20.237 50.9987 20.1885 50.9987 20.1239C51.0147 19.348 51.0147 18.5559 50.9349 17.7476C50.8551 16.9878 50.7274 16.2119 50.2964 15.6299C50.2645 15.5814 50.2645 15.5168 50.3124 15.4844C50.3603 15.4521 50.4241 15.4521 50.456 15.5006C50.9189 16.1311 51.0466 16.9393 51.1424 17.7314C51.2222 18.5397 51.2222 19.348 51.2062 20.1239C51.2222 20.1885 51.1743 20.237 51.1104 20.237Z" fill="#513433"/>
<path d="M43.928 19.5096C43.8801 19.5096 43.8322 19.4773 43.8322 19.4288C43.5769 18.1194 43.5449 16.7938 43.7365 15.4844C43.7524 15.4198 43.8003 15.3875 43.8642 15.3875C43.928 15.4036 43.9599 15.4521 43.9599 15.5168C43.7684 16.81 43.8003 18.1032 44.0557 19.3803C44.0716 19.4449 44.0238 19.4934 43.9759 19.5096C43.944 19.5096 43.928 19.5096 43.928 19.5096Z" fill="#513433"/>
<path d="M48.2214 25.2483C47.5511 25.2483 46.8967 25.0058 46.4178 24.6664C46.3699 24.634 46.354 24.5694 46.3859 24.5209C46.4178 24.4724 46.4817 24.4562 46.5295 24.4886C47.2318 24.9735 48.3172 25.2645 49.195 24.8119C49.6419 24.5694 49.8814 24.1976 50.1527 23.745C50.1846 23.6965 50.2485 23.6803 50.2963 23.7126C50.3442 23.745 50.3602 23.8096 50.3283 23.8581C50.041 24.3431 49.7856 24.7472 49.2908 25.0058C48.9556 25.1675 48.5885 25.2483 48.2214 25.2483Z" fill="#513433"/>
<path d="M45.7155 27.6733C45.6836 27.6733 45.6357 27.6571 45.6198 27.6086C45.0452 26.4932 44.0875 25.2485 43.8162 24.8929C43.7842 24.8444 43.7842 24.7797 43.8321 24.7474C43.88 24.7151 43.9438 24.7151 43.9758 24.7636C44.2631 25.1192 45.2207 26.3801 45.8113 27.5117C45.8432 27.5601 45.8113 27.6248 45.7634 27.6571C45.7474 27.6733 45.7315 27.6733 45.7155 27.6733Z" fill="#513433"/>
<path d="M50.8231 26.6872C50.7911 26.6872 50.7433 26.671 50.7273 26.6225C50.6954 26.574 50.7273 26.5094 50.7752 26.477C50.7911 26.4609 53.0736 25.3293 54.7335 23.2601C54.7654 23.2116 54.8293 23.2116 54.8771 23.244C54.925 23.2763 54.925 23.341 54.8931 23.3895C53.2012 25.4909 50.8869 26.6548 50.8709 26.6548C50.855 26.6872 50.839 26.6872 50.8231 26.6872Z" fill="#513433"/>
<path d="M27.983 19.2348C28.2862 18.9438 28.7331 18.8307 29.1481 18.863C29.5631 18.8792 29.9621 19.0085 30.3611 19.154C30.5367 19.2186 30.7123 19.2833 30.8559 19.4126C31.1752 19.6874 31.223 20.1562 31.2071 20.5765C31.1911 20.916 31.1432 21.2716 30.9836 21.5788C30.7921 21.9021 30.4888 22.1446 30.1377 22.2577C29.7866 22.3709 29.4035 22.387 29.0364 22.3386C28.8129 22.3062 28.6054 22.2416 28.4139 22.1284C27.8872 21.8051 27.6797 21.1423 27.5201 20.5765C27.4563 20.3664 27.4084 20.1886 27.5041 19.9784C27.5839 19.7036 27.7755 19.4288 27.983 19.2348Z" fill="#634240"/>
<path d="M39.5546 21.304C38.166 21.2878 36.953 21.2717 36.155 21.2394C35.5644 21.2232 35.1973 21.1909 35.1015 21.1585C34.91 21.0777 34.7504 20.6736 34.6227 20.1724C34.6068 20.1401 34.6068 20.0916 34.5908 20.0593C34.5908 20.027 34.5748 19.9946 34.5748 19.9623C34.5589 19.8653 34.5269 19.7683 34.511 19.6875C34.511 19.6551 34.495 19.6228 34.495 19.6067C34.495 19.5905 34.495 19.5743 34.4791 19.5582C34.4791 19.5258 34.4631 19.4935 34.4631 19.4612C34.4631 19.4288 34.4471 19.3965 34.4471 19.3642C34.4471 19.348 34.4471 19.3157 34.4312 19.2995C34.4312 19.2672 34.4152 19.2349 34.4152 19.2025C34.4152 19.1702 34.3993 19.1217 34.3993 19.0894C34.3833 19.0409 34.3833 18.9762 34.3673 18.9277C34.3514 18.8631 34.3514 18.8146 34.3354 18.7499C34.8302 18.0386 35.0377 17.2789 35.0377 17.2789C36.5699 17.0525 36.7136 15.5492 36.4103 15.242C36.1071 14.9349 35.6602 15.2905 35.6602 15.2905C35.5963 13.8356 34.91 13.2214 34.0162 12.5424C33.1383 11.8473 32.7393 11.039 32.7393 11.039C32.7393 11.039 32.6595 11.8311 31.9413 12.0736C31.223 12.3323 31.3986 12.8819 30.9996 13.1405C30.6165 13.3992 29.6589 13.3022 28.9406 13.9973C28.5416 14.3853 28.6852 14.9187 28.8608 15.3713C29.0523 15.8401 29.196 16.4059 28.9566 16.8909C28.8608 17.0849 28.7172 17.2627 28.6693 17.4728C28.5895 17.8123 28.765 18.1518 28.9406 18.4266C29.1162 18.7176 29.3237 19.0085 29.3396 19.3642C29.3396 19.7845 29.0523 20.1401 28.9406 20.5281C28.9087 20.6089 28.8927 20.7059 28.9247 20.7867C28.9566 20.916 29.0683 21.013 29.1481 21.1262C29.3237 21.3687 29.3396 21.6758 29.3556 21.9668C29.1162 22.0314 28.8129 22.0961 28.4618 22.1769C27.6797 22.3386 26.6263 22.5487 25.2856 22.7751C25.11 22.8074 24.9504 22.8397 24.7748 22.872C24.1523 21.5627 24.6471 20.7706 24.6312 19.6228C24.6152 18.7014 23.8491 18.9115 23.7054 18.1518C23.4979 17.004 24.9504 16.3898 24.5992 15.1289C24.5035 14.8056 24.3598 14.5146 24.2641 14.2074C23.5618 12.0736 28.2862 7.88681 28.9885 7.48268C32.9309 5.21954 33.8566 7.53117 33.8566 7.53117C33.8566 7.53117 35.0058 6.98155 36.1071 7.72516C36.9211 8.27478 37.6713 9.01838 38.0224 9.9398C38.4055 10.9421 38.3576 11.9766 38.1022 12.995C37.9745 13.5123 37.7989 14.0135 37.6234 14.5146C37.2722 15.533 38.3416 16.0988 38.4533 16.8262C38.5651 17.5375 37.8947 18.1518 38.1341 18.5882C38.3576 19.0247 39.6025 19.9138 39.5546 21.304Z" fill="#634240"/>
<path d="M34.3514 18.7822C33.9204 19.4127 33.2501 20.027 32.3084 20.0916C31.67 20.1401 31.1113 20.0431 30.6485 19.9138C30.1217 19.7522 29.595 19.4935 29.3556 19.3157C29.2439 18.7499 28.5256 18.1033 28.5895 17.7153C28.6374 17.3274 29.0683 16.9879 29.0843 16.309C29.1162 15.6462 28.2543 14.6924 28.9726 13.9973C29.6908 13.3022 30.6485 13.383 31.0315 13.1406C31.4146 12.8819 31.255 12.3323 31.9732 12.0736C32.6915 11.815 32.7713 11.0391 32.7713 11.0391C32.7713 11.0391 33.1703 11.8473 34.0481 12.5424C34.926 13.2375 35.6123 13.8357 35.6921 15.2905C35.6921 15.2905 36.139 14.9349 36.4423 15.242C36.7455 15.5492 36.6019 17.0526 35.0696 17.2789C35.0537 17.3274 34.8462 18.071 34.3514 18.7822Z" fill="#E9AA86"/>
<path d="M29.3875 21.9991C29.9781 21.8374 30.2813 21.7081 30.3611 21.5788C30.5526 21.2393 30.6324 20.4634 30.6484 19.9299C31.1113 20.0592 31.6699 20.1562 32.3084 20.1077C33.25 20.0431 33.9204 19.4288 34.3514 18.7983C34.479 19.6874 34.7344 21.0292 35.1015 21.1746C35.1813 21.207 35.5644 21.2393 36.1549 21.2555C35.8517 22.1446 34.9419 24.0359 32.7233 24.4077C30.4728 24.7795 29.0364 23.0337 28.5096 22.2092C28.8448 22.1284 29.1481 22.0637 29.3875 21.9991Z" fill="#E9AA86"/>
<path d="M29.3875 21.9989C29.1481 22.0636 28.8449 22.1282 28.4937 22.2091C28.7172 22.5485 29.0843 23.0497 29.611 23.4861C29.6589 23.3891 29.6908 23.276 29.7227 23.1628C29.8344 22.7102 29.9142 22.2737 29.9781 21.8049C29.8185 21.8696 29.6269 21.9343 29.3875 21.9989Z" fill="#FFAC94"/>
<path d="M34.4152 12.6718C34.479 13.577 34.6865 14.1266 34.9578 14.45C35.2292 14.7571 34.894 16.115 35.1653 16.1958C35.4207 16.2766 35.9634 14.8541 35.9634 14.8541L35.3569 12.4778L34.4152 12.6718Z" fill="#634240"/>
<path d="M26.6742 20.1724C27.0733 20.4795 27.5202 20.7382 27.983 20.916C28.4619 21.0938 28.8769 21.1262 29.1961 21.5626C29.6749 22.1931 29.7068 23.0337 29.4993 23.7611C29.3557 24.2299 29.0843 24.6987 28.6534 24.925C28.1267 25.1836 27.4723 25.0382 26.9456 24.7795C26.4189 24.5047 25.94 24.1329 25.3974 23.9066C24.9345 23.7126 24.4397 23.6318 23.9768 23.4216C23.897 23.3893 23.8172 23.3408 23.7534 23.2761C23.6895 23.1953 23.6576 23.0822 23.6576 22.969C23.6576 22.775 23.7374 22.581 23.8013 22.4032C24.0726 21.7243 24.3599 21.0292 24.6312 20.3502C24.6951 20.2047 24.7589 20.0431 24.8866 19.9299C25.0303 19.8168 25.2378 19.8006 25.4133 19.7844C25.6687 19.7683 25.9241 19.7521 26.1635 19.8491C26.371 19.9138 26.5306 20.0431 26.6742 20.1724Z" fill="#634240"/>
<path d="M36.0432 21.6919C36.0752 21.8373 36.0911 21.9828 36.1071 22.1283C36.155 22.5486 36.1869 22.9527 36.2348 23.373C36.2507 23.5509 36.2667 23.7287 36.3305 23.9065C36.3944 24.0682 36.5061 24.2298 36.6657 24.3106C36.9051 24.4238 37.2084 24.3268 37.4159 24.149C37.6234 23.9712 37.7511 23.7125 37.8787 23.4862C38.0064 23.2437 38.166 23.0012 38.3895 22.8719C38.6608 22.7103 38.996 22.6941 39.2673 22.5163C39.5068 22.3708 39.6664 22.1122 39.7302 21.8373C39.7941 21.5625 39.7781 21.2716 39.7143 20.9967C39.5866 20.4148 39.2354 19.8813 38.7726 19.5095C38.3097 19.1377 37.7032 18.9438 37.1126 18.9599C36.8094 18.9599 36.5061 19.0246 36.2507 19.2024C36.123 19.2832 36.0273 19.3964 35.9315 19.5095C35.6761 19.8328 35.5165 20.237 35.6123 20.6411C35.6442 20.8028 35.7559 20.9321 35.8198 21.0937C35.9315 21.2554 35.9954 21.4655 36.0432 21.6919Z" fill="#634240"/>
<path d="M34.479 19.4773C34.4311 19.2349 34.3992 18.9924 34.3673 18.7822C33.9364 19.4127 33.266 20.027 32.3243 20.0916C31.6859 20.1401 31.1272 20.0431 30.6644 19.9138C30.6644 20.0593 30.6484 20.2209 30.6324 20.3988C31.0634 20.4311 31.8614 20.4473 32.8191 20.2371C33.6171 20.0431 34.1598 19.7198 34.479 19.4773Z" fill="#BE9285"/>
<path d="M32.3403 25.6524C31.6381 25.6524 30.9517 25.4907 30.3133 25.1836C30.2814 25.1674 30.2654 25.1351 30.2814 25.1027C30.2973 25.0704 30.3293 25.0542 30.3612 25.0704C31.239 25.4907 32.2446 25.62 33.2022 25.426C34.1599 25.2321 35.0377 24.7309 35.6921 24.0035C35.7081 23.9712 35.756 23.9712 35.7879 24.0035C35.8198 24.0197 35.8198 24.0682 35.7879 24.1005C35.1175 24.8603 34.2078 25.3775 33.2182 25.5715C32.9309 25.62 32.6276 25.6524 32.3403 25.6524Z" fill="white"/>
<path d="M25.0303 13.0437C25.0143 13.0437 25.0143 13.0437 24.9984 13.0437C24.9505 13.0275 24.9345 12.979 24.9505 12.9306C25.2697 11.896 25.956 11.023 26.6264 10.1986C27.4085 9.26103 28.1905 8.54976 29.0365 8.04863C29.659 7.67683 31.7977 6.56142 33.314 7.596C33.3459 7.62833 33.3619 7.67683 33.33 7.70916C33.2981 7.74149 33.2502 7.75766 33.2182 7.72533C31.7818 6.73924 29.7228 7.82232 29.1163 8.17796C28.2863 8.66291 27.5042 9.35802 26.7541 10.2956C26.0997 11.1039 25.4293 11.9606 25.1101 12.9629C25.1101 13.0114 25.0782 13.0437 25.0303 13.0437Z" fill="#513433"/>
<path d="M28.3341 15.6783C28.3022 15.6783 28.2543 15.646 28.2543 15.6137C28.0149 14.4498 28.6693 13.1404 29.7386 12.6393C29.9781 12.5261 30.2334 12.4453 30.4728 12.3806C30.6165 12.3321 30.7761 12.2998 30.9198 12.2351C31.3826 12.0735 31.6859 11.8472 31.8614 11.5724C31.9572 11.4107 32.0211 11.2329 32.0689 11.0551C32.1009 10.9257 32.1487 10.7964 32.1966 10.6833C32.3243 10.3923 32.6116 10.0528 32.9947 10.0852C33.0426 10.0852 33.0745 10.1336 33.0745 10.1821C33.0745 10.2306 33.0266 10.263 32.9787 10.263C32.6914 10.2468 32.452 10.5216 32.3403 10.7641C32.2924 10.8773 32.2445 11.0066 32.2126 11.1197C32.1487 11.3137 32.0849 11.5077 31.9891 11.6694C31.7976 11.9927 31.4465 12.2351 30.9517 12.413C30.808 12.4615 30.6484 12.5099 30.5048 12.5584C30.2654 12.6231 30.01 12.7039 29.7865 12.8171C28.781 13.2859 28.1745 14.5144 28.3979 15.6137C28.4139 15.6622 28.382 15.7107 28.3341 15.7107C28.35 15.6783 28.3341 15.6783 28.3341 15.6783Z" fill="#513433"/>
<path d="M26.6263 17.9417C26.6104 17.9417 26.6104 17.9417 26.5944 17.9417C26.5465 17.9255 26.5306 17.877 26.5465 17.8285C26.7221 17.4082 26.6902 16.9556 26.6582 16.4706C26.6423 16.1473 26.6104 15.824 26.6582 15.5007C26.77 14.6278 27.3605 13.8842 27.7915 13.3992C27.9351 13.2537 28.0788 13.0921 28.2065 12.9466C28.6055 12.5263 29.0045 12.106 29.3078 11.6049C29.3876 11.4594 29.4674 11.3139 29.5472 11.1523C29.627 10.9906 29.7227 10.8128 29.8345 10.635C30.2016 10.0368 30.7442 9.56806 31.3508 9.32558C32.0052 9.06693 32.7234 9.06693 33.3299 9.32558C33.3778 9.34174 33.3938 9.39024 33.3778 9.43873C33.3618 9.48723 33.314 9.50339 33.2661 9.48723C32.6915 9.24475 32.0211 9.24475 31.4146 9.48723C30.84 9.71354 30.3452 10.15 29.9781 10.7158C29.8824 10.8774 29.7866 11.0553 29.7068 11.2169C29.627 11.3624 29.5472 11.5241 29.4674 11.6695C29.1641 12.1868 28.7491 12.6233 28.3501 13.0436C28.2065 13.1891 28.0628 13.3346 27.9351 13.4962C27.4882 13.9973 26.9615 14.6763 26.8498 15.5007C26.8019 15.8079 26.8338 16.1312 26.8498 16.4383C26.8817 16.9233 26.9136 17.4082 26.7221 17.877C26.6902 17.9255 26.6582 17.9417 26.6263 17.9417Z" fill="#513433"/>
<path d="M25.3972 20.9161C25.3813 20.9161 25.3813 20.9161 25.3653 20.9161C25.3174 20.8999 25.3015 20.8514 25.3015 20.8029C25.4611 20.2856 25.3972 19.7037 25.1259 19.2349C25.094 19.1702 25.0461 19.1056 25.0142 19.0409C24.8546 18.7984 24.695 18.5398 24.7269 18.2326C24.7588 17.9417 24.9503 17.7477 25.1419 17.5375C25.2057 17.4729 25.2855 17.3921 25.3334 17.3274C25.7324 16.8263 25.7165 16.2605 25.6845 15.6462C25.6845 15.5977 25.6845 15.533 25.6845 15.4845C25.6526 14.8218 25.7324 14.1428 25.908 13.48C26.2272 12.2515 26.8657 11.0553 27.8073 9.92368C27.8393 9.89135 27.8872 9.87518 27.9191 9.90752C27.951 9.93985 27.967 9.98834 27.935 10.0207C26.9933 11.1361 26.3709 12.3161 26.0676 13.5124C25.908 14.159 25.8282 14.8056 25.8601 15.4684C25.8601 15.5169 25.8601 15.5815 25.8601 15.63C25.892 16.2605 25.908 16.8748 25.477 17.4244C25.4132 17.5052 25.3334 17.586 25.2696 17.6507C25.094 17.8447 24.9184 18.0063 24.9025 18.2488C24.8705 18.4913 25.0142 18.7176 25.1738 18.9439C25.2217 19.0086 25.2536 19.0732 25.3015 19.1379C25.5888 19.639 25.6686 20.2856 25.493 20.8353C25.477 20.8999 25.4292 20.9161 25.3972 20.9161Z" fill="#513433"/>
<path d="M28.9725 22.8397C28.9566 22.8397 28.9406 22.8397 28.9246 22.8235C28.8768 22.7912 28.8767 22.7427 28.8927 22.7104C29.0842 22.387 28.8448 21.9183 28.5256 21.6111C28.4777 21.5626 28.4139 21.498 28.35 21.4495C28.0468 21.1908 27.7435 20.916 27.6797 20.5119C27.6158 20.2047 27.7116 19.9138 27.8074 19.6228C27.9031 19.2995 27.9989 19.0085 27.9031 18.7175C27.8393 18.572 27.7435 18.4589 27.6318 18.3296C27.552 18.2326 27.4722 18.1517 27.3924 18.0386C27.121 17.6021 27.1849 17.0363 27.2647 16.5999C27.2807 16.5514 27.3126 16.519 27.3605 16.5352C27.4083 16.5514 27.4403 16.5837 27.4243 16.6322C27.3445 17.0687 27.2807 17.5698 27.5201 17.9416C27.5839 18.0386 27.6478 18.1194 27.7276 18.2164C27.8393 18.3457 27.967 18.4912 28.0308 18.669C28.1585 19.0085 28.0468 19.348 27.951 19.6874C27.8552 19.9623 27.7754 20.2371 27.8233 20.4957C27.8872 20.8352 28.1745 21.0938 28.4458 21.3363C28.5096 21.3848 28.5575 21.4495 28.6214 21.498C28.9725 21.8213 29.2758 22.3709 29.0204 22.8073C29.0204 22.8235 29.0044 22.8397 28.9725 22.8397Z" fill="#513433"/>
<path d="M33.6012 8.38788C33.5852 8.38788 33.5693 8.38788 33.5693 8.37172C32.7872 7.99991 31.8455 7.91909 31.0155 8.17773C30.9676 8.1939 30.9197 8.16157 30.9038 8.11307C30.8878 8.06458 30.9197 8.01608 30.9676 7.99991C31.8455 7.74127 32.8191 7.80593 33.6491 8.1939C33.6969 8.21006 33.7129 8.25856 33.6969 8.30705C33.665 8.37172 33.6331 8.38788 33.6012 8.38788Z" fill="#513433"/>
<path d="M37.7192 11.7503C37.7033 11.7503 37.7033 11.7503 37.7192 11.7503C37.6714 11.7503 37.6394 11.718 37.6394 11.6695C37.6714 10.0045 36.8095 8.63041 35.4209 8.16161C35.0538 8.03229 34.6547 8.03229 34.1599 8.14545C34.1121 8.16161 34.0642 8.12928 34.0642 8.08079C34.0482 8.03229 34.0801 7.98379 34.128 7.98379C34.6547 7.87064 35.0857 7.87064 35.4847 8.01613C36.9372 8.51725 37.8629 9.95596 37.831 11.7018C37.799 11.718 37.7512 11.7503 37.7192 11.7503Z" fill="#513433"/>
<path d="M36.6498 10.5541C36.6179 10.5541 36.586 10.5379 36.57 10.4894C36.4423 10.1338 36.2827 9.71348 35.9954 9.42251C35.74 9.16386 35.3889 8.96988 34.9899 8.85672C34.6547 8.7759 34.2716 8.75973 33.8087 8.79206C33.7609 8.79206 33.7289 8.75973 33.713 8.71124C33.713 8.66274 33.7449 8.63041 33.7928 8.61424C34.2876 8.58191 34.6706 8.59808 35.0377 8.67891C35.4846 8.79206 35.8677 9.00221 36.139 9.29319C36.4423 9.61649 36.6179 10.053 36.7456 10.4248C36.7615 10.4733 36.7296 10.5217 36.6977 10.5379C36.6658 10.5541 36.6658 10.5541 36.6498 10.5541Z" fill="#513433"/>
<path d="M36.2028 14.8702C36.1709 14.8702 36.139 14.854 36.123 14.8217C36.0113 14.5954 35.9794 14.3529 35.9634 14.1266C35.9475 14.0134 35.9315 13.8841 35.9155 13.771C35.8517 13.4477 35.6761 13.1405 35.4367 12.898C35.325 12.7849 35.1973 12.704 35.0537 12.6071C34.9738 12.5586 34.91 12.4939 34.8302 12.4454C34.1918 11.9604 33.7608 11.233 33.3778 10.6026C33.3458 10.5702 33.3618 10.5056 33.4097 10.4894C33.4576 10.4732 33.5054 10.4732 33.5214 10.5217C33.9204 11.1683 34.3195 11.8473 34.926 12.3161C34.9898 12.3646 35.0696 12.4292 35.1494 12.4777C35.2771 12.5747 35.4208 12.6717 35.5484 12.7849C35.8198 13.0435 36.0113 13.383 36.0911 13.7386C36.123 13.868 36.123 13.9811 36.139 14.1104C36.1709 14.3367 36.1869 14.5631 36.2826 14.7409C36.2986 14.7894 36.2826 14.8379 36.2507 14.854C36.2348 14.8702 36.2188 14.8702 36.2028 14.8702Z" fill="#513433"/>
<path d="M35.8676 11.4594C35.8357 11.4594 35.8038 11.4432 35.7878 11.3947C35.6602 10.9744 35.3888 10.6026 35.0058 10.344C34.6546 10.1015 34.2077 9.956 33.7448 9.92367C33.697 9.92367 33.665 9.87517 33.665 9.82668C33.665 9.77818 33.7129 9.74585 33.7608 9.74585C34.2556 9.77818 34.7185 9.93983 35.1015 10.1985C35.5165 10.4895 35.8198 10.8936 35.9634 11.3462C35.9794 11.3947 35.9475 11.4432 35.8996 11.4594C35.8836 11.4594 35.8676 11.4594 35.8676 11.4594Z" fill="#513433"/>
<path d="M36.7615 15.1128C36.7455 15.1128 36.7295 15.1128 36.7136 15.0966C36.6816 15.0643 36.6657 15.0158 36.6976 14.9835C37.2084 14.3692 37.368 13.5124 37.4957 12.7688C37.4957 12.7203 37.5435 12.688 37.5914 12.7042C37.6393 12.7042 37.6712 12.7527 37.6553 12.8011C37.5276 13.5609 37.352 14.4338 36.8253 15.0966C36.8093 15.1128 36.7774 15.1128 36.7615 15.1128Z" fill="#513433"/>
<path d="M39.1238 22.064C39.1078 22.064 39.1078 22.064 39.0919 22.064C39.044 22.0478 39.028 21.9993 39.044 21.9508C39.1397 21.6598 39.2515 21.3204 39.1876 20.9971C39.1078 20.5606 38.7407 20.2535 38.3896 19.9463L38.3736 19.9301C37.9906 19.6068 37.6075 19.2027 37.5915 18.6854C37.5915 18.4753 37.6554 18.2651 37.7033 18.0711C37.7352 17.9741 37.7671 17.8772 37.7831 17.7802C37.9267 17.1174 37.5915 16.3576 37.001 16.0343C36.9531 16.0181 36.9531 15.9535 36.969 15.9211C36.985 15.8727 37.0489 15.8727 37.0808 15.8888C37.7352 16.2606 38.1023 17.0851 37.9427 17.8287C37.9267 17.9418 37.8788 18.0388 37.8469 18.1358C37.7831 18.3298 37.7352 18.5076 37.7352 18.6854C37.7511 19.1219 38.1023 19.4937 38.4534 19.8008L38.4694 19.817C38.8205 20.1241 39.2355 20.4798 39.3313 20.9647C39.3951 21.3204 39.2834 21.7083 39.1876 21.9993C39.1876 22.0316 39.1557 22.064 39.1238 22.064Z" fill="#513433"/>
<path d="M36.538 22.9855C36.538 22.9855 36.522 22.9855 36.538 22.9855C36.4741 22.9693 36.4422 22.937 36.4582 22.8885C36.5539 22.2903 36.3624 21.6599 36.1709 21.1264C36.1549 21.0779 36.139 21.0294 36.107 20.9648C35.9155 20.4313 35.708 19.8817 35.708 19.2998C35.708 18.9118 35.8038 18.5238 35.8995 18.1682C35.9793 17.8287 36.0751 17.4731 36.0751 17.1174C36.0751 17.069 36.107 17.0366 36.1549 17.0366C36.2028 17.0366 36.2347 17.069 36.2347 17.1174C36.2188 17.4892 36.139 17.8611 36.0432 18.2005C35.9474 18.5562 35.8676 18.928 35.8676 19.2998C35.8676 19.8494 36.0591 20.3828 36.2507 20.9001C36.2666 20.9486 36.2826 20.9971 36.3145 21.0618C36.522 21.6276 36.7295 22.2742 36.6178 22.9208C36.6178 22.9531 36.5859 22.9855 36.538 22.9855Z" fill="#513433"/>
<path d="M58.2289 39.3444C57.8459 39.7486 57.4469 40.1365 57.0319 40.4922C56.9999 40.5245 56.9521 40.5568 56.9201 40.5892C56.8882 40.6215 56.8563 40.6538 56.8084 40.6862C56.7765 40.7023 56.7605 40.7346 56.7286 40.7508C56.6967 40.7831 56.6488 40.8155 56.6169 40.8478C56.585 40.864 56.569 40.8963 56.5371 40.9125C56.5211 40.9286 56.5052 40.9448 56.4892 40.961C56.4413 40.9933 56.3934 41.0418 56.3455 41.0741C56.3136 41.1065 56.2817 41.1226 56.2498 41.1549C56.1221 41.2519 56.0104 41.3489 55.8827 41.4298C55.8508 41.4459 55.8188 41.4783 55.7869 41.4944C55.739 41.5268 55.6911 41.5591 55.6433 41.5914C55.6113 41.6076 55.5794 41.6399 55.5475 41.6561C55.4677 41.7046 55.4039 41.7531 55.324 41.8016C55.324 41.8016 55.3081 41.8016 55.3081 41.8177C55.2442 41.8662 55.1804 41.8986 55.1166 41.9471C55.1006 41.9632 55.0846 41.9632 55.0687 41.9794C54.9889 42.0279 54.9091 42.0764 54.8452 42.1249C54.8293 42.141 54.7973 42.1572 54.7814 42.1734C54.7495 42.1895 54.7175 42.2219 54.6696 42.238C54.6537 42.2542 54.6377 42.2704 54.6058 42.2704C54.5739 42.2865 54.542 42.3189 54.51 42.335C54.4622 42.3673 54.4143 42.3835 54.3824 42.4158C54.3504 42.432 54.3185 42.4643 54.2706 42.4805C54.2547 42.4967 54.2387 42.4967 54.2227 42.5128C54.1749 42.5452 54.127 42.5613 54.0791 42.5937C54.0631 42.6098 54.0472 42.6098 54.0312 42.626C54.0152 42.626 54.0153 42.6422 53.9993 42.6422C53.5843 42.8846 53.1693 43.111 52.7543 43.3049C52.7384 43.3049 52.7384 43.3211 52.7224 43.3211C52.7065 43.3373 52.6905 43.3373 52.6745 43.3534C52.6586 43.3534 52.6586 43.3696 52.6426 43.3696C52.6266 43.3696 52.6266 43.3858 52.6107 43.3858C52.499 43.4343 52.3872 43.4989 52.2755 43.5474C52.2436 43.5636 52.2276 43.5797 52.1957 43.5797C52.1478 43.5959 52.0999 43.6282 52.0521 43.6444C51.9722 43.6767 51.9084 43.7091 51.8286 43.7414C51.8126 43.7576 51.7807 43.7576 51.7648 43.7737C51.7169 43.7899 51.653 43.8222 51.6051 43.8384C51.5413 43.8707 51.4934 43.8869 51.4296 43.9192C51.4136 43.9192 51.3977 43.9354 51.3977 43.9354C51.2859 43.9839 51.1582 44.0324 51.0465 44.0809C50.8709 44.1455 50.7113 44.2102 50.5358 44.2749C50.456 44.3072 50.3921 44.3234 50.3123 44.3557C50.2804 44.3718 50.2644 44.3718 50.2325 44.388C49.9771 44.485 49.7377 44.5658 49.4983 44.6467C47.9182 45.1639 46.8488 45.3579 46.8488 45.3579L45.955 42.3835C45.955 42.3835 47.6149 41.9955 49.4823 41.2196V33.2501H39.5546C39.5546 33.1531 39.5706 33.0561 39.5706 32.943C39.6344 31.9246 39.81 30.114 40.3367 28.4813C41.1348 25.9596 43.5289 24.925 43.5289 24.925C43.5608 25.0381 43.8002 25.313 44.1673 25.6524C46.0986 29.031 47.6628 30.9385 50.0729 30.7768C52.1638 30.6475 56.7126 24.8603 56.9042 24.5532C56.9361 24.4885 56.968 24.3915 56.968 24.2622L57.4309 24.5209C57.4309 24.5209 57.6224 24.9735 57.4149 25.4746C57.0957 26.2667 56.1859 27.075 56.6488 27.4468C57.1117 27.8186 58.3087 26.7355 58.3087 26.7355C58.3087 26.7355 58.596 30.3565 59.011 30.4858C59.426 30.6152 60.4475 29.8069 60.5273 29.0795C60.5273 29.0471 60.5273 29.0148 60.5433 28.9825C61.054 31.084 61.5807 35.7719 58.2289 39.3444Z" fill="#AFADA0"/>
<path d="M37.454 48.5465C37.5349 49.1921 38.382 48.7539 38.6387 48.7771C38.4114 49.3104 38.3752 51.1556 38.5702 51.4778C38.6622 51.6218 38.8447 51.8122 39.0797 51.9781C39.4029 52.2063 39.8199 52.3515 40.1349 52.205C40.6805 51.9316 40.9994 50.2596 41.0182 49.9216C41.0211 49.5811 39.5773 48.8075 39.5773 48.8075L39.6872 47.1197C39.5918 47.1051 37.4029 48.1328 37.454 48.5465Z" fill="#E9AA86"/>
<mask id="mask15_7510_6360" style="mask-type:luminance" maskUnits="userSpaceOnUse" x="23" y="30" width="3" height="3">
<path d="M25.6466 30.6475H23.4759V32.8783H25.6466V30.6475Z" fill="white"/>
</mask>
<g mask="url(#mask15_7510_6360)">
<path d="M23.5558 32.8781C23.5399 32.8781 23.508 32.8619 23.492 32.8458C23.4601 32.8134 23.4601 32.765 23.492 32.7165L25.5031 30.6473C25.535 30.615 25.5829 30.615 25.6308 30.6473C25.6627 30.6796 25.6627 30.7281 25.6308 30.7766L23.6197 32.8458C23.6037 32.8781 23.5718 32.8781 23.5558 32.8781Z" fill="#E5E7E8"/>
</g>
<path d="M40.2736 55.553L39.6243 32.427L50.9862 31.3596L50.0124 53.4183L40.2736 55.553Z" fill="#AFADA0"/>
<path d="M46.2103 42.2054L46.9765 44.7595C46.9765 44.7595 46.2582 45.0343 45.8113 45.3576C45.3804 45.6809 44.2312 46.1659 43.896 46.0042C43.5449 45.8426 43.3374 44.5494 43.2097 44.3554C43.066 44.1614 42.5553 43.7249 42.7947 43.4663C43.0341 43.2076 44.4866 42.755 44.4387 42.464C44.3908 42.1892 43.9599 41.4941 43.9599 41.2678C43.9599 41.0415 43.9918 40.5889 44.2312 40.5889C44.4227 40.5889 44.4706 41.0092 44.7419 41.3001C45.0452 41.6235 45.3485 41.8498 45.524 42.0761C45.7156 42.3186 46.2103 42.2054 46.2103 42.2054Z" fill="#E9AA86"/>
<path d="M45.8911 42.1088L46.8648 45.746C48.1736 45.4227 55.9146 42.2866 57.7501 40.1043C62.0596 34.9961 60.9583 29.9363 60.4954 28.2713C60.1922 27.1882 59.5537 25.9597 58.2609 26.0567C53.297 26.4123 57.7501 33.4765 53.3609 37.7118C50.9667 40.0073 45.8911 42.1088 45.8911 42.1088Z" fill="#AFADA0"/>
<path d="M38.2877 47.1525L39.9586 38.416H41.6294L40.9611 51.1847L38.2877 47.1525Z" fill="#AFADA0"/>
<path d="M38.2276 47.2888L39.2473 48.6595L41.2866 51.0582" stroke="#A19F91" stroke-width="0.228448"/>
<path d="M24.2523 30.0155L21.539 33.3594H11.4989C11.3811 33.0988 11.2338 32.8708 11.116 32.773C10.8509 32.5287 9.18668 32.2844 8.6565 32.431C8.67123 32.1704 8.6565 31.4375 8.45032 31.3724C8.22941 31.3072 7.80231 32.3496 6.72722 33.3756H5.87304C5.51958 32.5776 5.95093 31.975 5.53856 31.3724C5.2882 30.1509 5.45475 29.1008 5.20439 28.3354C4.80675 27.0976 2.48575 25.7372 1.52847 23.7014L4.69485 20.6069C5.65212 21.9913 6.80086 23.0499 7.83177 23.7665C8.86268 24.4994 9.77578 24.8903 10.2618 24.988C10.4238 25.7535 11.924 26.5901 13.5587 26.6553C15.2966 26.7041 16.8665 25.3721 17.2347 24.6392C18.0888 24.9486 18.2145 25.3138 18.9951 25.6558C19.1129 25.7046 19.2307 25.7535 19.3191 25.8187C19.7609 26.0792 21.0716 26.9913 22.4266 28.4245C23.1629 29.2063 23.6043 28.908 24.2523 30.0155Z" fill="#FBBA71"/>
<mask id="mask16_7510_6360" style="mask-type:luminance" maskUnits="userSpaceOnUse" x="2" y="21" width="3" height="4">
<path d="M4.65644 21.9512H2.19684V24.007H4.65644V21.9512Z" fill="white"/>
</mask>
<g mask="url(#mask16_7510_6360)">
<path d="M2.27384 24.0066C2.2429 24.0066 2.22743 23.9909 2.21196 23.9752C2.18102 23.9438 2.18102 23.881 2.22743 23.8653L4.51687 21.9665C4.54781 21.9351 4.60969 21.9351 4.62515 21.9821C4.65609 22.0135 4.65609 22.0763 4.60969 22.092L2.32025 23.9909C2.32025 23.9909 2.30478 24.0066 2.27384 24.0066Z" fill="#E5E7E8"/>
</g>
<path d="M5.53857 35.3917C4.57615 33.51 5.33807 32.7035 5.53857 30.0154L21.6458 33.0395C20.7435 34.8316 19.9081 37.0718 19.9081 38.4158C19.9081 39.7599 21.1445 54.5447 22.2473 60.257H4.20187C5.20438 55.5528 6.50099 37.2734 5.53857 35.3917Z" fill="#FBBA71"/>
<path d="M43.6346 31.6956C43.1891 32.9276 42.4316 35.9294 42.9663 38.0799" stroke="#A29F91" stroke-width="0.228448"/>
</g>
<defs>
<clipPath id="clip0_7510_6360">
<rect width="61" height="60" fill="white"/>
</clipPath>
</defs>
</svg>
