<svg width="49" height="60" viewBox="0 0 49 60" fill="none" xmlns="http://www.w3.org/2000/svg">
<g clip-path="url(#clip0_7510_6318)">
<path d="M1.12927 34.3699C0.932872 33.9771 2.8968 33.437 2.995 32.9951C3.0441 32.5532 0.441892 32.7987 0.294597 32.455C0.0491063 31.8167 3.19139 32.0131 3.09319 31.7185C2.995 31.4239 -0.196385 31.0311 0.0982037 30.4419C0.392793 29.8527 3.38778 31.1784 3.43688 30.7856C3.48598 30.3928 0.540085 29.8036 0.490987 29.0181C0.490987 28.5762 5.40081 30.6874 5.89179 30.3928C6.43187 30.0982 5.05712 28.1834 5.49901 27.8397C5.89179 27.496 7.61023 31.473 7.95391 31.5712C8.2485 31.6694 15.0241 33.7316 17.3317 34.0753C17.5281 33.2897 19.2465 29.0181 19.4429 28.2816C20.7685 29.0672 22.487 28.1343 23.9108 28.8217C23.2235 31.2766 21.6523 39.329 21.014 39.7218C19.0992 40.8511 9.13227 35.5483 7.46293 34.6154C5.79359 33.6825 4.95892 34.1244 3.87876 33.8789C2.70041 33.6825 1.27656 34.7627 1.12927 34.3699Z" fill="#B28B67"/>
<path d="M17.97 60.0001H24.9911L22.5361 51.4567L21.9961 49.5909L21.8488 49.0508L21.7506 48.658L21.456 47.627L19.5412 48.3144L19.2466 48.4125L18.5101 48.7071C18.5101 48.7071 18.5101 48.7563 18.5101 48.8054C18.5101 48.9035 18.461 49.0509 18.461 49.2472C18.461 49.3454 18.4119 49.3945 18.4119 49.4927C18.4119 49.64 18.3628 49.8364 18.3137 50.0328C18.3137 50.2292 18.2646 50.4256 18.2155 50.6711C17.9209 52.9788 17.5281 56.9559 17.97 60.0001Z" fill="#B28B67"/>
<path d="M19.0501 45.6138L19.0992 45.9084V46.0066L19.492 48.3634L19.5902 49.0508L19.6393 49.3454L19.7375 49.8855L19.983 51.3094L21.0631 57.6923L21.8978 60.0491H35.8908C35.8417 58.7234 35.7926 57.5941 35.6453 56.7594C35.5471 56.2193 35.3998 55.6301 35.2034 55.09C34.6633 53.4206 33.8778 51.7512 33.1904 50.3274C32.503 49.0017 31.8156 47.9215 31.5701 47.4796C31.4719 47.3323 31.4228 47.2341 31.4228 47.2341L29.9499 47.0377H29.8517L29.2625 46.9395H29.1152L20.6212 45.8102L19.0501 45.6138Z" fill="#B28B67"/>
<path d="M17.6262 60.0001H36.2836C36.2345 58.7726 36.1854 57.7415 36.0381 56.9559C36.0381 56.9068 35.989 56.8577 35.989 56.7595C35.4489 54.2554 34.025 51.4567 32.9449 49.5909C32.2084 48.3143 31.6192 47.4796 31.6192 47.4796H31.5701L30.0481 47.2832H29.9499L29.2625 47.185H29.1152L19.5902 46.0066L19.0992 45.9575L18.7555 45.9084L18.8046 46.0557L19.2465 48.5107V48.6089L18.4609 48.7562C18.4609 48.7562 18.4609 48.8053 18.4609 48.8544C18.4609 48.9526 18.4118 49.0999 18.3627 49.2963C18.3627 49.3945 18.3136 49.4436 18.3136 49.5909C18.2645 49.7382 18.2645 49.9346 18.2154 50.131C18.1663 50.3274 18.1663 50.5238 18.1172 50.7202C17.7735 52.9297 17.2335 56.9068 17.6262 60.0001Z" fill="#F0CE88"/>
<path d="M18.9029 10.6053C18.4119 8.3467 17.9209 6.03901 19.2465 3.53492C20.3267 1.52183 22.1924 0.343429 24.3037 0.0979302C30.3918 -0.638567 29.0662 5.05701 37.5602 6.28451C40.1624 6.62821 42.6173 6.97191 44.8267 8.2976C48.8037 10.6544 50.3257 14.4842 47.6744 20.6708C41.1934 35.8426 25.7766 22.6348 23.4199 19.9834C21.0632 17.2829 19.1974 12.0783 18.9029 10.6053Z" fill="#473F3B"/>
<path d="M17.1353 60H37.2164L35.989 56.8085L35.498 55.581C35.498 55.581 35.3998 55.3846 35.2034 55.0409C34.7124 54.2062 33.6323 52.4386 32.3066 50.4746C31.6193 49.4435 30.8337 48.3633 29.999 47.2831C29.9499 47.234 29.9499 47.1849 29.9008 47.1358C29.8517 47.0867 29.8517 47.0376 29.8026 46.9885C29.5571 46.6939 29.3116 46.3502 29.0661 46.0556C28.968 45.9574 28.9189 45.8592 28.8207 45.761C28.5752 45.4664 28.3297 45.1718 28.1333 44.9263C27.1022 43.7479 26.1203 42.7168 25.0892 41.8821C22.7816 40.0163 20.6213 39.4762 19.3938 42.0294C19.0501 42.7168 18.7555 43.6497 18.6082 44.8281C18.5591 45.2209 18.4609 45.5646 18.4118 45.9574C18.3136 46.6448 18.2154 47.3813 18.1172 48.1178C18.0681 48.5106 18.0191 48.9034 17.97 49.2962C17.97 49.3944 17.9209 49.4435 17.9209 49.5417C17.9209 49.689 17.8718 49.8854 17.8718 50.0327C17.5281 53.3224 17.2826 56.7103 17.1353 60Z" fill="#F0CE88"/>
<path d="M28.4278 17.8232C28.4278 17.8232 31.4719 18.1669 33.3377 20.18C35.2034 22.1931 30.3918 38.1997 30.0481 40.7529C29.7044 43.3061 33.2395 50.3273 33.2395 50.3273C33.2395 50.3273 21.2595 52.7332 18.1663 50.671C18.1663 50.671 17.8717 31.0311 18.2154 29.2144C18.5591 27.3486 21.3086 19.9836 21.996 19.2471C22.6342 18.5597 28.4278 17.8232 28.4278 17.8232Z" fill="#F0CE88"/>
<path d="M26.9058 11.6367C26.9058 11.6367 26.9058 11.784 26.9549 12.0295C27.1513 13.1588 27.9369 16.8413 28.4769 17.8724C29.1152 19.0999 26.2675 23.0279 23.4689 22.5369C22.6343 22.3896 24.1563 18.9526 24.1072 18.5598C23.9599 17.8724 23.7635 16.8904 23.5671 15.9084C23.4689 15.3683 23.3707 14.7791 23.2234 14.2881C22.9289 12.8151 22.6834 11.5876 22.6834 11.5876L26.9058 11.6367Z" fill="#B28B67"/>
<path d="M26.9549 11.9802C26.9058 11.7838 26.9058 11.6365 26.9058 11.6365L22.7816 11.5383C22.7816 11.5383 23.0271 12.7658 23.3217 14.2388C23.4199 14.7789 23.5181 15.319 23.6654 15.8591C24.3036 15.7609 24.991 15.4663 25.6293 14.8771C26.3658 14.2388 26.8567 13.4532 27.1513 12.6676C27.0531 12.373 27.004 12.1766 26.9549 11.9802Z" fill="#8E6F55"/>
<path d="M24.4018 1.76751C24.4018 1.76751 26.0712 2.01301 27.2986 3.58421C28.5261 5.1554 29.8517 10.0654 26.8077 12.7168C23.7636 15.3682 20.7686 12.3731 20.3267 9.18159C19.8848 5.9901 19.983 1.66931 24.4018 1.76751Z" fill="#B28B67"/>
<path d="M19.4429 8.39617C19.6393 9.18177 20.1303 9.67277 20.5722 9.57457C21.0141 9.42727 21.2105 8.73987 21.0141 7.95428C20.8177 7.16868 20.3267 6.67768 19.8848 6.77588C19.4429 6.87408 19.2465 7.61058 19.4429 8.39617Z" fill="#B28B67"/>
<path d="M22.5361 1.76764C22.5361 1.76764 26.513 6.33392 28.3787 6.53032C30.2445 6.72672 30.49 9.23081 30.49 9.23081C30.49 9.23081 29.8026 3.53523 27.986 2.45503C26.1202 1.37484 22.5361 1.76764 22.5361 1.76764Z" fill="#473F3B"/>
<path d="M27.7406 7.65967C27.5933 8.49437 27.8879 9.23086 28.4279 9.32906C28.968 9.42726 29.5081 8.83807 29.6554 8.05247C29.8027 7.21777 29.5081 6.48127 28.968 6.38307C28.477 6.28487 27.8879 6.82497 27.7406 7.65967Z" fill="#B28B67"/>
<path d="M26.2321 31.5935L29.0964 47.2925L17.0207 49.4958L14.1564 33.7969L26.2321 31.5935Z" fill="#BED9EA"/>
<path d="M27.0388 32.1325L29.3446 47.9224L17.199 49.6961L14.8932 33.9062L27.0388 32.1325Z" fill="#D3E5F4"/>
<path d="M28.0828 32.7401L30.0822 48.5715L17.9046 50.1096L15.9052 34.2782L28.0828 32.7401Z" fill="#F4F4F4"/>
<path d="M36.8236 35.2046L32.1593 35.6956C32.1593 35.6956 32.2575 39.6236 32.1593 40.1146C32.1593 40.1146 24.2054 42.3241 20.8667 42.9133C20.8667 42.9133 19.3447 42.0786 18.7555 41.784C18.1663 41.4894 16.497 41.1948 16.1533 41.1457C15.8096 41.0966 15.9078 41.4894 16.2024 41.6367C16.497 41.784 17.3317 42.1768 17.5771 42.6187C17.5771 42.6187 16.9389 42.6678 16.5952 42.5205C16.2515 42.3732 15.7605 42.0295 15.7605 41.8822C15.7605 41.7349 15.6623 41.293 15.5641 41.3421C15.515 41.3421 15.515 41.4894 15.4659 41.6367C15.4168 41.784 15.3677 41.9313 15.3677 42.0295C15.3186 42.275 15.2204 42.6187 15.2204 42.766C15.1713 43.1097 15.3677 44.1408 15.4168 44.4845C15.4659 45.1228 15.6623 45.4174 16.006 45.5647C16.5461 45.7611 17.1353 45.8593 18.019 45.9575C19.5902 46.1048 21.0631 45.6629 21.7014 45.6138C22.3397 45.5647 32.4539 44.5336 32.4539 44.5336C32.4539 44.5336 36.48 43.9444 36.7254 43.257C36.9218 42.6187 36.8236 35.2046 36.8236 35.2046Z" fill="#B28B67"/>
<path d="M32.7976 19.5908C32.7976 19.5908 34.2706 20.2782 35.5471 23.2733C36.7746 26.121 36.8237 40.36 36.8237 40.36L32.2575 39.5744L29.8026 32.9459C28.0351 28.9688 28.477 24.3044 31.0792 20.8183C31.7175 19.8854 32.3557 19.2962 32.7976 19.5908Z" fill="#F0CE88"/>
</g>
<defs>
<clipPath id="clip0_7510_6318">
<rect width="49" height="60" fill="white" transform="matrix(-1 0 0 1 49 0)"/>
</clipPath>
</defs>
</svg>
