<svg width="40" height="40" viewBox="0 0 40 40" fill="none" xmlns="http://www.w3.org/2000/svg">
<g clip-path="url(#clip0_5903_4163)">
<path d="M18 30H22V18H18V30ZM20 14C20.5667 14 21.042 13.808 21.426 13.424C21.81 13.04 22.0013 12.5653 22 12C22 11.4333 21.808 10.9587 21.424 10.576C21.04 10.1933 20.5653 10.0013 20 10C19.4333 10 18.9587 10.192 18.576 10.576C18.1933 10.96 18.0013 11.4347 18 12C18 12.5667 18.192 13.042 18.576 13.426C18.96 13.81 19.4347 14.0013 20 14ZM20 40C17.2333 40 14.6333 39.4747 12.2 38.424C9.76667 37.3733 7.65 35.9487 5.85 34.15C4.05 32.35 2.62533 30.2333 1.576 27.8C0.526667 25.3667 0.00133333 22.7667 0 20C0 17.2333 0.525333 14.6333 1.576 12.2C2.62667 9.76667 4.05133 7.65 5.85 5.85C7.65 4.05 9.76667 2.62533 12.2 1.576C14.6333 0.526667 17.2333 0.00133333 20 0C22.7667 0 25.3667 0.525333 27.8 1.576C30.2333 2.62667 32.35 4.05133 34.15 5.85C35.95 7.65 37.3753 9.76667 38.426 12.2C39.4767 14.6333 40.0013 17.2333 40 20C40 22.7667 39.4747 25.3667 38.424 27.8C37.3733 30.2333 35.9487 32.35 34.15 34.15C32.35 35.95 30.2333 37.3753 27.8 38.426C25.3667 39.4767 22.7667 40.0013 20 40Z" fill="#2E6491"/>
</g>
<defs>
<clipPath id="clip0_5903_4163">
<rect width="40" height="40" fill="white"/>
</clipPath>
</defs>
</svg>
