<svg width="200" height="200" viewBox="0 0 200 200" fill="none" xmlns="http://www.w3.org/2000/svg">
<g clip-path="url(#clip0_66_2884)">
<path d="M99.9997 180.778C109.204 180.778 116.666 173.316 116.666 164.111C116.666 154.906 109.204 147.444 99.9997 147.444C90.7949 147.444 83.333 154.906 83.333 164.111C83.333 173.316 90.7949 180.778 99.9997 180.778Z" fill="#B5B5B5"/>
<path d="M162.111 98.3889L162.722 97.4445C163.325 96.5096 163.736 95.464 163.931 94.3687C164.127 93.2734 164.102 92.1501 163.859 91.0644C163.616 89.9787 163.16 88.9521 162.516 88.0445C161.873 87.1369 161.055 86.3664 160.111 85.7778C142.047 74.6188 121.232 68.7128 99.9997 68.7222C96.8886 68.7222 93.833 68.7222 90.833 69.1111L108.666 86.9445C123.637 88.2674 138.093 93.0609 150.889 100.944C152.725 102.057 154.923 102.413 157.016 101.936C159.11 101.459 160.937 100.187 162.111 98.3889Z" fill="#B5B5B5"/>
<path d="M182 52.1112C163.485 40.5633 142.74 33.0551 121.123 30.0777C99.5056 27.1003 77.5033 28.7209 56.5557 34.8334L71.1668 49.4445C106.074 41.9505 142.528 48.3684 172.778 67.3334C174.605 68.4125 176.776 68.749 178.844 68.2734C180.911 67.7979 182.717 66.5465 183.889 64.7778L184.5 63.8334C185.117 62.9031 185.542 61.8591 185.751 60.7624C185.959 59.6658 185.946 58.5386 185.713 57.4469C185.481 56.3552 185.032 55.3209 184.395 54.4047C183.757 53.4885 182.943 52.7087 182 52.1112Z" fill="#B5B5B5"/>
<path d="M16.6666 26.3889L33.8889 43.6111C28.3096 46.1869 22.8922 49.0997 17.6666 52.3333C16.7103 52.9174 15.8807 53.6872 15.2268 54.5972C14.5729 55.5072 14.1079 56.539 13.8594 57.6316C13.6108 58.7243 13.5837 59.8557 13.7796 60.959C13.9755 62.0623 14.3904 63.1152 15 64.0555L15.6111 65C16.7828 66.7687 18.5889 68.02 20.6565 68.4956C22.7242 68.9711 24.8955 68.6346 26.7222 67.5555C33.2116 63.4734 40.0317 59.9425 47.1111 57L64.5555 74.4444C55.7278 77.2825 47.2772 81.1814 39.3889 86.0555C38.4492 86.6486 37.6368 87.4224 36.9987 88.3321C36.3606 89.2418 35.9096 90.2691 35.6718 91.3546C35.434 92.44 35.4143 93.5618 35.6137 94.6549C35.8131 95.748 36.2276 96.7906 36.8333 97.7222L37.4444 98.6666C38.6161 100.435 40.4222 101.687 42.4899 102.162C44.5575 102.638 46.7288 102.301 48.5555 101.222C57.9798 95.3927 68.3334 91.2213 79.1666 88.8889L99.1666 108.889C85.8599 109.025 72.8331 112.727 61.4444 119.611C60.5066 120.199 59.6954 120.968 59.0579 121.872C58.4205 122.777 57.9696 123.8 57.7317 124.881C57.4938 125.962 57.4736 127.079 57.6723 128.168C57.871 129.257 58.2845 130.295 58.8889 131.222L59.4444 132.111C60.6669 133.918 62.5412 135.182 64.6745 135.637C66.8079 136.093 69.0349 135.705 70.8889 134.556C78.3658 130.114 86.7648 127.453 95.4352 126.779C104.106 126.104 112.815 127.435 120.889 130.667L161.111 170.833L168.944 163L24.5 18.5555L16.6666 26.3889Z" fill="#B5B5B5"/>
</g>
<defs>
<clipPath id="clip0_66_2884">
<rect width="200" height="200" fill="white"/>
</clipPath>
</defs>
</svg>
