<svg width="21" height="26" viewBox="0 0 21 26" fill="none" xmlns="http://www.w3.org/2000/svg">
<path d="M18.9 26H2.1C1.54322 25.9995 1.0094 25.8037 0.61569 25.4555C0.221984 25.1073 0.000555951 24.6353 0 24.1429V1.85714C0.000555951 1.36475 0.221984 0.892663 0.61569 0.544488C1.0094 0.196312 1.54322 0.000491657 2.1 0H18.9C19.4568 0.000491657 19.9906 0.196312 20.3843 0.544488C20.778 0.892663 20.9994 1.36475 21 1.85714V17.2881L15.75 14.9667L10.5 17.2881V1.85714H2.1V24.1429H18.9V20.4286H21V24.1429C20.9992 24.6352 20.7776 25.1071 20.384 25.4552C19.9904 25.8034 19.4567 25.9993 18.9 26ZM15.75 12.8904L18.9 14.2833V1.85714H12.6V14.2833L15.75 12.8904Z" fill="#14446C"/>
</svg>
