<svg width="76" height="103" viewBox="0 0 76 103" fill="none" xmlns="http://www.w3.org/2000/svg">
<g opacity="0.7">
<mask id="mask0_7020_2639" style="mask-type:luminance" maskUnits="userSpaceOnUse" x="34" y="-12" width="18" height="115">
<path d="M51.6338 103L34.9596 103L34.9596 -11.9965L51.6338 -11.9965L51.6338 103Z" fill="white"/>
</mask>
<g mask="url(#mask0_7020_2639)">
<path fill-rule="evenodd" clip-rule="evenodd" d="M45.575 95.6992C46.6107 97.5631 48.4749 102.171 50.1319 102.948C51.2194 103.466 51.2711 99.2718 51.3229 98.4951C51.6336 95.4403 51.6336 92.3854 51.5301 89.3306C51.3747 83.7905 49.6659 78.7681 47.1285 73.8493C45.8339 71.3122 44.2804 68.7234 41.8984 67.0148C40.8109 66.2381 39.4646 65.9792 38.3771 65.3061C37.1343 64.4777 37.8075 65.099 37.3415 63.701C36.7201 61.7335 36.6683 59.2482 36.4612 57.1772C35.5809 47.702 35.8915 -1.84852 37.4968 -11.2201C37.6522 -12.0486 36.5129 -12.3592 36.3576 -11.3237C35.5291 -5.9389 34.7523 31.91 34.9595 44.3365C35.1666 56.7629 35.5291 67.7396 36.5129 72.0889C37.704 77.4219 40.1378 83.894 42.2091 88.9164C43.2448 91.2464 44.2804 93.5245 45.575 95.6992Z" fill="#DF9F1E"/>
</g>
</g>
<g opacity="0.8">
<mask id="mask1_7020_2639" style="mask-type:luminance" maskUnits="userSpaceOnUse" x="36" y="-12" width="40" height="73">
<path d="M36.1204 60.4877L75.5791 60.4877L75.5791 -12L36.1204 -12L36.1204 60.4877Z" fill="white"/>
</mask>
<g mask="url(#mask1_7020_2639)">
<path fill-rule="evenodd" clip-rule="evenodd" d="M75.113 60.4873C73.3006 60.2801 70.0383 56.5522 68.433 55.1542C66.517 53.4974 64.7564 51.6852 63.0993 49.8212C59.4745 45.7308 56.2122 41.3816 53.3123 36.7217C48.6 29.214 44.6645 21.3957 41.6093 13.0078C39.6933 7.88192 38.2952 2.49712 37.2595 -2.88768C37.0524 -3.92321 35.24 -11.6898 36.7935 -12.0522C38.1398 -12.3628 38.2952 -6.14962 38.4505 -5.32119C40.1076 4.10221 43.2146 13.1114 47.2019 21.7063C48.0822 23.5703 48.9107 25.9003 50.2053 27.5571C51.1374 28.748 50.3089 28.3856 51.707 28.748C52.9498 29.0587 54.2962 28.7998 55.539 29.214C58.2835 30.0424 60.6137 31.9582 62.685 33.9257C66.6724 37.7054 69.9865 41.9511 71.9542 47.077C73.0417 49.9248 74.0773 52.8243 74.8023 55.8273C74.9577 56.6558 76.304 60.5908 75.113 60.4873Z" fill="#57A9B7"/>
</g>
</g>
<g opacity="0.7">
<mask id="mask2_7020_2639" style="mask-type:luminance" maskUnits="userSpaceOnUse" x="0" y="-12" width="37" height="84">
<path d="M1.52588e-05 71.7266L36.5589 71.7266L36.5589 -11.9967L2.25781e-05 -11.9967L1.52588e-05 71.7266Z" fill="white"/>
</mask>
<g mask="url(#mask2_7020_2639)">
<path fill-rule="evenodd" clip-rule="evenodd" d="M-0.000644684 71.7266C0.62075 71.1052 0.20649 70.2768 0.20649 69.4484C0.154709 68.1022 0.310055 66.756 0.517186 65.4098C0.827885 63.3387 1.3975 61.2676 2.17425 59.3001C3.93487 55.0026 6.99008 50.8605 10.7185 48.0645C12.5309 46.7183 14.3951 46.2006 16.5182 45.5275C17.8645 45.1132 17.9681 44.3884 18.6413 43.0422C20.0394 40.2462 21.4376 37.502 22.6286 34.6025C24.0785 31.1853 25.5285 27.7162 26.823 24.2471C31.2764 12.4938 34.8494 0.377998 36.5065 -12.1002C36.8172 -4.79969 35.3673 2.81152 33.4513 9.85317C32.0531 14.9791 30.1889 19.9497 28.2212 24.8685C27.7551 26.0593 26.9784 27.6126 26.823 28.9071C26.7195 29.839 27.1855 30.6675 27.4444 31.6512C28.4283 35.3274 28.4801 39.5213 27.8587 43.301C27.1855 47.4432 24.8553 49.4625 20.868 50.1874C19.418 50.4463 17.5538 50.4463 16.2075 51.1194C14.7576 51.8442 14.2397 54.1224 13.463 55.5722C11.3399 59.5072 8.80249 63.3387 5.85085 66.7042C5.02232 67.6362 4.14201 68.5164 3.20991 69.293C2.58851 69.8626 1.34571 71.0535 -0.000644684 71.7266Z" fill="#DA8681"/>
</g>
</g>
</svg>
