<svg width="241" height="164" viewBox="0 0 241 164" fill="none" xmlns="http://www.w3.org/2000/svg">
<g clip-path="url(#clip0_12830_943)">
<path d="M182.255 98.2614C179.069 92.3463 174.926 87.1072 171.581 81.3048C169.934 78.4881 168.554 75.446 167.757 72.1786C166.854 68.4605 167.067 64.6861 166.801 60.9117C166.376 54.8839 164.04 49.1942 159.951 44.9128C157.88 42.772 155.49 41.082 152.835 39.8427C149.754 38.4343 146.515 37.4766 143.435 36.0119C137.646 33.2515 133.132 28.4631 128.459 24.069C124.051 19.9003 119.325 16.2949 113.855 13.8725C102.915 9.08407 90.3294 8.85873 79.0711 12.5205C67.9189 16.1259 58.0944 23.562 50.4473 32.8009C46.5706 37.4766 43.2249 42.603 40.4634 48.0675C37.5957 53.7009 35.3122 59.6724 33.0287 65.6438C30.692 71.7843 28.3023 77.9247 25.1691 83.6708C23.629 86.5439 21.8765 89.2479 19.8585 91.783C17.7874 94.4307 15.3445 96.7404 13.1141 99.2191C10.9368 101.641 9.0781 104.233 7.80357 107.275C2.54614 119.274 -0.06684 152.338 33.0292 164.589H168.76C169.928 160.815 191.017 157.924 191.017 137.414C192.345 123.837 188.628 110.092 182.255 98.2614Z" fill="#DFDCCF"/>
<path d="M49.7326 163.029L48.6232 162.955C50.2503 136.681 39.6002 112.035 30.3553 95.9008C20.3708 78.4342 9.86861 67.0366 9.7207 66.8886L10.5343 66.1484C10.6082 66.2964 21.2583 77.7681 31.3167 95.3087C40.6357 111.591 51.3597 136.459 49.7326 163.029Z" fill="#BDBAAC"/>
<path d="M4.98675 65.4081C7.50144 69.2566 11.1254 71.625 14.7494 72.2171C15.3411 68.2205 14.4536 63.7799 11.939 59.9313C9.4243 56.0827 5.87428 53.7144 2.17636 53.1223C1.58464 57.1189 2.47217 61.5595 4.98675 65.4081Z" fill="#BDBAAC"/>
<path d="M18.3715 69.9966C18.2236 74.5853 19.7027 78.8779 22.2913 81.9123C25.0278 79.396 26.8768 75.3994 27.0987 70.8108C27.2466 66.2221 25.7674 61.9294 23.1789 58.895C20.4423 61.4114 18.5933 65.3339 18.3715 69.9966Z" fill="#BDBAAC"/>
<path d="M15.4913 82.1345C11.7193 82.2085 8.46514 83.9107 6.32031 86.5752C8.76104 89.0916 12.1632 90.7198 15.935 90.7198C19.7069 90.6458 22.9611 88.9436 25.106 86.2791C22.6653 83.6888 19.2632 82.0605 15.4913 82.1345Z" fill="#BDBAAC"/>
<path d="M21.5557 92.348C17.7838 92.422 14.5296 94.1243 12.3848 96.7887C14.7514 99.379 18.2275 101.007 21.9255 100.933C25.6974 100.859 28.9516 99.1571 31.0965 96.4926C28.7298 93.9023 25.3277 92.274 21.5557 92.348Z" fill="#BDBAAC"/>
<path d="M157.652 163.661C181.467 157 198.848 139.682 209.276 126.434C220.592 112.002 226.286 98.976 226.36 98.828L227.396 99.1981C227.322 99.3461 221.553 112.446 210.164 127.026C199.661 140.496 182.059 157.889 157.949 164.698L157.652 163.661Z" fill="#BDBAAC"/>
<path d="M225.769 93.9429C223.403 97.4214 222.81 101.344 223.772 104.896C227.545 104.23 231.094 102.01 233.461 98.6056C235.828 95.2011 236.419 91.2045 235.458 87.652C231.686 88.3181 228.136 90.5384 225.769 93.9429Z" fill="#BDBAAC"/>
<path d="M227.245 107.487C223.104 108.745 219.924 111.483 218.297 114.74C221.698 116.442 225.988 116.886 230.13 115.628C234.271 114.37 237.451 111.631 239.079 108.375C235.677 106.673 231.387 106.229 227.245 107.487Z" fill="#BDBAAC"/>
<path d="M224.437 119.699C220.147 119.033 216.005 120.069 212.973 122.289C215.191 125.25 218.742 127.47 223.105 128.136C227.395 128.802 231.537 127.766 234.569 125.546C232.35 122.585 228.726 120.365 224.437 119.699Z" fill="#BDBAAC"/>
<path d="M215.487 131.171C211.198 130.505 207.056 131.541 204.023 133.761C206.242 136.722 209.792 138.942 214.156 139.608C218.446 140.274 222.587 139.238 225.619 137.018C223.4 134.057 219.777 131.837 215.487 131.171Z" fill="#BDBAAC"/>
<path d="M217.263 112.89C217.263 109.189 215.71 105.785 213.269 103.416C210.828 105.563 209.275 108.819 209.275 112.52C209.275 116.22 210.828 119.625 213.269 121.993C215.71 119.847 217.263 116.59 217.263 112.89Z" fill="#BDBAAC"/>
<path d="M207.869 124.805C207.943 121.105 206.39 117.626 204.023 115.258C201.509 117.33 199.955 120.587 199.881 124.287C199.807 127.988 201.36 131.466 203.727 133.834C206.242 131.762 207.869 128.506 207.869 124.805Z" fill="#BDBAAC"/>
<path d="M200.696 142.864C199.068 142.05 197.293 141.976 195.666 142.494C196.036 144.048 197.145 145.454 198.698 146.268C200.325 147.082 202.101 147.157 203.728 146.638C203.358 145.084 202.323 143.678 200.696 142.864Z" fill="#BDBAAC"/>
<path d="M162.553 55.1229L157.584 68.0318C157.584 68.0318 165.536 75.6307 165.802 75.6307C166.067 75.6307 172.075 72.8034 171.81 72.8034C171.545 72.8034 163.416 53.894 163.416 53.894L162.553 55.1229H162.553Z" fill="#A1623C"/>
<path d="M82.0906 60.6571L79.6406 56.0637L81.1719 45.805L89.8993 38.4557L100.005 41.8243C100.005 41.8243 104.445 52.389 104.139 52.6951C103.833 53.0011 102.761 60.3505 102.301 60.3505C101.842 60.3505 98.8632 62.6382 98.8632 62.6382L99.0153 64.9028L99.5875 66.7556L96.9426 73.2118C96.9426 73.2118 95.7179 73.3651 95.8707 74.4365C96.024 75.5085 95.7173 76.8865 95.4113 77.9579C95.1053 79.0299 92.3493 82.7046 92.3493 82.7046C92.3493 82.7046 91.2773 79.1832 90.6653 77.6519C90.0526 76.1206 87.9556 74.1531 87.2966 73.3645C86.3684 72.2545 85.0998 70.2449 85.0998 70.2449L83.947 67.682L84.3534 62.4843L82.0912 60.6565L82.0906 60.6571Z" fill="#D3966C"/>
<path d="M92.3376 82.7694L92.3204 82.7135C92.3097 82.6785 91.2419 79.1755 90.637 77.6632C90.1717 76.4997 88.8323 75.0694 87.9457 74.1228C87.6688 73.8269 87.43 73.572 87.2731 73.3842C86.3544 72.2855 85.0863 70.2818 85.0739 70.2616L83.9157 67.688V67.6803L84.3216 62.498L82.0665 60.6761L79.6094 56.0685L81.1437 45.7891L89.8924 38.4219L100.026 41.8L100.032 41.8125C100.043 41.8387 101.154 44.4847 102.214 47.1338C104.365 52.5109 104.216 52.6601 104.159 52.7159C104.036 52.8389 103.762 54.2698 103.472 55.7839C102.939 58.5601 102.57 60.3802 102.301 60.3802C101.947 60.3802 99.9247 61.8604 98.8931 62.6525L99.0441 64.8981L99.6187 66.7574L99.6145 66.7675L96.9625 73.2398L96.9453 73.2422C96.9393 73.2428 96.3617 73.3194 96.0634 73.7104C95.9137 73.9065 95.8584 74.1496 95.8988 74.4336C96.0218 75.2964 95.8715 76.4522 95.4383 77.9675C95.1341 79.0323 92.4838 82.5733 92.3715 82.7236L92.3365 82.7706L92.3376 82.7694ZM83.9763 67.6773L85.1261 70.233C85.1368 70.2497 86.4025 72.2498 87.3188 73.3456C87.4745 73.5316 87.7128 73.7865 87.9891 74.0812C88.8787 75.0314 90.2228 76.467 90.6922 77.6406C91.2562 79.0495 92.22 82.1817 92.3602 82.6398C92.6817 82.2078 95.1002 78.939 95.3824 77.9502C95.8133 76.4433 95.963 75.2952 95.8412 74.4407C95.7984 74.1407 95.8578 73.8822 96.0171 73.673C96.3041 73.2969 96.8181 73.2006 96.9209 73.1851L99.5557 66.7545L98.9852 64.9052L98.8319 62.6246L98.8444 62.6151C98.9662 62.5212 101.837 60.3208 102.301 60.3208C102.541 60.3208 103.066 57.5838 103.413 55.7732C103.766 53.9365 103.988 52.8039 104.118 52.6743C104.32 52.4325 101.757 46.0725 99.9823 41.8482L89.9055 38.489L81.1995 45.8206L79.6718 56.0584L82.114 60.6375L84.384 62.4713L83.9769 67.6773H83.9763Z" fill="#A1623C"/>
<path d="M50.5026 55.8001C50.5026 55.8001 49.313 55.2053 49.0159 56.0973C48.7188 56.9892 48.7188 58.7736 48.9166 60.1612C49.1145 61.5487 49.8086 62.8375 50.1063 63.1347C50.4034 63.4318 51.1967 63.4318 51.1967 63.4318C51.1967 63.4318 51.7915 67.1985 52.1878 68.2884C52.5842 69.3788 52.8819 70.4692 52.8819 70.4692C52.8819 70.4692 52.4855 72.3522 50.9988 73.3434C49.512 74.3346 46.043 75.6234 46.043 75.6234L60.4155 99.412L71.3189 76.3169C71.3189 76.3169 70.724 75.7221 69.8321 74.7309C68.9402 73.7398 68.6425 72.8478 68.6425 72.8478C68.6425 72.8478 70.03 70.9647 70.5256 68.9824C71.0212 67.0001 71.2196 64.9185 71.2196 64.9185C71.2196 64.9185 71.9137 65.4141 72.6071 64.9185C73.3006 64.4229 73.6975 63.531 74.0939 62.0443C74.4712 60.63 74.5895 59.0708 74.5895 58.2775C74.5895 57.4842 72.5079 54.412 72.5079 54.412L70.1292 45.2931C70.1292 45.2931 59.3251 42.7159 58.9287 42.8152C58.5324 42.9144 51.1973 48.8614 51.1973 48.8614L50.5032 55.7996L50.5026 55.8001Z" fill="#A1623C"/>
<path d="M25.9473 109.193C25.9473 109.193 29.9814 122.751 30.5792 125.216C31.177 127.681 32.372 131.686 35.9582 132.303C39.5443 132.919 62.4041 138.003 63.898 138.003C65.3918 138.003 87.6544 133.227 87.6544 133.227L95.2742 130.608L97.3658 116.126C97.3658 116.126 96.768 105.958 96.32 106.112C95.8719 106.266 47.164 108.269 46.4165 107.807L45.6695 107.345C45.6695 107.345 34.0156 105.804 33.4178 105.804C32.8201 105.804 25.9473 109.193 25.9473 109.193Z" fill="#A1623C"/>
<path d="M112.172 89.9184C112.172 89.9184 112.662 89.1738 114.286 86.1872C115.91 83.2007 116.525 80.8392 116.525 80.8392L112.794 78.1034L107.57 67.6564C107.57 67.6564 111.301 54.2245 111.799 53.852C112.296 53.4788 118.017 51.9867 118.391 51.8619C118.764 51.7377 129.832 57.7073 129.832 57.7073L135.926 72.507L129.295 82.0609C129.295 82.0609 126.35 86.5604 125.355 87.9283C124.36 89.2962 120.38 94.0221 120.007 93.8979C119.634 93.7737 113.167 92.7784 113.167 92.7784L112.172 89.9178V89.9184Z" fill="#E8A87E"/>
<path d="M132.658 142.856C132.219 142.856 128.816 146.04 127.279 146.699C125.743 147.357 121.242 150.102 119.485 151.638C117.728 153.175 114.435 157.896 115.643 158.664C116.85 159.432 119.265 157.347 119.485 156.907C119.704 156.468 121.242 154.602 121.242 154.602C121.242 154.602 124.974 155.151 126.62 155.151C128.267 155.151 132.548 154.932 132.548 154.932C132.548 154.932 132.878 153.504 133.756 152.407C134.634 151.309 136.939 149.992 136.939 149.992C136.939 149.992 136.5 147.467 135.402 145.601C134.305 143.734 132.658 142.856 132.658 142.856L132.658 142.856Z" fill="#E8A87E"/>
<path d="M148.233 67.5149L146.391 61.6161L143.406 58.2635C143.406 58.2635 146.624 40.5657 147.161 40.8337C147.697 41.1017 157.887 41.772 157.887 41.772L163.92 53.3023L162.579 57.4589C162.579 57.4589 162.486 60.8495 161.232 62.7308C160.964 63.1331 160.837 66.8447 160.837 66.8447L147.697 82.7996L144.747 68.4532L148.233 67.5149H148.233Z" fill="#EFB08E"/>
<path d="M163.443 58.1737C163.443 58.1737 164.841 66.819 165.222 67.8357C165.604 68.8531 167.638 73.4298 169.036 74.0656C170.434 74.7014 170.671 75.1245 170.671 75.1245L171.452 77.3713C171.452 77.3713 167.129 84.3635 167.256 87.1605C167.384 89.9575 170.308 97.5855 172.087 97.8399C173.867 98.0942 180.606 87.542 180.606 87.542L190.776 78.0071L191.285 77.1169C191.285 77.1169 186.963 73.8113 185.691 72.7945C184.42 71.7772 184.637 67.276 184.637 67.276L185.182 65.1665C185.182 65.1665 187.344 64.2763 188.234 63.2596C189.124 62.2423 189.886 57.6656 189.886 57.6656C189.886 57.6656 191.92 53.3432 188.107 51.5629C184.293 49.7832 174.757 44.1892 174.249 44.1892C173.741 44.1892 167.511 49.2746 165.985 50.5456C164.46 51.8167 162.425 54.3593 162.553 55.1223C162.68 55.8853 163.443 58.1737 163.443 58.1737Z" fill="#E8A87E"/>
<path d="M152.064 103.188C151.766 103.337 154.074 110.558 154.297 111.526C154.521 112.494 157.052 122.099 157.052 122.099L157.871 125.822C157.871 125.822 163.381 123.365 163.306 123.439C163.232 123.513 168.839 127.468 172.539 128.874C176.262 130.289 179.909 130.735 181.101 130.735C182.292 130.735 185.196 131.406 186.461 131.554C187.727 131.703 190.184 132.671 191.301 132.448C192.417 132.224 192.944 131.889 194.056 131.182C194.874 130.661 195.407 129.386 196.364 126.789C197.406 123.96 198.821 117.11 198.895 116.217C198.969 115.323 200.384 108.548 199.937 108.473C199.49 108.399 168.89 103.932 168.592 103.783C168.294 103.633 152.063 103.187 152.063 103.187L152.064 103.188Z" fill="#E8A87E"/>
<path d="M84.4602 62.6803C84.2647 62.8294 81.9514 65.3846 81.0387 62.1906C80.8913 61.6754 78.7408 62.3332 79.051 60.9891C79.3612 59.645 80.6323 58.9705 78.9773 57.6258C77.3224 56.2817 77.0859 56.6453 77.3961 54.991C77.7063 53.3361 79.1544 53.2327 78.0165 52.1987C76.8791 51.1648 77.4995 50.0269 77.8097 48.9929C78.1199 47.959 78.2233 47.0278 77.9131 45.7871C77.6029 44.5463 77.9131 43.7186 79.6714 42.9948C81.4297 42.271 83.084 42.271 82.567 41.3399C82.0501 40.4093 79.1544 40.2026 81.0161 38.2375C82.8778 36.2724 84.4288 35.2384 88.255 34.618C92.0812 33.9977 96.3215 34.618 98.4928 35.0316C100.665 35.4452 100.458 37.1001 99.837 37.7205C99.2166 38.3409 97.5617 38.8578 99.9404 39.5822C102.319 40.306 105.111 40.306 105.421 42.6846C105.732 45.0633 103.353 46.9244 104.905 48.5793C106.455 50.2342 106.87 50.5444 106.145 52.9225C105.421 55.3012 106.145 57.99 104.387 59.7478C102.629 61.5061 102.318 62.6434 101.181 63.3672C100.044 64.0909 98.9688 64.3869 98.9688 64.3869C98.9688 64.3869 98.4786 63.0861 99.0989 60.9142C99.7193 58.7423 100.043 58.403 100.043 58.403C100.043 58.403 100.353 58.8166 101.077 57.8861C101.801 56.9555 101.491 54.6802 101.491 54.6802C101.491 54.6802 100.664 52.9219 100.56 50.9574C100.457 48.9923 102.318 48.7855 99.9398 47.5448C97.5611 46.304 97.1475 46.2006 97.0441 44.5457C96.9407 42.8908 98.0781 41.8569 95.1824 41.6501C92.2868 41.4433 91.3562 40.7195 88.6673 41.6501C85.9785 42.5806 84.9445 43.7186 84.3242 45.8899C83.7038 48.0618 84.3557 51.5962 83.3217 53.2505C82.2878 54.9048 81.2217 54.7836 80.9115 55.5074C80.6014 56.2311 80.6014 58.0928 81.5319 58.5064C82.4625 58.92 83.3936 58.8166 83.3936 58.8166C83.3936 58.8166 83.784 60.7312 83.9094 61.2327C84.1305 62.1163 84.4597 62.6797 84.4597 62.6797L84.4602 62.6803Z" fill="#543529"/>
<path d="M184.573 112.067L182.326 119.15H184.656L184.573 112.067Z" fill="#C67555"/>
<path d="M93.9775 98.6894C94.0595 96.9394 93.8313 95.1579 93.6697 93.418C93.4594 91.1629 93.2181 88.9108 93.0571 86.6516C92.9917 85.7377 92.9358 84.8214 92.9341 83.9051C92.9323 83.217 92.9103 82.618 93.1937 82.022C93.6751 81.0118 94.3691 80.1062 94.9728 79.1685C95.2254 78.7764 95.4821 78.3776 95.6586 77.9438C95.8523 77.4655 95.9272 76.9503 95.9913 76.4417C96.1274 75.3608 96.1357 74.0131 97.093 73.2911C97.5262 72.9643 98.1204 72.7307 98.6154 73.0593C99.1728 73.4289 99.3612 74.1866 99.4503 74.8046C99.5157 75.2568 100.203 75.0648 100.138 74.615C99.978 73.5056 99.3178 72.0949 97.9838 72.1858C96.7763 72.2684 95.8945 73.3059 95.5896 74.4029C95.2931 75.4695 95.4102 76.6371 95.0032 77.6747C94.8415 78.0871 94.564 78.4905 94.3186 78.8691C93.9858 79.3825 93.64 79.8864 93.3096 80.401C92.8093 81.1806 92.3315 81.9501 92.2543 82.8896C92.1871 83.706 92.2228 84.532 92.2638 85.3485C92.3791 87.6517 92.6251 89.9478 92.8455 92.2421C92.9656 93.4905 93.085 94.739 93.1753 95.9898C93.2401 96.8853 93.3072 97.7903 93.265 98.6882C93.2437 99.1469 93.9567 99.1457 93.9781 98.6882L93.9775 98.6894Z" fill="#517FB4"/>
<path d="M84.0635 66.7833C84.0635 66.7833 81.4674 68.0312 80.0234 69.4752C78.5794 70.9191 78.2128 72.9757 78.2128 72.9757L71.0762 75.4703L84.5448 85.3148L83.5822 75.929L83.3831 70.9625L84.0635 66.7839V66.7833Z" fill="#517FB4"/>
<path d="M78.078 72.8426C77.681 74.5712 77.8011 76.317 77.8058 78.0723C77.807 78.5311 78.5201 78.5323 78.5189 78.0723C78.5141 76.3835 78.3834 74.6954 78.7655 73.0321C78.8683 72.5853 78.1808 72.3945 78.078 72.8426Z" fill="#426384"/>
<path d="M139.747 73.4577C140.094 73.2272 141.709 69.764 141.825 67.5713C141.94 65.3786 141.709 51.759 141.825 48.6423C141.94 45.5262 144.279 37.3396 150.919 36.0852C158.046 34.7393 159.469 37.7027 160.739 38.8567C162.009 40.0106 162.716 43.5641 163.523 44.8334C164.331 46.1032 165.947 48.8729 165.947 48.8729L162.253 54.1823C162.253 54.1823 163.177 51.6432 160.407 48.8729C157.636 46.1026 157.867 43.7947 154.52 43.9099C151.173 44.0252 149.096 43.9099 147.942 46.5643C146.788 49.2187 147.249 50.6039 146.556 52.7971C145.864 54.9898 145.056 57.2984 145.056 57.2984C145.056 57.2984 145.287 58.4524 145.864 58.7988C146.441 59.1452 146.903 59.2605 146.903 59.2605C146.903 59.2605 147.704 61.9375 148.057 63.7618C148.409 65.5866 148.403 67.4555 148.403 67.4555C148.403 67.4555 148.057 71.495 146.326 72.9954C144.594 74.4958 138.016 76.8044 138.016 76.8044L139.285 73.9188L139.747 73.4571V73.4577Z" fill="#A1623C"/>
<path d="M155.111 164.698L156.379 138.362L142.461 148.966L144.979 164.698H155.111Z" fill="#8EC2ED"/>
<path d="M148.479 66.7022L143.736 73.6879L138.425 76.025L137.787 89.4105L145.223 92.1724C147.427 93.2878 149.913 94.1726 150.535 97.2715L151.956 103.389C151.956 103.389 157.546 92.1724 158.184 91.7475C158.821 91.3227 169.87 80.9119 169.87 80.9119L171.371 77.242L171.144 75.3874C171.144 75.3874 169.657 74.3249 167.958 73.0503C166.258 71.7757 164.921 70.6033 164.921 70.6033L162.433 67.9513L160.974 65.0942C160.974 65.0942 160.308 66.8888 158.184 69.2259C156.059 71.563 155.042 72.9832 153.176 74.7331C151.17 76.6139 148.623 80.2743 148.623 80.2743L147.773 73.6879C147.773 73.6879 147.348 71.9884 147.986 70.7132C148.623 69.4386 148.479 66.7016 148.479 66.7016V66.7022Z" fill="#8EC2ED"/>
<path d="M93.2212 99.3889C93.2212 99.3889 99.5664 81.9336 100.025 74.8855C100.133 73.2164 99.4659 66.2081 99.0161 64.9032C98.7588 64.1562 103.535 68.9427 104.208 70.4158C104.321 70.6648 106.658 70.9969 106.658 70.9969C106.658 70.9969 110.514 77.7735 111.331 80.227C112.149 82.6806 112.006 86.5466 112.006 86.5466L110.457 88.9722C110.457 88.9722 104.051 90.9438 102.569 92.2612C99.8052 94.7166 98.8396 103.411 98.8396 103.411L97.8734 119.471C97.8734 119.471 97.5668 130.706 97.3333 132.692C97.0997 134.679 93.5724 143.203 92.8712 144.605C92.1701 146.006 92.8712 158.275 92.8712 158.275L87.1465 133.038C87.1465 133.038 90.0677 132.337 91.5865 131.519C93.1054 130.702 94.7413 130.702 95.3254 127.78C95.9095 124.859 95.6457 117.329 95.5589 114.546C95.4014 109.509 93.2224 99.3889 93.2224 99.3889H93.2212Z" fill="#517FB4"/>
<path d="M190.593 50.647C190.229 49.9636 189.44 48.7378 188.771 47.7258C187.979 46.7756 187.945 45.9788 187.395 45.0322C186.416 43.3482 185.748 41.3872 184.135 40.1803C183.541 39.7365 182.856 39.4489 182.14 39.3692C181.132 39.122 179.983 39.0525 179.424 38.9824C178.431 38.8582 175.577 38.8582 172.971 39.4786C170.365 40.0989 168.628 40.7193 166.27 42.8294C163.913 44.9389 164.781 48.1655 164.409 49.5305C164.037 50.8954 162.424 51.3916 161.307 53.3775C160.19 55.3628 164.224 62.8001 164.224 62.8001C164.224 62.8001 163.258 57.6464 163.878 56.2814C164.498 54.9165 165.65 53.5011 167.263 52.3845C168.876 51.2674 173.715 50.0266 175.08 49.1579C175.452 48.9214 175.796 48.5744 176.1 48.194C175.867 49.3504 176.279 50.622 177.035 51.5651C178.047 52.8266 179.545 53.5545 180.85 54.4839C184.019 56.0396 184.884 60.6977 184.884 60.6977C184.884 60.6977 186.621 56.3545 187.862 55.7342C189.103 55.1138 189.02 56.5976 188.979 57.8436C188.928 59.3655 187.986 62.311 186.869 63.4282C185.753 64.5447 185.206 63.4834 185.206 63.4834L184.635 67.2752C184.635 67.2752 186.869 66.9032 187.242 65.6618C187.614 64.4211 188.235 64.4211 189.6 63.1798C190.965 61.939 190.593 60.6977 190.965 59.3328C191.337 57.9678 191.585 52.5075 190.593 50.6464L190.593 50.647Z" fill="#543529"/>
<path d="M171.372 77.2426C171.372 77.2426 163.161 78.3514 160.063 81.2553C157.037 84.0922 153.986 95.0734 153.986 95.0734L151.617 101.923L151.957 103.39C151.957 103.39 156.363 106.537 158.329 108.227C159.591 109.313 162.468 112.327 162.468 112.327C162.468 112.327 168.99 110.46 171.72 110.336C174.45 110.212 179.144 110.654 180.045 110.709C181.251 110.783 184.373 110.229 184.373 110.229L184.43 112.047C184.43 112.047 187.244 110.229 193.2 110.089C198.525 109.964 204.176 111.127 204.244 110.709C204.911 106.629 204.911 96.2399 204.911 96.2399C204.911 96.2399 205.588 91.8813 202.485 86.9171C199.383 81.9536 194.813 79.065 194.813 79.065L190.222 76.0868C190.222 76.0868 185.382 78.6931 183.148 81.0503C180.914 83.4082 172.972 93.5837 172.972 93.5837C172.972 93.5837 170.987 91.5984 170.615 88.8679C170.242 86.1375 171.855 80.4294 171.855 80.4294L171.372 77.2414V77.2426Z" fill="#68B3A8"/>
<path d="M152.068 164.614H200.881C200.269 161.336 196.427 140.856 195.467 137.696C194.312 133.893 193.758 131.406 193.758 131.406C193.758 131.406 192.177 132.743 190.171 132.195C188.164 131.648 185.415 131.229 183.591 131.047C181.768 130.864 177.974 130.215 174.549 129.173C172.334 128.498 168.963 126.777 166.584 125.661L162.981 123.204L157.871 125.822C157.871 125.822 158.968 130.134 158.968 132.87C158.968 135.607 155.648 139.015 155.648 139.015L152.068 164.614Z" fill="#68B3A8"/>
<path d="M113.302 88.0807C113.302 88.0807 113.61 90.4564 116.093 91.3786C119.588 92.6776 122.247 91.6591 122.247 91.6591C122.247 91.6591 113.049 102.288 110.511 111.676C107.974 121.062 109.853 132.089 110.017 132.874C110.832 136.765 111.272 154.298 111.272 154.298L101.124 150.239C101.124 150.239 102.806 127.288 102.771 126.721C102.498 122.209 97.0289 119.065 99.8556 111.929C102.013 106.484 113.302 88.0807 113.302 88.0807H113.302Z" fill="#CC64B4"/>
<path d="M111.87 164.614L111.149 153.936L101.122 150.24L100.51 164.614H111.87Z" fill="#88B5E2"/>
<path d="M112.006 86.5475L113.89 85.2301L115.612 84.0262L116.585 80.6118C116.585 80.6118 113.976 79.3307 112.599 72.5458C112.473 71.9207 111.722 73.171 111.081 71.2647C109.231 65.761 110.734 65.8192 110.734 65.8192L111.662 65.3551L112.28 60.8693C112.28 60.8693 112.932 55.371 115.351 54.422C117.173 53.7078 121.2 56.0835 123.882 56.8476C127.074 57.7568 129.072 62.409 130.07 64.7365C131.462 67.9852 133.144 69.6044 133.163 70.4601C133.206 72.2862 130.843 72.162 130.843 72.162C130.843 72.162 129.799 75.7439 129.49 77.2907C129.18 78.8375 129.296 82.0617 129.296 82.0617C129.296 82.0617 132.854 87.6308 135.02 88.4039C137.185 89.1776 139.66 90.1057 139.66 90.1057C139.66 90.1057 138.114 83.9181 138.887 82.0617C139.66 80.2054 140.818 77.592 140.898 74.7914C141.052 69.3774 138.113 68.7582 138.268 66.4384C138.423 64.118 139.351 63.1898 137.34 60.5603C135.329 57.9309 132.235 56.3835 131.152 54.3727C130.07 52.3618 128.523 49.1132 125.119 48.4946C121.716 47.876 118.932 48.4946 116.147 49.1132C113.362 49.7318 112.589 49.4228 110.578 52.0522C108.567 54.6817 109.804 58.0854 108.103 60.2508C106.401 62.4161 106.401 64.4275 105.937 66.9025C105.473 69.3774 107.484 73.7087 109.031 77.1118C110.577 80.515 112.005 86.5481 112.005 86.5481L112.006 86.5475Z" fill="#543529"/>
<path d="M94.5494 164.614L87.1459 133.038C87.1459 133.038 71.5286 136.048 68.4202 136.048C67.2709 136.048 54.7792 135.963 47.8856 133.705C43.9768 132.424 39.267 130.545 39.267 130.545L32.3193 129.461L29.3945 164.614H94.5488H94.5494Z" fill="#62A89C"/>
<path d="M26.3055 110.551L25.3773 94.088C25.3773 94.088 25.2561 85.5045 29.6088 83.2559C33.1159 81.4441 47.5496 74.7936 47.5496 74.7936L60.4127 91.7188L71.0755 75.4704C71.0755 75.4704 85.4622 80.8867 88.1701 83.764C90.878 86.6412 90.878 85.4563 93.0784 94.7654C93.7594 97.6468 95.4761 111.635 95.4761 111.635C95.4761 111.635 93.5859 110.336 88.8469 111.183C84.108 112.029 82.2552 113.838 82.2552 113.838C82.2552 113.838 81.9759 114.637 81.4684 114.468C80.961 114.298 80.892 114.229 74.9682 114.737C69.0444 115.244 66.844 116.091 60.4127 116.091C53.9814 116.091 45.5827 115.164 45.5827 115.164C45.5827 115.164 43.5457 112.479 42.5997 110.949C40.3975 107.386 39.2566 108.644 39.2566 108.644C39.2566 108.644 37.7437 107.171 37.0669 107.679C36.39 108.187 36.7181 109.49 36.7181 109.49L35.5332 109.321C35.5332 109.321 34.1789 107.967 30.9636 108.475C27.7476 108.982 26.3067 110.552 26.3067 110.552L26.3055 110.551Z" fill="#62A89C"/>
<path d="M36.2314 113.924C36.8155 114.355 37.5523 114.533 38.2595 114.636C39.0403 114.749 39.8282 114.776 40.6156 114.807C42.5753 114.885 44.475 115.361 46.4199 115.571C46.8757 115.62 46.8721 114.907 46.4199 114.858C44.5297 114.654 42.6817 114.182 40.7766 114.101C40.0249 114.069 39.2696 114.056 38.5233 113.959C37.8483 113.872 37.1483 113.719 36.5915 113.309C36.2219 113.036 35.8659 113.655 36.2314 113.924V113.924Z" fill="#7F492E"/>
<path d="M74.813 54.0438C74.4933 53.2879 74.58 52.6248 74.7387 51.8547C74.9859 50.6543 74.9158 49.3797 74.419 48.2685C73.6941 46.6475 72.773 45.0116 71.3094 43.9111C70.0586 42.971 68.5891 42.3096 67.1386 41.7113C66.4107 41.4112 65.6637 41.1515 64.9055 40.9429C64.1568 40.5204 63.3754 40.1603 62.544 39.9423C61.7828 39.7426 60.9973 39.6796 60.2177 39.7889C59.4422 39.8977 58.7262 40.1865 58.0119 40.4949C57.3886 40.7641 56.7706 41.0231 56.1229 41.2293C55.5197 41.4219 54.9178 41.6096 54.3372 41.8652C53.8012 42.1011 53.27 42.4231 52.8855 42.8718C52.3977 43.441 52.2337 44.087 52.056 44.7983C51.9597 45.1827 51.8278 45.4632 51.5372 45.7377C51.2681 45.992 50.9591 46.2018 50.6946 46.4615C50.1687 46.9779 49.8556 47.6648 49.9792 48.363C49.8954 48.8788 50.3036 49.5526 50.3737 50.0298C50.4647 50.6448 50.4159 51.403 50.2745 51.9955C50.1087 52.6907 49.6809 53.3022 49.6797 54.0295C49.6791 54.6701 49.7789 55.4836 50.0469 56.0647V56.4605C50.1218 56.4581 50.1907 56.4551 50.2644 56.4658C50.4296 56.9846 50.5603 57.5188 50.697 58.0441C50.8598 58.6698 50.8907 59.5011 51.1338 60.0639C51.6186 59.2825 51.6216 58.5551 51.583 57.6876C51.4998 55.8407 51.9282 54.1389 53.2949 52.872C53.8737 52.3354 54.7092 51.6039 54.5838 50.7536C54.4662 49.9543 54.1393 49.4023 54.2873 48.5573C54.6349 46.5744 57.0195 45.5208 58.8052 45.1007C60.3026 44.7483 61.9189 44.9807 63.4383 45.049C65.3238 45.134 66.7095 45.7704 68.3561 46.6237C69.0353 46.9755 69.9285 47.4972 70.3088 48.1824C70.6647 48.8229 70.7057 49.7006 70.7859 50.4131C70.9493 51.8665 70.8323 53.3967 71.1335 54.8228C71.3017 55.6191 71.5228 56.445 71.6238 57.252C71.7212 58.0292 71.4657 58.8855 71.5239 59.6836C71.559 60.1661 71.9357 62.3088 72.7112 61.7152C73.1444 61.3836 73.1652 60.2701 73.2044 59.7786C73.2591 59.1006 73.2632 58.2241 73.6459 57.6466C74.0785 56.9935 75.0845 57.1486 75.2955 56.4046C75.5207 55.6107 75.1077 54.7426 74.8118 54.0438H74.813Z" fill="#543529"/>
<path d="M183.746 101.006C183.67 103.077 183.667 105.151 183.797 107.219C183.87 108.388 184.002 109.549 184.128 110.713C184.172 111.119 184.215 111.526 184.216 111.935C184.217 112.394 184.93 112.395 184.929 111.935C184.927 111.1 184.787 110.263 184.699 109.434C184.54 107.934 184.447 106.429 184.417 104.92C184.392 103.616 184.411 102.31 184.459 101.006C184.476 100.547 183.763 100.548 183.746 101.006V101.006Z" fill="#47726A"/>
<path d="M145.638 73.4422C145.596 73.6703 145.456 73.8896 145.317 74.1386C145.104 74.5213 144.876 74.8962 144.648 75.2706C144.267 75.8957 143.789 76.5357 143.54 77.2291C143.349 77.7598 143.929 78.2441 144.268 78.5768C144.893 79.1895 145.54 79.7766 146.118 80.4362C147.013 81.4594 147.731 82.6271 148.169 83.9177C148.316 84.3497 149.005 84.1643 148.857 83.7282C148.138 81.6062 146.749 79.9542 145.15 78.4348C144.912 78.2072 144.668 77.9826 144.446 77.7372C144.352 77.6338 144.322 77.6023 144.266 77.5162C144.249 77.4906 144.216 77.4032 144.19 77.3902C144.158 77.3735 144.222 77.5233 144.197 77.5078C144.177 77.4954 144.26 77.3486 144.289 77.2903C144.366 77.137 144.451 76.9879 144.536 76.8393C144.749 76.4697 144.973 76.1061 145.196 75.7412C145.442 75.3377 145.689 74.9342 145.92 74.5219C146.072 74.2497 146.269 73.9425 146.325 73.6317C146.407 73.1831 145.72 72.9905 145.638 73.4422Z" fill="#517FB4"/>
<path d="M148.155 83.8233C148.284 85.811 148.424 87.801 148.476 89.7929C148.495 90.5131 148.487 91.2297 148.424 91.9475C148.392 92.3148 148.36 92.682 148.338 93.0504C148.311 93.5086 149.024 93.5074 149.051 93.0504C149.088 92.4336 149.163 91.8198 149.188 91.2024C149.233 90.0989 149.167 88.9889 149.111 87.8872C149.041 86.5324 148.956 85.1775 148.868 83.8239C148.839 83.3681 148.125 83.3652 148.155 83.8239V83.8233Z" fill="#517FB4"/>
<path d="M148.929 83.6309C149.133 82.9695 149.626 82.3682 150.103 81.8524C150.759 81.1429 151.496 80.5094 152.251 79.9093C153.686 78.7689 155.22 77.7498 156.777 76.783C157.16 76.5454 157.554 76.3237 157.931 76.0771C158.123 75.9511 158.252 75.761 158.25 75.5215C158.248 75.1281 157.878 74.8774 157.572 74.7062C157.402 74.6112 157.226 74.5286 157.053 74.4371C156.976 74.396 156.896 74.355 156.824 74.3051C156.818 74.301 156.744 74.2505 156.779 74.276C156.76 74.2606 156.742 74.2445 156.725 74.2273C156.696 74.1952 156.695 74.194 156.723 74.2249C156.7 74.2837 156.788 74.3515 156.723 74.3806C156.742 74.3723 156.776 74.2837 156.789 74.2635C156.869 74.1352 156.871 74.1411 156.962 74.033C157.464 73.4281 158.046 72.8849 158.613 72.3424C159.342 71.6466 160.084 70.9662 160.818 70.2763C161.074 70.0344 161.332 69.7932 161.578 69.5401C161.74 69.3737 161.922 69.2061 161.947 68.9642C161.994 68.5085 161.28 68.5115 161.234 68.9642C161.232 68.9821 161.281 68.7705 161.269 68.8193C161.267 68.827 161.247 68.8442 161.248 68.8502C161.248 68.8502 161.298 68.7949 161.236 68.8614C161.16 68.944 161.084 69.026 161.005 69.1057C160.78 69.3327 160.546 69.5525 160.313 69.7718C159.656 70.3904 158.991 71.0007 158.336 71.6216C157.747 72.1796 157.153 72.7394 156.614 73.3466C156.249 73.7573 155.728 74.3247 156.306 74.8049C156.601 75.0503 156.975 75.1775 157.302 75.3735C157.37 75.4145 157.439 75.4561 157.492 75.5055C157.505 75.5179 157.534 75.5572 157.547 75.5619C157.541 75.5595 157.533 75.5589 157.541 75.5536C157.539 75.5542 157.547 75.4864 157.555 75.474C157.503 75.5482 157.555 75.4859 157.566 75.4728C157.641 75.3801 157.648 75.4187 157.599 75.4437C157.243 75.6243 156.906 75.865 156.567 76.0741C155.034 77.0213 153.531 78.022 152.105 79.1249C151.245 79.7898 150.405 80.4904 149.659 81.2837C149.075 81.9058 148.497 82.613 148.242 83.4413C148.107 83.881 148.795 84.0688 148.93 83.6309H148.929Z" fill="#517FB4"/>
<path d="M101.521 78.7285C101.68 79.8528 102.486 80.8522 103.209 81.68C103.84 82.4032 104.555 83.0354 105.224 83.7206C105.255 83.7515 105.286 83.8002 105.322 83.8245C105.373 83.8596 105.226 83.7247 105.271 83.717C105.286 83.7146 105.028 84.2084 104.984 84.2708C104.662 84.7272 104.259 85.1182 103.905 85.549C103.386 86.1789 102.958 86.8973 102.499 87.5705C102.022 88.2699 101.547 88.9711 101.074 89.6735C99.016 92.7308 96.9195 95.8023 95.1595 99.0456C94.8427 99.6291 94.5563 100.226 94.2598 100.819C94.0554 101.229 94.6704 101.59 94.8754 101.179C95.1315 100.667 95.3775 100.15 95.6467 99.6446C96.2047 98.5964 96.8156 97.5761 97.4395 96.5653C98.6571 94.5925 99.9329 92.6547 101.223 90.7282C102.205 89.2617 103.198 87.8029 104.198 86.3482C104.496 85.9132 104.892 85.5187 105.24 85.0974C105.551 84.72 105.996 84.2221 105.984 83.698C105.977 83.4062 105.736 83.2208 105.542 83.0336C105.205 82.7086 104.864 82.3871 104.535 82.0538C103.723 81.2331 102.859 80.3222 102.405 79.2437C102.31 79.0179 102.243 78.7808 102.209 78.5383C102.145 78.0861 101.457 78.2781 101.521 78.7279L101.521 78.7285Z" fill="#426384"/>
<path d="M103.977 71.0266C104.653 72.9352 105.032 74.9371 105.676 76.8583C105.872 77.4418 106.077 78.0259 106.221 78.6249C106.24 78.7015 106.271 78.8947 106.274 78.8959C106.269 78.8941 106.354 78.7562 106.331 78.7538C106.3 78.7503 106.212 78.8186 106.173 78.8341C105.843 78.9648 105.465 78.9903 105.115 79.0094C104.289 79.0551 103.414 79.0248 102.608 78.8941C102.159 78.821 101.965 79.5079 102.418 79.5816C103.222 79.7123 104.052 79.7563 104.865 79.7325C105.306 79.7195 105.761 79.6897 106.188 79.5751C106.463 79.5014 106.881 79.3599 106.969 79.0509C107.047 78.7806 106.911 78.427 106.839 78.1685C106.735 77.793 106.616 77.4222 106.493 77.0526C106.171 76.0798 105.865 75.1041 105.599 74.1147C105.304 73.0172 105.045 71.909 104.665 70.8364C104.513 70.4068 103.824 70.5916 103.977 71.026L103.977 71.0266Z" fill="#426384"/>
<path d="M90.7194 77.8202C91.4854 79.3913 91.4242 81.2245 92.0891 82.8349C92.262 83.2532 92.9519 83.0696 92.7766 82.6453C92.0867 80.9744 92.1319 79.0948 91.335 77.4601C91.1342 77.0477 90.5186 77.409 90.7194 77.8202Z" fill="#517FB4"/>
<path d="M37.3403 113.463C37.3308 113.333 37.3664 113.204 37.3706 113.097C37.3706 113.11 37.3468 113.112 37.3439 113.121C37.3557 113.091 37.3914 113.116 37.3534 113.116C37.3023 113.115 37.4223 113.123 37.4098 113.121C37.6499 113.169 37.8549 113.367 38.0106 113.543C38.3148 113.888 38.8175 113.382 38.5151 113.039C38.231 112.716 37.7996 112.393 37.348 112.403C36.7734 112.416 36.5922 112.974 36.6272 113.463C36.6605 113.918 37.3736 113.922 37.3403 113.463Z" fill="#7F492E"/>
<path d="M37.7063 112.578C37.3694 112.069 37.0141 111.573 36.7312 111.03C36.5708 110.721 36.1055 109.866 36.4989 109.564C36.8584 109.289 36.5036 108.669 36.1388 108.949C35.4512 109.475 35.6331 110.32 35.9367 111.017C36.2374 111.707 36.6771 112.314 37.0901 112.938C37.3421 113.319 37.9601 112.963 37.7057 112.578H37.7063Z" fill="#7F492E"/>
<path d="M38.8683 109.211C39.6437 110.137 40.311 111.153 40.957 112.172C41.3783 112.837 41.7568 113.539 42.2096 114.183C42.4716 114.555 43.0902 114.199 42.8252 113.822C42.3563 113.156 41.9642 112.429 41.5274 111.741C40.8625 110.694 40.1696 109.658 39.3722 108.706C39.0774 108.354 38.5753 108.861 38.8677 109.211H38.8683Z" fill="#7F492E"/>
<path d="M37.4956 99.1947C37.4588 100.232 37.6192 101.28 37.7458 102.308C37.9413 103.895 38.1391 105.482 38.2788 107.075C38.3186 107.528 39.0317 107.532 38.9919 107.075C38.8522 105.481 38.6537 103.895 38.4588 102.308C38.3323 101.281 38.1718 100.233 38.2087 99.1947C38.2247 98.7359 37.5116 98.7365 37.4956 99.1947Z" fill="#47726A"/>
<path d="M42.2138 131.427C45.7209 131.675 49.3427 131.818 52.7286 130.721C54.8981 130.019 57.0837 129.346 59.2175 128.54C61.4239 127.706 63.5417 126.644 65.7302 125.763C66.9561 125.27 68.1992 124.802 69.4762 124.458C70.386 124.212 71.3949 123.966 72.3445 124.096C72.537 124.122 72.7248 124.049 72.783 123.847C72.8306 123.681 72.7248 123.434 72.5341 123.408C71.6635 123.289 70.7871 123.417 69.9361 123.608C68.8321 123.857 67.7559 124.226 66.6976 124.625C64.3469 125.508 62.0769 126.582 59.7654 127.561C57.7658 128.407 55.6581 129.025 53.5944 129.693C52.277 130.119 50.9857 130.534 49.606 130.703C47.1601 131.005 44.6644 130.888 42.2138 130.714C41.7557 130.682 41.758 131.395 42.2138 131.427Z" fill="#7F492E"/>
<path d="M66.7012 101.213V114.938C66.7012 115.397 67.4142 115.398 67.4142 114.938V101.213C67.4142 100.754 66.7012 100.753 66.7012 101.213Z" fill="#47726A"/>
<path d="M67.1514 101.557C68.9246 101.205 70.7655 101.168 72.5678 101.141C74.628 101.11 76.6875 101.155 78.7471 101.197C79.7026 101.216 80.6582 101.238 81.6137 101.238C82.0724 101.238 82.073 100.525 81.6137 100.525C77.6847 100.522 73.7509 100.274 69.8243 100.528C68.8664 100.59 67.9043 100.682 66.9619 100.869C66.5121 100.958 66.7028 101.646 67.1514 101.557Z" fill="#47726A"/>
<path d="M81.2698 100.786C81.0601 102.302 81.085 103.841 81.1492 105.367C81.2199 107.044 81.356 108.716 81.4511 110.391C81.4986 111.231 81.5366 112.073 81.5325 112.915C81.5301 113.373 82.2432 113.374 82.2455 112.915C82.2616 109.743 81.8112 106.587 81.8189 103.414C81.8207 102.601 81.8462 101.781 81.9579 100.975C81.9847 100.783 81.911 100.595 81.709 100.536C81.5426 100.489 81.2966 100.595 81.2704 100.785L81.2698 100.786Z" fill="#47726A"/>
<path d="M82.2194 118.941C82.4981 117.548 81.7452 115.937 81.6287 114.546L79.877 119.942L82.2194 118.941Z" fill="#894C31"/>
<path d="M109.625 89.7389C108.157 91.789 106.54 93.7297 104.922 95.6615C104.32 96.3799 103.712 97.093 103.122 97.8209C102.942 98.042 102.759 98.2624 102.596 98.496C102.394 98.7848 102.398 99.1056 102.466 99.4408C102.553 99.8704 102.736 100.279 102.888 100.688C102.957 100.876 103.026 101.067 103.076 101.261C103.092 101.325 103.112 101.403 103.117 101.461C103.125 101.531 103.111 101.62 103.128 101.581C103.103 101.637 103.116 101.603 103.128 101.587C103.073 101.659 102.98 101.717 102.902 101.761C102.788 101.825 102.668 101.862 102.542 101.896C102.259 101.973 101.974 102.043 101.73 102.214C101.583 102.317 101.448 102.442 101.338 102.584C101.284 102.656 101.285 102.625 101.329 102.6C100.95 102.817 100.762 103.079 100.626 103.502C100.435 104.096 100.348 104.728 100.257 105.342C100.052 106.72 99.9075 108.107 99.7696 109.493C99.7245 109.95 100.438 109.947 100.483 109.493C100.607 108.243 100.736 106.992 100.913 105.748C101 105.136 101.089 104.518 101.248 103.919C101.27 103.835 101.294 103.752 101.321 103.67C101.332 103.635 101.344 103.602 101.356 103.568C101.363 103.549 101.37 103.531 101.377 103.513C101.402 103.447 101.34 103.593 101.369 103.533C101.39 103.487 101.414 103.444 101.436 103.4C101.446 103.382 101.46 103.366 101.47 103.348C101.479 103.332 101.428 103.359 101.46 103.362C101.445 103.36 101.651 103.231 101.46 103.351C101.484 103.337 101.506 103.319 101.532 103.306C101.575 103.283 101.621 103.26 101.663 103.234C101.741 103.184 101.808 103.125 101.871 103.058C102.065 102.849 102.234 102.72 102.512 102.641C102.797 102.561 103.084 102.496 103.336 102.332C103.743 102.068 103.885 101.746 103.806 101.274C103.738 100.868 103.568 100.482 103.424 100.1C103.301 99.7724 103.103 99.3689 103.132 99.01C103.137 98.95 103.132 98.9767 103.156 98.9357C103.176 98.9006 103.203 98.8673 103.227 98.8341C103.315 98.7123 103.337 98.6855 103.426 98.5732C103.951 97.9112 104.5 97.2689 105.043 96.6218C106.829 94.4933 108.622 92.36 110.24 90.099C110.507 89.7252 109.889 89.3687 109.624 89.7389H109.625Z" fill="#517FB4"/>
<path d="M132.262 86.8152C131.823 87.9924 131.41 89.1481 130.69 90.191C130.364 90.6646 131.136 91.1103 131.46 90.6408C132.221 89.5374 132.657 88.2978 133.121 87.0523C133.322 86.5139 132.46 86.2816 132.262 86.8152Z" fill="#543529"/>
<path d="M125.029 97.3735C125.149 95.9212 125.517 94.4576 126.189 93.1599C126.715 92.1437 127.48 91.0819 128.582 90.6427C129.694 90.1988 130.893 90.6184 131.764 91.3742C132.703 92.1883 132.981 93.3143 132.842 94.5159C132.707 95.6805 132.222 96.7585 131.987 97.8994C131.872 98.4591 132.731 98.6986 132.846 98.1365C133.08 97.0009 133.54 95.9295 133.7 94.775C133.893 93.3773 133.638 91.9785 132.613 90.9476C131.621 89.9505 130.154 89.3247 128.749 89.6575C127.423 89.9712 126.41 91.0474 125.724 92.1699C124.77 93.7297 124.288 95.5629 124.139 97.3735C124.092 97.9451 124.983 97.9422 125.03 97.3735H125.029Z" fill="#543529"/>
<path d="M124.138 97.3733C124.08 98.3009 123.949 99.2255 123.849 100.149C123.711 101.424 123.591 102.703 123.544 103.985C123.497 105.244 123.509 106.519 123.732 107.762C123.897 108.683 124.216 109.702 124.995 110.286C126.423 111.357 128.259 110.033 129.518 109.309C130.015 109.023 129.567 108.252 129.068 108.539C128.441 108.9 127.83 109.315 127.151 109.574C126.616 109.778 126.032 109.91 125.537 109.585C125.516 109.571 125.495 109.555 125.476 109.541C125.481 109.545 125.53 109.584 125.492 109.551C125.458 109.522 125.424 109.491 125.392 109.46C125.364 109.432 125.337 109.404 125.31 109.375C125.292 109.354 125.207 109.249 125.253 109.309C125.131 109.149 125.033 108.97 124.949 108.788C124.887 108.655 124.81 108.433 124.753 108.233C124.683 107.991 124.63 107.745 124.586 107.497C124.388 106.372 124.392 105.197 124.432 104.054C124.475 102.83 124.584 101.61 124.714 100.393C124.821 99.3877 124.966 98.3829 125.029 97.3733C125.064 96.8005 124.173 96.8029 124.137 97.3733H124.138Z" fill="#543529"/>
<path d="M120.105 109.636C121.136 110.487 122.38 111.179 123.756 111.133C124.923 111.093 125.967 110.541 126.837 109.793C127.799 108.966 128.559 107.906 129.212 106.828C129.892 105.704 130.464 104.517 130.987 103.313C131.246 102.716 131.495 102.114 131.737 101.508C132.16 100.443 132.299 99.2773 132.803 98.2434C133.053 97.73 132.285 97.2772 132.033 97.7936C131.602 98.679 131.411 99.6345 131.124 100.57C130.939 101.173 130.686 101.756 130.443 102.338C129.978 103.448 129.473 104.543 128.893 105.598C128.308 106.661 127.647 107.701 126.811 108.585C126.105 109.332 125.256 109.98 124.24 110.186C122.979 110.442 121.715 109.813 120.736 109.006C120.549 108.851 120.29 108.827 120.106 109.006C119.947 109.162 119.921 109.484 120.106 109.636H120.105Z" fill="#543529"/>
<path d="M120.803 109.109C120.993 107.98 119.628 107.006 118.604 106.996C117.968 106.99 117.48 107.441 117.419 108.072C117.357 108.715 117.876 109.22 118.403 109.496C118.961 109.789 119.825 110.041 120.399 109.648C120.87 109.326 120.424 108.554 119.949 108.879C119.846 108.949 119.707 108.967 119.502 108.938C119.245 108.903 118.991 108.809 118.767 108.68C118.585 108.574 118.386 108.435 118.309 108.238C118.278 108.159 118.343 108.005 118.408 107.926C118.406 107.928 118.457 107.905 118.412 107.92C118.454 107.907 118.495 107.892 118.539 107.885C118.488 107.893 118.715 107.895 118.706 107.893C118.931 107.93 119.119 108.016 119.312 108.134C119.489 108.243 119.673 108.393 119.791 108.546C119.807 108.566 119.848 108.631 119.87 108.667C119.878 108.679 119.931 108.795 119.906 108.731C119.922 108.772 119.93 108.815 119.942 108.858C119.915 108.758 119.926 108.98 119.943 108.871C119.849 109.432 120.708 109.673 120.803 109.108L120.803 109.109Z" fill="#543529"/>
<path d="M120.814 154.765C123.084 155.413 125.493 155.576 127.843 155.532C130.397 155.484 132.962 155.177 135.446 154.577C136.687 154.278 137.905 153.895 139.081 153.395C139.501 153.215 139.139 152.601 138.721 152.779C136.612 153.677 134.321 154.177 132.058 154.491C129.607 154.831 127.102 154.932 124.635 154.718C123.409 154.612 122.188 154.416 121.003 154.078C120.561 153.952 120.373 154.639 120.814 154.765V154.765Z" fill="#517FB4"/>
<path d="M118.18 158.084C118.103 159.51 118.04 160.936 118.02 162.363C118.013 162.822 118.726 162.822 118.733 162.363C118.753 160.936 118.817 159.51 118.893 158.084C118.917 157.625 118.204 157.627 118.18 158.084Z" fill="#517FB4"/>
<path d="M135.927 150.96C136.265 151.383 136.74 151.813 137.324 151.629C137.76 151.492 137.574 150.803 137.134 150.942C136.844 151.033 136.588 150.651 136.432 150.456C136.312 150.306 136.053 150.331 135.927 150.456C135.779 150.605 135.807 150.81 135.927 150.961V150.96Z" fill="#517FB4"/>
<path d="M158.413 100.309C157.764 102.781 157 105.493 157.818 108.018C157.959 108.453 158.647 108.267 158.505 107.828C157.728 105.427 158.483 102.847 159.101 100.499C159.218 100.055 158.53 99.8656 158.413 100.309Z" fill="#47726A"/>
<path d="M163.414 123.45C164.505 122.875 165.705 122.58 166.837 122.101C168.457 121.417 169.835 120.338 171.075 119.104C171.401 118.78 170.897 118.275 170.57 118.599C169.371 119.792 168.037 120.846 166.46 121.491C165.328 121.955 164.141 122.261 163.053 122.833C162.647 123.047 163.007 123.663 163.414 123.449V123.45Z" fill="#B26A46"/>
<path d="M170.918 118.508C170.839 118.476 170.868 118.496 170.876 118.491C170.868 118.488 170.861 118.484 170.854 118.48C170.795 118.445 170.832 118.484 170.965 118.596C170.923 118.759 170.88 118.921 170.838 119.084C170.684 119.159 170.511 119.099 170.725 119.15C170.813 119.171 170.901 119.194 170.988 119.217C171.305 119.298 171.622 119.38 171.939 119.457C172.829 119.676 173.725 119.868 174.632 120.007C175.08 120.076 175.274 119.389 174.821 119.32C173.844 119.17 172.879 118.958 171.921 118.719C171.624 118.645 171.328 118.567 171.032 118.492C170.846 118.445 170.66 118.378 170.477 118.468C170.289 118.56 170.278 118.79 170.349 118.956C170.408 119.094 170.603 119.146 170.728 119.196C171.154 119.367 171.338 118.677 170.917 118.508L170.918 118.508Z" fill="#B26A46"/>
<path d="M174.822 120.007C177.909 119.203 181.119 119.415 184.276 119.418C184.735 119.418 184.735 118.705 184.276 118.705C181.054 118.702 177.783 118.499 174.632 119.319C174.188 119.434 174.377 120.122 174.822 120.007V120.007Z" fill="#B26A46"/>
<path d="M179.585 139.503C181.739 140.26 183.888 141.032 186.036 141.807C188.292 142.62 190.548 143.434 192.791 144.281C193.163 144.422 193.534 144.563 193.903 144.71C193.966 144.735 194.029 144.76 194.091 144.785C194.12 144.797 194.148 144.809 194.177 144.82C194.232 144.843 194.105 144.789 194.184 144.823C194.244 144.85 194.307 144.875 194.364 144.908C194.761 145.14 195.121 144.524 194.725 144.293C194.303 144.046 193.79 143.901 193.336 143.728C192.379 143.363 191.418 143.01 190.457 142.657C187.993 141.753 185.524 140.863 183.053 139.98C181.961 139.589 180.869 139.2 179.776 138.816C179.342 138.664 179.155 139.352 179.586 139.504L179.585 139.503Z" fill="#47726A"/>
<path d="M179.041 133.158C178.858 140.99 178.237 148.808 178.24 156.645C178.241 158.843 178.287 161.04 178.383 163.236C178.404 163.693 179.117 163.695 179.097 163.236C178.754 155.411 179.168 147.6 179.516 139.784C179.615 137.576 179.703 135.368 179.754 133.158C179.765 132.7 179.052 132.7 179.041 133.158V133.158Z" fill="#47726A"/>
<path d="M84.1144 76.1658C84.5821 75.7665 85.1151 75.3368 85.7349 75.215C86.2281 75.1182 86.6993 75.3048 87.1182 75.5525C87.7588 75.9317 88.277 76.4587 88.8742 76.8937C89.4809 77.3358 90.2207 77.5414 90.8494 77.9479C91.2356 78.198 91.5939 77.5806 91.2095 77.3322C90.5237 76.889 89.7073 76.6786 89.0774 76.1468C88.479 75.6411 87.8634 75.098 87.1497 74.761C86.6119 74.5073 86.0367 74.3998 85.452 74.5483C84.7496 74.7272 84.1507 75.1996 83.6099 75.6607C83.2605 75.959 83.7668 76.4617 84.1144 76.1652V76.1658Z" fill="#517FB4"/>
<path d="M113.709 104.895C116.402 101.818 119.228 98.8484 122.298 96.1429C123.1 95.4358 123.891 94.7322 124.648 93.9757C124.973 93.6507 124.468 93.1462 124.143 93.4713C122.763 94.8516 121.252 96.0864 119.836 97.4282C118.357 98.8288 116.932 100.286 115.549 101.781C114.754 102.64 113.974 103.511 113.204 104.391C112.903 104.735 113.406 105.241 113.709 104.895Z" fill="#517FB4"/>
<path d="M126.567 94.0679C127.041 94.2182 127.407 94.6145 127.908 94.7185C128.383 94.8172 128.748 94.4874 129.075 94.1897C129.487 93.8141 129.861 93.3934 130.213 92.962C130.513 92.5948 130.827 92.2139 131.045 91.7902C131.255 91.3832 130.64 91.0219 130.43 91.4301C130.023 92.2204 129.349 92.9394 128.714 93.5509C128.517 93.7404 128.24 94.0809 127.983 94.0013C127.544 93.8646 127.196 93.52 126.756 93.3803C126.318 93.2413 126.13 93.9294 126.567 94.0679Z" fill="#517FB4"/>
<path d="M128.842 108.221C128.827 108.593 128.89 109.01 129.165 109.285C129.432 109.552 129.801 109.611 130.163 109.572C130.663 109.518 131.154 109.314 131.491 108.929C131.771 108.611 131.955 108.2 131.895 107.77C131.83 107.295 131.452 106.991 130.988 106.94C130.296 106.864 129.591 107.273 129.038 107.637C128.561 107.952 129.007 108.724 129.488 108.407C129.73 108.248 130.006 108.079 130.256 107.971C130.32 107.943 130.433 107.903 130.518 107.878C130.565 107.864 130.612 107.852 130.659 107.841C130.684 107.836 130.71 107.831 130.736 107.826C130.803 107.813 130.661 107.832 130.725 107.828C130.8 107.822 130.872 107.822 130.947 107.826C130.949 107.826 130.87 107.795 130.949 107.831C131.011 107.859 131.02 107.876 130.957 107.829C130.978 107.845 131.006 107.851 131.026 107.869C131.038 107.88 130.947 107.793 131.009 107.862C131.059 107.917 130.948 107.779 130.992 107.837C131.037 107.897 131.009 107.896 130.995 107.823C130.997 107.833 131.024 107.886 131.018 107.895C131.014 107.899 131.039 107.986 131.02 107.889C131.005 107.812 131.02 107.857 131.018 107.873C131.015 107.898 131.018 107.928 131.02 107.953C131.02 107.964 131.017 107.977 131.018 107.988C131.026 108.064 131.034 107.913 131.023 107.953C131.006 108.01 130.992 108.067 130.974 108.123C130.974 108.125 131.016 108.05 130.97 108.128C130.951 108.16 130.934 108.192 130.915 108.224C130.906 108.239 130.841 108.33 130.884 108.274C130.925 108.219 130.852 108.31 130.842 108.321C130.793 108.375 130.739 108.424 130.683 108.47C130.768 108.4 130.678 108.473 130.654 108.487C130.621 108.508 130.588 108.529 130.553 108.548C130.517 108.567 130.481 108.585 130.444 108.602C130.399 108.623 130.465 108.593 130.469 108.592C130.44 108.602 130.412 108.613 130.383 108.622C130.336 108.637 130.288 108.651 130.238 108.662C130.219 108.667 130.201 108.671 130.182 108.675C130.182 108.675 130.066 108.693 130.124 108.686C130.159 108.681 130.031 108.692 129.998 108.693C129.944 108.695 129.892 108.696 129.848 108.684C129.792 108.67 129.784 108.648 129.769 108.608C129.724 108.486 129.727 108.375 129.733 108.221C129.757 107.647 128.866 107.649 128.842 108.221H128.842Z" fill="#543529"/>
<path d="M136.621 107.14C136.629 113.735 138.109 120.24 140.317 126.428C140.893 128.043 141.519 129.64 142.182 131.221C142.257 131.4 142.418 131.524 142.621 131.47C142.789 131.426 142.944 131.209 142.87 131.032C140.426 125.2 138.458 119.104 137.688 112.807C137.458 110.927 137.337 109.035 137.334 107.14C137.334 106.682 136.62 106.681 136.621 107.14Z" fill="#517FB4"/>
<path d="M145.748 128.275C144.594 128.719 143.479 129.304 142.753 130.342C142.394 130.855 142.177 131.449 141.931 132.021C141.677 132.613 141.381 133.14 140.94 133.613C139.116 135.574 136.959 137.179 134.953 138.943C133.836 139.926 132.764 140.965 131.829 142.127C131.544 142.481 132.045 142.988 132.334 142.631C133.982 140.582 136.047 138.938 138.049 137.252C139.039 136.419 140.019 135.572 140.93 134.653C141.384 134.196 141.842 133.734 142.164 133.172C142.462 132.651 142.66 132.082 142.908 131.537C143.196 130.906 143.571 130.366 144.116 129.93C144.656 129.499 145.296 129.209 145.937 128.963C146.361 128.799 146.177 128.11 145.748 128.275V128.275Z" fill="#517FB4"/>
<path d="M141.096 162.381C140.989 160.818 140.728 159.262 140.51 157.712C140.286 156.127 140.048 154.543 139.646 152.992C139.531 152.548 138.843 152.737 138.958 153.182C139.351 154.696 139.588 156.242 139.806 157.79C140.022 159.314 140.277 160.845 140.383 162.382C140.414 162.837 141.127 162.841 141.096 162.382V162.381Z" fill="#517FB4"/>
<path d="M47.38 74.8575C46.2082 76.8445 46.6853 79.288 46.9082 81.4533C46.9325 81.6928 47.0954 81.899 47.3538 81.899C47.5755 81.899 47.8245 81.694 47.7995 81.4533C47.5963 79.4758 47.0763 77.1268 48.1495 75.3073C48.4413 74.8123 47.6712 74.3631 47.38 74.8575Z" fill="#543529"/>
<path d="M47.236 81.2289C46.0423 81.6377 44.814 82.1606 43.9286 83.0912C43.0545 84.0105 42.6766 85.2173 42.6047 86.464C42.5536 87.3488 42.629 88.2461 42.6992 89.1279C42.7788 90.1256 42.8911 91.1209 43.0123 92.1145C43.13 93.0771 43.2571 94.0392 43.373 95.0024C43.4633 95.7523 43.562 96.5005 43.7468 97.2337C44.0635 98.4917 44.631 99.6902 45.5597 100.613C46.3649 101.413 47.4012 102.021 48.4792 102.371C49.3051 102.64 50.1602 102.835 51.0141 102.991C51.9203 103.157 52.8788 103.315 53.8028 103.231C54.4672 103.17 55.3318 102.907 55.2789 102.077C55.2658 101.869 55.1939 101.674 55.1 101.49C54.9526 101.199 54.7868 100.987 54.4434 100.952C53.6661 100.871 52.8931 101.245 52.2495 101.642C51.9869 101.803 51.7355 101.982 51.4752 102.147C50.9921 102.453 51.439 103.225 51.9251 102.917C52.6334 102.468 53.5045 101.711 54.4071 101.838C54.3186 101.77 54.2295 101.702 54.1409 101.633C54.1944 101.709 54.2461 101.785 54.2919 101.866C54.3055 101.891 54.3822 102.065 54.3465 101.968C54.3685 102.029 54.3869 102.089 54.3976 102.152C54.3756 102.028 54.3852 102.093 54.3905 102.117C54.4149 102.233 54.3424 102.145 54.3964 102.126C54.3899 102.128 54.3863 102.195 54.3762 102.195C54.4416 102.198 54.4006 102.094 54.3911 102.152C54.3893 102.162 54.3168 102.285 54.406 102.139C54.3994 102.15 54.3661 102.188 54.3537 102.191C54.2788 102.209 54.4166 102.15 54.3715 102.176C54.3519 102.188 54.3341 102.203 54.3133 102.212C54.1796 102.272 54.3459 102.22 54.211 102.255C53.9003 102.335 53.7689 102.352 53.4077 102.355C53.0173 102.359 52.6263 102.327 52.2382 102.282C51.4687 102.191 50.6469 102.024 49.8691 101.832C49.298 101.692 48.6907 101.538 48.1708 101.3C47.1754 100.845 46.2455 100.208 45.6103 99.3016C44.9845 98.4091 44.6553 97.3668 44.4533 96.305C44.1704 94.8164 44.0415 93.2851 43.8615 91.7805C43.6689 90.1726 43.4746 88.542 43.4806 86.9198C43.4847 85.7979 43.7177 84.6409 44.4943 83.7876C45.2775 82.9272 46.3917 82.4566 47.4714 82.087C48.0109 81.9022 47.7792 81.0411 47.2343 81.2277L47.236 81.2289Z" fill="#543529"/>
<path d="M47.3519 82.3097C47.5468 82.2842 47.7429 82.2717 47.939 82.28C48.1517 82.2889 48.2236 82.299 48.4488 82.3608C48.6509 82.4161 48.7186 82.444 48.8737 82.523C49.0104 82.5932 49.2451 82.7465 49.3015 82.791C49.9481 83.3027 50.3509 83.9896 50.6938 84.7484C51.493 86.518 51.8044 88.5568 52.0041 90.4856C52.1841 92.2226 52.2744 93.985 52.2548 95.732C52.2406 96.9882 52.1407 98.327 51.578 99.4727C51.2999 100.039 50.9113 100.554 50.3955 100.924C50.1073 101.131 49.7377 101.302 49.4447 101.422C48.3288 101.88 47.1415 102.217 45.9507 102.41C45.4272 102.494 44.8865 102.544 44.357 102.493C44.3083 102.488 44.2031 102.472 44.1009 102.447C44.0587 102.437 44.0165 102.426 43.9755 102.413C43.9571 102.407 43.805 102.343 43.8929 102.385C43.859 102.369 43.8246 102.352 43.7925 102.332C43.6891 102.268 43.7937 102.337 43.7384 102.297C43.7117 102.277 43.6879 102.249 43.6665 102.224C43.7396 102.309 43.6552 102.198 43.6427 102.175C43.663 102.249 43.6832 102.324 43.7034 102.4C43.7063 102.331 43.7069 102.366 43.723 102.29C43.7242 102.286 43.7604 102.251 43.7277 102.28C43.7628 102.249 43.7711 102.239 43.827 102.22C43.9761 102.17 44.2144 102.197 44.4111 102.247C44.8371 102.356 45.3286 102.607 45.5359 102.963C45.8241 103.459 46.5949 103.011 46.3055 102.513C45.9876 101.967 45.3809 101.615 44.7926 101.429C44.2524 101.258 43.5251 101.201 43.0973 101.649C42.8685 101.889 42.714 102.331 42.8804 102.639C42.9873 102.837 43.165 103 43.3581 103.112C43.8044 103.37 44.3624 103.411 44.8668 103.403C46.1854 103.383 47.5212 103.036 48.7656 102.62C49.9635 102.22 51.0717 101.749 51.8597 100.713C52.8449 99.418 53.0879 97.712 53.1378 96.1296C53.1705 95.0909 53.1307 94.0456 53.0814 93.0081C52.9679 90.6057 52.7373 88.1492 52.0368 85.8382C51.4532 83.9123 50.3456 81.6026 48.078 81.3988C47.8356 81.3768 47.592 81.3875 47.3507 81.4196C47.1124 81.4511 46.905 81.602 46.905 81.8652C46.905 82.0815 47.1106 82.3424 47.3507 82.3109L47.3519 82.3097Z" fill="#543529"/>
<path d="M70.5579 76.0229C71.432 80.208 72.1415 84.4424 72.3489 88.7184C72.4077 89.9265 72.4238 91.1363 72.3917 92.345C72.3762 92.919 73.2676 92.9184 73.283 92.345C73.3995 87.9917 72.8783 83.6426 72.1142 79.3636C71.9009 78.1674 71.6655 76.9754 71.4172 75.7858C71.3001 75.2248 70.4402 75.4619 70.5579 76.0229Z" fill="#543529"/>
<path d="M72.6119 92.1654C71.3842 92.8393 70.9065 94.2511 71.2095 95.5792C71.4971 96.8402 72.5067 97.9175 73.8425 97.9876C74.5651 98.0256 75.3661 97.7624 75.9794 97.391C76.507 97.0713 76.9248 96.6114 77.1387 96.0291C77.5273 94.9707 77.0567 93.7936 76.3407 92.9961C75.4428 91.9967 74.022 91.4898 72.7183 91.9147C72.1751 92.0917 72.4075 92.9528 72.9554 92.7739C74.5782 92.245 76.5445 93.7365 76.3739 95.4247C76.3739 95.4212 76.3502 95.562 76.3282 95.6398C76.289 95.7807 76.286 95.7908 76.2307 95.8971C76.1232 96.1021 76.0364 96.2139 75.8659 96.3719C75.4618 96.7469 74.8818 96.9543 74.3417 97.0618C73.3755 97.2543 72.5507 96.6506 72.2013 95.7741C71.7877 94.739 72.0224 93.5048 73.0623 92.9343C73.5656 92.6586 73.1164 91.8885 72.6125 92.1648L72.6119 92.1654Z" fill="#543529"/>
<path d="M73.6251 94.8113C73.6245 94.8208 73.6494 94.6782 73.6352 94.7299C73.6191 94.7894 73.6798 94.6265 73.6631 94.664C73.6328 94.7317 73.6893 94.6289 73.6946 94.6265C73.6673 94.6372 73.6281 94.6913 73.6043 94.7109C73.5015 94.7983 73.4034 94.8993 73.3684 95.0342C73.2323 95.5595 73.7962 95.7449 74.1884 95.8417C74.5152 95.9219 74.829 95.6278 74.7369 95.2933C74.64 94.9421 74.4921 94.3948 74.0315 94.4001C73.8307 94.4025 73.6798 94.5202 73.5704 94.6776C73.5562 94.6978 73.5419 94.718 73.53 94.7394C73.4961 94.7989 73.5728 94.686 73.5781 94.68C73.5746 94.6836 73.5716 94.6877 73.568 94.6913C73.6102 94.6515 73.6827 94.6034 73.7469 94.5867C73.5211 94.6438 73.3624 94.9094 73.4355 95.1352C73.511 95.3687 73.7416 95.5078 73.984 95.4466C74.1254 95.4109 74.2175 95.3123 74.2948 95.1964C74.3061 95.1798 74.3168 95.1631 74.3269 95.1459C74.35 95.1079 74.3928 95.0906 74.2829 95.2012C74.3001 95.1839 74.331 95.1596 74.2603 95.2136C74.1533 95.2962 73.9798 95.3218 73.8414 95.2404C73.8675 95.2558 73.7326 95.1447 73.7867 95.2023C73.6857 95.0948 73.7356 95.1292 73.7558 95.1708C73.7588 95.1774 73.7909 95.2356 73.7885 95.2374C73.7606 95.1691 73.7552 95.1584 73.7736 95.2047C73.779 95.219 73.7843 95.2332 73.7897 95.2481C73.823 95.3408 73.8503 95.4359 73.8764 95.5309C74.0595 95.3479 74.2419 95.1655 74.4249 94.9825C74.3269 94.9587 74.2294 94.9337 74.1337 94.9005C74.1165 94.8945 74.0993 94.8886 74.082 94.8815C74.148 94.91 74.1652 94.9177 74.1349 94.9034C74.1201 94.8922 74.0957 94.8809 74.0785 94.8731C74.0422 94.8482 74.0612 94.863 74.1361 94.9177C74.107 94.8868 74.1236 94.9088 74.186 94.9837C74.2567 95.1031 74.2526 95.2505 74.186 95.3699C74.2122 95.323 74.2009 95.3961 74.1379 95.4281C74.1492 95.4222 74.1599 95.4044 74.17 95.3961C74.3584 95.235 74.495 95.071 74.5158 94.8107C74.5342 94.5778 74.2977 94.355 74.0702 94.3651C73.8129 94.3764 73.6441 94.5612 73.6245 94.8107L73.6251 94.8113Z" fill="#543529"/>
<path d="M185.02 97.0876C184.871 93.1912 186.33 89.0317 189.573 86.6726C190.154 86.2507 190.787 85.8859 191.476 85.6755C191.914 85.5418 191.727 84.8537 191.286 84.988C189.835 85.4307 188.567 86.4308 187.564 87.5449C186.192 89.0709 185.224 90.9463 184.723 92.9339C184.381 94.2888 184.253 95.6923 184.307 97.0876C184.324 97.5451 185.038 97.5475 185.02 97.0876H185.02Z" fill="#47726A"/>
<path d="M137.228 151.642C138.224 151.513 139.205 151.147 140.143 150.804C140.69 150.604 141.232 150.39 141.764 150.153C142.136 149.987 142.524 149.817 142.854 149.572C143.218 149.302 142.864 148.683 142.494 148.957C141.761 149.5 140.8 149.807 139.954 150.116C139.432 150.307 138.905 150.486 138.372 150.644C138.15 150.71 137.927 150.773 137.702 150.829C137.558 150.864 137.298 150.92 137.227 150.929C136.779 150.987 136.773 151.701 137.227 151.642H137.228Z" fill="#517FB4"/>
<path d="M143.923 73.5708C144.201 73.6795 144.455 73.8875 144.678 74.0812C144.828 74.2119 145.127 74.4752 145.174 74.5916C145.345 75.0112 146.035 74.8275 145.862 74.4021C145.727 74.0699 145.449 73.8084 145.182 73.5773C144.86 73.2968 144.513 73.0401 144.112 72.8838C143.685 72.7163 143.5 73.4056 143.923 73.5714V73.5708Z" fill="#517FB4"/>
<path d="M72.9102 123.962C76.0958 122.077 79.3302 120.174 82.9502 119.258C83.3947 119.146 83.2063 118.458 82.7607 118.571C79.083 119.501 75.7868 121.431 72.5501 123.347C72.1555 123.58 72.5139 124.197 72.9102 123.962Z" fill="#7F492E"/>
<path d="M37.3274 110.223C37.9359 110.686 38.4131 111.354 38.8605 111.965C39.324 112.599 39.756 113.255 40.2023 113.9C40.4614 114.275 41.0794 113.919 40.8179 113.54C40.3384 112.846 39.8749 112.141 39.3722 111.463C38.8754 110.793 38.356 110.116 37.6881 109.607C37.3233 109.329 36.9673 109.948 37.328 110.223L37.3274 110.223Z" fill="#7F492E"/>
<path d="M98.9106 156.44C98.7555 157.768 98.6236 159.099 98.5856 160.436C98.547 161.773 98.5987 163.111 98.6604 164.447C98.6812 164.904 99.3949 164.906 99.3735 164.447C99.3117 163.111 99.2606 161.773 99.2986 160.436C99.3367 159.099 99.4692 157.768 99.6237 156.44C99.6766 155.985 98.9635 155.989 98.9106 156.44Z" fill="#517FB4"/>
<path d="M151.288 143.427C151.424 145.432 151.39 147.452 151.39 149.459C151.39 151.917 151.371 154.374 151.399 156.832C151.41 157.811 151.421 158.793 151.487 159.77C151.518 160.226 152.231 160.229 152.2 159.77C152.064 157.766 152.098 155.746 152.098 153.738C152.098 151.281 152.117 148.824 152.09 146.366C152.078 145.387 152.068 144.405 152.001 143.427C151.97 142.972 151.257 142.969 151.288 143.427Z" fill="#517FB4"/>
<path d="M71.1434 103.664C73.9369 103.95 76.7505 103.98 79.5493 103.752C80.0033 103.715 80.0075 103.002 79.5493 103.039C76.7505 103.267 73.9369 103.238 71.1434 102.951C70.6877 102.904 70.6906 103.618 71.1434 103.664Z" fill="#47726A"/>
<path d="M73.0669 106.254H76.9021C77.3608 106.254 77.3614 105.541 76.9021 105.541H73.0669C72.6082 105.541 72.6076 106.254 73.0669 106.254Z" fill="#47726A"/>
<path d="M71.1434 63.6791C70.7405 66.9788 69.7588 70.5121 67.2851 72.8818C65.774 74.3294 63.7572 75.1452 61.7368 75.3039C61.2787 75.3401 60.8181 75.3473 60.3594 75.3277C60.1532 75.3188 59.947 75.3045 59.7408 75.2849C59.6469 75.276 59.5524 75.2653 59.4585 75.254C59.4377 75.2516 59.3266 75.2373 59.3724 75.2433C59.4187 75.2492 59.288 75.2314 59.266 75.2278C58.8174 75.1619 58.6237 75.8488 59.0765 75.9154C60.852 76.1762 62.7006 76.0699 64.4001 75.4685C66.9368 74.5712 68.8675 72.6311 70.053 70.2435C71.0709 68.1934 71.5807 65.9395 71.8564 63.6791C71.9117 63.2245 71.198 63.2287 71.1434 63.6791Z" fill="#7F492E"/>
<path d="M116.497 81.3484C117.708 82.2255 119.18 82.6141 120.658 82.339C121.108 82.2552 120.917 81.5677 120.468 81.6515C119.176 81.8921 117.905 81.4922 116.857 80.7328C116.485 80.463 116.128 81.0816 116.497 81.3484Z" fill="#B26A46"/>
<path d="M87.3684 63.9434C90.4477 65.6613 94.382 66.0024 97.3531 63.8638C97.7221 63.5981 97.3668 62.979 96.993 63.2481C94.2234 65.2424 90.6033 64.9316 87.7285 63.3278C87.3274 63.1037 86.9673 63.7194 87.3684 63.9434Z" fill="#B26A46"/>
<path d="M151.13 65.3614C153.556 66.4167 156.354 66.3436 158.713 65.1403C159.122 64.9317 158.762 64.3161 158.353 64.5247C156.243 65.6014 153.665 65.6929 151.49 64.7457C151.073 64.5645 150.71 65.1783 151.13 65.3614H151.13Z" fill="#A1623C"/>
<path d="M171.912 74.9867C175.079 75.5851 178.39 74.7567 180.908 72.7477C181.266 72.4612 180.759 71.9597 180.404 72.2432C178.102 74.0805 174.993 74.8459 172.101 74.2992C171.653 74.2142 171.461 74.9017 171.912 74.9867Z" fill="#B26A46"/>
<path d="M161.945 112.397C159.982 113.202 158.018 114.006 156.055 114.81C155.636 114.982 155.82 115.672 156.245 115.498C158.208 114.693 160.171 113.889 162.135 113.084C162.553 112.913 162.37 112.223 161.945 112.397Z" fill="#B26A46"/>
<path d="M131.711 142.816C132.422 143.263 133.021 143.851 133.598 144.456C134.175 145.06 134.756 145.665 135.277 146.318C135.794 146.966 136.25 147.685 136.515 148.473C136.64 148.843 136.731 149.226 136.759 149.615C136.773 149.816 136.773 150.017 136.759 150.218C136.755 150.265 136.729 150.685 136.68 150.697C136.234 150.802 136.423 151.49 136.87 151.384C137.319 151.278 137.404 150.811 137.451 150.419C137.51 149.935 137.478 149.448 137.385 148.97C137.204 148.033 136.763 147.158 136.214 146.384C135.651 145.591 134.984 144.883 134.317 144.178C133.629 143.45 132.923 142.736 132.07 142.2C131.68 141.955 131.322 142.572 131.71 142.815L131.711 142.816Z" fill="#517FB4"/>
<path d="M97.994 144.055C97.9773 143.987 97.9417 143.926 97.8912 143.878C97.5418 143.54 96.4288 142.564 95.2243 142.966C94.0626 143.354 92.6454 145.276 92.3263 145.726C92.2829 145.787 92.2597 145.859 92.2579 145.933L92.1563 151.229C92.1528 151.404 92.2722 151.557 92.4427 151.597L97.0569 152.677C97.2072 152.712 97.3201 152.837 97.3397 152.99C97.4164 153.584 97.6446 155.047 98.0784 155.481C98.3689 155.771 98.874 156.123 99.2852 156.39C99.5485 156.561 99.8913 156.347 99.8545 156.035L98.8491 147.491C98.8473 147.476 98.8443 147.46 98.8407 147.445L97.9934 144.056L97.994 144.055Z" fill="#E8A87E"/>
<path d="M92.492 151.913C94.05 152.191 95.554 152.746 97.0401 153.277C97.4727 153.432 97.6593 152.743 97.2297 152.589C95.7441 152.058 94.2402 151.503 92.6815 151.225C92.2329 151.145 92.0403 151.833 92.492 151.913Z" fill="#517FB4"/>
<g opacity="0.2">
<g opacity="0.2">
<path opacity="0.2" d="M194.34 159.005C194.34 159.005 199.213 161.666 205.373 160.44L203.55 165.703C203.55 165.703 194.848 166.63 194.429 164.627L194.639 161.516L194.34 159.005Z" fill="#3A2D26"/>
</g>
</g>
</g>
<defs>
<clipPath id="clip0_12830_943">
<rect width="241" height="164" fill="white"/>
</clipPath>
</defs>
</svg>
