<svg width="40" height="40" viewBox="0 0 40 40" fill="none" xmlns="http://www.w3.org/2000/svg">
<path d="M20.0001 2.35303C24.6804 2.35303 29.169 4.21227 32.4784 7.52173C35.7879 10.8312 37.6471 15.3198 37.6471 20.0001C37.6471 24.6804 35.7879 29.169 32.4784 32.4784C29.169 35.7879 24.6804 37.6471 20.0001 37.6471C15.3198 37.6471 10.8312 35.7879 7.52173 32.4784C4.21227 29.169 2.35303 24.6804 2.35303 20.0001C2.35303 15.3198 4.21227 10.8312 7.52173 7.52173C10.8312 4.21227 15.3198 2.35303 20.0001 2.35303ZM17.8018 23.4816L13.8816 19.5589C13.7411 19.4184 13.5742 19.3069 13.3906 19.2308C13.207 19.1548 13.0102 19.1156 12.8114 19.1156C12.6127 19.1156 12.4159 19.1548 12.2323 19.2308C12.0486 19.3069 11.8818 19.4184 11.7413 19.5589C11.4574 19.8427 11.298 20.2277 11.298 20.6291C11.298 21.0305 11.4574 21.4154 11.7413 21.6992L16.7329 26.6908C16.873 26.8321 17.0397 26.9442 17.2234 27.0207C17.4071 27.0972 17.6041 27.1366 17.803 27.1366C18.002 27.1366 18.199 27.0972 18.3827 27.0207C18.5663 26.9442 18.7331 26.8321 18.8732 26.6908L29.2093 16.3522C29.3517 16.2122 29.465 16.0455 29.5427 15.8615C29.6203 15.6776 29.6608 15.48 29.6617 15.2804C29.6626 15.0807 29.624 14.8828 29.5481 14.6982C29.4722 14.5135 29.3604 14.3457 29.2193 14.2044C29.0782 14.0631 28.9105 13.9512 28.7259 13.875C28.5414 13.7989 28.3435 13.76 28.1439 13.7607C27.9442 13.7614 27.7466 13.8017 27.5626 13.8791C27.3785 13.9565 27.2116 14.0696 27.0715 14.2119L17.8018 23.4816Z" fill="#87B461"/>
</svg>
