<svg width="31" height="43" viewBox="0 0 31 43" fill="none" xmlns="http://www.w3.org/2000/svg">
<path d="M18.3479 28.4583C16.932 28.9646 17.4088 29.5006 17.4088 29.5006L17.4666 30.126L17.6544 32.0319C17.6544 32.0319 18.5646 32.0021 19.9227 31.7787C22.4367 31.3618 26.4677 30.3047 28.9094 27.6394C30.0074 26.4482 30.7876 24.9295 30.961 22.9938C31.2644 19.7776 29.7474 17.5442 28.1292 16.0552C27.7825 15.7425 27.4357 15.4596 27.1034 15.2214C26.3376 15.9063 24.4161 17.2613 21.4542 16.9784C18.8247 16.7252 17.9867 14.4769 17.7555 13.6133C17.5532 13.6431 17.351 13.6877 17.1632 13.7175C16.513 13.8366 15.8917 13.9706 15.4294 14.1046C14.2735 14.4322 12.8287 15.3554 11.5573 17.1124C11.4273 17.7228 11.2973 18.3631 11.1817 19.0183L16.9175 20.5072L18.3479 28.4583Z" fill="#F0CE88"/>
<path d="M28.5026 27.8218C28.3977 29.2927 28.4426 30.9217 28.6525 32.3136C28.8324 33.5314 28.9223 35.113 28.9673 36.4257C26.434 37.9757 23.2561 39.0987 18.804 39.3992V31.4279C22.2218 31.0166 25.9393 30.0677 28.5026 27.8218Z" fill="#F0CE88"/>
<path d="M29.6588 43.0002L28.6272 34.1025L12.3793 35.2889L11.8635 43.0002H29.6588Z" fill="#F0CE88"/>
<path d="M17.2796 13.5214C17.5184 14.4795 18.3839 16.9738 21.0999 17.2546C24.159 17.5685 26.1438 16.0653 26.9347 15.3054C25.6961 14.3308 24.5918 13.8022 24.368 13.6205C24.0098 13.3397 23.786 12.5798 23.6815 12.0347C23.0697 12.3485 22.0698 12.6459 21.5774 12.6293C21.4431 12.6293 21.2192 12.5468 20.9506 12.3981C20.8312 12.6294 20.6373 12.8771 20.4134 12.9432C20.1448 13.0093 18.7122 13.2405 17.2796 13.5214Z" fill="#E9AA86"/>
<path d="M22.145 13.0873C22.7212 13.0873 23.891 12.7987 24.6069 12.4762C24.764 12.4083 24.8863 12.3404 24.991 12.2725C25.9513 11.6613 26.3878 10.3712 26.3878 10.3712C27.7148 9.91284 28.0291 8.72454 27.3482 8.402C26.6672 8.07946 26.1085 8.62269 26.1085 8.62269C24.799 8.01156 24.9386 7.12883 24.9386 7.12883C21.9878 7.60415 21.4291 5.48219 21.4291 5.48219C19.3863 5.22755 19.3863 4.14111 19.3863 4.14111C19.299 5.49917 18.0418 6.29702 18.0418 6.29702C18.0418 6.29702 18.0942 9.42054 18.4958 10.473C18.8101 11.3218 20.0672 13.0873 22.145 13.0873Z" fill="#E9AA86"/>
<path d="M23.8858 12.2979C23.9945 12.8405 24.576 13.8601 24.9021 14.1397L21.345 12.8241C21.7933 12.8405 23.3151 12.6103 23.8858 12.2979Z" fill="#BE9285"/>
<path d="M28.4162 30.1424L20.3285 31.5055C22.5759 31.0998 26.0257 30.1261 28.4591 27.8218C28.4018 28.5683 28.3875 29.3634 28.4162 30.1424Z" fill="#D68480"/>
<path d="M22.6933 17.823C23.619 17.823 24.5707 17.5134 25.3791 16.9136C25.4052 16.8942 25.4182 16.8555 25.4052 16.8168C25.3921 16.7781 25.3661 16.7587 25.34 16.7781C23.9971 17.7649 22.2631 17.9585 20.9071 17.2232C20.881 17.2038 20.855 17.2231 20.8419 17.2618C20.8289 17.3005 20.8419 17.3392 20.868 17.3586C21.4286 17.6682 22.0544 17.823 22.6933 17.823Z" fill="#D68480"/>
<path d="M22.4913 17.2959H0.741552C2.40039 23.4854 2.06252 28.0782 8.39233e-05 37.5627H21.2555C22.8552 29.862 23.8269 25.5588 22.4913 17.2959Z" fill="#EAE5D8"/>
<path d="M10.9652 31.366C10.6483 31.7877 12.4254 32.594 13.0177 32.5567C13.61 32.5195 15.4697 32.1474 15.4697 32.1474C15.5662 32.1226 15.4146 30.6713 15.3595 30.5473C15.3182 30.4729 15.2769 30.3985 15.208 30.3364C15.1116 30.2496 14.9876 30.2 14.8636 30.1628C14.6294 30.1008 14.3952 30.0884 14.1611 30.076C13.6514 30.0387 13.1555 29.9891 12.6595 29.9271C12.5907 29.9147 12.6733 30.2372 12.6871 30.262C12.756 30.3736 12.8662 30.4605 12.9901 30.5225C13.1968 30.6589 13.4447 30.7582 13.6789 30.845C13.6514 30.845 11.1856 31.0807 10.9652 31.366Z" fill="#E9AA86"/>
<path d="M29.7982 18.6736C27.8824 15.8966 24.9415 17.6775 25.2776 20.862C25.6137 24.0615 25.1768 25.0576 22.3367 27.1403C19.4967 29.2382 14.9929 29.6759 14.9929 29.6759L15.245 32.5585C15.245 32.5585 20.421 32.2415 24.5718 30.2041C28.7227 28.1666 30.3864 26.1443 30.672 23.654C30.9409 21.1487 30.4368 19.5942 29.7982 18.6736Z" fill="#F0CE88"/>
<path d="M19.1174 28.8746C22.2409 28.0698 25.1127 25.5624 25.6604 23.1633C25.6752 23.1324 25.6456 23.1014 25.616 23.0859C25.5864 23.0859 25.5567 23.1014 25.5419 23.1324C24.9942 25.5005 22.1668 27.9614 19.1026 28.7508C19.073 28.7663 19.0582 28.7973 19.0582 28.8282C19.0582 28.8592 19.0878 28.8746 19.1174 28.8746Z" fill="#D68480"/>
<path d="M17.0282 13.8222C17.2297 13.7768 17.4167 13.7465 17.6181 13.7162C18.9994 13.4589 20.3806 13.2469 20.6252 13.1864C20.841 13.1409 21.0136 12.8987 21.1431 12.6868C20.2942 12.278 18.9994 11.3242 18.7548 10.6127C18.4238 9.67403 18.3807 6.88839 18.3807 6.88839C18.3807 6.88839 19.4166 6.1617 19.4885 4.96569C19.4885 4.96569 19.4885 5.91947 21.1719 6.1617C21.1719 6.1617 21.6323 8.05412 24.0638 7.63022C24.0638 7.63022 23.9487 8.40232 25.0278 8.96248C25.0278 8.96248 25.4882 8.47802 26.0493 8.76567C26.6105 9.05332 26.3515 10.1131 25.258 10.5218C25.258 10.5218 24.8983 11.6724 24.107 12.2174C24.0207 12.278 23.9056 12.3386 23.7905 12.3991C23.9056 12.8987 24.107 13.5951 24.4523 13.8525C24.6681 14.0039 25.7328 14.4883 26.927 15.3967C27.2579 15.6541 27.6032 15.9266 27.9485 16.2445C31.0419 14.9123 29.6894 12.7625 29.6894 12.7625C30.5527 11.1577 29.0852 10.0979 29.0852 10.0979C29.0852 10.0979 30.2793 4.49637 26.5098 2.01351C22.7402 -0.469344 20.2079 2.3163 20.2079 2.3163C20.2079 2.3163 18.6828 1.80156 17.6325 2.93701C16.5822 4.07246 15.3017 8.5083 17.3591 11.6421C17.3735 11.5816 16.3664 12.3537 17.0282 13.8222Z" fill="#634240"/>
<path d="M24.1418 7.29846C24.5475 7.29846 24.9667 7.18285 25.3588 6.96813C25.3994 6.9351 25.4264 6.88555 25.3994 6.81948C25.3723 6.76993 25.3318 6.73689 25.2777 6.76993C24.7774 7.05071 24.223 7.14981 23.7362 7.05071C23.2088 6.9351 22.7356 6.55521 22.4651 6.04319C22.357 5.82847 22.2893 5.59724 22.2082 5.366C22.1541 5.18432 22.1 5.01915 22.0189 4.83747C21.7485 4.16028 21.1129 3.49961 20.4098 3.63174C20.3557 3.64826 20.3287 3.69781 20.3287 3.76388C20.3422 3.82994 20.3827 3.86298 20.4368 3.86298C21.0588 3.74736 21.6132 4.35848 21.8566 4.95308C21.9242 5.11825 21.9783 5.28342 22.0324 5.4651C22.1136 5.71286 22.1947 5.96061 22.3029 6.19184C22.5868 6.75341 23.1142 7.16633 23.6956 7.29846C23.8444 7.28195 23.9931 7.29846 24.1418 7.29846Z" fill="#513433"/>
<path d="M27.6464 9.92957C27.6756 9.92957 27.7048 9.91392 27.7339 9.88262C28.0983 9.2097 27.9963 8.23944 27.4861 7.53521C27.0925 6.97184 26.4657 6.54931 25.6056 6.22067C25.5327 6.18937 25.4598 6.17372 25.387 6.14242C25.0371 6.01723 24.6727 5.89203 24.3957 5.64164C24.0896 5.3756 23.8855 5.00002 23.6668 4.60878C23.4336 4.2019 23.2004 3.76372 22.8359 3.48203C22.5298 3.24729 22.1071 3.10644 21.6406 3.09079C21.2178 3.07514 20.8097 3.13774 20.4161 3.21599C20.3578 3.23164 20.3286 3.27859 20.3286 3.34118C20.3432 3.40378 20.3869 3.43508 20.4452 3.43508C20.8388 3.37248 21.2324 3.29423 21.6406 3.30988C22.0779 3.32553 22.4569 3.45073 22.7339 3.66982C23.0692 3.93586 23.2878 4.32709 23.5211 4.73398C23.7397 5.12521 23.9584 5.53209 24.2937 5.81378C24.5998 6.07982 24.9788 6.22067 25.3432 6.34586C25.4161 6.37716 25.489 6.39281 25.5619 6.42411C26.3928 6.7371 26.9759 7.14398 27.3549 7.67606C27.8214 8.31769 27.9088 9.19405 27.5881 9.78873C27.559 9.83567 27.5736 9.89827 27.6173 9.92957C27.6173 9.91392 27.6319 9.92957 27.6464 9.92957Z" fill="#513433"/>
<path d="M28.7959 8.87684C28.8373 8.87684 28.8787 8.84626 28.8787 8.80038C29.127 7.71478 28.8097 6.5833 28.4649 5.62002C28.1752 4.80963 27.8165 3.95338 27.2234 3.31119C26.5613 2.59255 25.5957 2.14913 24.4921 2.05739C23.4576 1.96565 22.423 2.17971 21.5402 2.40907L21.4988 2.42435C21.3057 2.47023 21.1126 2.5161 20.9195 2.53139C20.8643 2.53139 20.8367 2.57726 20.8367 2.63842C20.8367 2.69958 20.8781 2.73016 20.9332 2.73016C21.1402 2.71487 21.3333 2.65371 21.5402 2.60784L21.5816 2.59255C22.4506 2.37848 23.4714 2.16442 24.4784 2.25616C25.5405 2.3479 26.4647 2.77603 27.0992 3.4488C27.6648 4.06041 28.0097 4.88608 28.2993 5.68118C28.6304 6.61388 28.9477 7.71478 28.6994 8.73922C28.6856 8.80038 28.7132 8.84625 28.7683 8.86155C28.7821 8.87684 28.7821 8.87684 28.7959 8.87684Z" fill="#513433"/>
<path d="M17.3678 7.29859H17.3799C18.0603 7.08372 18.6557 6.32345 18.9108 5.2822C18.923 5.23261 18.9351 5.1665 18.9473 5.11692C19.0202 4.81942 19.0931 4.50539 19.2753 4.34011C19.3118 4.30706 19.3239 4.24095 19.2996 4.19137C19.2753 4.14178 19.2267 4.12526 19.1903 4.15831C18.9716 4.35664 18.8865 4.70373 18.8015 5.05081C18.7893 5.10039 18.7772 5.14998 18.765 5.21609C18.522 6.19122 17.9753 6.90192 17.3435 7.10025C17.2949 7.11678 17.2706 7.16636 17.2827 7.23247C17.2949 7.26553 17.3313 7.29859 17.3678 7.29859Z" fill="#513433"/>
<path d="M16.3557 7.82459C16.4116 7.82459 16.4536 7.7798 16.4536 7.72009C16.3977 6.70493 16.6216 5.70471 17.0834 4.92842C17.5873 4.07748 18.371 3.48033 19.2387 3.28626C19.2947 3.27133 19.3227 3.22654 19.3087 3.16683C19.2947 3.10711 19.2527 3.07725 19.1967 3.09218C18.287 3.28626 17.4613 3.92819 16.9295 4.82392C16.4396 5.645 16.2157 6.67508 16.2717 7.73502C16.2577 7.79473 16.2997 7.82459 16.3557 7.82459Z" fill="#513433"/>
<path d="M17.4169 13.6136H17.4331C17.4976 13.5928 17.5299 13.5301 17.5137 13.4466C17.4492 13.0289 17.5137 12.5695 17.6589 12.1936C17.8686 11.6716 18.2395 11.3374 18.7073 11.2539C18.7718 11.2539 18.8041 11.1704 18.8041 11.1077C18.7879 11.0242 18.7396 10.9824 18.6912 10.9824C18.1589 11.066 17.7395 11.4627 17.4815 12.0474C17.304 12.486 17.2395 12.9872 17.304 13.4675C17.3202 13.5719 17.3524 13.6136 17.4169 13.6136Z" fill="#513433"/>
<path d="M17.7278 10.4559C17.7372 10.4559 17.7559 10.4559 17.7653 10.4422C17.7934 10.4147 17.7934 10.3459 17.7747 10.3184C17.4187 9.67177 17.3063 8.75003 17.503 7.9521C17.5124 7.91083 17.4936 7.8558 17.4655 7.82829C17.4374 7.81453 17.4 7.84204 17.3812 7.88331C17.1751 8.72251 17.2875 9.7268 17.6716 10.4284C17.6904 10.4422 17.7091 10.4559 17.7278 10.4559Z" fill="#513433"/>
</svg>
