<svg width="112" height="38" viewBox="0 0 112 38" fill="none" xmlns="http://www.w3.org/2000/svg">
<path d="M12.1038 19.9965C12.068 19.7904 12.0322 19.5499 12.0322 19.3094V19.2063L0.0716201 20.134H0L0.0716201 20.9929L12.1396 20.0653L12.1038 19.9965Z" fill="#7B6961"/>
<path d="M13.6784 14.4307C13.75 14.3276 13.8216 14.2589 13.8933 14.1558C13.9649 14.0527 14.0365 13.984 14.1439 13.8809L14.2156 13.8122L5.15561 6.18468L5.08399 6.11597L4.47522 6.76877L13.6068 14.4994L13.6784 14.4307Z" fill="#7B6961"/>
<path d="M12.5335 21.577C12.4619 21.3709 12.3903 21.1304 12.3187 20.9242L12.2829 20.8212L0.859462 24.257L0.787842 24.2913L1.07432 25.1159L12.5693 21.6458L12.5335 21.577Z" fill="#7B6961"/>
<path d="M12.3205 17.0072L12.3564 16.9041C12.428 16.698 12.4996 16.4574 12.5712 16.2513L12.607 16.1826L1.14781 12.2657L0.861328 13.056L12.2489 16.9728L12.3205 17.0072Z" fill="#7B6961"/>
<path d="M12.0678 18.4505V18.3475C12.1036 18.1069 12.1036 17.9008 12.1752 17.6603V17.5572L0.286271 15.9424H0.214651L0.0714111 16.8013L11.9603 18.4505H12.0678Z" fill="#7B6961"/>
<path d="M22.1313 11.9568L22.203 11.9911C22.4178 12.0598 22.6327 12.1629 22.8475 12.2316L22.9192 12.266L27.3954 1.58058L27.4312 1.51186L26.6076 1.20264L22.1672 11.8537L22.1313 11.9568Z" fill="#7B6961"/>
<path d="M21.2713 11.7505L21.3787 11.7849L23.2761 0.3436V0.274884L22.3811 0.137451L20.4479 11.5444V11.6475H20.5553C20.8059 11.6475 21.0207 11.6818 21.2713 11.7505Z" fill="#7B6961"/>
<path d="M23.562 12.5746L23.6336 12.609C23.8485 12.7121 24.0275 12.8495 24.2424 12.9869L24.314 13.0556L30.9389 3.29791L30.1869 2.81689L23.5978 12.4716L23.562 12.5746Z" fill="#7B6961"/>
<path d="M18.7628 11.6474H18.8702C19.1208 11.6131 19.3356 11.6131 19.5862 11.6131H19.6936L19.0134 0.0687164L18.9776 0L18.0826 0.0343582L18.7628 11.5444V11.6474Z" fill="#7B6961"/>
<path d="M14.6453 13.4341C14.8243 13.2967 15.0034 13.1249 15.1824 13.0218L15.254 12.9531L7.87718 3.88256L7.80556 3.81384L7.08936 4.32922L14.5378 13.4685L14.6453 13.4341Z" fill="#7B6961"/>
<path d="M15.7559 12.6439L15.8275 12.6095C16.0424 12.5065 16.2573 12.4034 16.4721 12.3003L16.5437 12.2659L11.0648 1.88977L10.277 2.26771L15.7201 12.5408L15.7559 12.6439Z" fill="#7B6961"/>
<path d="M17.2612 11.9912C17.4761 11.9224 17.7267 11.8537 17.9416 11.785L18.049 11.7506L14.8261 0.584229L13.9667 0.824736L17.1896 12.0255L17.2612 11.9912Z" fill="#7B6961"/>
<path d="M12.856 15.6331L12.8918 15.5644C12.9993 15.3582 13.1067 15.1521 13.2499 14.9803L13.2857 14.9116L3.00826 8.93323L2.54272 9.65475L12.7844 15.5987L12.856 15.6331Z" fill="#7B6961"/>
<path d="M13.3201 23.02L13.2485 22.9513C13.1052 22.7451 12.9978 22.5733 12.8904 22.3672L12.8546 22.2985L2.39804 28.0019L2.32642 28.0363L2.75614 28.7922L13.2485 23.0887L13.3201 23.02Z" fill="#7B6961"/>
<path d="M32.9812 4.9818L32.9096 4.91309L32.3008 5.56589L32.3724 5.63461C36.0609 8.79556 38.2811 13.1247 38.6392 17.8661C38.9973 22.6076 37.4216 27.2116 34.1987 30.8192C30.94 34.4955 26.3922 36.7288 21.3787 37.1067C16.8667 37.4503 12.3546 36.2134 8.7378 33.6365C9.02429 33.3273 9.70468 32.4684 9.91954 32.1935C12.8201 34.2206 16.2579 35.3201 19.8747 35.3201C24.8523 35.3201 29.5076 33.2586 32.7305 29.651C35.667 26.3526 37.0635 22.1609 36.7054 17.8661C36.3473 13.6744 34.3778 9.82631 31.0833 7.04329L31.0116 6.97458L28.5408 9.5858L28.6124 9.65452C33.9839 14.1898 34.5568 22.1265 29.9373 27.349C27.6455 29.9259 24.4584 31.472 20.949 31.7468C17.8336 31.9874 14.7181 31.1628 12.2114 29.4105C12.283 29.3418 12.3546 29.2387 12.462 29.1013C12.7485 28.7233 13.2499 28.1392 13.3931 27.9674C15.5417 29.4448 18.1558 30.132 20.8058 29.9259C23.8138 29.6853 26.5354 28.3797 28.4691 26.1808C32.444 21.7142 31.9069 14.9457 27.3232 11.0632L27.2158 10.9258L24.7449 13.537L24.8165 13.6057C26.3205 14.8426 27.2516 16.5949 27.4306 18.5189C27.5739 20.443 26.9651 22.3327 25.6401 23.7757C24.3152 25.2531 22.4889 26.1465 20.4835 26.2839C18.5139 26.4213 16.5802 25.8372 15.0762 24.6347L15.0046 24.566L14.4674 25.2531L14.539 25.3219C18.0842 28.1049 23.3483 27.6582 26.3205 24.3255C27.7887 22.6763 28.5049 20.5804 28.3259 18.4159C28.1827 16.5262 27.3232 14.7395 25.9624 13.3996C26.1773 13.1591 27.0009 12.3001 27.2516 12.0596C31.0116 15.7016 31.2623 21.5768 27.7887 25.4936C25.9982 27.5208 23.4915 28.7233 20.7342 28.9295C18.0484 29.1356 15.4701 28.3454 13.3931 26.7305L13.3215 26.6618L10.9938 29.5479L11.0655 29.6166C13.8945 31.7812 17.4038 32.8463 21.0206 32.5714C24.7807 32.2966 28.1827 30.613 30.6177 27.8644C35.4163 22.4701 35.0224 14.396 29.7583 9.44837C29.9015 9.31094 30.2238 8.933 30.5461 8.62377C30.8326 8.34891 30.9758 8.17712 31.0475 8.1084C37.0635 13.7088 37.5291 22.9168 32.0501 29.0669C29.3286 32.1248 25.5327 34.0145 21.3787 34.3924C17.2248 34.7704 13.1424 33.6022 9.88373 31.094L9.81211 31.0253L7.55607 33.774L7.52026 33.8083L7.59188 33.8771C11.1013 36.5913 15.3627 38 19.8389 38C20.3761 38 20.9132 37.9657 21.4146 37.9313C26.6786 37.519 31.4414 35.1827 34.8433 31.3345C38.2095 27.5551 39.8567 22.745 39.4986 17.7631C39.1763 12.8155 36.8487 8.28019 32.9812 4.9818Z" fill="#7B6961"/>
<path d="M14.3612 24.2223L14.2896 24.1535C14.1105 23.9818 13.9673 23.81 13.8241 23.6382L13.7524 23.5695L4.87155 31.2657L4.79993 31.3344L5.4087 31.9872L14.2896 24.3253L14.3612 24.2223Z" fill="#7B6961"/>
<path d="M51.3372 11.0721H52.0318V10.7129C52.0318 8.50642 50.8564 7.78805 49.2001 7.78805C47.437 7.78805 46.2616 8.71168 46.2616 8.71168L45.7808 8.04461C45.7808 8.04461 47.0096 6.96704 49.2536 6.96704C51.6044 6.96704 52.8866 8.24986 52.8866 10.7129V17.0757H52.0318V15.7928C52.0318 15.2797 52.1386 14.9205 52.1386 14.9205H52.0852C52.0852 14.9205 51.1769 17.3322 48.5056 17.3322C46.8493 17.3322 45.0328 16.4599 45.0328 14.4587C44.9794 11.1234 49.5207 11.0721 51.3372 11.0721ZM48.5056 16.5625C50.7495 16.5625 52.0318 14.3561 52.0318 12.4062V11.8931H51.3907C49.6276 11.8931 45.9411 11.8931 45.9411 14.4587C45.8876 15.485 46.7959 16.5625 48.5056 16.5625Z" fill="#7B6961" stroke="#7B6961" stroke-width="0.198209" stroke-miterlimit="10"/>
<path d="M61.6511 11.0721H62.3456V10.7129C62.3456 8.50642 61.1702 7.78805 59.514 7.78805C57.7509 7.78805 56.5755 8.71168 56.5755 8.71168L56.0946 8.04461C56.0946 8.04461 57.3235 6.96704 59.5674 6.96704C61.9182 6.96704 63.2005 8.24986 63.2005 10.7129V17.0757H62.3456V15.7928C62.3456 15.2797 62.4525 14.9205 62.4525 14.9205H62.3991C62.3991 14.9205 61.4908 17.3322 58.8194 17.3322C57.1632 17.3322 55.3467 16.4599 55.3467 14.4587C55.2932 11.1234 59.8345 11.0721 61.6511 11.0721ZM58.8194 16.5625C61.0634 16.5625 62.3456 14.3561 62.3456 12.4062V11.8931H61.7045C59.9414 11.8931 56.2549 11.8931 56.2549 14.4587C56.2015 15.485 57.1098 16.5625 58.8194 16.5625Z" fill="#7B6961" stroke="#7B6961" stroke-width="0.198209" stroke-miterlimit="10"/>
<path d="M66.138 15.2795C66.138 15.2795 67.26 16.5111 69.2902 16.5111C70.5191 16.5111 71.641 15.8953 71.641 14.6638C71.641 12.1495 65.9777 12.8678 65.9777 9.68645C65.9777 7.94182 67.5271 7.01819 69.2368 7.01819C71.3205 7.01819 72.2822 8.09576 72.2822 8.09576L71.7479 8.76282C71.7479 8.76282 70.8931 7.83919 69.1834 7.83919C68.008 7.83919 66.886 8.35232 66.886 9.63514C66.886 12.2008 72.5493 11.4311 72.5493 14.7151C72.5493 16.3058 71.1602 17.3834 69.2902 17.3834C66.8326 17.3834 65.6038 15.9466 65.6038 15.9466L66.138 15.2795Z" fill="#7B6961" stroke="#7B6961" stroke-width="0.198209" stroke-miterlimit="10"/>
<path d="M75.5415 8.04461H74.2058V7.27492H75.5415V4.50403H76.3963V7.27492H79.0677V8.04461H76.3963V13.4838C76.3963 16.1007 77.9992 16.4086 78.854 16.4086C79.1211 16.4086 79.3348 16.3573 79.3348 16.3573V17.127C79.3348 17.127 79.1211 17.1783 78.8006 17.1783C77.732 17.1783 75.5415 16.8191 75.5415 13.5351V8.04461Z" fill="#7B6961" stroke="#7B6961" stroke-width="0.198209" stroke-miterlimit="10"/>
<path d="M49.343 6.81042C48.6268 6.81042 47.9823 6.9135 47.3735 7.11965C46.7647 7.3258 46.3708 7.49759 46.1559 7.60066C45.9769 7.70374 45.8695 7.80681 45.762 7.87553L45.6188 7.9786L46.2634 8.87192L46.6931 8.56269C47.1944 8.21911 48.2687 7.87553 49.2356 7.87553C51.0619 7.87553 51.9572 8.8032 51.9572 10.7273V10.9334H51.4558C50.7038 10.9334 50.3457 10.9334 49.3788 11.0365C48.412 11.1052 47.8032 11.2426 46.9438 11.5862C45.583 12.1359 44.9026 13.1323 44.9026 14.4723C44.9026 15.4343 45.2607 16.1902 46.0127 16.7399C46.7289 17.2553 47.5883 17.4958 48.5552 17.4958C49.9518 17.4958 50.9187 16.843 51.4558 16.2589C51.7065 15.9841 51.8856 15.7436 52.0288 15.503L51.993 15.8123V17.2553H53.1389V10.6929C53.1389 8.15039 51.8497 6.81042 49.343 6.81042ZM52.0288 11.9642V12.3765C52.0288 13.4072 51.7065 14.3692 51.0619 15.2282C50.4531 16.0528 49.6295 16.4651 48.591 16.4651C46.9438 16.4651 46.0843 15.4343 46.0843 14.4036C45.9769 12.9949 47.5525 12.4108 48.0539 12.2734C48.3762 12.1703 48.7701 12.0672 49.2714 12.0329C49.7369 11.9642 50.095 11.9642 50.4173 11.9642C50.668 11.9298 51.0261 11.9298 51.4558 11.9298H52.0288V11.9642Z" fill="#7B6961"/>
<path d="M59.6927 6.81042C58.9765 6.81042 58.3319 6.9135 57.7231 7.11965C57.1144 7.3258 56.7205 7.49759 56.5056 7.60066C56.3265 7.70374 56.2191 7.80681 56.1117 7.87553L55.9684 7.9786L56.613 8.87192L57.0427 8.56269C57.5441 8.21911 58.6184 7.87553 59.5853 7.87553C61.4116 7.87553 62.3068 8.8032 62.3068 10.7273V10.9334H61.7697C61.0177 10.9334 60.6596 10.9334 59.6927 11.0365C58.7258 11.1052 58.117 11.2426 57.2576 11.5862C55.8968 12.1359 55.2164 13.1323 55.2164 14.4723C55.2164 15.4343 55.5745 16.1902 56.3265 16.7399C57.0427 17.2553 57.9022 17.4958 58.8691 17.4958C60.2656 17.4958 61.2325 16.843 61.7697 16.2589C62.0203 15.9841 62.1994 15.7436 62.3426 15.503L62.3068 15.8123V17.2553H63.4527V10.6929C63.4886 8.15039 62.1994 6.81042 59.6927 6.81042ZM62.3784 11.9642V12.3765C62.3784 13.4072 62.0562 14.3692 61.4116 15.2282C60.8028 16.0528 59.9792 16.4651 58.9407 16.4651C57.2934 16.4651 56.434 15.4343 56.434 14.4036C56.3265 12.9949 57.9022 12.4108 58.4035 12.2734C58.7258 12.1703 59.1197 12.0672 59.6211 12.0329C60.0866 11.9642 60.4447 11.9642 60.767 11.9642C61.0177 11.9298 61.3758 11.9298 61.8055 11.9298H62.3784V11.9642Z" fill="#7B6961"/>
<path d="M69.3967 11.5175L69.1102 11.4144C67.8211 10.9334 67.1765 10.315 67.1765 9.55908C67.1765 8.32219 68.3224 7.87553 69.3967 7.87553C70.4352 7.87553 71.4379 8.32219 71.6169 8.52834L72.0108 8.87192L72.6912 7.9786L72.2973 7.63502C71.9034 7.29144 70.7575 6.81042 69.4325 6.81042C68.4656 6.81042 67.642 7.05093 66.9974 7.5663C66.317 8.04732 65.9948 8.73448 65.9948 9.6278C65.9948 11.5175 67.9643 12.2047 69.5399 12.7544L69.7906 12.8231C71.0798 13.2698 71.7244 13.8882 71.7244 14.6441C71.7244 15.6748 70.8291 16.3964 69.4683 16.3964C68.8954 16.3964 68.3224 16.2933 67.7494 16.0528C67.1765 15.8123 66.8542 15.6405 66.711 15.503C66.5677 15.3656 66.4245 15.2625 66.3529 15.1595L66.2454 15.022L65.4934 15.881L65.9589 16.3276C66.5319 16.8774 67.9643 17.4271 69.3967 17.4271C71.4379 17.4271 72.8345 16.2589 72.8345 14.6097C72.9061 12.7544 70.9723 12.0672 69.3967 11.5175Z" fill="#7B6961"/>
<path d="M77.5625 15.8463C76.9895 15.434 76.6672 14.575 76.6672 13.4756V8.1157H79.3888V7.08495H76.6672V4.26758H75.5213V7.08495H74.1605V8.1157H75.5213V13.5099C75.5213 16.9458 77.9206 17.3237 78.9591 17.3237C79.1739 17.3237 79.353 17.2893 79.4962 17.2893H79.6037V16.2586L78.9949 16.3273C78.5293 16.2929 78.0996 16.2242 77.5625 15.8463Z" fill="#7B6961"/>
<path d="M82.8976 9.14644V7.05058H81.7517V17.255H82.8976V12.8228C82.8976 12.0669 83.0051 11.3797 83.2199 10.7613C83.7571 9.07772 84.8314 8.08133 86.1922 8.08133C86.3354 8.08133 86.4786 8.11569 86.6577 8.11569L86.8009 8.15005V7.05058L86.0489 6.98187C84.7598 6.94751 83.6138 7.77211 82.8976 9.14644Z" fill="#7B6961"/>
<path d="M90.0668 3.06067H88.7782V4.77858H90.0668V3.06067Z" fill="#7B6961"/>
<path d="M90.0232 7.05054H88.8778V17.2549H90.0232V7.05054Z" fill="#7B6961"/>
<path d="M101.089 7.0511H99.5847L96.2186 10.9679H94.5713V3.06555H93.4612V17.2555H94.5713V11.9987H96.2186L99.9786 17.2555H101.411L97.1854 11.4833L101.089 7.0511Z" fill="#7B6961"/>
<path d="M106.709 6.81042C105.993 6.81042 105.348 6.9135 104.74 7.11965C104.131 7.3258 103.737 7.49759 103.522 7.60066C103.343 7.70374 103.236 7.80681 103.128 7.87553L102.985 7.9786L103.63 8.87192L104.095 8.56269C104.596 8.21911 105.671 7.87553 106.638 7.87553C108.464 7.87553 109.359 8.8032 109.359 10.7273V10.9334H108.822C108.07 10.9334 107.712 10.9334 106.745 11.0365C105.778 11.1052 105.169 11.2426 104.31 11.5862C102.949 12.1359 102.269 13.1323 102.269 14.4723C102.269 15.4343 102.627 16.1902 103.379 16.7399C104.095 17.2553 104.955 17.4958 105.921 17.4958C107.318 17.4958 108.285 16.843 108.822 16.2589C109.073 15.9841 109.252 15.7436 109.395 15.503L109.359 15.8123V17.2553H110.505V10.6929C110.505 8.15039 109.216 6.81042 106.709 6.81042ZM109.359 11.9642V12.3765C109.359 13.4072 109.037 14.3692 108.392 15.2282C107.784 16.0528 106.96 16.4651 105.921 16.4651C104.274 16.4651 103.415 15.4343 103.415 14.4036C103.307 12.9949 104.883 12.4108 105.42 12.2734C105.742 12.1703 106.136 12.0672 106.638 12.0329C107.103 11.9642 107.461 11.9642 107.784 11.9642C108.034 11.9298 108.392 11.9298 108.822 11.9298H109.359V11.9642Z" fill="#7B6961"/>
<path d="M45.0834 26.2389H49.251V27.3063H46.4263V29.2631H48.8342V30.3305H46.4263V33.1323H45.1297V26.2389H45.0834Z" fill="#7B6961" stroke="#7B6961" stroke-width="0.0705623" stroke-miterlimit="10"/>
<path d="M53.6512 26.1053C55.7813 26.1053 57.402 27.6619 57.402 29.6633C57.402 31.7091 55.7813 33.3101 53.6512 33.3101C51.5211 33.3101 49.9004 31.7091 49.9004 29.6633C49.9467 27.6619 51.5211 26.1053 53.6512 26.1053ZM53.6512 32.1538C54.9941 32.1538 56.0128 31.0864 56.0128 29.6633C56.0128 28.2846 54.9478 27.2617 53.6512 27.2617C52.3546 27.2617 51.2896 28.2846 51.2896 29.6633C51.2896 31.0864 52.3546 32.1538 53.6512 32.1538Z" fill="#7B6961" stroke="#7B6961" stroke-width="0.0705623" stroke-miterlimit="10"/>
<path d="M58.6042 26.2389H59.9008V30.6863C59.9008 31.6202 60.5491 32.1539 61.5216 32.1539C62.494 32.1539 63.1423 31.6202 63.1423 30.6863V26.2389H64.4389V30.6863C64.4389 32.2429 63.2812 33.3102 61.5216 33.3102C59.7619 33.3102 58.6042 32.2429 58.6042 30.6863V26.2389Z" fill="#7B6961" stroke="#7B6961" stroke-width="0.0705623" stroke-miterlimit="10"/>
<path d="M66.1071 26.2389H67.4036L70.1357 30.2415C70.4136 30.6418 70.7377 31.3089 70.7377 31.3089C70.7377 31.3089 70.6451 30.6418 70.6451 30.2415V26.2389H71.9417V33.1768H70.6451L67.913 29.1742C67.6352 28.7739 67.311 28.1068 67.311 28.1068C67.311 28.1068 67.4036 28.7739 67.4036 29.1742V33.1768H66.1071V26.2389Z" fill="#7B6961" stroke="#7B6961" stroke-width="0.0705623" stroke-miterlimit="10"/>
<path d="M73.7936 26.2389H76.2478C78.4705 26.2389 79.9523 27.5286 79.9523 29.7079C79.9523 31.8871 78.5168 33.1768 76.2478 33.1768H73.7936V26.2389ZM76.2015 32.1094C77.6833 32.1094 78.6095 31.2644 78.6095 29.7079C78.6095 28.1513 77.637 27.3507 76.2015 27.3507H75.1365V32.1094H76.2015Z" fill="#7B6961" stroke="#7B6961" stroke-width="0.0705623" stroke-miterlimit="10"/>
<path d="M84.8141 31.3979H82.2673L81.6653 33.1768H80.3224L82.8692 26.2389H84.2584L86.8053 33.1768H85.4161L84.8141 31.3979ZM83.5638 27.4397C83.5638 27.4397 83.3786 28.1068 83.2397 28.5071L82.5914 30.375H84.49L83.8417 28.5071C83.7491 28.1068 83.5638 27.4397 83.5638 27.4397Z" fill="#7B6961" stroke="#7B6961" stroke-width="0.0705623" stroke-miterlimit="10"/>
<path d="M88.7497 27.3063H86.3881V26.2389H92.4542V27.3063H90.0463V33.1768H88.7497V27.3063Z" fill="#7B6961" stroke="#7B6961" stroke-width="0.0705623" stroke-miterlimit="10"/>
<path d="M93.3325 26.2389H94.6285V33.1768H93.3325V26.2389Z" fill="#7B6961" stroke="#7B6961" stroke-width="0.0705623" stroke-miterlimit="10"/>
<path d="M99.6781 26.1053C101.808 26.1053 103.429 27.6619 103.429 29.6633C103.429 31.7091 101.808 33.3101 99.6781 33.3101C97.548 33.3101 95.9272 31.7091 95.9272 29.6633C95.9272 27.6619 97.548 26.1053 99.6781 26.1053ZM99.6781 32.1538C101.021 32.1538 102.04 31.0864 102.04 29.6633C102.04 28.2846 100.975 27.2617 99.6781 27.2617C98.3352 27.2617 97.3164 28.2846 97.3164 29.6633C97.3164 31.0864 98.3352 32.1538 99.6781 32.1538Z" fill="#7B6961" stroke="#7B6961" stroke-width="0.0705623" stroke-miterlimit="10"/>
<path d="M104.681 26.2389H105.977L108.709 30.2415C108.987 30.6418 109.311 31.3089 109.311 31.3089C109.311 31.3089 109.219 30.6418 109.219 30.2415V26.2389H110.515V33.1768H109.219L106.487 29.1742C106.209 28.7739 105.885 28.1068 105.885 28.1068C105.885 28.1068 105.977 28.7739 105.977 29.1742V33.1768H104.681V26.2389Z" fill="#7B6961" stroke="#7B6961" stroke-width="0.0705623" stroke-miterlimit="10"/>
<path d="M110.586 20.8215H44.6304C44.3125 20.8215 44.1005 21.078 44.1005 21.3346C44.1005 21.6425 44.3654 21.8477 44.6304 21.8477H110.586C110.904 21.8477 111.116 21.5911 111.116 21.3346C111.116 21.0267 110.904 20.8215 110.586 20.8215Z" fill="#EFB84A"/>
<path fill-rule="evenodd" clip-rule="evenodd" d="M43.9803 21.3346C43.9803 21.0216 44.2383 20.7052 44.6304 20.7052L110.586 20.7052C110.773 20.7052 110.937 20.7658 111.056 20.8804C111.174 20.9949 111.236 21.1543 111.236 21.3346C111.236 21.6476 110.978 21.964 110.586 21.964H44.6304C44.3069 21.964 43.9803 21.714 43.9803 21.3346ZM44.6304 20.9377C44.3866 20.9377 44.2206 21.1345 44.2206 21.3346C44.2206 21.5709 44.4239 21.7315 44.6304 21.7315H110.586C110.83 21.7315 110.996 21.5347 110.996 21.3346C110.996 21.207 110.953 21.1098 110.886 21.0447C110.818 20.9797 110.718 20.9377 110.586 20.9377H44.6304Z" fill="#EFB84A"/>
</svg>
