<svg width="28" height="28" viewBox="0 0 28 28" fill="none" xmlns="http://www.w3.org/2000/svg">
<path d="M4.11768 13.8536C4.11768 19.2307 8.47645 23.5895 13.8536 23.5895C19.2307 23.5895 23.5895 19.2307 23.5895 13.8536C23.5895 8.47645 19.2307 4.11768 13.8536 4.11768C8.47645 4.11768 4.11768 8.47645 4.11768 13.8536Z" stroke="#14446C" stroke-width="1.50049" stroke-linecap="round" stroke-linejoin="round"/>
<path d="M14.8271 4.16699C14.8271 4.16699 17.7479 8.01268 17.7479 13.8542C17.7479 19.6958 14.8271 23.5415 14.8271 23.5415M12.8799 23.5415C12.8799 23.5415 9.95915 19.6958 9.95915 13.8542C9.95915 8.01268 12.8799 4.16699 12.8799 4.16699M4.73096 17.2618H22.9761M4.73096 10.4467H22.9761" stroke="#14446C" stroke-width="1.50049" stroke-linecap="round" stroke-linejoin="round"/>
</svg>
