<svg width="22" height="47" viewBox="0 0 22 47" fill="none" xmlns="http://www.w3.org/2000/svg">
<g clip-path="url(#clip0_7390_3442)">
<path d="M17.3279 4.75914C17.3279 4.75914 17.2337 5.12028 17.0048 5.3878C16.8702 5.53493 16.7086 5.65532 16.4797 5.65532L13.9485 1.46869C13.9485 1.46869 14.0966 1.29481 14.3659 1.17442C14.7159 1.01391 15.2545 0.906908 15.9815 1.2413C15.995 1.2413 17.7588 2.32474 17.3279 4.75914Z" fill="#513433"/>
<path d="M11.4309 21.8532C9.58635 21.171 8.68427 15.9411 8.68427 15.9411C9.11511 15.8608 9.41132 15.6869 9.61327 15.4596C9.70752 15.3659 9.77484 15.2723 9.84216 15.1653C9.86909 15.1252 9.89602 15.0717 9.90948 15.0315C10.1114 14.6035 10.098 14.1755 10.098 14.1755L14.2449 13.2793C14.1506 13.7742 14.1371 14.1755 14.1775 14.5099C14.2045 14.7774 14.2718 14.9914 14.3526 15.1653C14.4333 15.3392 14.5411 15.4729 14.6488 15.5799C14.9046 15.8073 15.1469 15.8474 15.1469 15.8474C15.5778 16.8908 11.4309 21.8532 11.4309 21.8532Z" fill="#B18A67"/>
<path d="M15.0257 11.9686C13.585 15.4865 10.2056 14.4699 10.2056 14.4699C8.11871 13.9616 7.40512 11.5272 7.20316 9.25335C7.01467 7.04634 7.20316 5.24061 7.20316 5.24061C8.76497 1.7629 14.6352 4.49156 14.6352 4.49156C15.2546 5.81576 15.5508 7.00621 15.645 8.02277C15.8739 10.4839 15.0257 11.9686 15.0257 11.9686Z" fill="#B18A67"/>
<path d="M14.1639 14.5235C12.5617 16.035 10.4209 15.393 10.4209 15.393C10.2055 15.3395 10.017 15.2726 9.84198 15.179C9.86891 15.1388 9.89584 15.0853 9.9093 15.0452C10.1113 14.6172 10.0978 14.1891 10.0978 14.1891L14.2447 13.293C14.1504 13.7879 14.137 14.1891 14.1639 14.5235Z" fill="#7E4F42"/>
<path d="M9.34381 18.6969C9.34381 18.6969 11.8346 19.1517 13.935 18.5498L11.4173 21.9874C11.4307 21.9874 9.42459 19.9409 9.34381 18.6969Z" fill="white"/>
<path d="M17.7858 32.6747L17.6916 33.1428C17.6916 33.1428 18.0147 33.7046 18.3782 34.4537C18.6206 34.9619 18.8898 35.5371 19.1053 36.0989C19.2264 36.3931 19.3207 36.6874 19.388 36.9549C19.4419 37.1823 19.4823 37.3963 19.4957 37.5702L19.9535 46.9868H3.41983C3.2448 44.1779 2.86781 36.6072 3.83721 34.6008L4.05263 31.1498L4.0661 31.0161V30.9626L4.10649 30.3339C4.09302 30.3339 4.07956 30.3339 4.0661 30.3339C3.82375 30.3473 2.7601 30.3874 1.35985 29.7454C0.929009 29.5581 0.4847 29.304 0 28.9696C0 28.9696 1.33293 19.0849 3.85067 17.5734L7.70135 16.2759L8.49572 16.0084L8.68421 15.9416C8.69767 16.0218 8.98042 17.3326 9.53244 18.7237C10.0037 19.8874 10.6634 21.1046 11.5386 21.7065C11.5655 21.6664 12.7099 20.1549 13.7062 18.6033C13.7197 18.59 13.7332 18.5632 13.7466 18.5498C14.3929 17.5333 14.9718 16.5033 15.1334 15.8613V15.8479C15.1469 15.8078 15.1469 15.7677 15.1603 15.7275C15.1603 15.7275 15.3488 15.8747 15.672 16.0619C16.0355 16.2759 16.5875 16.5301 17.2069 16.6505C17.2069 16.6505 20.9229 17.5199 21.2864 20.7033L21.9731 31.404L21.0845 31.4709L17.9743 31.725H17.9474L17.7858 32.6747Z" fill="#7DC9D6"/>
<g opacity="0.2">
<mask id="mask0_7390_3442" style="mask-type:luminance" maskUnits="userSpaceOnUse" x="3" y="33" width="17" height="10">
<path d="M19.3879 33.2495H3.82367V42.3986H19.3879V33.2495Z" fill="white"/>
</mask>
<g mask="url(#mask0_7390_3442)">
<path d="M19.4013 36.9678C19.2667 37.1015 19.0647 37.2353 18.755 37.3156C18.0684 37.4894 15.5641 38.0111 15.0255 39.2016C14.487 40.392 12.602 42.2646 11.2018 42.3984C9.815 42.5321 8.58979 40.3786 8.58979 40.3786L12.5212 37.5028L6.32786 37.1283C6.17975 36.941 6.82602 34.9213 6.82602 34.9213C5.38538 35.2824 3.94475 34.6538 3.83704 34.6137H3.8505L7.99738 33.2627L18.405 34.4799C18.6473 34.9882 18.9166 35.5633 19.132 36.1251C19.2263 36.406 19.334 36.7003 19.4013 36.9678Z" fill="#231F20"/>
</g>
</g>
<g opacity="0.2">
<mask id="mask1_7390_3442" style="mask-type:luminance" maskUnits="userSpaceOnUse" x="4" y="26" width="6" height="4">
<path d="M9.04777 26.7358H4.07959V29.839H9.04777V26.7358Z" fill="white"/>
</mask>
<g mask="url(#mask1_7390_3442)">
<path d="M4.07959 26.7358C4.07959 26.7358 6.2742 27.9263 9.04777 27.3779L8.21301 29.732C8.21301 29.732 4.29501 30.1467 4.10652 29.2505L4.20077 27.8594L4.07959 26.7358Z" fill="#3A2D26"/>
</g>
</g>
<path d="M4.44293 44.4454C4.28136 44.4454 4.10633 44.4454 3.90437 44.432C3.85052 44.432 3.82359 44.3919 3.82359 44.3383C3.82359 44.2848 3.86398 44.2581 3.91784 44.2581C4.98149 44.325 5.61429 44.2046 5.91049 43.8836C6.24709 43.509 6.15284 42.867 6.03167 42.0645L6.0182 41.9575C5.78932 40.5262 6.34134 37.0218 6.43559 36.3797H3.72934C3.67549 36.3797 3.64856 36.3396 3.64856 36.2995C3.64856 36.246 3.68895 36.2192 3.72934 36.2192H6.63754L6.62408 36.3129C6.61062 36.353 5.95089 40.4192 6.17977 41.9307L6.19324 42.0377C6.32787 42.8938 6.43559 43.5626 6.03167 44.004C5.76239 44.2982 5.25076 44.4454 4.44293 44.4454Z" fill="#ADD5F2"/>
<path d="M17.759 44.3917C17.3551 44.3917 16.9108 44.3649 16.4126 44.298C15.4432 44.1777 14.6623 43.9636 14.6488 43.9503C14.4199 43.8968 14.2853 43.5757 14.2045 42.9471C14.1372 42.4923 14.1103 41.8636 14.1237 41.0878C14.1372 39.777 14.2584 38.4662 14.2584 38.4528C14.2584 38.3993 14.2988 38.3726 14.3526 38.3726C14.393 38.3726 14.4334 38.4127 14.4334 38.4662C14.4334 38.4796 14.3122 39.777 14.2988 41.0878C14.2853 41.8503 14.3122 42.4656 14.3795 42.9203C14.4738 43.6426 14.6354 43.763 14.7027 43.7764C14.7296 43.7764 16.2914 44.2044 17.759 44.2044C18.3514 44.2044 18.9169 44.1375 19.3746 43.9503C19.415 43.9369 19.4689 43.9503 19.4824 43.9904C19.4958 44.0305 19.4824 44.084 19.442 44.0974C18.9977 44.298 18.4322 44.3917 17.759 44.3917Z" fill="#ADD5F2"/>
<path d="M19.7111 23.7124L16.8703 36.9946C16.8299 37.1818 16.6414 37.3156 16.4529 37.3022L6.36842 36.6869C6.17992 36.6736 6.05875 36.513 6.09914 36.3392L9.26315 23.0302C9.30354 22.843 9.49204 22.7092 9.68053 22.7226L14.3256 23.0302L14.6756 23.057L19.4284 23.3646C19.6304 23.3646 19.7515 23.5251 19.7111 23.7124Z" fill="black"/>
<path d="M21.1249 32.1795C21.0845 33.4235 20.5459 35.9782 17.0723 37.2088C17.0723 37.2088 14.5007 38.2521 13.3562 40.0579C13.3562 40.0579 12.1983 41.9438 11.2559 41.9438C11.2559 41.9438 10.0441 41.9171 9.94986 41.2751C9.94986 41.2751 9.47862 41.1413 9.35744 40.74C9.35744 40.74 8.84582 40.6865 8.69771 40.3521C8.69771 40.3521 8.01105 40.2986 8.30726 39.7903L8.71118 39.6432C8.71118 39.6432 7.97066 39.5095 8.37458 39.0547C8.37458 39.0547 9.58633 37.7037 10.4211 37.6235C10.4211 37.6235 11.6732 37.5432 12.2387 37.0082C12.2387 37.0082 16.4125 33.3566 17.6916 32.7814L17.8128 32.3266L17.9743 31.7114C17.9743 31.7114 19.4823 31.5241 21.0845 31.4438C21.098 31.4572 21.1384 31.7381 21.1249 32.1795Z" fill="#B18A67"/>
<path d="M17.1933 29.8921C17.4761 30.3737 16.6548 31.1361 16.6548 31.1361C15.47 33.196 12.3194 32.7947 12.3194 32.7947C10.7576 32.6475 8.98037 33.4367 8.98037 33.4367C6.65112 34.5603 4.22762 34.6405 4.22762 34.6405C0.565439 34.5469 0.794326 31.7647 1.13092 30.4405C1.23863 30.0259 1.34635 29.745 1.34635 29.745C3.29861 30.4539 4.09298 30.3202 4.09298 30.3202V30.9622V31.0157C4.73925 30.6813 9.50546 30.4539 9.50546 30.4539C11.2692 30.173 12.1444 29.4106 12.1444 29.4106C12.9926 28.1934 14.3255 27.8858 14.3255 27.8858C15.9547 27.1501 15.6585 27.9928 15.6585 28.0195L16.6279 27.3775C17.3684 26.9896 17.5299 27.6316 17.5299 27.6316C17.8935 27.7788 17.3684 28.6482 17.3684 28.6482C17.8665 28.8622 17.1933 29.8921 17.1933 29.8921Z" fill="#B18A67"/>
<path d="M17.0048 5.38769C16.8702 5.53483 16.7086 5.65521 16.4797 5.65521L13.9485 1.46858C13.9485 1.46858 14.0966 1.2947 14.3793 1.17432C14.4467 1.18769 14.5274 1.21444 14.6082 1.21444C14.5948 1.21444 16.4528 1.58897 17.0048 5.38769Z" fill="#0B1328"/>
<path d="M7.14935 6.57837C7.14935 6.57837 6.11263 5.93634 7.08203 3.15417C7.08203 3.15417 8.44188 -0.1229 13.3427 1.06755C13.612 1.13443 13.989 1.40194 14.366 1.42869C14.366 1.42869 16.2375 1.81659 16.776 5.6822C16.776 5.6822 17.3954 8.35736 15.8201 9.37392H15.6316C15.6316 9.37392 16.1836 4.43825 12.6292 3.86309C11.2693 3.6357 7.94372 3.46181 7.37823 5.21404C7.28399 5.54844 7.18974 5.22742 7.14935 6.57837Z" fill="#513433"/>
<path d="M6.35491 25.973C5.85675 25.973 5.46629 25.7991 5.19701 25.4379C4.80656 24.9163 4.67192 24.0468 4.80656 22.8296C4.91427 21.9335 5.12969 21.1844 5.12969 21.1844C5.14316 21.1443 5.19701 21.1175 5.23741 21.1309C5.2778 21.1443 5.30473 21.1978 5.29126 21.2379C5.2778 21.2647 4.44304 24.1806 5.33165 25.3443C5.574 25.6519 5.9106 25.8124 6.35491 25.8124H6.36837C6.40876 25.8124 6.44916 25.8526 6.44916 25.8927C6.44916 25.9462 6.40876 25.973 6.36837 25.973H6.35491Z" fill="#A7A9AC"/>
<path d="M7.72839 26.0801C7.63414 26.0801 7.52643 26.0668 7.41872 26.04C7.37832 26.0266 7.33793 25.9865 7.3514 25.933C7.36486 25.8929 7.40525 25.8528 7.45911 25.8661C7.82263 25.9464 8.10537 25.8795 8.3208 25.6655C9.27673 24.6891 8.42851 21.091 8.41504 21.0508C8.40158 21.0107 8.42851 20.9572 8.48236 20.9438C8.52275 20.9305 8.57661 20.9572 8.59007 21.0107C8.59007 21.0241 8.81896 21.947 8.91321 22.9903C9.04785 24.4082 8.88628 25.3445 8.45544 25.7859C8.24001 25.9865 8.01113 26.0801 7.72839 26.0801Z" fill="#A7A9AC"/>
<path d="M8.54968 21.3853C8.45543 21.3853 8.37465 21.305 8.37465 21.2114C8.36118 20.2751 8.07844 19.5929 7.56681 19.2318C7.18982 18.9643 6.8263 18.9643 6.81283 18.9643C5.61455 18.9643 5.34527 21.091 5.34527 21.1044C5.33181 21.198 5.25102 21.2649 5.15678 21.2515C5.06253 21.2382 4.99521 21.1579 5.00867 21.0643C5.00867 21.0375 5.08946 20.4624 5.33181 19.8738C5.6684 19.0579 6.1935 18.6299 6.81283 18.6299C6.8263 18.6299 7.29753 18.6299 7.75531 18.9643C8.02459 19.1515 8.24001 19.4191 8.40157 19.7401C8.59007 20.1413 8.69778 20.6363 8.69778 21.2114C8.71124 21.305 8.64392 21.3719 8.54968 21.3853Z" fill="#231F20"/>
<path d="M6.73183 25.7593C6.73183 25.7593 6.17981 25.5453 6.16635 25.8797C6.16635 25.8797 6.0721 26.3211 6.78569 26.0135C6.78569 26.0001 6.8934 25.9065 6.73183 25.7593Z" fill="#F1F2F2"/>
<path d="M6.90701 25.8125C6.90701 25.8125 7.4321 25.545 7.48596 25.866C7.48596 25.866 7.63406 26.294 6.88008 26.0533C6.88008 26.0666 6.77237 25.973 6.90701 25.8125Z" fill="#F1F2F2"/>
<path d="M15.6586 8.81209C15.6586 8.81209 15.8606 7.91591 16.5876 8.5312C16.9242 8.81209 16.7627 10.8051 15.4567 10.8051L15.6586 8.81209Z" fill="#B18A67"/>
<path d="M9.90939 15.0449C9.84207 15.1921 9.74782 15.3392 9.61318 15.4729C9.06116 15.6468 8.60339 15.8876 8.2264 16.222C7.05504 17.2653 7.20315 18.7634 7.20315 18.7768C7.21661 18.8704 7.14929 18.9507 7.05504 18.964C6.9608 18.9774 6.88001 18.9105 6.86655 18.8169C6.86655 18.8035 6.82616 18.3889 6.93387 17.8271C7.08197 17.0914 7.45896 16.4494 7.99752 15.9679C8.49568 15.5265 9.14195 15.2188 9.90939 15.0449Z" fill="#231F20"/>
<path d="M15.7526 18.7233C15.5776 19.8067 15.241 21.1844 14.689 23.0571L14.3389 23.0303C15.1872 20.1679 15.9546 17.145 15.2949 16.0348C15.1602 15.8074 14.9583 15.6602 14.7025 15.6067C14.689 15.6067 14.6621 15.5934 14.6486 15.5934C14.5409 15.4997 14.4332 15.366 14.3524 15.1787C14.487 15.2055 14.6351 15.2322 14.7832 15.2723C15.1333 15.3526 15.416 15.5532 15.5911 15.8609C15.9142 16.4093 15.9681 17.3456 15.7526 18.7233Z" fill="#231F20"/>
<path d="M15.0257 11.9688C13.5851 15.4866 10.2056 14.4701 10.2056 14.4701C8.11873 13.9618 7.40514 11.5274 7.20319 9.25352C8.11873 9.60129 12.5753 11.086 15.645 8.02295C15.8739 10.4841 15.0257 11.9688 15.0257 11.9688Z" fill="#F8E8DB"/>
<g opacity="0.2">
<mask id="mask2_7390_3442" style="mask-type:luminance" maskUnits="userSpaceOnUse" x="8" y="10" width="6" height="2">
<path d="M13.4908 10.6982H8.49573V11.4473H13.4908V10.6982Z" fill="white"/>
</mask>
<g mask="url(#mask2_7390_3442)">
<path d="M11.1482 11.4471C10.8789 11.4471 10.6097 11.4338 10.3269 11.407C9.34406 11.3 8.56316 11.0459 8.56316 11.0459C8.52276 11.0325 8.49584 10.979 8.5093 10.9389C8.52276 10.8987 8.57662 10.872 8.61701 10.8854C8.63048 10.8854 9.38445 11.1395 10.3539 11.2465C11.2425 11.3401 12.4811 11.3268 13.3563 10.7249C13.3967 10.6981 13.4505 10.7115 13.4775 10.7516C13.5044 10.7917 13.4909 10.8452 13.4505 10.872C13.0332 11.1529 12.5215 11.3268 11.9157 11.407C11.6733 11.4338 11.4175 11.4471 11.1482 11.4471Z" fill="#231F20"/>
</g>
</g>
<g opacity="0.2">
<mask id="mask3_7390_3442" style="mask-type:luminance" maskUnits="userSpaceOnUse" x="9" y="11" width="4" height="2">
<path d="M12.8177 11.8618H9.26324V12.437H12.8177V11.8618Z" fill="white"/>
</mask>
<g mask="url(#mask3_7390_3442)">
<path d="M10.9194 12.4368C10.7309 12.4368 10.5559 12.4234 10.3943 12.4101C9.74807 12.3432 9.33069 12.1693 9.31722 12.1559C9.27683 12.1425 9.2499 12.089 9.27683 12.0489C9.29029 12.0088 9.34415 11.982 9.38454 12.0088C9.38454 12.0088 9.80192 12.1827 10.4213 12.2495C10.9867 12.3164 11.8484 12.3031 12.6967 11.875C12.7371 11.8483 12.7909 11.875 12.8178 11.9152C12.8448 11.9553 12.8178 12.0088 12.7774 12.0355C12.1177 12.3432 11.458 12.4368 10.9194 12.4368Z" fill="#231F20"/>
</g>
</g>
<g opacity="0.2">
<mask id="mask4_7390_3442" style="mask-type:luminance" maskUnits="userSpaceOnUse" x="10" y="12" width="3" height="2">
<path d="M12.5081 12.9316H10.3539V13.3597H12.5081V12.9316Z" fill="white"/>
</mask>
<g mask="url(#mask4_7390_3442)">
<path d="M11.2425 13.3463C10.8117 13.3463 10.4616 13.2795 10.4347 13.2795C10.3943 13.2661 10.3539 13.226 10.3674 13.1858C10.3809 13.1457 10.4212 13.1056 10.4616 13.119C10.4751 13.119 11.7272 13.3463 12.387 12.9451C12.4274 12.9183 12.4812 12.9317 12.5081 12.9718C12.5351 13.0119 12.5216 13.0655 12.4812 13.0922C12.1177 13.2928 11.6465 13.3463 11.2425 13.3463Z" fill="#231F20"/>
</g>
</g>
<path d="M14.0833 29.0363C14.0429 29.0363 14.0159 29.0096 14.0025 28.9828C13.989 28.9427 14.0025 28.8892 14.0563 28.8758C14.4064 28.7421 15.3758 28.3408 15.5643 28.0465C15.5912 28.0064 15.6451 27.993 15.6855 28.0198C15.7259 28.0465 15.7393 28.1 15.7124 28.1402C15.4431 28.5548 14.164 29.023 14.1102 29.0363C14.1102 29.0363 14.0967 29.0363 14.0833 29.0363Z" fill="#E58563"/>
<path d="M15.5104 29.3036C15.4835 29.3036 15.4565 29.2902 15.4296 29.2635C15.4027 29.2233 15.4161 29.1698 15.4565 29.1431C15.47 29.1297 16.8029 28.3807 17.503 27.5647C17.53 27.5246 17.5838 27.5246 17.6242 27.5514C17.6646 27.5781 17.6646 27.6316 17.6377 27.6717C16.9241 28.5144 15.6046 29.2635 15.5508 29.2902C15.5373 29.2902 15.5238 29.3036 15.5104 29.3036Z" fill="#E58563"/>
<path d="M15.8875 30.093C15.8606 30.093 15.8337 30.0797 15.8202 30.0529C15.7933 30.0128 15.8068 29.9593 15.8337 29.9325C16.1972 29.665 17.1666 28.916 17.3282 28.5949C17.3551 28.5548 17.3955 28.5414 17.4494 28.5548C17.4897 28.5816 17.5032 28.6217 17.4897 28.6618C17.2743 29.0899 15.9953 30.0262 15.9414 30.0663C15.9145 30.093 15.901 30.093 15.8875 30.093Z" fill="#E58563"/>
<path d="M15.6855 31.1096C15.6586 31.1096 15.6182 31.0962 15.6047 31.0561C15.5778 31.016 15.6047 30.9625 15.6451 30.9491C15.6586 30.9491 16.8569 30.3606 17.1261 29.8523C17.1531 29.8121 17.1935 29.7988 17.2473 29.8121C17.2877 29.8389 17.3012 29.879 17.2877 29.9325C17.005 30.4943 15.7797 31.0828 15.7394 31.1096C15.7124 31.0962 15.699 31.1096 15.6855 31.1096Z" fill="#E58563"/>
<path d="M3.39295 31.4706C3.36603 31.4706 3.32563 31.4572 3.31217 31.4305C3.28524 31.3903 3.31217 31.3368 3.35256 31.3101L4.06615 30.9356C4.10654 30.9088 4.1604 30.9356 4.18732 30.9757C4.21425 31.0158 4.18732 31.0693 4.14693 31.0961L3.43334 31.4706C3.41988 31.4706 3.40642 31.4706 3.39295 31.4706Z" fill="#E58563"/>
<path d="M8.71106 39.7367C8.67066 39.7367 8.64374 39.7099 8.63027 39.6832C8.61681 39.643 8.64374 39.5895 8.68413 39.5761C8.68413 39.5761 9.34386 39.3354 10.219 38.6666C10.2594 38.6398 10.3133 38.6398 10.3402 38.68C10.3671 38.7201 10.3671 38.7736 10.3267 38.8004C9.42464 39.4825 8.76491 39.7233 8.73798 39.7367C8.72452 39.7367 8.71106 39.7367 8.71106 39.7367Z" fill="#E58563"/>
<path d="M8.68413 40.4458C8.64374 40.4458 8.60335 40.419 8.60335 40.3789C8.58989 40.3388 8.63028 40.2853 8.67067 40.2853C8.98034 40.2318 9.85549 40.0311 10.0844 39.8038C10.1113 39.777 10.1786 39.777 10.2056 39.8038C10.2325 39.8305 10.2325 39.884 10.2056 39.9241C9.88242 40.2452 8.75145 40.4458 8.6976 40.4592C8.6976 40.4458 8.68413 40.4458 8.68413 40.4458Z" fill="#E58563"/>
<path d="M9.34403 40.8337C9.30364 40.8337 9.26324 40.7936 9.26324 40.7534C9.26324 40.6999 9.29017 40.6598 9.34403 40.6598C9.92298 40.6197 10.8924 40.4859 11.0539 40.2987C11.0809 40.2585 11.1347 40.2585 11.1751 40.2987C11.2155 40.3254 11.2155 40.3789 11.1751 40.419C10.9058 40.7133 9.50559 40.8203 9.34403 40.8337Z" fill="#E58563"/>
<path d="M10.2596 41.3823C10.0576 41.3823 9.93645 41.369 9.92299 41.3556C9.8826 41.3422 9.8422 41.3021 9.85567 41.262C9.86913 41.2218 9.90952 41.1817 9.94992 41.1951C9.96338 41.1951 10.852 41.3288 11.6598 40.8206C11.7002 40.7938 11.7541 40.8072 11.781 40.8473C11.8079 40.8874 11.7945 40.9409 11.7541 40.9677C11.2021 41.3155 10.6231 41.3823 10.2596 41.3823Z" fill="#E58563"/>
<path d="M15.8336 10.4172C15.8067 10.4172 15.7663 10.4172 15.7393 10.4038C15.6989 10.3905 15.6585 10.3503 15.672 10.3102C15.6855 10.2701 15.7259 10.2299 15.7663 10.2433C15.874 10.2567 15.9682 10.2433 16.049 10.1631C16.3048 9.94905 16.3317 9.32039 16.3317 9.093C16.3183 8.95924 16.2914 8.86561 16.2375 8.83886C16.1971 8.81211 16.1298 8.83886 16.1298 8.83886C16.0894 8.86561 16.0355 8.83886 16.0086 8.79873C15.9817 8.75861 16.0086 8.7051 16.049 8.67835C16.1029 8.6516 16.2106 8.62485 16.3183 8.67835C16.426 8.73185 16.4933 8.86561 16.5068 9.07962C16.5068 9.11975 16.5337 9.96243 16.1702 10.2834C16.0759 10.3771 15.9548 10.4172 15.8336 10.4172Z" fill="#E58563"/>
<path d="M4.10638 30.9623C3.36587 31.1094 1.88484 30.6814 1.13086 30.4407C1.23857 30.026 1.34628 29.7451 1.34628 29.7451C3.29855 30.454 4.09292 30.3203 4.09292 30.3203L4.10638 30.9623Z" fill="#7E4F42"/>
<path d="M21.1248 32.1793C20.0612 32.3398 17.8127 32.3398 17.8127 32.3398L17.9742 31.7245C17.9742 31.7245 19.4822 31.5373 21.0844 31.457C21.0979 31.457 21.1383 31.7379 21.1248 32.1793Z" fill="#7E4F42"/>
<path d="M4.10659 31.0158C4.05273 31.0158 4.01234 30.9757 4.0258 30.9221L4.16044 28.0731C3.76999 26.6419 3.79692 25.2107 3.8777 24.261C3.97195 23.2177 4.16044 22.5088 4.16044 22.5088C4.17391 22.4686 4.2143 22.4419 4.26815 22.4419C4.30854 22.4553 4.33547 22.4954 4.32201 22.5489C4.32201 22.5623 4.13351 23.2578 4.03927 24.2744C3.95848 25.2107 3.93156 26.6419 4.32201 28.0464V28.0597L4.18737 30.9355C4.20083 30.989 4.16044 31.0158 4.10659 31.0158Z" fill="#5E83A5"/>
</g>
<defs>
<clipPath id="clip0_7390_3442">
<rect width="22" height="46.2" fill="white" transform="translate(0 0.799805)"/>
</clipPath>
</defs>
</svg>
