<svg width="344" height="130" viewBox="0 0 344 130" fill="none" xmlns="http://www.w3.org/2000/svg">
<g opacity="0.5">
<path d="M75.8103 180.476C75.5363 180.613 75.3994 180.613 75.1254 180.751C74.5775 180.888 74.0296 180.888 73.4818 180.751C71.1532 180.476 68.1399 178.413 65.4004 176.213C62.661 174.013 59.9215 171.676 58.2779 170.301C52.2511 165.488 46.4983 160.538 40.4715 155.726C39.3757 154.763 38.2799 153.938 37.1842 152.838C36.0884 151.876 35.1296 150.776 34.3078 149.538C32.8011 147.063 31.8423 143.763 32.8011 141.151C33.4859 139.363 34.8556 138.126 35.2666 136.201C35.8144 133.313 33.6229 130.013 31.0204 128.501C28.418 126.988 25.6785 126.713 23.0761 126.163C20.7475 125.751 18.419 125.063 16.2275 123.963C14.0359 122.863 11.9813 121.351 10.3377 119.426C8.69399 117.363 7.73518 114.751 7.46124 112.276C7.1873 109.801 7.87216 107.326 9.51582 105.951C11.5704 104.163 15.2686 104.026 15.9535 101.001C16.3644 99.3507 15.6796 97.7007 14.5838 96.1882C13.488 94.6757 11.9813 93.0257 10.6116 91.7882C8.83096 90.2757 7.1873 88.4882 5.81758 86.7007C4.31088 84.9132 2.94116 82.9882 1.98236 80.7882C-0.0722214 76.6632 -0.757081 71.8507 1.02355 68.4132C1.43447 67.7257 1.84539 67.1757 2.39328 66.6257L2.53025 66.4882C4.85877 64.1507 8.83096 63.6007 12.8032 64.5632C15.2686 65.2507 17.5972 66.4882 19.9257 68.1382C22.2542 69.7882 24.1718 71.8507 26.0894 74.0507C28.418 76.8007 30.3356 79.9632 32.938 82.4382C35.5405 84.9132 38.9648 86.8382 41.4303 86.0132C43.074 85.3257 44.0328 83.6757 45.5395 82.7132C46.6352 82.0257 47.868 81.8882 49.1007 82.1632C50.4705 82.4382 51.8402 82.9882 53.2099 83.9507C54.5796 84.9132 55.9493 86.0132 57.1821 87.3882C58.4148 88.7632 59.3736 90.2757 60.1955 91.9257C61.8391 95.0882 62.661 98.5257 63.0719 101.688C63.6198 104.988 63.6198 108.288 63.8937 111.451C64.1677 115.576 65.2634 121.351 68.6877 122.863C71.2902 124.101 73.3448 121.901 75.9473 122.176C78.6867 122.451 81.5631 125.751 83.0698 129.463C84.4395 133.038 84.8504 136.751 84.8504 140.463C84.9874 146.376 85.3983 151.738 84.4395 157.376C83.8916 160.676 83.0698 163.976 82.248 167.001C81.4261 170.026 80.3304 173.051 79.0976 175.938C78.2758 177.726 77.317 179.651 75.8103 180.476Z" fill="#C2E3DD"/>
<path d="M154.682 41.1466C153.8 42.5464 153.068 44.1754 152.451 45.7292C149.015 54.7122 149.819 65.1719 151.882 74.8048C152.029 75.5282 152.215 76.0618 152.362 76.7851C152.548 77.3187 152.545 77.8129 152.731 78.3465C153.323 80.7458 153.989 83.2597 154.581 85.659C150.609 89.5822 147.656 94.3114 145.686 99.5423C148.666 96.5999 152.324 94.1948 156.13 92.5131C157.199 97.3868 158.078 102.221 158.046 107.163C158.042 107.657 157.964 108.036 158.075 108.455C158.15 108.57 158.111 108.76 157.997 108.835C157.909 110.697 157.821 112.559 157.543 114.381C157.426 114.951 157.383 115.634 157.266 116.204C155.026 128.009 147.973 138.713 138.477 145.939C135.312 148.348 130.81 151.963 126.825 152.123C126.331 152.119 125.838 152.116 125.27 151.997C124.058 151.646 122.999 151.03 122.097 149.654C120.179 146.979 119.679 142.224 118.333 139.172C116.614 135.054 114.249 131.197 112.644 127.003C107.011 112.173 110.309 95.2446 117.952 81.1997C118.145 80.745 118.527 80.3298 118.72 79.8751C119.027 79.3452 119.448 78.7402 119.755 78.2104C122.708 73.4811 125.962 69.2104 129.594 65.0185C131.094 67.8048 133.126 70.4051 135.465 72.4755C133.858 68.7761 133.126 64.6651 133.455 60.6763C139.263 54.5622 145.676 48.8709 152.163 43.2942C153.003 42.5783 153.842 41.8624 154.682 41.1466Z" fill="#C2E3DD"/>
<path d="M335.171 64.781C333.873 65.8064 332.641 67.0979 331.542 68.3568C325.311 75.6789 322.587 85.8088 321.324 95.579C321.222 96.3101 321.22 96.8753 321.118 97.6064C321.116 98.1716 320.948 98.6364 320.946 99.2017C320.705 101.661 320.496 104.254 320.255 106.713C315.204 109.086 310.845 112.559 307.247 116.833C311.035 115.054 315.285 114.007 319.433 113.692C318.818 118.644 318.037 123.495 316.362 128.143C316.194 128.608 315.994 128.94 315.959 129.372C315.992 129.505 315.891 129.671 315.759 129.703C315.056 131.43 314.353 133.156 313.484 134.781C313.184 135.279 312.916 135.909 312.616 136.407C306.573 146.789 296.36 154.526 285.001 158.169C281.215 159.384 275.767 161.289 271.956 160.11C271.493 159.942 271.029 159.773 270.532 159.472C269.506 158.736 268.714 157.802 268.321 156.204C267.404 153.042 268.516 148.391 268.263 145.065C268.014 140.609 267.068 136.182 266.951 131.693C266.578 115.831 275.324 100.972 287.207 90.2821C287.54 89.9178 288.038 89.6538 288.371 89.2895C288.837 88.8924 289.436 88.4627 289.902 88.0657C294.26 84.5927 298.75 81.6523 303.57 78.9127C304.056 82.0403 305.106 85.1702 306.622 87.9031C306.339 83.8786 307.017 79.7585 308.656 76.1078C316.168 72.2823 324.108 69.0571 332.081 65.9651C333.111 65.5704 334.141 65.1757 335.171 64.781Z" fill="#C2E3DD"/>
<path d="M237.432 168.516C241.065 167.37 244.853 166.042 247.689 163.437C250.525 160.832 252.059 156.809 250.619 153.708C249.193 150.776 245.48 148.878 245.036 145.526C244.509 141.164 250.233 138.66 254.89 137.6C262.043 135.996 269.574 134.869 275.329 130.669C281.084 126.468 283.928 117.763 278.789 112.933C276.954 111.22 274.502 110.235 272.99 108.326C270.723 105.462 271.556 101.158 273.677 98.1034C275.799 95.0487 278.817 92.5982 281.653 89.9931C285.879 85.749 289.168 80.3958 289.54 74.6044C289.926 68.9813 287.229 62.9338 281.918 60.1508C277.14 57.6628 270.928 58.3426 266.031 60.6086C261.148 63.0429 257.245 67.0911 254.21 71.4068C251.793 74.994 248.604 79.4918 244.146 78.8414C240.193 78.1495 238.643 73.7021 235.561 71.2443C230.659 67.2416 222.369 69.4475 218.366 74.351C214.364 79.2546 214.06 85.8875 215.061 91.9049C215.687 95.4116 216.818 98.8768 216.253 102.312C215.687 105.747 212.934 109.362 209.218 109.498C206.694 109.705 204.368 108.202 201.803 107.904C198.214 107.521 194.677 109.845 192.542 112.731C190.575 115.604 189.673 119.067 189.107 122.502C186.549 136.775 183.109 160.948 190.298 174.251C195.318 183.836 228.02 171.492 237.432 168.516Z" fill="#BDBAAC"/>
<path d="M236.972 18.6998C233.806 21.5033 230.932 24.3901 228.459 27.5337C227.241 29.0395 225.986 30.6773 224.914 32.2248C223.805 33.9041 222.879 35.4933 221.916 37.2143C223.643 36.1388 225.261 34.8897 226.879 33.6407C228.498 32.3916 230.079 31.2744 231.697 30.0254C234.788 27.4856 237.916 24.814 240.898 22.1007C243.993 18.9919 240.396 15.5425 236.972 18.6998Z" fill="#D7AC5C"/>
<path d="M226.182 33.8702C213.728 46.5693 204.462 58.6093 196.918 70.1428C189.52 81.718 183.515 92.8353 178.532 104.244C168.713 127.103 161.264 151.066 154.947 185.474C154.756 186.702 153.258 186.418 153.45 185.189C159.912 150.823 167.253 126.687 177.109 103.696C182.13 92.1551 187.951 81.128 195.532 69.4626C203.114 57.7972 212.381 45.7572 224.872 32.9263C225.902 32.0797 227.067 32.982 226.182 33.8702Z" fill="#D7AC5C"/>
<path d="M163.69 144.202C162.658 140.058 161.552 136.179 159.97 132.306C158.35 128.566 156.51 125.047 154.448 121.75C152.712 118.974 149.963 119.758 147.936 121.889C146.055 124.061 145.042 127.621 146.816 130.265C151.085 136.9 156.977 141.717 163.69 144.202Z" fill="#D7AC5C"/>
<path d="M169.835 128.706C169.835 128.706 168.19 123.39 165.969 116.769C163.748 110.148 161.097 102.264 158.389 97.3572C157.053 94.8379 154.417 95.2263 152.465 97.093C150.513 98.9597 149.32 102.041 150.581 104.824C152.814 109.738 157.709 115.838 161.882 120.592C166.238 125.256 169.835 128.706 169.835 128.706Z" fill="#D7AC5C"/>
<path d="M162.436 83.6862C163.831 88.2181 165.959 92.3891 168.455 96.3798C170.951 100.37 173.705 104.007 177.081 107.679C176.132 102.134 175.255 96.8939 174.157 91.8762C173.204 86.9002 172.14 82.3198 170.745 77.7879C168.992 72.2983 160.866 78.1064 162.436 83.6862Z" fill="#D7AC5C"/>
<path d="M172.431 61.8752C174.186 72.3546 178.877 81.3908 185.032 90.2743C184.17 77.7686 183.809 66.8312 182.163 56.5253C181.11 50.2377 171.562 55.4973 172.431 61.8752Z" fill="#D7AC5C"/>
<path d="M188.59 47.809C188.816 52.0076 189.447 55.894 190.737 59.6833C191.989 63.6045 193.571 67.4771 195.408 71.5648C195.957 66.3044 196.357 61.5714 196.681 57.1022C197.005 52.6329 197.217 48.5592 197.099 44.534C197.027 39.2389 188.409 42.3403 188.59 47.809Z" fill="#D7AC5C"/>
<path d="M204.498 58.4767C205.686 50.9748 207.932 43.6325 208.97 36.658C209.698 31.8764 202.519 33.25 201.461 38.0801C200.59 42.2509 201.43 47.6225 202.352 51.5922C203.275 55.5619 204.498 58.4767 204.498 58.4767Z" fill="#D7AC5C"/>
<path d="M216.34 44.6058C217.548 39.2483 219.596 34.2725 220.546 29.2689C221.191 25.8892 216.102 26.5759 215.273 30.0458C214.593 32.9882 214.678 36.5762 215.241 39.5882C215.697 42.4266 216.34 44.6058 216.34 44.6058Z" fill="#D7AC5C"/>
<path d="M165.734 144.785C168.645 141.767 171.919 139.137 175.227 136.944C178.534 134.751 182.022 133.037 185.688 131.802C188.658 130.796 190.436 132.871 190.82 135.404C191.205 137.938 190.305 141.102 187.297 142.24C180.035 145.015 172.638 146.042 165.734 144.785Z" fill="#D7AC5C"/>
<path d="M169.143 128.367C169.143 128.367 173.739 124.973 179.508 121.344C185.423 117.757 192.764 114.149 198.003 112.934C200.861 112.324 202.384 114.184 202.514 116.502C202.79 118.862 201.748 121.415 198.961 122.331C193.939 123.892 186.576 125.356 180.423 126.452C174.086 127.638 169.143 128.367 169.143 128.367Z" fill="#D7AC5C"/>
<path d="M204.735 102.594C200.409 103.926 196.121 105.126 191.469 105.938C186.964 106.791 182.096 107.256 177.19 107.852C181.786 104.459 186.379 101.635 190.713 99.1644C195.155 96.8677 199.593 95.14 203.919 93.8079C209.088 92.2884 209.941 100.943 204.735 102.594Z" fill="#D7AC5C"/>
<path d="M215.865 85.6683C206.263 88.3464 195.867 89.3727 185.033 90.274C195.619 83.0296 205.747 78.5055 215.53 76.3063C221.245 75.0854 221.656 84.1836 215.865 85.6683Z" fill="#D7AC5C"/>
<path d="M220.596 68.4846C216.821 69.5461 212.866 70.1287 208.657 70.4962C204.593 70.9053 200.238 71.2312 195.516 71.7374C197.831 70.2594 200.108 68.9132 202.202 67.6573C204.442 66.4429 206.607 65.4924 208.626 64.5001C212.626 62.6475 216.623 61.3639 220.615 60.6494C225.779 59.699 225.652 67.3607 220.596 68.4846Z" fill="#D7AC5C"/>
<path d="M204.353 58.437C211.402 54.7455 218.306 51.0124 225.197 48.9865C229.669 47.696 230.208 54.1224 225.661 55.6766C221.665 56.9601 216.392 57.737 212.037 58.0628C207.682 58.3887 204.353 58.437 204.353 58.437Z" fill="#D7AC5C"/>
<path d="M215.283 43.8766C220.531 41.5244 225.778 39.1722 230.726 37.8748C234.096 37.1256 234.026 41.81 230.764 42.7328C227.832 43.607 223.844 43.7524 220.806 43.884C217.769 44.0156 215.283 43.8766 215.283 43.8766Z" fill="#D7AC5C"/>
<path d="M110.61 86.3666C116.488 95.9242 119.085 107.257 116.624 118.453C116.077 121.047 115.257 123.641 114.164 126.099C113.07 128.557 111.84 131.014 110.336 133.199C107.192 137.841 103.501 141.937 105.688 147.945C106.645 150.403 108.149 152.587 109.379 154.772C113.344 161.735 115.257 169.927 114.574 177.983C112.113 172.795 111.43 166.923 109.926 161.462C108.286 154.908 105.552 148.081 98.7169 145.76C97.35 145.351 96.1197 144.804 94.7527 144.395C92.1555 143.439 89.5582 142.483 87.0977 141.391C85.8674 140.845 84.7738 140.299 83.8169 139.753C82.7234 139.206 81.7665 138.524 80.6729 137.841C78.7591 136.476 76.9821 135.11 75.3417 133.608C68.3702 126.918 64.5426 118.999 63.5858 109.578C63.5858 109.441 63.8591 109.168 64.1325 109.168C66.4564 109.714 68.5069 110.534 70.5573 111.353C72.6078 112.309 74.5215 113.401 76.4353 114.63C77.3922 115.176 78.3491 115.859 79.1692 116.405C80.1261 117.087 80.9463 117.634 81.9032 118.316C83.6802 119.682 85.4573 121.047 87.0977 122.412C88.8747 124.051 90.5151 125.826 92.0188 127.601C93.5224 129.512 94.8894 131.424 96.2564 133.335C96.6665 134.018 97.2133 134.564 97.76 135.247C98.3068 135.93 98.7169 136.476 99.2637 137.158C98.4435 135.247 97.4866 133.472 96.5298 131.697C95.5729 129.922 94.616 128.147 93.5224 126.372C92.2922 124.324 91.0619 122.139 89.8316 120.091C88.4646 118.043 87.2344 115.995 86.1408 113.811C85.3206 112.445 84.5004 110.943 83.6802 109.578C79.716 109.851 76.1619 108.759 73.0179 107.53C69.6004 106.301 66.4564 104.663 63.7225 102.751C60.305 100.43 57.161 97.8357 54.8371 94.6954C52.1032 91.4185 50.7362 87.3224 48.0023 84.0455C47.8656 83.9089 48.139 83.4993 48.4124 83.4993C62.6289 84.3185 74.3848 92.5108 80.8096 103.707C79.8527 102.068 79.0325 100.157 78.2124 98.3819C77.3922 96.6069 76.572 94.6954 75.7518 92.9204C75.0683 91.4185 74.3848 89.9166 73.5647 88.5512C72.7445 87.1858 71.7876 85.8205 70.5573 84.7282C69.7371 83.9089 68.5069 83.4993 67.6867 82.9532C66.7298 82.407 65.7729 81.7243 64.816 81.0417C63.4491 80.2224 62.0821 79.2667 60.5784 78.8571C59.3481 78.4474 58.1179 78.1744 57.0243 77.6282C55.794 77.0821 54.7004 76.2629 53.7436 75.3071C52.7867 74.4879 51.8298 73.5321 50.8729 72.5764C49.916 71.6206 49.0959 70.6648 48.0023 69.7091C47.0454 69.0264 45.9518 68.3437 44.7215 67.661C44.3115 67.5245 44.8582 66.9783 45.1316 67.1149C47.7289 68.0706 51.0096 67.661 53.7436 68.4802C56.3408 69.2995 59.0748 70.3918 61.2619 71.8937C63.7225 73.6687 65.9096 75.5802 67.8234 78.0378C66.7298 76.1263 65.4995 74.3513 64.2692 72.5764L62.3555 69.9821C61.672 69.1629 60.9885 68.3437 60.305 67.388C60.1683 67.388 60.1683 67.3879 60.0316 67.2514C58.9381 66.0226 57.7078 64.7937 56.4775 63.7014C55.1105 62.7457 53.6069 61.9265 51.9665 61.2438C48.6858 60.0149 44.7215 60.0149 41.3041 59.0592C34.8794 57.2842 30.0949 53.3246 25.8573 48.9554C25.7206 48.8189 25.8573 48.4093 26.1307 48.2728C31.4619 46.6343 37.3399 46.7708 41.9876 48.8189C43.2179 49.365 44.3115 50.0477 45.405 50.7304C46.3619 51.5496 47.3188 52.3689 48.139 53.4612C49.2326 54.8265 50.4628 56.1919 51.6931 57.5573L52.7867 58.3765C51.9665 56.738 51.4197 55.0996 51.0096 53.3246C50.5995 51.5496 50.3261 49.6381 50.0527 47.5901C49.7793 44.8593 49.2326 42.2651 48.6858 39.6709C48.4124 38.5786 48.0023 37.4863 47.7289 36.394C47.4555 35.3017 47.1821 34.2094 47.1821 32.9806C47.1821 32.7075 47.4555 32.4344 47.7289 32.571C53.1968 35.9844 56.8876 41.4459 59.0747 47.5901C61.2619 53.7342 61.9454 60.5611 61.9454 66.8418C61.9454 66.9783 61.9454 66.9783 61.8087 67.1149C63.3124 68.8899 64.5426 70.6648 65.9096 72.5764C67.9601 75.4436 69.4637 78.584 71.3775 81.4513L71.6509 81.8609C71.6509 81.5878 71.6509 81.3147 71.7876 80.9051C71.3775 78.9936 71.2408 76.9455 71.1041 74.7609C70.9674 72.7129 70.8307 70.5283 70.9674 68.3437C70.9674 66.2957 71.1041 64.2476 71.1041 62.1995C71.1041 60.1515 71.1041 58.1034 70.9674 56.0554C70.9674 51.8227 70.5573 47.7266 70.1472 43.494C70.1472 43.0843 70.5573 42.9478 70.8307 43.0843C72.4711 44.7228 74.2481 46.3612 75.8885 48.1362C77.3922 49.9112 78.8958 51.8227 80.1261 53.8708C81.7665 56.8746 81.3564 60.4246 79.9894 63.7014C77.8023 69.0264 73.5647 75.1706 72.7445 80.632C73.0179 81.8609 73.2913 83.2263 73.428 84.4551C74.3848 86.0935 75.3417 87.732 76.2986 89.3704C77.8023 92.1012 78.8958 94.9684 80.1261 97.6992C81.083 99.8838 82.0399 102.068 82.9968 104.253C83.9536 106.438 84.9105 108.622 86.1408 110.67C86.1408 110.124 86.1408 109.714 86.1408 109.168C86.2775 107.12 86.4142 105.072 86.5509 103.024C86.8243 98.2453 87.5078 93.33 88.1912 88.4147C88.4646 86.2301 89.0114 83.9089 89.5582 81.5878C90.105 79.2667 90.7885 77.0821 91.472 74.7609C92.9756 70.1187 94.4793 65.4764 95.8463 60.8342C95.983 60.5611 96.2564 60.4246 96.5298 60.5611C98.4435 61.9265 99.9472 63.7014 100.904 65.886C101.861 68.0706 102.408 70.3918 102.818 72.5764C103.228 74.8975 103.365 77.3552 103.365 79.6763C103.228 82.134 102.955 84.4551 102.408 86.7762C100.904 92.2377 98.5802 97.2896 95.5729 102.205C94.2059 104.39 92.5656 106.574 91.472 108.895C90.9252 109.988 90.105 110.943 89.8316 112.036C89.5582 113.128 89.5582 114.357 89.8316 115.312C90.3784 117.087 91.6087 118.589 92.7023 120.091C93.6591 121.593 94.616 123.095 95.5729 124.597L96.9399 126.918C97.35 127.737 97.76 128.42 98.3068 129.239C99.6738 131.697 100.631 134.155 101.588 136.749C101.998 137.705 102.408 138.66 102.681 139.616C102.408 137.431 102.408 135.11 102.271 132.926C102.134 130.332 102.271 127.737 102.408 125.007C102.544 122.412 102.955 119.682 103.501 116.951C104.185 114.22 104.868 111.626 105.688 108.895C106.509 106.164 107.466 103.434 107.876 100.566C108.286 98.2453 108.422 95.9242 108.696 93.4665C108.969 91.0089 109.243 88.6877 110.199 86.3666C110.063 86.2301 110.473 86.2301 110.61 86.3666Z" fill="#519DB2"/>
</g>
</svg>
