<svg width="34" height="52" viewBox="0 0 34 52" fill="none" xmlns="http://www.w3.org/2000/svg">
<g opacity="0.7">
<mask id="mask0_6062_10879" style="mask-type:luminance" maskUnits="userSpaceOnUse" x="15" y="0" width="9" height="52">
<path d="M23.228 52L15.7269 52L15.7269 0.00157547L23.228 0.00157481L23.228 52Z" fill="white"/>
</mask>
<g mask="url(#mask0_6062_10879)">
<path fill-rule="evenodd" clip-rule="evenodd" d="M20.5024 48.6988C20.9683 49.5416 21.8069 51.6253 22.5523 51.9765C23.0415 52.2106 23.0648 50.3142 23.0881 49.963C23.2279 48.5817 23.2279 47.2004 23.1813 45.8191C23.1114 43.314 22.3427 41.043 21.2012 38.8188C20.6188 37.6716 19.92 36.501 18.8484 35.7284C18.3592 35.3772 17.7535 35.2602 17.2643 34.9558C16.7052 34.5812 17.0081 34.8622 16.7984 34.23C16.5189 33.3404 16.4956 32.2166 16.4024 31.2801C16.0064 26.9957 16.1462 4.59024 16.8683 0.352634C16.9382 -0.0219613 16.4257 -0.162434 16.3558 0.305813C15.9831 2.74068 15.6337 19.855 15.7268 25.4739C15.82 31.0928 15.9831 36.0562 16.4257 38.0228C16.9615 40.4343 18.0564 43.3608 18.9882 45.6318C19.4541 46.6853 19.92 47.7154 20.5024 48.6988Z" fill="#DF9F1E"/>
</g>
</g>
<g opacity="0.8">
<mask id="mask1_6062_10879" style="mask-type:luminance" maskUnits="userSpaceOnUse" x="16" y="0" width="18" height="33">
<path d="M16.2491 32.777L34 32.777L34 -2.67029e-05L16.2491 -2.82627e-05L16.2491 32.777Z" fill="white"/>
</mask>
<g mask="url(#mask1_6062_10879)">
<path fill-rule="evenodd" clip-rule="evenodd" d="M33.7903 32.7768C32.975 32.6832 31.5074 30.9975 30.7852 30.3654C29.9233 29.6162 29.1313 28.7968 28.3858 27.9539C26.7552 26.1044 25.2876 24.1378 23.9831 22.0307C21.8632 18.6359 20.0928 15.1007 18.7183 11.3079C17.8564 8.99009 17.2275 6.55523 16.7616 4.12036C16.6684 3.65212 15.853 0.140292 16.5519 -0.0235954C17.1576 -0.164068 17.2275 2.64539 17.2973 3.01999C18.0428 7.281 19.4405 11.3547 21.2342 15.2411C21.6302 16.084 22.003 17.1375 22.5853 17.8867C23.0047 18.4252 22.6319 18.2613 23.2609 18.4252C23.82 18.5657 24.4257 18.4486 24.9847 18.6359C26.2194 19.0105 27.2677 19.8767 28.1995 20.7664C29.9932 22.4755 31.4841 24.3953 32.3693 26.7131C32.8585 28.0008 33.3244 29.3118 33.6505 30.6698C33.7204 31.0443 34.3261 32.8237 33.7903 32.7768Z" fill="#57A9B7"/>
</g>
</g>
<g opacity="0.7">
<mask id="mask2_6062_10879" style="mask-type:luminance" maskUnits="userSpaceOnUse" x="0" y="0" width="17" height="38">
<path d="M5.72205e-06 37.859L16.4464 37.859L16.4464 0.00150681L9.01471e-06 0.00150536L5.72205e-06 37.859Z" fill="white"/>
</mask>
<g mask="url(#mask2_6062_10879)">
<path fill-rule="evenodd" clip-rule="evenodd" d="M-0.000289917 37.859C0.279253 37.578 0.0928937 37.2034 0.0928937 36.8288C0.0695974 36.2201 0.139481 35.6114 0.232662 35.0027C0.372433 34.0662 0.628679 33.1297 0.978106 32.24C1.77014 30.2968 3.14456 28.4239 4.82181 27.1596C5.63714 26.5509 6.47577 26.3168 7.43087 26.0124C8.03654 25.8251 8.08313 25.4973 8.38597 24.8886C9.01494 23.6244 9.64391 22.3835 10.1797 21.0724C10.832 19.5272 11.4842 17.9586 12.0666 16.39C14.07 11.0754 15.6773 5.597 16.4228 -0.0453262C16.5626 3.25579 15.9103 6.69738 15.0484 9.88143C14.4194 12.1992 13.5808 14.4468 12.6956 16.671C12.4859 17.2094 12.1365 17.9118 12.0666 18.4971C12.02 18.9185 12.2297 19.2931 12.3461 19.7379C12.7887 21.4002 12.812 23.2966 12.5325 25.0057C12.2297 26.8787 11.1814 27.7917 9.38766 28.1195C8.73539 28.2366 7.89677 28.2366 7.29109 28.5409C6.63883 28.8687 6.40588 29.8988 6.05645 30.5544C5.10135 32.3337 3.95989 34.0662 2.63206 35.588C2.25934 36.0094 1.86332 36.4074 1.44401 36.7586C1.16447 37.0161 0.605384 37.5546 -0.000289917 37.859Z" fill="#DA8681"/>
</g>
</g>
</svg>
