<svg width="18" height="18" viewBox="0 0 18 18" fill="none" xmlns="http://www.w3.org/2000/svg">
<g clip-path="url(#clip0_5903_4176)">
<path d="M0.384128 8.89222C0.383707 10.4046 0.781956 11.8813 1.53922 13.1828L0.311707 17.63L4.89833 16.4367C6.16693 17.1219 7.5883 17.481 9.0327 17.4811H9.0365C13.8047 17.4811 17.6862 13.6311 17.6882 8.89899C17.6892 6.60594 16.79 4.44971 15.1564 2.82748C13.523 1.20538 11.3507 0.311593 9.03615 0.310547C4.26735 0.310547 0.386167 4.16031 0.384199 8.89222" fill="url(#paint0_linear_5903_4176)"/>
<path d="M0.0752344 8.88949C0.0747422 10.4563 0.487266 11.9858 1.27153 13.334L0 17.9405L4.75109 16.7044C6.06016 17.4126 7.53405 17.786 9.03382 17.7866H9.03769C13.977 17.7866 17.9979 13.7981 18 8.8966C18.0008 6.52116 17.0693 4.28742 15.3773 2.60707C13.6851 0.92693 11.4351 0.000976744 9.03769 0C4.09753 0 0.0772734 3.98791 0.0753047 8.88949H0.0752344ZM2.90461 13.1018L2.72721 12.8223C1.98148 11.6458 1.58787 10.2862 1.58843 8.89005C1.59005 4.81598 4.93158 1.5014 9.0405 1.5014C11.0303 1.50223 12.9004 2.27191 14.3069 3.66837C15.7134 5.06498 16.4873 6.92149 16.4868 8.89605C16.485 12.9701 13.1434 16.2851 9.03769 16.2851H9.03473C7.69788 16.2844 6.38677 15.9282 5.24334 15.255L4.97123 15.0949L2.15184 15.8284L2.90461 13.1017V13.1018Z" fill="white"/>
<path d="M6.79769 5.17328C6.62992 4.8033 6.45337 4.79584 6.29383 4.78935C6.16319 4.78377 6.01384 4.78419 5.86464 4.78419C5.7153 4.78419 5.47265 4.83993 5.26755 5.06214C5.06223 5.28456 4.4837 5.82205 4.4837 6.91523C4.4837 8.00849 5.28618 9.06498 5.39805 9.21337C5.51006 9.36149 6.94724 11.6767 9.2234 12.5673C11.1151 13.3075 11.5 13.1603 11.9106 13.1231C12.3212 13.0862 13.2356 12.5858 13.4221 12.0669C13.6088 11.5481 13.6088 11.1034 13.5528 11.0105C13.4969 10.9179 13.3475 10.8623 13.1236 10.7513C12.8995 10.6401 11.7986 10.1026 11.5934 10.0284C11.388 9.9543 11.2388 9.91733 11.0894 10.1398C10.9401 10.362 10.5112 10.8623 10.3805 11.0105C10.25 11.159 10.1192 11.1775 9.89537 11.0664C9.67129 10.9549 8.95009 10.7206 8.09446 9.96365C7.42874 9.37468 6.9793 8.64735 6.84866 8.42486C6.71802 8.20272 6.83467 8.0823 6.94696 7.97158C7.04758 7.87202 7.17098 7.71212 7.28305 7.58242C7.39471 7.45265 7.43198 7.36007 7.50665 7.21188C7.58139 7.06356 7.54398 6.93379 7.48809 6.82265C7.43198 6.71151 6.99681 5.61268 6.79769 5.17335" fill="white"/>
</g>
<defs>
<linearGradient id="paint0_linear_5903_4176" x1="8.99997" y1="17.63" x2="8.99997" y2="0.310547" gradientUnits="userSpaceOnUse">
<stop stop-color="#1FAF38"/>
<stop offset="1" stop-color="#60D669"/>
</linearGradient>
<clipPath id="clip0_5903_4176">
<rect width="18" height="18" fill="white"/>
</clipPath>
</defs>
</svg>
