<svg width="74" height="65" viewBox="0 0 74 65" fill="none" xmlns="http://www.w3.org/2000/svg">
<g clip-path="url(#clip0_7020_2985)">
<path d="M0.407714 17.7571C5.62645 20.7918 10.8452 23.8265 16.0639 26.8202C20.6711 29.4858 25.319 32.1514 29.9262 34.858C34.5333 37.5646 39.1813 37.7287 43.7884 35.0631C53.1251 29.6908 62.4209 24.2776 71.7576 18.9053C72.4099 18.5363 72.9807 17.7981 73.9592 18.0031C74.1631 18.8643 73.47 19.1514 73.0215 19.5615C61.7278 30.9621 50.3934 42.2807 39.1405 53.7224C37.7135 55.1987 36.735 55.4858 35.1449 53.8454C23.7697 42.2807 12.313 30.7981 0.856198 19.3154C0.530028 18.9874 0.285399 18.6183 0 18.2902C0.122314 18.1262 0.244628 17.9621 0.407714 17.7571Z" fill="#262569"/>
<path d="M36.9791 49.6625C39.9064 49.6625 42.2794 47.2756 42.2794 44.3312C42.2794 41.3869 39.9064 39 36.9791 39C34.0518 39 31.6788 41.3869 31.6788 44.3312C31.6788 47.2756 34.0518 49.6625 36.9791 49.6625Z" fill="white"/>
<path d="M45.8676 25.1798C45.8676 29.9369 41.7904 34.0788 37.1425 34.0788C32.2092 34.1198 28.132 30.1009 28.0913 25.2208C28.0913 20.3817 32.2092 16.3217 37.1017 16.3627C41.872 16.4037 45.9084 20.4227 45.8676 25.1798Z" fill="#262569"/>
<path d="M33.6364 44.4133C33.6364 43.224 33.6771 43.183 34.8595 43.183C35.7157 43.183 35.7157 43.183 35.7565 42.2808C35.7565 41.8707 35.5934 41.3376 36.0826 41.1325C36.6534 40.8865 37.265 40.9275 37.8358 41.1325C38.0397 41.2145 38.1212 41.4196 38.1212 41.5836C38.162 41.8297 38.162 42.0757 38.162 42.2808C38.162 43.183 38.162 43.142 39.0589 43.183C39.4667 43.183 40.0375 43.019 40.2005 43.5521C40.3636 44.1262 40.3636 44.7414 40.2005 45.3155C40.1598 45.4795 39.9967 45.5205 39.8336 45.5615C39.6705 45.5615 39.5482 45.5615 39.3851 45.5615C38.162 45.5615 38.2027 45.3975 38.162 46.7098C38.162 47.571 37.9989 47.735 37.1427 47.735C36.9796 47.735 36.8165 47.735 36.6127 47.735C36.0419 47.7761 35.7565 47.489 35.7157 46.8738C35.6341 45.5615 35.6341 45.5615 34.3702 45.5205C33.7179 45.5205 33.6364 45.4385 33.6364 44.4133Z" fill="#CF323A"/>
<path d="M12.5579 62.9906C12.5986 63.7698 12.9656 64.0978 13.6179 64.0978C14.1072 64.0978 14.4741 63.8108 14.5557 63.5237H15.6157C15.2895 64.5899 14.5557 65 13.5771 65C12.1909 65 11.3347 64.0568 11.3347 62.7035C11.3347 61.3912 12.2317 60.366 13.5771 60.366C15.0857 60.366 15.7788 61.6373 15.6973 62.9906H12.5579ZM14.5149 62.2114C14.3926 61.5963 14.1479 61.2682 13.5771 61.2682C12.8025 61.2682 12.5986 61.8833 12.5986 62.2114H14.5149Z" fill="black"/>
<path d="M16.3904 62.0474H18.9182V63.0726H16.3904V62.0474Z" fill="black"/>
<path d="M19.9786 58.8076H21.3241V61.3092L23.6888 58.8076H25.3604L22.9957 61.1862L25.5643 64.877H23.8927L22.0579 62.1294L21.2833 62.9086V64.877H19.9786V58.8076Z" fill="black"/>
<path d="M26.909 63.4827C26.909 64.0158 27.3575 64.2209 27.8467 64.2209C28.1729 64.2209 28.6214 64.0978 28.6214 63.6467C28.6214 63.2776 28.1321 63.1546 27.2759 62.9496C26.5828 62.7855 25.8897 62.5395 25.8897 61.7603C25.8897 60.653 26.8682 60.366 27.806 60.366C28.7437 60.366 29.6407 60.694 29.7222 61.7603H28.5398C28.4991 61.3092 28.1321 61.1452 27.7244 61.1452C27.439 61.1452 27.0721 61.1862 27.0721 61.5552C27.0721 62.0063 27.7652 62.0474 28.4175 62.2114C29.1106 62.3754 29.8038 62.6215 29.8038 63.4417C29.8038 64.5899 28.7845 64.959 27.806 64.959C26.7867 64.959 25.8082 64.5899 25.7674 63.4007H26.909V63.4827Z" fill="black"/>
<path d="M30.4976 58.8076H31.68V61.1041H31.7207C32.0061 60.612 32.5362 60.366 32.9846 60.366C34.2486 60.366 34.5747 61.1042 34.5747 62.1704V64.877H33.3924V62.3754C33.3924 61.6373 33.1885 61.3092 32.6177 61.3092C31.9654 61.3092 31.68 61.6783 31.68 62.5805V64.877H30.4976V58.8076Z" fill="black"/>
<path d="M35.4711 61.8423C35.5526 60.7351 36.5311 60.366 37.5096 60.366C38.3658 60.366 39.4259 60.571 39.4259 61.5963V63.8928C39.4259 64.3029 39.4667 64.672 39.589 64.877H38.3658C38.3251 64.754 38.2843 64.5899 38.2843 64.4669C37.9174 64.877 37.3466 65 36.8165 65C35.9603 65 35.308 64.5899 35.308 63.6877C35.308 61.6783 38.2843 62.7445 38.2027 61.7603C38.2027 61.2682 37.8358 61.1452 37.4281 61.1452C36.9796 61.1452 36.6942 61.3502 36.6534 61.8013H35.4711V61.8423ZM38.2435 62.7445C38.0397 62.9086 37.632 62.9496 37.265 62.9906C36.8981 63.0726 36.5719 63.1956 36.5719 63.6467C36.5719 64.0978 36.8981 64.2209 37.3058 64.2209C38.2435 64.2209 38.2843 63.4827 38.2843 63.1956V62.7445H38.2435Z" fill="black"/>
<path d="M40.4052 60.489H41.5468V61.1041C41.873 60.653 42.3214 60.407 42.8922 60.407C43.4223 60.407 43.9523 60.612 44.1561 61.1452C44.4008 60.7761 44.8493 60.407 45.4608 60.407C46.3986 60.407 47.0509 60.8581 47.0509 61.9653V64.918H45.8685V62.4164C45.8685 61.8423 45.8278 61.3502 45.1347 61.3502C44.4415 61.3502 44.3192 61.9243 44.3192 62.4575V64.918H43.1369V62.4575C43.1369 61.9653 43.1776 61.3502 42.403 61.3502C42.1584 61.3502 41.5876 61.5142 41.5876 62.3754V64.918H40.4052V60.489Z" fill="black"/>
<path d="M47.9885 61.8423C48.0701 60.7351 49.0486 60.366 50.0271 60.366C50.8833 60.366 51.9433 60.571 51.9433 61.5963V63.8928C51.9433 64.3029 51.9841 64.672 52.1064 64.877H50.8833C50.8425 64.754 50.8017 64.5899 50.8017 64.4669C50.4348 64.877 49.864 65 49.334 65C48.4778 65 47.8254 64.5899 47.8254 63.6877C47.8254 61.6783 50.8017 62.7445 50.7202 61.7603C50.7202 61.2682 50.3533 61.1452 49.9455 61.1452C49.4971 61.1452 49.2117 61.3502 49.1709 61.8013H47.9885V61.8423ZM50.761 62.7445C50.5571 62.9086 50.1494 62.9496 49.7825 62.9906C49.4155 63.0726 49.0894 63.1956 49.0894 63.6467C49.0894 64.0978 49.4155 64.2209 49.8232 64.2209C50.761 64.2209 50.8017 63.4827 50.8017 63.1956V62.7445H50.761Z" fill="black"/>
<path d="M54.3893 60.4891H55.2862V61.3092H54.3893V63.4827C54.3893 63.8928 54.4708 63.9749 54.8785 63.9749C55.0008 63.9749 55.1232 63.9749 55.2455 63.9338V64.8771C55.0416 64.9181 54.797 64.9181 54.5524 64.9181C53.8185 64.9181 53.1661 64.754 53.1661 63.8518V61.2682H52.4323V60.448H53.1661V59.1357H54.3485V60.4891H54.3893Z" fill="black"/>
<path d="M55.7758 61.8423C55.8574 60.7351 56.8359 60.366 57.8144 60.366C58.6706 60.366 59.7306 60.571 59.7306 61.5963V63.8928C59.7306 64.3029 59.7714 64.672 59.8937 64.877H58.6706C58.6298 64.754 58.589 64.5899 58.589 64.4669C58.2221 64.877 57.6513 65 57.1213 65C56.2651 65 55.6127 64.5899 55.6127 63.6877C55.6127 61.6783 58.589 62.7445 58.5075 61.7603C58.5075 61.2682 58.1406 61.1452 57.7328 61.1452C57.2844 61.1452 56.999 61.3502 56.9582 61.8013H55.7758V61.8423ZM58.5483 62.7445C58.3444 62.9086 57.9367 62.9496 57.5698 62.9906C57.2028 63.0726 56.8766 63.1956 56.8766 63.6467C56.8766 64.0978 57.2028 64.2209 57.6105 64.2209C58.5483 64.2209 58.589 63.4827 58.589 63.1956V62.7445H58.5483Z" fill="black"/>
<path d="M14.6779 24.1956C14.8817 23.1989 15.1671 22.242 15.4933 21.325" stroke="black" stroke-width="1.748" stroke-miterlimit="10" stroke-linecap="round"/>
<path d="M24.4629 9.77425C28.0627 7.23808 32.4715 5.74133 37.1635 5.74133C44.4441 5.74133 50.9157 9.27533 55.0414 14.7634" stroke="black" stroke-width="1.748" stroke-miterlimit="10" stroke-linecap="round" stroke-dasharray="15.33 15.33"/>
<path d="M58.7115 20.9148C59.0376 21.8318 59.323 22.8286 59.5269 23.7855" stroke="black" stroke-width="1.748" stroke-miterlimit="10" stroke-linecap="round"/>
<path d="M19.4483 20.6688C22.6007 20.6688 25.1563 18.0983 25.1563 14.9275C25.1563 11.7566 22.6007 9.18616 19.4483 9.18616C16.2958 9.18616 13.7403 11.7566 13.7403 14.9275C13.7403 18.0983 16.2958 20.6688 19.4483 20.6688Z" fill="#F89939"/>
<path d="M36.6937 11.4827C39.8461 11.4827 42.4017 8.91217 42.4017 5.74133C42.4017 2.57048 39.8461 0 36.6937 0C33.5412 0 30.9857 2.57048 30.9857 5.74133C30.9857 8.91217 33.5412 11.4827 36.6937 11.4827Z" fill="#2A2B79"/>
<path d="M53.9814 20.6688C57.1339 20.6688 59.6894 18.0983 59.6894 14.9275C59.6894 11.7566 57.1339 9.18616 53.9814 9.18616C50.829 9.18616 48.2734 11.7566 48.2734 14.9275C48.2734 18.0983 50.829 20.6688 53.9814 20.6688Z" fill="#188943"/>
<path d="M36.6945 2.05054L37.7138 4.10101L39.997 4.4701L38.3254 6.06946L38.7331 8.36599L36.6945 7.25874L34.6559 8.36599L35.0229 6.06946L33.392 4.4701L35.6752 4.10101L36.6945 2.05054Z" fill="white"/>
<path d="M19.2032 11.4417L20.2225 13.5331L22.5057 13.8612L20.834 15.4606L21.2417 17.7571L19.2032 16.6909L17.1646 17.7571L17.5315 15.4606L15.9007 13.8612L18.1839 13.5331L19.2032 11.4417Z" fill="white"/>
<path d="M53.9807 11.4417L55 13.5331L57.2832 13.8612L55.6524 15.4606L56.0193 17.7571L53.9807 16.6909L51.9422 17.7571L52.3499 15.4606L50.6783 13.8612L52.9614 13.5331L53.9807 11.4417Z" fill="white"/>
</g>
<defs>
<clipPath id="clip0_7020_2985">
<rect width="74" height="65" fill="white"/>
</clipPath>
</defs>
</svg>
