<svg width="23" height="23" viewBox="0 0 23 23" fill="none" xmlns="http://www.w3.org/2000/svg">
<path d="M4.79167 19.9249H4.79142C4.31865 19.9255 3.91841 19.7594 3.57992 19.4209C3.24143 19.0824 3.075 18.6818 3.075 18.2082L3.075 11.6999H4.59167L4.59167 18.2082V18.4082H4.79167L18.2083 18.4082H18.4083V18.2082V11.6999H19.925V18.2082V18.2085C19.9256 18.6813 19.7595 19.0815 19.421 19.42C19.0825 19.7585 18.6819 19.9249 18.2083 19.9249H4.79167ZM10.6048 12.2152V4.58086H12.1214V12.2152V12.6981L12.4629 12.3567L14.7689 10.0506L15.8681 11.093L11.3631 15.598L6.85808 11.093L7.95731 10.0506L10.2633 12.3567L10.6048 12.6981V12.2152Z" fill="black" stroke="white" stroke-width="0.4"/>
</svg>
