<svg width="24" height="23" viewBox="0 0 24 23" fill="none" xmlns="http://www.w3.org/2000/svg">
<path d="M4.66667 14.1418H15.2V12.795H4.66667V14.1418ZM4.66667 10.1013H19.3333V8.75447H4.66667V10.1013ZM4.66667 6.06078H19.3333V4.71394H4.66667V6.06078ZM0 23V2.17649C0 1.55605 0.205778 1.03841 0.617333 0.623587C1.02889 0.20876 1.54089 0.000897894 2.15333 0H21.8467C22.46 0 22.972 0.207862 23.3827 0.623587C23.7933 1.03931 23.9991 1.55695 24 2.17649V16.6806C24 17.3002 23.7942 17.8178 23.3827 18.2335C22.9711 18.6493 22.4591 18.8567 21.8467 18.8558H4.10267L0 23ZM3.53333 17.5089H21.8467C22.0511 17.5089 22.2391 17.4227 22.4107 17.2503C22.5822 17.0779 22.6676 16.888 22.6667 16.6806V2.17515C22.6667 1.96863 22.5813 1.77873 22.4107 1.60543C22.24 1.43214 22.052 1.34594 21.8467 1.34684H2.15333C1.94889 1.34684 1.76089 1.43304 1.58933 1.60543C1.41778 1.77783 1.33244 1.96773 1.33333 2.17515V19.7245L3.53333 17.5089Z" fill="#1C5D95"/>
</svg>
