<svg width="23" height="23" viewBox="0 0 23 23" fill="none" xmlns="http://www.w3.org/2000/svg">
<path d="M19.1668 11.5003V5.50978C19.1669 5.43414 19.152 5.35922 19.1231 5.28933C19.0941 5.21944 19.0517 5.15595 18.9982 5.10249L15.9813 2.08566C15.8736 1.97779 15.7274 1.91713 15.575 1.91699H4.4085C4.256 1.91699 4.10974 1.97757 4.00191 2.08541C3.89408 2.19324 3.8335 2.33949 3.8335 2.49199V20.5087C3.8335 20.6612 3.89408 20.8074 4.00191 20.9152C4.10974 21.0231 4.256 21.0837 4.4085 21.0837H10.5418M7.66683 9.58366H15.3335M7.66683 5.75033H11.5002M7.66683 13.417H10.5418M19.646 19.6462L21.0835 21.0837" stroke="black" stroke-linecap="round" stroke-linejoin="round"/>
<path d="M15.3333 1.91699V5.17533C15.3333 5.32782 15.3939 5.47408 15.5017 5.58191C15.6096 5.68975 15.7558 5.75033 15.9083 5.75033H19.1667M14.375 17.2503C14.375 18.0128 14.6779 18.7441 15.2171 19.2833C15.7562 19.8224 16.4875 20.1253 17.25 20.1253C18.0125 20.1253 18.7438 19.8224 19.2829 19.2833C19.8221 18.7441 20.125 18.0128 20.125 17.2503C20.125 16.4878 19.8221 15.7566 19.2829 15.2174C18.7438 14.6782 18.0125 14.3753 17.25 14.3753C16.4875 14.3753 15.7562 14.6782 15.2171 15.2174C14.6779 15.7566 14.375 16.4878 14.375 17.2503Z" stroke="black" stroke-linecap="round" stroke-linejoin="round"/>
</svg>
