<svg width="47" height="46" viewBox="0 0 47 46" fill="none" xmlns="http://www.w3.org/2000/svg">
<g clip-path="url(#clip0_7390_5670)">
<path d="M22.0335 32.0282L17.9138 25.5879H21.0036L22.5484 29.9673L22.0335 32.0282Z" fill="#E9AA86"/>
<path d="M19.2407 46.2379C20.7072 42.0345 20.2009 31.1756 19.7645 26.2716L30.7634 25.2207L34.9535 38.6192L30.7634 46.2379H19.2407Z" fill="#7DC9D6"/>
<path d="M2.69933 5.91273C2.60398 6.1293 1.53128 9.64248 2.69933 13.8775C2.99731 14.9724 3.50982 15.9109 4.11768 16.7049L1.94844 18.642C1.50745 17.8118 -0.00625183 15.3454 0.160613 11.4713C0.29172 8.47543 0.685043 5.62398 0.685043 5.62398C0.363233 4.36068 0.661206 3.59066 0.661206 3.59066C0.661206 3.59066 0.553936 2.73643 0.458585 2.29127C0.363233 1.84611 0.553936 1.55735 0.673124 1.71376C0.780394 1.8822 1.20947 3.41019 1.20947 3.41019C1.20947 3.41019 1.03069 1.70173 1.04261 1.28063C1.05453 0.847498 1.29291 0.763278 1.41209 0.895623C1.56704 1.07609 1.78158 3.39816 1.78158 3.39816C1.78158 3.39816 1.76966 1.50923 1.78158 0.967812C1.80542 0.414366 2.09147 0.221863 2.28217 0.414366C2.49671 0.642963 2.47288 3.45832 2.47288 3.45832C2.47288 3.45832 2.81852 1.6897 2.93771 1.30469C3.0569 0.919686 3.40255 1.05203 3.42639 1.34079C3.45022 1.66564 3.36679 2.01455 3.33103 2.32736C3.28336 2.74846 3.2476 3.19363 3.15225 3.6027C3.09266 3.84332 3.0569 4.10802 3.00923 4.36068C3.27144 4.14411 3.54557 3.93958 3.83163 3.7591C3.9389 3.68692 4.07001 3.62676 4.16536 3.69895C4.20111 3.72301 4.22495 3.77114 4.23687 3.81926C4.26071 3.90348 4.24879 4.01176 4.21303 4.09598C4.16536 4.20427 4.07001 4.27646 3.98657 4.34864C3.78395 4.50505 3.58133 4.66146 3.4383 4.87803C3.29528 5.08256 3.21185 5.33522 3.0569 5.52773C2.94963 5.64804 2.83044 5.79242 2.69933 5.91273Z" fill="#E9AA86"/>
<path d="M47.2619 46.2379L46.2178 38.3564C46.2178 39.057 35.144 41.1587 31.0254 42.0345L30.2397 46.2379H47.2619Z" fill="#AFADA0"/>
<mask id="mask0_7390_5670" style="mask-type:luminance" maskUnits="userSpaceOnUse" x="3" y="40" width="1" height="3">
<path d="M3.84219 40.3809H3.70691V42.4134H3.84219V40.3809Z" fill="white"/>
</mask>
<g mask="url(#mask0_7390_5670)">
<path d="M3.75576 40.3809C3.78036 40.5544 3.80496 40.7155 3.81725 40.889C3.82955 41.0625 3.84185 41.2236 3.84185 41.3971C3.84185 41.5706 3.84185 41.7317 3.84185 41.9052C3.82955 42.0788 3.82955 42.2399 3.80496 42.4134C3.78036 42.2399 3.75577 42.0788 3.74347 41.9052C3.73117 41.7317 3.71887 41.5706 3.71887 41.3971C3.71887 41.2236 3.71887 41.0625 3.71887 40.889C3.71887 40.7155 3.73117 40.5544 3.75576 40.3809Z" fill="#EFEEED"/>
</g>
<path d="M20.9903 25.7893H18.2356L20.0557 24.0171C20.4123 24.5748 20.732 25.1697 20.9903 25.7893Z" fill="#E9AA86"/>
<path d="M46.3898 39.0747C43.2907 41.0328 40.0195 41.8508 38.1503 42.173V34.2041C38.3347 34.1421 38.5192 34.0801 38.716 34.0058C38.7898 33.981 38.8635 33.9438 38.9496 33.919C39.0726 33.8695 39.2079 33.8199 39.3432 33.7703C39.4292 33.7331 39.5153 33.6959 39.6137 33.6588C39.626 33.6588 39.6383 33.6464 39.6383 33.6464C39.6875 33.634 39.7244 33.6092 39.7736 33.5844C39.8105 33.572 39.8597 33.5472 39.8966 33.5348C39.9703 33.4977 40.0441 33.4729 40.1179 33.4357C40.1548 33.4233 40.1917 33.3985 40.2286 33.3861C40.3393 33.3365 40.4377 33.287 40.5483 33.2374C40.5606 33.2374 40.5606 33.225 40.5729 33.225C40.5852 33.225 40.5852 33.2126 40.5975 33.2126C41.0279 33.0019 41.4707 32.7664 41.9011 32.5062C42.0856 32.3946 42.2577 32.2831 42.4422 32.1716C42.4545 32.1592 42.4668 32.1592 42.4791 32.1468C42.5283 32.1096 42.5775 32.0848 42.6267 32.0476C42.6267 32.0476 42.639 32.0476 42.639 32.0352C42.7004 31.9981 42.7496 31.9609 42.8111 31.9237C42.8726 31.8865 42.9341 31.8369 42.9956 31.7998C43.0202 31.7874 43.0448 31.7626 43.0694 31.7502C43.1678 31.6758 43.2538 31.6139 43.3522 31.5395C43.5244 31.4032 43.6966 31.2668 43.8564 31.1305C43.881 31.1057 43.9179 31.0809 43.9425 31.0562C43.9425 31.0933 43.9425 31.1305 43.9548 31.1677C43.9548 31.2173 43.9671 31.2668 43.9671 31.3288C43.9671 31.366 43.9794 31.4156 43.9794 31.4651C43.9794 31.4899 43.9794 31.5147 43.9917 31.5395C43.9917 31.5767 44.004 31.6139 44.004 31.651C44.004 31.6882 44.0163 31.7378 44.0163 31.775C44.0286 31.8617 44.0409 31.9361 44.0409 32.0228C44.0532 32.0848 44.0532 32.1344 44.0655 32.1963C44.2008 33.163 44.4221 34.2413 44.828 35.1336C45.4797 36.534 46.0086 37.7734 46.3898 39.0747Z" fill="#AFADA0"/>
<path d="M37.1051 12.8008C36.7239 12.6025 36.2935 12.5777 35.9122 12.714C35.9983 13.0858 36.2566 13.4204 36.6378 13.6187C37.019 13.817 37.4495 13.8418 37.8307 13.7055C37.7323 13.3337 37.4863 12.9991 37.1051 12.8008Z" fill="#BDBCAE"/>
<path d="M33.8708 17.9813C33.8831 18.0185 33.9692 18.13 34.1167 18.3035C33.8462 18.5514 33.5142 18.8984 33.5633 19.0843C33.5633 19.0843 31.7187 19.8899 31.1038 21.8108C30.8947 22.4677 30.8332 23.1369 30.7349 23.8186C30.6119 24.5746 30.5258 25.343 30.5258 26.1114C28.3245 26.2105 26.1355 26.322 23.9342 26.4088C23.2701 26.4336 22.606 26.4708 21.9419 26.4955C21.3025 26.5203 20.663 26.6071 20.0235 26.5699C19.9743 25.7396 19.8636 24.9092 19.6668 24.0912C19.5193 23.484 19.3717 22.5049 18.8798 22.0711C18.7568 21.9596 17.6131 21.7861 17.0105 21.6869C15.8791 20.5963 14.7846 19.9023 14.4157 19.704C14.3419 19.6668 14.2558 19.6296 14.1451 19.58C14.182 19.2578 14.2066 18.886 14.2312 18.477C15.0675 18.3035 17.1704 17.8821 19.1134 17.5351C19.2487 17.5103 19.384 17.4855 19.507 17.4608C20.54 17.2873 21.3516 17.1261 21.9542 17.0022C22.3601 17.6343 23.4669 18.9728 25.2009 18.6877C26.9102 18.4027 27.6112 16.9526 27.8449 16.271C28.4598 16.2958 29.3944 16.3082 30.4643 16.3206C31.5465 16.333 32.764 16.333 33.9815 16.333C34.1905 16.7667 34.3504 17.027 34.3504 17.027C34.3504 17.027 33.8462 17.845 33.8708 17.9813Z" fill="#7DC9D6"/>
<path d="M20.3754 23.8807L18.1987 25.9752L9.38267 25.7664C9.28429 25.5681 9.22132 25.0953 9.12294 25.0209C8.90158 24.835 7.19911 24.7801 6.75639 24.8917C6.76869 24.6934 9.55484 24.3496 9.38267 24.3C9.1982 24.2504 10.0573 25.5802 9.15952 26.3609L4.13011 26.058C3.83496 25.4508 8.94832 25.3493 8.60398 24.8907C8.39492 23.9612 8.08119 23.0792 7.87213 22.4967C7.54009 21.5548 8.67148 23.2735 7.87213 21.7243L7.87213 20.4358C7.23702 24.3287 5.50739 17.6345 6.36823 18.1798C7.22908 18.7375 7.99154 19.0349 8.39737 19.1093C8.53265 19.6918 8.97537 21.0055 10.3404 21.0551C11.7916 21.0922 12.8492 19.4191 13.1566 18.8614C13.8699 19.0969 15.0382 19.3572 15.69 19.6174C15.7883 19.6546 15.8867 19.6918 15.9605 19.7413C16.3294 19.9396 17.4239 20.6337 18.5553 21.7243C19.1825 22.3068 19.8343 23.038 20.3754 23.8807Z" fill="#FBBA71"/>
<mask id="mask1_7390_5670" style="mask-type:luminance" maskUnits="userSpaceOnUse" x="14" y="23" width="3" height="4">
<path d="M16.6265 23.0117H14.1451V26.6183H16.6265V23.0117Z" fill="white"/>
</mask>
<g mask="url(#mask1_7390_5670)">
<path d="M16.6265 26.6183L14.1451 23.0117L14.3267 26.6183H16.6265Z" fill="white"/>
</g>
<path d="M45.5904 17.845C45.5904 17.845 44.7173 18.1921 44.2869 18.7869L43.9302 18.5886C43.9548 18.2044 43.8319 17.5352 43.672 17.4237C43.4629 17.2873 42.6144 16.8784 42.6144 16.8784C42.6144 16.8784 42.639 16.7916 42.6759 16.6553C44.459 17.1014 45.5904 17.845 45.5904 17.845Z" fill="#E9AA86"/>
<path d="M43.918 18.5885C43.9057 18.6877 43.8934 18.762 43.8688 18.8116C43.7335 19.0471 40.2164 23.4839 38.6054 23.5831C36.7484 23.6946 35.5432 22.2446 34.0552 19.6544C34.8668 20.4227 36.4532 21.6497 37.2772 21.6497C38.052 21.6497 39.5646 20.4104 40.819 19.2578C41.9135 18.2415 42.7989 17.2996 42.7989 17.2996L42.5898 16.8906C42.5898 16.8906 43.4384 17.2872 43.6474 17.4359C43.8319 17.5351 43.9549 18.2043 43.918 18.5885Z" fill="#634240"/>
<path d="M42.6636 16.6677C42.725 16.4447 42.7988 16.1348 42.8111 16.0357C42.8111 15.9365 42.6759 15.8374 42.5529 15.7754C42.4791 15.7258 42.4053 15.7011 42.4053 15.7011C42.4053 15.7011 42.4668 15.5895 42.5406 15.3664C42.6636 14.9575 42.8357 14.1891 42.8111 13.0117C42.7988 12.6275 42.725 12.2557 42.6021 11.9087C42.393 11.3262 42.0364 10.7933 41.6182 10.3347C41.0403 9.70266 40.2901 9.14495 39.4538 8.93427C37.4124 8.41374 35.4817 9.49197 34.1904 11.0288C33.9936 11.2642 33.8092 11.5121 33.6493 11.7847C33.0713 12.7638 33.1451 13.7925 33.4402 14.8583C33.5878 15.3788 33.7723 15.887 34.0059 16.3703C34.215 16.8041 34.3748 17.0643 34.3748 17.0643C34.3748 17.0643 33.846 17.8699 33.8706 17.9938C33.8829 18.031 33.969 18.1426 34.1166 18.3161C34.5716 18.8242 35.5431 19.7909 36.3548 20.2742C37.5477 20.993 39.1464 20.3486 40.8189 19.2704C41.9134 18.2541 42.7988 17.3122 42.7988 17.3122L42.5898 16.9032C42.6021 16.8908 42.639 16.7917 42.6636 16.6677Z" fill="#634240"/>
<path d="M40.8313 19.2578C39.5769 20.4104 38.0643 21.6497 37.2895 21.6497C36.4655 21.6497 34.8791 20.4228 34.0675 19.6544C33.7846 19.3818 33.6002 19.1711 33.5756 19.0967C33.5264 18.9108 33.8584 18.5514 34.129 18.3159C34.584 18.824 35.5555 19.7907 36.3672 20.2741C37.5478 20.9805 39.1588 20.3484 40.8313 19.2578Z" fill="#513433"/>
<path d="M39.1342 15.1306C39.3924 16.6055 38.2487 18.9106 36.6254 18.9106C35.1866 18.9106 34.3011 16.4691 34.2397 16.2089C34.1413 15.7751 34.2642 15.6388 34.1659 15.3165C34.1167 15.1554 34.0306 14.9323 33.9814 14.7712C33.8953 14.4986 33.9076 14.0896 34.006 13.8293C34.6824 12.0323 35.8507 11.8588 35.8876 11.8712C35.8999 11.8836 38.7037 12.7387 39.1342 15.1306Z" fill="#E9AA86"/>
<mask id="mask2_7390_5670" style="mask-type:luminance" maskUnits="userSpaceOnUse" x="34" y="25" width="2" height="2">
<path d="M35.0636 25.5786H34.9283V26.8427H35.0636V25.5786Z" fill="white"/>
</mask>
<g mask="url(#mask2_7390_5670)">
<path d="M35.0019 25.5786C35.0265 25.6778 35.0388 25.7893 35.0511 25.8884C35.0634 25.9876 35.0634 26.0991 35.0634 26.1983C35.0634 26.2974 35.0634 26.409 35.0511 26.5081C35.0388 26.6073 35.0265 26.7188 35.0019 26.818C34.9773 26.7188 34.965 26.6073 34.9527 26.5081C34.9404 26.409 34.9404 26.2974 34.9404 26.1983C34.9404 26.0991 34.9404 25.9876 34.9527 25.8884C34.9527 25.7893 34.9773 25.6778 35.0019 25.5786Z" fill="#EFEEED"/>
</g>
<mask id="mask3_7390_5670" style="mask-type:luminance" maskUnits="userSpaceOnUse" x="6" y="31" width="1" height="3">
<path d="M6.68041 31.1553H6.53284V33.8446H6.68041V31.1553Z" fill="white"/>
</mask>
<g mask="url(#mask3_7390_5670)">
<path d="M6.64364 33.8445C6.61904 33.6214 6.59445 33.3983 6.58215 33.1752C6.56985 32.9521 6.55756 32.729 6.54526 32.506C6.53296 32.2829 6.53296 32.0598 6.53296 31.8367C6.53296 31.6136 6.53296 31.3906 6.54526 31.1675C6.58215 31.3906 6.60675 31.6136 6.63134 31.8367C6.65594 32.0598 6.66824 32.2829 6.66824 32.506C6.68053 32.729 6.68053 32.9521 6.66824 33.1752C6.68053 33.3983 6.66824 33.6214 6.64364 33.8445Z" fill="#EFEEED"/>
</g>
<mask id="mask4_7390_5670" style="mask-type:luminance" maskUnits="userSpaceOnUse" x="10" y="26" width="1" height="5">
<path d="M10.3081 26.7437H10.1729V30.2634H10.3081V26.7437Z" fill="white"/>
</mask>
<g mask="url(#mask4_7390_5670)">
<path d="M10.2343 26.7437C10.2589 27.0411 10.2712 27.3261 10.2835 27.6236C10.2835 27.7723 10.2958 27.921 10.2958 28.0697V28.5159V28.9621C10.2958 29.1108 10.2958 29.2595 10.2835 29.4082C10.2712 29.7057 10.2589 29.9907 10.2343 30.2882C10.2097 29.9907 10.1974 29.7057 10.1852 29.4082C10.1852 29.2595 10.1729 29.1108 10.1729 28.9621V28.5159V28.0697C10.1729 27.921 10.1729 27.7723 10.1852 27.6236C10.1974 27.3261 10.2097 27.0287 10.2343 26.7437Z" fill="#EFEEED"/>
</g>
<mask id="mask5_7390_5670" style="mask-type:luminance" maskUnits="userSpaceOnUse" x="10" y="25" width="1" height="3">
<path d="M10.8124 25.876H10.6771V27.1401H10.8124V25.876Z" fill="white"/>
</mask>
<g mask="url(#mask5_7390_5670)">
<path d="M10.7263 25.876C10.7509 25.9751 10.7755 26.0867 10.7878 26.1858C10.8001 26.285 10.8124 26.3965 10.8124 26.4956C10.8124 26.5948 10.8124 26.7063 10.8124 26.8055C10.8001 26.917 10.7878 27.0162 10.7632 27.1277C10.7386 27.0286 10.714 26.917 10.7017 26.8179C10.6894 26.7187 10.6771 26.6072 10.6771 26.508C10.6771 26.3965 10.6771 26.2974 10.6771 26.1982C10.6894 26.0867 10.7017 25.9875 10.7263 25.876Z" fill="#EFEEED"/>
</g>
<mask id="mask6_7390_5670" style="mask-type:luminance" maskUnits="userSpaceOnUse" x="33" y="31" width="6" height="5">
<path d="M38.6177 31.3535H33.1329V35.8523H38.6177V31.3535Z" fill="white"/>
</mask>
<g mask="url(#mask6_7390_5670)">
<path d="M38.618 34.7741V31.3535C37.0439 32.2334 35.5681 32.8407 35.5681 32.8407L35.5927 32.9399C35.4821 32.9399 35.3468 32.9027 35.273 32.8159C35.15 32.6548 34.9041 32.4689 34.6704 32.2211C34.4613 31.998 34.4121 31.6757 34.2769 31.6757C34.0924 31.6757 34.0678 32.0228 34.0678 32.1963C34.0678 32.3698 34.3998 32.8903 34.4367 33.1134C34.4736 33.3241 33.3545 33.6835 33.1701 33.8818C32.9856 34.0801 33.3791 34.4147 33.4898 34.5634C33.6005 34.7121 33.7604 35.7036 34.0186 35.8275C34.2892 35.9515 35.1623 35.5673 35.4943 35.3318C35.6788 35.1955 35.9371 35.0715 36.1338 34.9848L36.306 35.6292C36.6503 35.5425 37.5358 35.2326 38.618 34.7741Z" fill="#E5E7E8"/>
</g>
<path d="M15.776 18.5018C15.7514 18.9108 15.7268 19.2826 15.6899 19.6049C15.0381 19.357 13.8699 19.0843 13.1566 18.8489C12.8614 18.7497 12.6524 18.663 12.5909 18.5762C12.4556 18.3779 12.431 17.5352 12.4433 16.9403C12.9352 16.4198 13.3165 15.8125 13.5378 15.3911C13.5378 15.3911 14.3987 15.1432 14.5462 14.5855C14.7061 14.0402 14.2142 13.9163 13.8822 14.0526C13.8822 14.0526 13.0828 12.2556 12.1113 11.5739C10.697 12.8133 9.1721 13.6932 7.46271 13.9906C7.46271 13.9906 7.10608 13.7552 6.87242 14.127C6.63876 14.4988 6.72484 15.2424 7.65948 15.4655C7.65948 15.4655 8.24977 16.9898 9.1967 17.7335C9.12291 18.2168 8.96304 19.01 8.6433 19.0967C8.58181 19.1091 8.50802 19.1091 8.39734 19.0967C7.97922 19.0348 7.21676 18.7249 6.36821 18.1672C6.4297 17.2625 6.30672 16.1843 6.09766 14.4492C5.70413 11.0162 7.56109 9.33073 9.7378 8.47558C11.9145 7.62044 13.2304 9.50423 13.2304 9.50423C13.2304 9.50423 14.1281 9.08286 14.9152 9.9504C15.8498 10.979 15.9359 15.6018 15.776 18.5018Z" fill="#634240"/>
<path d="M12.4434 16.9403C11.8408 17.5723 11.0906 18.1176 10.2421 18.1176C9.86086 18.1176 9.51652 17.9689 9.20908 17.721C8.26215 16.9774 7.67186 15.4531 7.67186 15.4531C6.73722 15.23 6.63884 14.4864 6.8848 14.1146C7.11846 13.7428 7.47509 13.9782 7.47509 13.9782C9.18448 13.6808 10.7094 12.8009 12.1237 11.5615C13.0952 12.2432 13.8945 14.0402 13.8945 14.0402C14.2389 13.9039 14.7185 14.0278 14.5586 14.5731C14.3987 15.1184 13.5502 15.3787 13.5502 15.3787C13.3165 15.8249 12.9353 16.4197 12.4434 16.9403Z" fill="#E9AA86"/>
<path d="M12.591 18.5762C12.6525 18.6629 12.8616 18.7497 13.1567 18.8488C12.8493 19.4065 11.8039 21.0796 10.3405 21.0425C8.97546 21.0053 8.53274 19.6792 8.39746 19.0967C8.50814 19.1091 8.58193 19.1091 8.64342 19.0967C8.96316 19.0099 9.12303 18.2168 9.19682 17.7334C9.50426 17.9689 9.8486 18.13 10.2298 18.13C11.0784 18.1176 11.8285 17.5847 12.4311 16.9526C12.4311 17.5351 12.4557 18.3779 12.591 18.5762Z" fill="#E9AA86"/>
<path d="M7.87317 25.3556C8.00845 25.6283 8.06994 25.9629 7.92236 26.186C7.65181 26.5702 6.34825 26.6198 6.08999 26.595C5.83174 26.5578 5.41362 25.368 5.41362 25.368H5.09387C5.09387 25.368 5.4751 24.8351 5.4997 24.6988C5.4997 24.6864 5.4997 24.674 5.4997 24.6616C5.93012 24.5501 7.33207 24.736 7.55343 24.9219C7.65181 24.9962 7.78709 25.1573 7.87317 25.3556Z" fill="#FBBA71"/>
<path d="M5.32757 23.8434C5.49974 23.893 5.51204 24.4631 5.49974 24.649C5.49974 24.6614 5.49974 24.6862 5.49974 24.6862C5.48744 24.8225 5.09391 25.3554 5.09391 25.3554L3.86414 25.3058C4.76187 24.5374 5.14311 23.7814 5.32757 23.8434Z" fill="#FBBA71"/>
<path d="M44.0221 32.3798L38.7816 34.2098L38.7695 34.222C38.7936 34.2098 38.8177 34.1976 38.8418 34.1976C38.9021 34.1732 38.9502 34.161 39.0105 34.1366C39.1309 34.0878 39.2635 34.039 39.396 33.9902C39.4803 33.9536 39.5646 33.917 39.661 33.8804C39.6731 33.8804 39.6851 33.8682 39.6851 33.8682C39.7213 33.856 39.7574 33.8438 39.7935 33.8194C39.8056 33.8194 39.8056 33.8072 39.8176 33.8072C39.8538 33.795 39.902 33.7706 39.9381 33.7584C39.9502 33.7462 39.9742 33.7462 39.9863 33.734C40.0224 33.7218 40.0586 33.6974 40.0947 33.6852C40.1188 33.673 40.1309 33.673 40.155 33.6608C40.1911 33.6486 40.2272 33.6242 40.2634 33.612C40.2875 33.5998 40.2995 33.5876 40.3236 33.5876C40.3598 33.5754 40.3959 33.551 40.432 33.5388C40.4561 33.5266 40.4682 33.5144 40.4923 33.5144C40.5164 33.5022 40.5525 33.49 40.5766 33.4778C40.5887 33.4778 40.5887 33.4656 40.6007 33.4656C40.6127 33.4656 40.6127 33.4534 40.6248 33.4534C40.6489 33.4412 40.673 33.429 40.685 33.4168C40.7935 33.3558 40.9139 33.307 41.0224 33.246C41.0464 33.2338 41.0826 33.2216 41.1067 33.1972C41.1308 33.185 41.1669 33.1606 41.191 33.1484C41.2151 33.1362 41.2512 33.1118 41.2753 33.0996C41.2994 33.0874 41.3356 33.063 41.3597 33.0508C41.3958 33.0386 41.4199 33.0142 41.456 33.002C41.4801 32.9898 41.5163 32.9654 41.5404 32.9532C41.5645 32.941 41.5886 32.9288 41.6127 32.9166C41.6368 32.9044 41.6488 32.8922 41.6729 32.88C41.6849 32.8678 41.697 32.8678 41.7211 32.8556C41.7452 32.8434 41.7572 32.8312 41.7813 32.819C41.8175 32.7946 41.8536 32.7702 41.9018 32.7458C41.9741 32.697 42.0464 32.6604 42.1186 32.6116C42.1427 32.5994 42.1668 32.5872 42.1909 32.5628L42.203 32.5506C42.2753 32.5018 42.3596 32.453 42.4319 32.4042C42.4439 32.392 42.456 32.392 42.468 32.3798C42.5162 32.3432 42.5644 32.3188 42.6126 32.2822C42.6126 32.2822 42.6246 32.2822 42.6246 32.27C42.6367 32.2578 42.6608 32.2456 42.6728 32.2334C42.7089 32.209 42.7451 32.1846 42.7812 32.1602C42.8415 32.1236 42.9017 32.0748 42.9619 32.0382C42.986 32.026 43.0101 32.0016 43.0342 31.9894C43.0704 31.965 43.1065 31.9406 43.1426 31.9162C43.1667 31.904 43.1908 31.8796 43.2149 31.8552C43.2511 31.8308 43.2872 31.8064 43.3234 31.782C43.3956 31.721 43.4679 31.6722 43.5402 31.6112C43.5523 31.599 43.5523 31.599 43.5643 31.5868C43.5763 31.5746 43.5884 31.5746 43.6004 31.5624C43.6727 31.5014 43.745 31.4404 43.8173 31.3794C43.8414 31.355 43.8775 31.3306 43.9016 31.3062C43.9016 31.3428 43.9016 31.3794 43.9137 31.416C43.9137 31.4648 43.9257 31.5136 43.9257 31.5746C43.9257 31.6112 43.9378 31.66 43.9378 31.7088C43.9378 31.7332 43.9378 31.7576 43.9498 31.782C43.9498 31.8186 43.9619 31.8552 43.9619 31.8918C43.9619 31.9284 43.9739 31.9772 43.9739 32.0138C43.9859 32.0992 43.998 32.1724 43.998 32.2578C44.01 32.27 44.0221 32.3188 44.0221 32.3798Z" fill="#AFADA0"/>
<path d="M12.5909 18.5764C12.4557 18.3781 12.4311 17.5353 12.4434 16.9404C11.8408 17.5725 11.0906 18.1178 10.2421 18.1178L13.1566 18.8366C12.8615 18.7499 12.6524 18.6631 12.5909 18.5764Z" fill="#BE9285"/>
<mask id="mask7_7390_5670" style="mask-type:luminance" maskUnits="userSpaceOnUse" x="6" y="8" width="8" height="4">
<path d="M13.0705 8.81055H6.92163V11.7478H13.0705V8.81055Z" fill="white"/>
</mask>
<g mask="url(#mask7_7390_5670)">
<path d="M7.00762 11.7479C6.99532 11.7479 6.98302 11.7479 6.97072 11.7356C6.93383 11.7232 6.90924 11.6736 6.92153 11.624C7.27817 10.7813 7.72089 9.82697 8.54484 9.28166C9.3319 8.76114 10.2665 8.74875 10.906 8.8355C11.3487 8.89747 11.7792 9.00901 12.1973 9.17012C12.4678 9.28166 12.8122 9.44278 13.0458 9.74022C13.0704 9.7774 13.0704 9.82697 13.0335 9.85176C12.9966 9.87655 12.9474 9.87655 12.9229 9.83937C12.7138 9.5791 12.394 9.41799 12.1358 9.31884C11.73 9.15773 11.3118 9.04619 10.8937 8.99661C10.2788 8.92225 9.38109 8.92225 8.64322 9.41799C7.85617 9.93851 7.42574 10.8556 7.08141 11.686C7.06911 11.7356 7.03221 11.7479 7.00762 11.7479Z" fill="#634240"/>
</g>
<mask id="mask8_7390_5670" style="mask-type:luminance" maskUnits="userSpaceOnUse" x="12" y="9" width="4" height="10">
<path d="M15.3686 9.729H12.8844V18.5655H15.3686V9.729Z" fill="white"/>
</mask>
<g mask="url(#mask8_7390_5670)">
<path d="M15.1228 18.5533C15.0736 18.5533 15.0367 18.5161 15.0367 18.4666C15.1351 17.0537 15.2458 15.5913 15.1843 14.1413C15.1597 13.5959 15.1105 12.8895 14.9138 12.2203C14.717 11.551 14.385 10.9809 13.9545 10.5843C13.6471 10.2993 13.2782 10.0762 12.9092 9.86553C12.8723 9.84075 12.86 9.79117 12.8846 9.75399C12.9092 9.71681 12.9584 9.70442 12.9953 9.7292C13.3642 9.93989 13.7455 10.163 14.0652 10.4604C14.5079 10.8818 14.8646 11.4643 15.0613 12.1707C15.2581 12.8523 15.3196 13.5712 15.3319 14.1289C15.3934 15.5789 15.2827 17.0413 15.1843 18.4666C15.2089 18.5285 15.172 18.5533 15.1228 18.5533Z" fill="#634240"/>
</g>
<mask id="mask9_7390_5670" style="mask-type:luminance" maskUnits="userSpaceOnUse" x="13" y="15" width="1" height="4">
<path d="M13.8944 15.9985H13.55V18.973H13.8944V15.9985Z" fill="white"/>
</mask>
<g mask="url(#mask9_7390_5670)">
<path d="M13.7836 18.9731C13.7345 18.9731 13.6976 18.9359 13.6976 18.8864C13.7468 17.9569 13.6976 17.015 13.5377 16.0855C13.5254 16.0359 13.5623 15.9987 13.5992 15.9863C13.6484 15.9739 13.6853 16.0111 13.6976 16.0483C13.8574 16.9778 13.9189 17.9321 13.8574 18.8864C13.8697 18.9483 13.8328 18.9731 13.7836 18.9731Z" fill="#634240"/>
</g>
<mask id="mask10_7390_5670" style="mask-type:luminance" maskUnits="userSpaceOnUse" x="5" y="9" width="7" height="4">
<path d="M11.8398 9.146H5.29736V12.6781H11.8398V9.146Z" fill="white"/>
</mask>
<g mask="url(#mask10_7390_5670)">
<path d="M6.29435 13.4084C6.26975 13.4084 6.24516 13.396 6.22056 13.3712C6.19596 13.334 6.20826 13.2845 6.24516 13.2597C6.47881 13.111 6.68787 12.9003 6.88464 12.6276C6.98302 12.4789 7.0814 12.3178 7.16749 12.1691C7.26587 11.9955 7.37655 11.8096 7.49953 11.6485C8.05293 10.8677 8.88918 10.2977 9.8607 10.0374C10.8199 9.77713 11.8283 9.8391 12.7138 10.2109C12.7507 10.2233 12.7753 10.2729 12.763 10.3224C12.7507 10.3596 12.7015 10.3844 12.6523 10.372C10.8814 9.62841 8.71701 10.2109 7.6348 11.7477C7.52412 11.9088 7.41344 12.0823 7.31506 12.2558C7.22898 12.4045 7.13059 12.5656 7.03221 12.7268C6.83545 13.0242 6.60179 13.2473 6.35583 13.4084C6.31894 13.396 6.30664 13.4084 6.29435 13.4084Z" fill="#634240"/>
</g>
<mask id="mask11_7390_5670" style="mask-type:luminance" maskUnits="userSpaceOnUse" x="11" y="9" width="3" height="3">
<path d="M13.604 9.82666H11.9069V11.5122H13.604V9.82666Z" fill="white"/>
</mask>
<g mask="url(#mask11_7390_5670)">
<path d="M13.5181 11.5124C13.4812 11.5124 13.4443 11.4876 13.432 11.438C13.3705 11.0786 13.1983 10.7316 12.9401 10.4713C12.6818 10.211 12.3375 10.0375 11.9686 9.98796C11.9194 9.97557 11.8948 9.93839 11.8948 9.88881C11.9071 9.83924 11.944 9.81445 11.9932 9.81445C12.3867 9.87642 12.7679 10.0623 13.0508 10.3474C13.3336 10.6324 13.5304 11.0042 13.5919 11.4008C13.6042 11.4504 13.5673 11.4876 13.5181 11.5C13.5304 11.5123 13.5181 11.5124 13.5181 11.5124Z" fill="#634240"/>
</g>
<mask id="mask12_7390_5670" style="mask-type:luminance" maskUnits="userSpaceOnUse" x="7" y="15" width="1" height="4">
<path d="M7.75791 15.7134H7.41357V18.7869H7.75791V15.7134Z" fill="white"/>
</mask>
<g mask="url(#mask12_7390_5670)">
<path d="M7.61022 18.7868H7.59792C7.54873 18.7744 7.52413 18.7372 7.53643 18.6876C7.65941 18.0308 7.57332 17.3367 7.49954 16.6799C7.46264 16.3948 7.43805 16.0974 7.41345 15.8123C7.41345 15.7628 7.45035 15.7256 7.48724 15.7256C7.53643 15.7256 7.57332 15.7628 7.57332 15.7999C7.58562 16.085 7.62251 16.3824 7.65941 16.6675C7.73319 17.3491 7.81928 18.0432 7.6963 18.7248C7.684 18.762 7.64711 18.7868 7.61022 18.7868Z" fill="#634240"/>
</g>
<mask id="mask13_7390_5670" style="mask-type:luminance" maskUnits="userSpaceOnUse" x="6" y="15" width="1" height="3">
<path d="M6.98319 15.0815H6.56506V17.6718H6.98319V15.0815Z" fill="white"/>
</mask>
<g mask="url(#mask13_7390_5670)">
<path d="M6.8967 17.6715C6.84751 17.6715 6.81061 17.6343 6.81061 17.5848C6.83521 16.7792 6.74912 15.9612 6.56466 15.1804C6.55236 15.1309 6.57696 15.0937 6.62615 15.0813C6.67534 15.0689 6.71223 15.0937 6.72453 15.1433C6.90899 15.9364 6.99508 16.7668 6.97048 17.5848C6.97048 17.6343 6.94589 17.6715 6.8967 17.6715Z" fill="#634240"/>
</g>
<mask id="mask14_7390_5670" style="mask-type:luminance" maskUnits="userSpaceOnUse" x="8" y="20" width="3" height="2">
<path d="M10.9599 20.5718H8.05762V21.6376H10.9599V20.5718Z" fill="white"/>
</mask>
<g mask="url(#mask14_7390_5670)">
<path d="M8.86928 21.6378C8.61102 21.6378 8.35277 21.6006 8.10681 21.5262C8.06992 21.5138 8.05762 21.4766 8.06992 21.4395C8.08222 21.4023 8.11911 21.3899 8.15601 21.4023C9.11523 21.6997 10.222 21.3651 10.8615 20.5967C10.8861 20.5719 10.923 20.5595 10.9476 20.5843C10.9722 20.6091 10.9845 20.6463 10.9599 20.6711C10.4434 21.2907 9.65633 21.6378 8.86928 21.6378Z" fill="#E5E7E8"/>
</g>
<path d="M46.6726 22.195C46.6726 22.2198 46.6726 22.2446 46.6603 22.2694C46.5988 22.8271 45.8118 23.4467 45.492 23.3476C45.1723 23.2484 44.9509 20.4723 44.9509 20.4723C44.9509 20.4723 44.0409 21.3027 43.672 21.0176C43.3153 20.7326 44.0163 20.1129 44.2623 19.5056C44.4221 19.1214 44.2745 18.7744 44.2745 18.7744C44.705 18.1795 45.5781 17.8325 45.5781 17.8325C45.5781 17.8325 46.5496 19.2454 46.7218 19.7411C46.8325 20.0633 46.7341 21.5753 46.6726 22.195Z" fill="#E9AA86"/>
<path d="M38.8021 30.722C38.7898 30.722 38.7652 30.7096 38.7529 30.6972C38.7406 30.6724 38.7529 30.6476 38.7775 30.6352C40.9419 29.5198 42.7374 28.3176 42.9218 24.8103C42.9218 24.7855 42.9464 24.7607 42.971 24.7607C42.9956 24.7607 43.0202 24.7855 43.0202 24.8103C42.9341 26.4586 42.4791 27.7352 41.6306 28.7266C40.8558 29.6313 39.8105 30.2014 38.8144 30.722H38.8021Z" fill="white"/>
<path d="M39.7983 18.7747C39.7737 18.7747 39.7491 18.7623 39.7245 18.7375C39.6999 18.7003 39.7122 18.6508 39.7491 18.626C40.8067 17.9072 41.6798 16.9281 42.2701 15.7879C42.2947 15.7507 42.3439 15.7259 42.3808 15.7507C42.4177 15.7755 42.4423 15.8251 42.4177 15.8622C41.8151 17.0272 40.9297 18.0311 39.8351 18.7623C39.8229 18.7747 39.8106 18.7747 39.7983 18.7747Z" fill="#513433"/>
<path d="M39.3802 15.5149C39.331 15.5149 39.2941 15.4778 39.2941 15.4282C39.3064 14.8333 39.3064 14.226 39.2449 13.6064C39.1834 13.0239 39.085 12.429 38.753 11.9828C38.7284 11.9456 38.7284 11.8961 38.7653 11.8713C38.8022 11.8465 38.8514 11.8465 38.876 11.8837C39.2326 12.367 39.331 12.9867 39.4048 13.594C39.4663 14.2136 39.4663 14.8333 39.454 15.4282C39.4663 15.4778 39.4294 15.5149 39.3802 15.5149Z" fill="#513433"/>
<path d="M33.8462 14.9577C33.8093 14.9577 33.7724 14.9329 33.7724 14.8957C33.5757 13.8918 33.5511 12.8756 33.6986 11.8717C33.7109 11.8222 33.7478 11.7974 33.797 11.7974C33.8462 11.8098 33.8708 11.8469 33.8708 11.8965C33.7232 12.888 33.7478 13.8795 33.9446 14.8585C33.9569 14.9081 33.92 14.9453 33.8831 14.9577C33.8585 14.9577 33.8462 14.9577 33.8462 14.9577Z" fill="#513433"/>
<path d="M37.1542 19.3573C36.6377 19.3573 36.1335 19.1714 35.7646 18.9111C35.7277 18.8863 35.7154 18.8367 35.74 18.7996C35.7646 18.7624 35.8138 18.75 35.8506 18.7748C36.3918 19.1466 37.228 19.3697 37.9044 19.0226C38.2487 18.8367 38.4332 18.5517 38.6422 18.2047C38.6668 18.1675 38.716 18.1551 38.7529 18.1799C38.7898 18.2047 38.8021 18.2542 38.7775 18.2914C38.5562 18.6632 38.3594 18.9731 37.9782 19.1714C37.7199 19.2953 37.4371 19.3573 37.1542 19.3573Z" fill="#513433"/>
<path d="M35.2234 21.216C35.1988 21.216 35.1619 21.2037 35.1496 21.1665C34.7069 20.3113 33.969 19.357 33.7599 19.0844C33.7353 19.0472 33.7353 18.9976 33.7722 18.9728C33.8091 18.9481 33.8583 18.9481 33.8829 18.9852C34.1043 19.2579 34.8421 20.2246 35.2972 21.0921C35.3218 21.1293 35.2972 21.1789 35.2603 21.2037C35.248 21.216 35.2357 21.216 35.2234 21.216Z" fill="#513433"/>
<path d="M39.1588 20.4603C39.1342 20.4603 39.0973 20.4479 39.085 20.4107C39.0604 20.3735 39.085 20.324 39.1219 20.2992C39.1342 20.2868 40.8927 19.4192 42.1717 17.8329C42.1963 17.7957 42.2455 17.7957 42.2824 17.8205C42.3193 17.8453 42.3193 17.8949 42.2947 17.932C40.9911 19.5432 39.208 20.4355 39.1957 20.4355C39.1834 20.4603 39.1711 20.4603 39.1588 20.4603Z" fill="#513433"/>
<path d="M21.5607 14.7467C21.7943 14.5236 22.1387 14.4368 22.4584 14.4616C22.7782 14.474 23.0856 14.5732 23.3931 14.6847C23.5283 14.7343 23.6636 14.7838 23.7743 14.883C24.0202 15.0937 24.0571 15.4531 24.0448 15.7753C24.0325 16.0356 23.9956 16.3082 23.8727 16.5437C23.7251 16.7916 23.4914 16.9775 23.2209 17.0642C22.9503 17.151 22.6552 17.1634 22.3723 17.1262C22.2002 17.1014 22.0403 17.0518 21.8927 16.9651C21.4869 16.7172 21.327 16.2091 21.204 15.7753C21.1549 15.6142 21.118 15.4779 21.1917 15.3168C21.2532 15.1061 21.4008 14.8954 21.5607 14.7467Z" fill="#634240"/>
<path d="M30.4766 16.3331C29.4067 16.3207 28.472 16.3083 27.8571 16.2835C27.4021 16.2711 27.1193 16.2463 27.0455 16.2215C26.8979 16.1596 26.7749 15.8497 26.6765 15.4655C26.6642 15.4408 26.6642 15.4036 26.6519 15.3788C26.6519 15.354 26.6396 15.3292 26.6396 15.3044C26.6274 15.2301 26.6028 15.1557 26.5905 15.0937C26.5905 15.0689 26.5782 15.0442 26.5782 15.0318C26.5782 15.0194 26.5782 15.007 26.5659 14.9946C26.5659 14.9698 26.5536 14.945 26.5536 14.9202C26.5536 14.8954 26.5413 14.8707 26.5413 14.8459C26.5413 14.8335 26.5413 14.8087 26.529 14.7963C26.529 14.7715 26.5167 14.7467 26.5167 14.7219C26.5167 14.6971 26.5044 14.66 26.5044 14.6352C26.4921 14.598 26.4921 14.5484 26.4798 14.5112C26.4675 14.4617 26.4675 14.4245 26.4552 14.3749C26.8364 13.8296 26.9963 13.2471 26.9963 13.2471C28.1769 13.0736 28.2876 11.921 28.0539 11.6856C27.8202 11.4501 27.4759 11.7227 27.4759 11.7227C27.4267 10.6073 26.8979 10.1364 26.2092 9.61585C25.5328 9.08294 25.2254 8.46327 25.2254 8.46327C25.2254 8.46327 25.1639 9.07054 24.6105 9.25644C24.0571 9.45474 24.1924 9.87611 23.8849 10.0744C23.5898 10.2727 22.8519 10.1983 22.2985 10.7313C21.9911 11.0287 22.1018 11.4377 22.237 11.7847C22.3846 12.1441 22.4953 12.5779 22.3108 12.9497C22.237 13.0984 22.1264 13.2347 22.0895 13.3958C22.028 13.6561 22.1633 13.9164 22.2985 14.127C22.4338 14.3501 22.5937 14.5732 22.606 14.8459C22.606 15.1681 22.3846 15.4408 22.2985 15.7382C22.2739 15.8002 22.2616 15.8745 22.2862 15.9365C22.3108 16.0356 22.3969 16.11 22.4584 16.1967C22.5937 16.3826 22.606 16.6181 22.6183 16.8412C22.4338 16.8908 22.2002 16.9404 21.9296 17.0023C21.327 17.1263 20.5154 17.2874 19.4823 17.4609C19.3471 17.4857 19.2241 17.5104 19.0888 17.5352C18.6092 16.5314 18.9904 15.9241 18.9781 15.0442C18.9658 14.3377 18.3755 14.4989 18.2649 13.9164C18.105 13.0364 19.2241 12.5655 18.9535 11.5988C18.8797 11.3509 18.7691 11.1278 18.6953 10.8924C18.1542 9.25645 21.7943 6.04655 22.3354 5.73672C25.373 4.00164 26.0862 5.7739 26.0862 5.7739C26.0862 5.7739 26.9717 5.35252 27.8202 5.92262C28.4474 6.344 29.0254 6.91409 29.296 7.62052C29.5911 8.38891 29.5542 9.18209 29.3575 9.96287C29.2591 10.3595 29.1238 10.7437 28.9885 11.1278C28.718 11.9086 29.5419 12.3424 29.628 12.9001C29.7141 13.4454 29.1976 13.9164 29.3821 14.251C29.5542 14.5856 30.5135 15.2672 30.4766 16.3331Z" fill="#634240"/>
<path d="M26.4675 14.3998C26.1355 14.8832 25.6189 15.3541 24.8934 15.4037C24.4015 15.4409 23.971 15.3665 23.6144 15.2674C23.2086 15.1434 22.8028 14.9451 22.6183 14.8088C22.5322 14.375 21.9788 13.8793 22.028 13.5819C22.0649 13.2844 22.3969 13.0242 22.4092 12.5036C22.4338 11.9955 21.7697 11.2643 22.3231 10.7314C22.8765 10.1985 23.6144 10.2604 23.9096 10.0745C24.2047 9.87623 24.0817 9.45485 24.6351 9.25656C25.1885 9.05826 25.25 8.46338 25.25 8.46338C25.25 8.46338 25.5575 9.08305 26.2338 9.61597C26.9102 10.1489 27.439 10.6074 27.5005 11.7228C27.5005 11.7228 27.8448 11.4502 28.0785 11.6857C28.3122 11.9211 28.2015 13.0737 27.0209 13.2472C27.0086 13.2844 26.8487 13.8545 26.4675 14.3998Z" fill="#E9AA86"/>
<path d="M22.6428 16.866C23.0978 16.7421 23.3315 16.6429 23.393 16.5438C23.5405 16.2835 23.602 15.6886 23.6143 15.2796C23.971 15.3788 24.4014 15.4532 24.8933 15.416C25.6189 15.3664 26.1354 14.8955 26.4674 14.4121C26.5658 15.0937 26.7626 16.1224 27.0454 16.2339C27.1069 16.2587 27.4021 16.2835 27.8571 16.2959C27.6234 16.9775 26.9224 18.4276 25.213 18.7126C23.4791 18.9977 22.3723 17.6592 21.9664 17.0271C22.2247 16.9652 22.4583 16.9156 22.6428 16.866Z" fill="#E9AA86"/>
<path d="M22.6428 16.866C22.4583 16.9156 22.2247 16.9652 21.9541 17.0271C22.1263 17.2874 22.4091 17.6716 22.8149 18.0062C22.8518 17.9318 22.8764 17.8451 22.901 17.7583C22.9871 17.4113 23.0486 17.0767 23.0978 16.7173C22.9748 16.7669 22.8272 16.8164 22.6428 16.866Z" fill="#FFAC94"/>
<path d="M26.5166 9.71513C26.5658 10.4092 26.7257 10.8305 26.9347 11.0784C27.1438 11.3139 26.8855 12.3549 27.0946 12.4169C27.2914 12.4789 27.7095 11.3882 27.7095 11.3882L27.2422 9.56641L26.5166 9.71513Z" fill="#634240"/>
<path d="M20.5523 15.4655C20.8598 15.701 21.2041 15.8993 21.5607 16.0356C21.9297 16.1719 22.2494 16.1967 22.4954 16.5313C22.8643 17.0147 22.8889 17.6591 22.729 18.2168C22.6183 18.5762 22.4093 18.9357 22.0772 19.1092C21.6714 19.3075 21.1672 19.1959 20.7614 18.9976C20.3555 18.7869 19.9866 18.5019 19.5685 18.3284C19.2118 18.1797 18.8306 18.1177 18.474 17.9566C18.4125 17.9318 18.351 17.8946 18.3018 17.845C18.2526 17.7831 18.228 17.6963 18.228 17.6096C18.228 17.4608 18.2895 17.3121 18.3387 17.1758C18.5478 16.6553 18.7691 16.1224 18.9782 15.6018C19.0274 15.4903 19.0766 15.3664 19.175 15.2796C19.2856 15.1928 19.4455 15.1805 19.5808 15.1681C19.7775 15.1557 19.9743 15.1433 20.1588 15.2176C20.3187 15.2672 20.4416 15.3664 20.5523 15.4655Z" fill="#634240"/>
<path d="M27.771 16.6304C27.7956 16.7419 27.8079 16.8534 27.8202 16.965C27.8571 17.2872 27.8817 17.597 27.9186 17.9193C27.9309 18.0556 27.9432 18.1919 27.9924 18.3283C28.0416 18.4522 28.1277 18.5761 28.2507 18.6381C28.4351 18.7248 28.6688 18.6505 28.8287 18.5142C28.9885 18.3778 29.0869 18.1795 29.1853 18.006C29.2837 17.8201 29.4066 17.6342 29.5788 17.5351C29.7879 17.4111 30.0461 17.3987 30.2552 17.2624C30.4397 17.1509 30.5626 16.9526 30.6118 16.7419C30.661 16.5312 30.6487 16.3081 30.5995 16.0974C30.5012 15.6513 30.2306 15.2423 29.874 14.9572C29.5173 14.6722 29.05 14.5235 28.595 14.5359C28.3613 14.5359 28.1277 14.5854 27.9309 14.7218C27.8325 14.7837 27.7587 14.8705 27.685 14.9572C27.4882 15.2051 27.3652 15.515 27.439 15.8248C27.4636 15.9487 27.5497 16.0479 27.5989 16.1718C27.685 16.2957 27.7342 16.4568 27.771 16.6304Z" fill="#634240"/>
<path d="M26.5658 14.9323C26.5289 14.7464 26.5043 14.5605 26.4797 14.3994C26.1477 14.8828 25.6312 15.3537 24.9056 15.4033C24.4137 15.4405 23.9833 15.3661 23.6266 15.267C23.6266 15.3785 23.6143 15.5024 23.6021 15.6388C23.9341 15.6635 24.549 15.6759 25.2868 15.5148C25.9017 15.3661 26.3199 15.1182 26.5658 14.9323Z" fill="#BE9285"/>
<path d="M24.918 19.667C24.3769 19.667 23.8481 19.5431 23.3562 19.3076C23.3316 19.2952 23.3193 19.2704 23.3316 19.2456C23.3439 19.2208 23.3685 19.2084 23.3931 19.2208C24.0695 19.5431 24.8442 19.6422 25.5821 19.4935C26.32 19.3448 26.9963 18.9606 27.5006 18.4029C27.5129 18.3781 27.5497 18.3781 27.5743 18.4029C27.5989 18.4153 27.5989 18.4524 27.5743 18.4772C27.0578 19.0597 26.3569 19.4563 25.5944 19.605C25.373 19.6422 25.1394 19.667 24.918 19.667Z" fill="white"/>
<path d="M19.2856 9.99993C19.2733 9.99993 19.2733 9.99993 19.261 9.99993C19.2241 9.98753 19.2118 9.95035 19.2241 9.91317C19.47 9.11999 19.9989 8.45075 20.5154 7.81869C21.118 7.09987 21.7205 6.55456 22.3723 6.17037C22.8519 5.88532 24.4998 5.03017 25.6681 5.82335C25.6927 5.84814 25.705 5.88532 25.6804 5.9101C25.6558 5.93489 25.6189 5.94728 25.5943 5.9225C24.4875 5.1665 22.9011 5.99686 22.4338 6.26951C21.7943 6.64132 21.1917 7.17423 20.6137 7.89305C20.1095 8.51272 19.593 9.16957 19.3471 9.93796C19.3471 9.97514 19.3225 9.99993 19.2856 9.99993Z" fill="#513433"/>
<path d="M21.8312 12.0202C21.8066 12.0202 21.7697 11.9954 21.7697 11.9707C21.5852 11.0783 22.0894 10.0745 22.9134 9.69027C23.0978 9.60351 23.2946 9.54155 23.4791 9.49198C23.5898 9.4548 23.7127 9.43001 23.8234 9.38043C24.1801 9.2565 24.4137 9.08299 24.549 8.87231C24.6228 8.74837 24.672 8.61204 24.7089 8.47572C24.7335 8.37657 24.7703 8.27742 24.8072 8.19067C24.9056 7.96759 25.127 7.70733 25.4221 7.73211C25.459 7.73211 25.4836 7.76929 25.4836 7.80647C25.4836 7.84365 25.4467 7.86844 25.4098 7.86844C25.1885 7.85605 25.004 8.06673 24.9179 8.25264C24.881 8.33939 24.8441 8.43854 24.8195 8.52529C24.7703 8.67401 24.7212 8.82273 24.6474 8.94666C24.4998 9.19453 24.2292 9.38043 23.848 9.51676C23.7373 9.55394 23.6144 9.59112 23.5037 9.6283C23.3192 9.67788 23.1224 9.73984 22.9503 9.8266C22.1755 10.186 21.7082 11.1279 21.8804 11.9707C21.8927 12.0078 21.8681 12.045 21.8312 12.045C21.8435 12.0202 21.8312 12.0202 21.8312 12.0202Z" fill="#513433"/>
<path d="M20.5153 13.7554C20.503 13.7554 20.503 13.7554 20.4907 13.7554C20.4538 13.743 20.4415 13.7058 20.4538 13.6686C20.5891 13.3464 20.5645 12.9994 20.5399 12.6276C20.5276 12.3797 20.503 12.1318 20.5399 11.884C20.626 11.2147 21.081 10.6446 21.4131 10.2728C21.5237 10.1613 21.6344 10.0374 21.7328 9.92582C22.0402 9.60359 22.3477 9.28136 22.5813 8.89717C22.6428 8.78563 22.7043 8.67409 22.7658 8.55015C22.8273 8.42622 22.9011 8.28989 22.9872 8.15356C23.27 7.69501 23.6881 7.3356 24.1555 7.1497C24.6597 6.9514 25.2131 6.9514 25.6804 7.1497C25.7173 7.16209 25.7296 7.19927 25.7173 7.23645C25.705 7.27363 25.6681 7.28602 25.6312 7.27363C25.1885 7.08773 24.672 7.08773 24.2047 7.27363C23.7619 7.44714 23.3807 7.78176 23.0979 8.21553C23.0241 8.33946 22.9503 8.47579 22.8888 8.59973C22.8273 8.71127 22.7658 8.8352 22.7043 8.94674C22.4707 9.34333 22.1509 9.67795 21.8435 10.0002C21.7328 10.1117 21.6221 10.2233 21.5237 10.3472C21.1794 10.7314 20.7736 11.2519 20.6875 11.884C20.6506 12.1195 20.6752 12.3673 20.6875 12.6028C20.7121 12.9746 20.7367 13.3464 20.5891 13.7058C20.5645 13.743 20.5399 13.7554 20.5153 13.7554Z" fill="#513433"/>
<path d="M19.5684 16.0354C19.5561 16.0354 19.5561 16.0354 19.5438 16.0354C19.5069 16.0231 19.4946 15.9859 19.4946 15.9487C19.6176 15.5521 19.5684 15.1059 19.3593 14.7465C19.3347 14.697 19.2978 14.6474 19.2732 14.5978C19.1503 14.4119 19.0273 14.2136 19.0519 13.9781C19.0765 13.7551 19.224 13.6063 19.3716 13.4452C19.4208 13.3957 19.4823 13.3337 19.5192 13.2841C19.8266 12.8999 19.8143 12.4661 19.7897 11.9952C19.7897 11.958 19.7897 11.9084 19.7897 11.8713C19.7651 11.3631 19.8266 10.8426 19.9619 10.3345C20.2079 9.39259 20.6998 8.47547 21.4253 7.60794C21.4499 7.58315 21.4868 7.57076 21.5114 7.59554C21.536 7.62033 21.5483 7.65751 21.5237 7.6823C20.7982 8.53744 20.3185 9.44216 20.0849 10.3593C19.9619 10.855 19.9004 11.3507 19.925 11.8589C19.925 11.8961 19.925 11.9456 19.925 11.9828C19.9496 12.4661 19.9619 12.9371 19.6299 13.3585C19.5807 13.4204 19.5192 13.4824 19.47 13.532C19.3347 13.6807 19.1994 13.8046 19.1871 13.9905C19.1625 14.1764 19.2732 14.3499 19.3962 14.5235C19.4331 14.573 19.4577 14.6226 19.4946 14.6722C19.7159 15.0564 19.7774 15.5521 19.6422 15.9735C19.6299 16.0231 19.593 16.0354 19.5684 16.0354Z" fill="#513433"/>
<path d="M22.3231 17.5105C22.3108 17.5105 22.2985 17.5105 22.2862 17.4981C22.2493 17.4733 22.2493 17.4361 22.2616 17.4113C22.4092 17.1635 22.2247 16.8041 21.9788 16.5686C21.9419 16.5314 21.8927 16.4818 21.8435 16.4446C21.6098 16.2463 21.3762 16.0357 21.327 15.7258C21.2778 15.4904 21.3516 15.2673 21.4254 15.0442C21.4991 14.7963 21.5729 14.5732 21.4991 14.3502C21.45 14.2386 21.3762 14.1519 21.2901 14.0527C21.2286 13.9784 21.1671 13.9164 21.1056 13.8296C20.8965 13.495 20.9457 13.0612 21.0072 12.7266C21.0195 12.6894 21.0441 12.6647 21.081 12.6771C21.1179 12.6894 21.1425 12.7142 21.1302 12.7514C21.0687 13.086 21.0195 13.4702 21.204 13.7553C21.2532 13.8296 21.3024 13.8916 21.3639 13.966C21.45 14.0651 21.5483 14.1767 21.5975 14.313C21.6959 14.5732 21.6098 14.8335 21.536 15.0938C21.4622 15.3045 21.4008 15.5151 21.4377 15.7134C21.4868 15.9737 21.7082 16.172 21.9173 16.3579C21.9665 16.3951 22.0034 16.4446 22.0525 16.4818C22.3231 16.7297 22.5568 17.1511 22.36 17.4857C22.36 17.4981 22.3477 17.5105 22.3231 17.5105Z" fill="#513433"/>
<path d="M25.8894 6.43058C25.8771 6.43058 25.8648 6.43058 25.8648 6.41819C25.2622 6.13314 24.5366 6.07117 23.8971 6.26946C23.8603 6.28186 23.8234 6.25707 23.8111 6.21989C23.7988 6.18271 23.8234 6.14553 23.8603 6.13314C24.5366 5.93484 25.2868 5.98442 25.9263 6.28186C25.9632 6.29425 25.9755 6.33143 25.9632 6.36861C25.9386 6.41818 25.914 6.43058 25.8894 6.43058Z" fill="#513433"/>
<path d="M29.0623 9.00851C29.05 9.00851 29.05 9.00851 29.0623 9.00851C29.0254 9.00851 29.0008 8.98373 29.0008 8.94655C29.0254 7.67003 28.3613 6.61659 27.2914 6.25718C27.0086 6.15803 26.7011 6.15803 26.3199 6.24479C26.283 6.25718 26.2461 6.23239 26.2461 6.19521C26.2338 6.15803 26.2584 6.12085 26.2953 6.12085C26.7011 6.0341 27.0332 6.0341 27.3406 6.14564C28.4597 6.52983 29.173 7.63285 29.1484 8.97133C29.1238 8.98373 29.0869 9.00851 29.0623 9.00851Z" fill="#513433"/>
<path d="M28.2384 8.09146C28.2138 8.09146 28.1892 8.07907 28.1769 8.04189C28.0785 7.76923 27.9555 7.44701 27.7342 7.22392C27.5374 7.02563 27.2669 6.87691 26.9594 6.79015C26.7012 6.72819 26.406 6.71579 26.0494 6.74058C26.0125 6.74058 25.9879 6.71579 25.9756 6.67861C25.9756 6.64143 26.0002 6.61665 26.0371 6.60425C26.4183 6.57947 26.7135 6.59186 26.9963 6.65383C27.3406 6.74058 27.6358 6.9017 27.8449 7.12478C28.0785 7.37264 28.2138 7.70727 28.3122 7.99231C28.3245 8.02949 28.2999 8.06667 28.2753 8.07907C28.2507 8.09146 28.2507 8.09146 28.2384 8.09146Z" fill="#513433"/>
<path d="M27.894 11.4007C27.8694 11.4007 27.8448 11.3883 27.8325 11.3635C27.7464 11.19 27.7218 11.0041 27.7095 10.8306C27.6972 10.7438 27.6849 10.6447 27.6726 10.5579C27.6234 10.3101 27.4881 10.0746 27.3037 9.8887C27.2176 9.80194 27.1192 9.73997 27.0085 9.66561C26.947 9.62843 26.8979 9.57886 26.8364 9.54168C26.3445 9.16988 26.0124 8.61218 25.7173 8.12883C25.6927 8.10405 25.705 8.05447 25.7419 8.04208C25.7788 8.02969 25.8156 8.02969 25.8279 8.06687C26.1354 8.5626 26.4428 9.08312 26.9101 9.44253C26.9593 9.47971 27.0208 9.52929 27.0823 9.56647C27.1807 9.64083 27.2914 9.71519 27.3898 9.80194C27.5988 10.0002 27.7464 10.2605 27.8079 10.5332C27.8325 10.6323 27.8325 10.7191 27.8448 10.8182C27.8694 10.9917 27.8817 11.1652 27.9555 11.3015C27.9678 11.3387 27.9555 11.3759 27.9309 11.3883C27.9186 11.4007 27.9063 11.4007 27.894 11.4007Z" fill="#513433"/>
<path d="M27.6357 8.78538C27.6111 8.78538 27.5865 8.77299 27.5742 8.73581C27.4758 8.41358 27.2668 8.12853 26.9716 7.93024C26.7011 7.74433 26.3567 7.63279 26.0001 7.60801C25.9632 7.60801 25.9386 7.57083 25.9386 7.53365C25.9386 7.49647 25.9755 7.47168 26.0124 7.47168C26.3936 7.49647 26.7503 7.6204 27.0454 7.8187C27.3651 8.04178 27.5988 8.35161 27.7095 8.69863C27.7218 8.73581 27.6972 8.77299 27.6603 8.78538C27.648 8.78538 27.6357 8.78538 27.6357 8.78538Z" fill="#513433"/>
<path d="M28.3244 11.5867C28.3121 11.5867 28.2998 11.5867 28.2875 11.5743C28.2629 11.5495 28.2507 11.5123 28.2752 11.4875C28.6688 11.0166 28.7918 10.3597 28.8901 9.78961C28.8901 9.75243 28.927 9.72765 28.9639 9.74004C29.0008 9.74004 29.0254 9.77722 29.0131 9.8144C28.9147 10.3969 28.7795 11.0661 28.3736 11.5743C28.3613 11.5867 28.3367 11.5867 28.3244 11.5867Z" fill="#513433"/>
<path d="M30.1445 16.9155C30.1322 16.9155 30.1322 16.9155 30.1199 16.9155C30.083 16.9031 30.0707 16.8659 30.083 16.8288C30.1568 16.6057 30.2429 16.3454 30.1937 16.0976C30.1322 15.7629 29.8493 15.5275 29.5788 15.292L29.5665 15.2796C29.2713 15.0317 28.9762 14.7219 28.9639 14.3253C28.9639 14.1642 29.0131 14.0031 29.05 13.8543C29.0746 13.78 29.0992 13.7056 29.1115 13.6313C29.2222 13.1231 28.9639 12.5406 28.5089 12.2928C28.472 12.2804 28.472 12.2308 28.4843 12.206C28.4966 12.1688 28.5458 12.1688 28.5704 12.1812C29.0746 12.4663 29.3574 13.0984 29.2344 13.6684C29.2222 13.7552 29.1853 13.8296 29.1607 13.9039C29.1115 14.0526 29.0746 14.189 29.0746 14.3253C29.0869 14.6599 29.3574 14.945 29.628 15.1804L29.6403 15.1928C29.9108 15.4283 30.2306 15.701 30.3044 16.0728C30.3535 16.3454 30.2675 16.6429 30.1937 16.8659C30.1937 16.8907 30.1691 16.9155 30.1445 16.9155Z" fill="#513433"/>
<path d="M28.1522 17.6223C28.1399 17.6223 28.1522 17.6223 28.1522 17.6223C28.103 17.6099 28.0784 17.5851 28.0907 17.5479C28.1645 17.0894 28.0169 16.606 27.8693 16.1971C27.857 16.1599 27.8447 16.1227 27.8201 16.0731C27.6726 15.6641 27.5127 15.2428 27.5127 14.7966C27.5127 14.4992 27.5865 14.2017 27.6603 13.9291C27.7218 13.6688 27.7955 13.3961 27.7955 13.1235C27.7955 13.0863 27.8201 13.0615 27.857 13.0615C27.8939 13.0615 27.9185 13.0863 27.9185 13.1235C27.9062 13.4085 27.8447 13.6936 27.7709 13.9538C27.6972 14.2265 27.6357 14.5116 27.6357 14.7966C27.6357 15.218 27.7832 15.627 27.9308 16.0235C27.9431 16.0607 27.9554 16.0979 27.98 16.1475C28.1399 16.5812 28.2998 17.077 28.2137 17.5727C28.2137 17.5975 28.1891 17.6223 28.1522 17.6223Z" fill="#513433"/>
<path d="M44.865 30.1641C44.5698 30.474 44.2624 30.7714 43.9426 31.044C43.918 31.0688 43.8811 31.0936 43.8566 31.1184C43.832 31.1432 43.8074 31.168 43.7705 31.1928C43.7459 31.2052 43.7336 31.2299 43.709 31.2423C43.6844 31.2671 43.6475 31.2919 43.6229 31.3167C43.5983 31.3291 43.586 31.3539 43.5614 31.3663C43.5491 31.3787 43.5368 31.3911 43.5245 31.4035C43.4876 31.4282 43.4507 31.4654 43.4138 31.4902C43.3892 31.515 43.3646 31.5274 43.34 31.5522C43.2417 31.6265 43.1556 31.7009 43.0572 31.7629C43.0326 31.7753 43.008 31.8 42.9834 31.8124C42.9465 31.8372 42.9096 31.862 42.8727 31.8868C42.8481 31.8992 42.8235 31.924 42.7989 31.9364C42.7375 31.9736 42.6883 32.0107 42.6268 32.0479C42.6268 32.0479 42.6145 32.0479 42.6145 32.0603C42.5653 32.0975 42.5161 32.1223 42.4669 32.1595C42.4546 32.1718 42.4423 32.1718 42.43 32.1842C42.3685 32.2214 42.307 32.2586 42.2578 32.2958C42.2455 32.3082 42.2209 32.3206 42.2086 32.333C42.1841 32.3454 42.1595 32.3701 42.1226 32.3825C42.1103 32.3949 42.098 32.4073 42.0734 32.4073C42.0488 32.4197 42.0242 32.4445 41.9996 32.4569C41.9627 32.4817 41.9258 32.4941 41.9012 32.5189C41.8766 32.5313 41.852 32.556 41.8151 32.5684C41.8028 32.5808 41.7905 32.5808 41.7782 32.5932C41.7413 32.618 41.7044 32.6304 41.6675 32.6552C41.6552 32.6676 41.6429 32.6676 41.6307 32.68C41.6184 32.68 41.6184 32.6924 41.6061 32.6924C41.2863 32.8783 40.9666 33.0518 40.6468 33.2005C40.6345 33.2005 40.6345 33.2129 40.6222 33.2129C40.6099 33.2253 40.5976 33.2253 40.5853 33.2377C40.573 33.2377 40.573 33.2501 40.5607 33.2501C40.5484 33.2501 40.5484 33.2625 40.5361 33.2625C40.4501 33.2996 40.364 33.3492 40.2779 33.3864C40.2533 33.3988 40.241 33.4112 40.2164 33.4112C40.1795 33.4236 40.1426 33.4484 40.1057 33.4608C40.0442 33.4855 39.995 33.5103 39.9336 33.5351C39.9213 33.5475 39.8967 33.5475 39.8844 33.5599C39.8475 33.5723 39.7983 33.5971 39.7614 33.6095C39.7122 33.6343 39.6753 33.6467 39.6261 33.6714C39.6138 33.6714 39.6015 33.6838 39.6015 33.6838C39.5154 33.721 39.4171 33.7582 39.331 33.7954C39.1957 33.845 39.0727 33.8945 38.9374 33.9441C38.8759 33.9689 38.8268 33.9813 38.7653 34.0061C38.7407 34.0185 38.7284 34.0185 38.7038 34.0309C38.507 34.1052 38.3225 34.1672 38.1381 34.2292C36.9206 34.6257 36.0966 34.7745 36.0966 34.7745L35.408 32.4941C35.408 32.4941 36.6869 32.1966 38.1258 31.6018V25.4918H30.4766C30.4766 25.4174 30.4889 25.3431 30.4889 25.2563C30.5381 24.4755 30.6733 23.0875 31.0792 21.8358C31.694 19.9024 33.5387 19.1092 33.5387 19.1092C33.5633 19.196 33.7478 19.4066 34.0306 19.6669C35.5187 22.2571 36.7238 23.7195 38.5808 23.5956C40.1918 23.4965 43.6967 19.0596 43.8443 18.8242C43.8688 18.7746 43.8934 18.7002 43.8934 18.6011L44.2501 18.7994C44.2501 18.7994 44.3977 19.1464 44.2378 19.5306C43.9918 20.1379 43.2909 20.7575 43.6475 21.0426C44.0041 21.3276 44.9265 20.4973 44.9265 20.4973C44.9265 20.4973 45.1478 23.2734 45.4676 23.3725C45.7873 23.4717 46.5744 22.852 46.6359 22.2943C46.6359 22.2695 46.6359 22.2447 46.6481 22.2199C47.0417 23.8311 47.4475 27.4252 44.865 30.1641Z" fill="#AFADA0"/>
<path d="M28.858 37.2192C28.9203 37.7142 29.573 37.3782 29.7708 37.396C29.5956 37.8048 29.5677 39.2195 29.718 39.4665C29.7889 39.5769 29.9295 39.7229 30.1106 39.8501C30.3596 40.025 30.6809 40.1363 30.9236 40.024C31.344 39.8144 31.5897 38.5326 31.6042 38.2734C31.6064 38.0124 30.494 37.4193 30.494 37.4193L30.5786 36.1253C30.5051 36.1141 28.8186 36.902 28.858 37.2192Z" fill="#E9AA86"/>
<mask id="mask15_7390_5670" style="mask-type:luminance" maskUnits="userSpaceOnUse" x="18" y="23" width="2" height="3">
<path d="M19.7605 23.4966H18.088V25.2069H19.7605V23.4966Z" fill="white"/>
</mask>
<g mask="url(#mask15_7390_5670)">
<path d="M18.1495 25.2069C18.1373 25.2069 18.1127 25.1945 18.1004 25.1821C18.0758 25.1573 18.0758 25.1202 18.1004 25.083L19.6499 23.4966C19.6745 23.4718 19.7114 23.4718 19.7483 23.4966C19.7729 23.5214 19.7729 23.5586 19.7483 23.5958L18.1987 25.1821C18.1864 25.2069 18.1618 25.2069 18.1495 25.2069Z" fill="#E5E7E8"/>
</g>
<path d="M31.0305 42.5907L30.5303 24.8608L39.2845 24.0425L38.5342 40.9541L31.0305 42.5907Z" fill="#AFADA0"/>
<path d="M35.6046 32.3575L36.1949 34.3157C36.1949 34.3157 35.6415 34.5263 35.2972 34.7742C34.9652 35.0221 34.0797 35.3939 33.8215 35.27C33.5509 35.146 33.391 34.1545 33.2927 34.0058C33.182 33.8571 32.7885 33.5225 32.9729 33.3242C33.1574 33.1259 34.2765 32.7789 34.2396 32.5558C34.2027 32.3451 33.8707 31.8122 33.8707 31.6387C33.8707 31.4652 33.8953 31.1182 34.0797 31.1182C34.2273 31.1182 34.2642 31.4404 34.4733 31.6635C34.7069 31.9113 34.9406 32.0849 35.0758 32.2584C35.2234 32.4443 35.6046 32.3575 35.6046 32.3575Z" fill="#E9AA86"/>
<path d="M35.3588 32.2834L36.1089 35.072C37.1173 34.8241 43.0818 32.4198 44.496 30.7467C47.8164 26.8303 46.9679 22.9512 46.6112 21.6747C46.3776 20.8443 45.8857 19.9024 44.8895 19.9768C41.0649 20.2494 44.496 25.6654 41.1141 28.9124C39.2695 30.6723 35.3588 32.2834 35.3588 32.2834Z" fill="#AFADA0"/>
<path d="M29.5004 36.1501L30.7878 29.4521H32.0752L31.5602 39.2415L29.5004 36.1501Z" fill="#AFADA0"/>
<path d="M29.4541 36.2549L30.2397 37.3057L31.811 39.1448" stroke="#A19F91" stroke-width="0.228448"/>
<path d="M18.6863 23.012L16.5957 25.5757H8.85985C8.76907 25.3759 8.6556 25.2011 8.56482 25.1262C8.36057 24.9389 7.07832 24.7516 6.66982 24.864C6.68117 24.6642 6.66982 24.1023 6.51096 24.0523C6.34075 24.0024 6.01168 24.8015 5.18333 25.5882H4.52518C4.25285 24.9763 4.5852 24.5143 4.26748 24.0523C4.07457 23.1159 4.2029 22.3108 4.01 21.724C3.70362 20.775 1.91531 19.732 1.17773 18.1712L3.6174 15.7988C4.35497 16.8602 5.24006 17.6718 6.03437 18.2212C6.82868 18.7831 7.53221 19.0828 7.90667 19.1577C8.03149 19.7445 9.18741 20.3859 10.447 20.4359C11.7859 20.4733 12.9955 19.4521 13.2792 18.8902C13.9374 19.1274 14.0342 19.4074 14.6356 19.6696C14.7264 19.7071 14.8172 19.7445 14.8853 19.7945C15.2257 19.9943 16.2356 20.6935 17.2795 21.7923C17.8469 22.3916 18.187 22.163 18.6863 23.012Z" fill="#FBBA71"/>
<mask id="mask16_7390_5670" style="mask-type:luminance" maskUnits="userSpaceOnUse" x="1" y="16" width="3" height="3">
<path d="M3.58773 16.8291H1.69263V18.4052H3.58773V16.8291Z" fill="white"/>
</mask>
<g mask="url(#mask16_7390_5670)">
<path d="M1.75167 18.4046C1.72783 18.4046 1.71591 18.3926 1.70399 18.3805C1.68015 18.3565 1.68015 18.3083 1.71591 18.2963L3.4799 16.8405C3.50374 16.8164 3.55142 16.8164 3.56334 16.8525C3.58717 16.8766 3.58717 16.9247 3.55142 16.9368L1.78742 18.3926C1.78742 18.3926 1.7755 18.4046 1.75167 18.4046Z" fill="#E5E7E8"/>
</g>
<path d="M4.26746 27.1335C3.52592 25.6909 4.11298 25.0726 4.26746 23.0117L16.6779 25.3302C15.9827 26.7042 15.3391 28.4216 15.3391 29.4521C15.3391 30.4825 16.2917 41.8176 17.1414 46.197H3.23755C4.00997 42.5904 5.009 28.5762 4.26746 27.1335Z" fill="#FBBA71"/>
<path d="M33.6202 24.2998C33.2768 25.2444 32.6932 27.5457 33.1052 29.1945" stroke="#A29F91" stroke-width="0.228448"/>
</g>
<defs>
<clipPath id="clip0_7390_5670">
<rect width="47" height="46" fill="white"/>
</clipPath>
</defs>
</svg>
