<svg width="107" height="38" viewBox="0 0 107 38" fill="none" xmlns="http://www.w3.org/2000/svg">
<path d="M14.6333 3.98645C6.66592 3.98645 0.207031 10.4453 0.207031 18.4127C0.207031 26.3801 6.66592 32.839 14.6333 32.839C15.8724 32.839 17.0756 32.6833 18.2249 32.387V28.4752C17.1025 28.8762 15.8933 29.0947 14.6333 29.0947C8.73409 29.0947 3.95127 24.3119 3.95127 18.4127C3.95127 12.5135 8.73409 7.73069 14.6333 7.73069C20.5325 7.73069 25.3153 12.5135 25.3153 18.4127V32.839H29.0595V18.4127C29.0566 10.4453 22.6007 3.98645 14.6333 3.98645Z" fill="#67B3C4"/>
<path d="M14.6328 7.85095C20.4655 7.85095 25.1951 12.5798 25.1953 18.4125V32.7152C23.357 32.652 21.8887 31.1434 21.8887 29.2924V18.4125C21.8887 18.1603 21.8769 17.9137 21.8525 17.6703C21.8404 17.5487 21.8249 17.4269 21.8066 17.308C21.2739 13.8264 18.2666 11.1576 14.6328 11.1576C10.9992 11.1578 7.99266 13.8235 7.45996 17.308C7.44167 17.4269 7.42622 17.5487 7.41406 17.6703C7.38972 17.9137 7.37794 18.1633 7.37793 18.4125C7.37793 19.6657 7.6941 20.8438 8.25391 21.8724C8.36394 22.0802 8.48593 22.2781 8.61621 22.472C8.74675 22.6663 8.88376 22.8526 9.0332 23.0326C10.3629 24.6453 12.3778 25.6741 14.6328 25.6742C15.416 25.6742 16.1714 25.5457 16.8779 25.3138L17.1777 25.2084C17.4981 25.0873 17.8077 24.9456 18.1045 24.7845V28.389C17.0174 28.7677 15.8492 28.975 14.6328 28.975C8.80013 28.9748 4.07129 24.2452 4.07129 18.4125C4.07149 12.5799 8.80025 7.85116 14.6328 7.85095Z" fill="#94E5C8" stroke="white" stroke-width="0.24025"/>
<path d="M85.5492 34.0257C85.3244 34.0257 85.0995 33.9882 84.8746 33.9132C84.6498 33.8383 84.4624 33.7345 84.3125 33.6019L84.7449 32.8062C84.8545 32.9042 84.9784 32.9821 85.1168 33.0397C85.2552 33.0974 85.3964 33.1262 85.5406 33.1262C85.7366 33.1262 85.8952 33.0772 86.0162 32.9792C86.1373 32.8812 86.2497 32.7169 86.3535 32.4862L86.6216 31.8808L86.7081 31.7511L88.4551 27.6691H89.4929L87.3308 32.6592C87.1867 33.0051 87.0252 33.279 86.8465 33.4808C86.6735 33.6826 86.4775 33.8239 86.2584 33.9046C86.0451 33.9853 85.8087 34.0257 85.5492 34.0257ZM86.5006 32.4516L84.4163 27.6691H85.5406L87.2357 31.656L86.5006 32.4516Z" fill="#7C6A62"/>
<path d="M82.3217 32.3479C81.8373 32.3479 81.4049 32.247 81.0244 32.0452C80.6496 31.8376 80.3556 31.5551 80.1423 31.1976C79.9289 30.8402 79.8223 30.4337 79.8223 29.9782C79.8223 29.517 79.9289 29.1105 80.1423 28.7588C80.3556 28.4013 80.6496 28.1217 81.0244 27.9199C81.4049 27.7181 81.8373 27.6172 82.3217 27.6172C82.7714 27.6172 83.1663 27.7094 83.5065 27.8939C83.8524 28.0727 84.1148 28.3379 84.2935 28.6896L83.4632 29.1739C83.3249 28.9548 83.1548 28.7934 82.953 28.6896C82.757 28.5858 82.5436 28.5339 82.313 28.5339C82.0478 28.5339 81.8085 28.5916 81.5952 28.7069C81.3819 28.8222 81.2147 28.9894 81.0936 29.2085C80.9725 29.4218 80.912 29.6784 80.912 29.9782C80.912 30.278 80.9725 30.5375 81.0936 30.7566C81.2147 30.9699 81.3819 31.1342 81.5952 31.2495C81.8085 31.3648 82.0478 31.4225 82.313 31.4225C82.5436 31.4225 82.757 31.3706 82.953 31.2668C83.1548 31.163 83.3249 31.0016 83.4632 30.7825L84.2935 31.2668C84.1148 31.6128 83.8524 31.8809 83.5065 32.0711C83.1663 32.2556 82.7714 32.3479 82.3217 32.3479Z" fill="#7C6A62"/>
<path d="M76.8939 27.6172C77.2629 27.6172 77.5916 27.6893 77.8798 27.8334C78.1739 27.9775 78.4045 28.1995 78.5717 28.4993C78.7389 28.7934 78.8225 29.1739 78.8225 29.6409V32.2873H77.7415V29.7793C77.7415 29.3699 77.6434 29.0644 77.4474 28.8626C77.2571 28.6608 76.989 28.5599 76.6431 28.5599C76.3894 28.5599 76.1646 28.6118 75.9685 28.7155C75.7725 28.8193 75.6197 28.975 75.5102 29.1826C75.4064 29.3843 75.3545 29.6409 75.3545 29.9523V32.2873H74.2734V27.6691H75.3026V28.9145L75.121 28.5339C75.2824 28.2399 75.5159 28.015 75.8215 27.8593C76.1329 27.6979 76.4903 27.6172 76.8939 27.6172Z" fill="#7C6A62"/>
<path d="M71.065 32.3479C70.5518 32.3479 70.1021 32.247 69.7158 32.0452C69.3353 31.8376 69.0383 31.5551 68.825 31.1976C68.6175 30.8402 68.5137 30.4337 68.5137 29.9782C68.5137 29.517 68.6146 29.1105 68.8164 28.7588C69.0239 28.4013 69.3064 28.1217 69.6639 27.9199C70.0271 27.7181 70.4394 27.6172 70.9006 27.6172C71.3504 27.6172 71.7511 27.7152 72.1028 27.9112C72.4545 28.1073 72.7312 28.384 72.933 28.7415C73.1348 29.099 73.2357 29.5198 73.2357 30.0042C73.2357 30.0503 73.2328 30.1022 73.2271 30.1598C73.2271 30.2175 73.2242 30.2723 73.2184 30.3241H69.3699V29.6063H72.6476L72.2238 29.8312C72.2296 29.566 72.1748 29.3325 72.0595 29.1307C71.9442 28.9289 71.7857 28.7703 71.5839 28.655C71.3878 28.5397 71.1601 28.482 70.9006 28.482C70.6354 28.482 70.4019 28.5397 70.2001 28.655C70.0041 28.7703 69.8484 28.9317 69.7331 29.1393C69.6236 29.3411 69.5688 29.5804 69.5688 29.8571V30.0301C69.5688 30.3068 69.6322 30.5519 69.759 30.7652C69.8859 30.9785 70.0646 31.1429 70.2952 31.2582C70.5259 31.3735 70.7911 31.4311 71.0909 31.4311C71.3504 31.4311 71.5839 31.3908 71.7914 31.3101C71.999 31.2293 72.1835 31.1025 72.3449 30.9295L72.9244 31.5955C72.7168 31.8376 72.4545 32.025 72.1374 32.1576C71.826 32.2845 71.4685 32.3479 71.065 32.3479Z" fill="#7C6A62"/>
<path d="M67.1199 32.3479C66.6126 32.3479 66.2205 32.2181 65.9438 31.9587C65.667 31.6935 65.5286 31.3043 65.5286 30.7912V26.6486H66.6097V30.7652C66.6097 30.9843 66.6645 31.1544 66.774 31.2755C66.8893 31.3965 67.0479 31.4571 67.2497 31.4571C67.4918 31.4571 67.6936 31.3937 67.8551 31.2668L68.1578 32.0365C68.0309 32.1403 67.8752 32.2181 67.6907 32.27C67.5062 32.3219 67.316 32.3479 67.1199 32.3479ZM64.7676 28.5685V27.7037H67.8464V28.5685H64.7676Z" fill="#7C6A62"/>
<path d="M62.1724 32.3479C61.6592 32.3479 61.2095 32.247 60.8232 32.0452C60.4427 31.8376 60.1458 31.5551 59.9324 31.1976C59.7249 30.8402 59.6211 30.4337 59.6211 29.9782C59.6211 29.517 59.722 29.1105 59.9238 28.7588C60.1313 28.4013 60.4139 28.1217 60.7713 27.9199C61.1346 27.7181 61.5468 27.6172 62.0081 27.6172C62.4578 27.6172 62.8585 27.7152 63.2102 27.9112C63.5619 28.1073 63.8386 28.384 64.0404 28.7415C64.2422 29.099 64.3431 29.5198 64.3431 30.0042C64.3431 30.0503 64.3402 30.1022 64.3345 30.1598C64.3345 30.2175 64.3316 30.2723 64.3258 30.3241H60.4773V29.6063H63.755L63.3313 29.8312C63.337 29.566 63.2823 29.3325 63.1669 29.1307C63.0516 28.9289 62.8931 28.7703 62.6913 28.655C62.4953 28.5397 62.2675 28.482 62.0081 28.482C61.7428 28.482 61.5093 28.5397 61.3075 28.655C61.1115 28.7703 60.9558 28.9317 60.8405 29.1393C60.731 29.3411 60.6762 29.5804 60.6762 29.8571V30.0301C60.6762 30.3068 60.7396 30.5519 60.8665 30.7652C60.9933 30.9785 61.172 31.1429 61.4027 31.2582C61.6333 31.3735 61.8985 31.4311 62.1983 31.4311C62.4578 31.4311 62.6913 31.3908 62.8988 31.3101C63.1064 31.2293 63.2909 31.1025 63.4523 30.9295L64.0318 31.5955C63.8242 31.8376 63.5619 32.025 63.2448 32.1576C62.9334 32.2845 62.576 32.3479 62.1724 32.3479Z" fill="#7C6A62"/>
<path d="M56.6322 32.3479C56.2574 32.3479 55.9144 32.2614 55.603 32.0884C55.2975 31.9155 55.0524 31.656 54.8679 31.3101C54.6892 30.9584 54.5998 30.5144 54.5998 29.9782C54.5998 29.4362 54.6863 28.9923 54.8593 28.6463C55.038 28.3004 55.2802 28.0438 55.5857 27.8766C55.8913 27.7037 56.2401 27.6172 56.6322 27.6172C57.0877 27.6172 57.4884 27.7152 57.8343 27.9112C58.186 28.1073 58.4628 28.3811 58.6646 28.7328C58.8721 29.0845 58.9759 29.4997 58.9759 29.9782C58.9759 30.4568 58.8721 30.8748 58.6646 31.2322C58.4628 31.5839 58.186 31.8578 57.8343 32.0538C57.4884 32.2499 57.0877 32.3479 56.6322 32.3479ZM54.0723 33.9651V27.6691H55.1014V28.7588L55.0668 29.9869L55.1533 31.2149V33.9651H54.0723ZM56.5111 31.4225C56.7706 31.4225 57.0012 31.3648 57.203 31.2495C57.4106 31.1342 57.5749 30.967 57.696 30.7479C57.817 30.5288 57.8776 30.2723 57.8776 29.9782C57.8776 29.6784 57.817 29.4218 57.696 29.2085C57.5749 28.9894 57.4106 28.8222 57.203 28.7069C57.0012 28.5916 56.7706 28.5339 56.5111 28.5339C56.2517 28.5339 56.0182 28.5916 55.8106 28.7069C55.603 28.8222 55.4387 28.9894 55.3176 29.2085C55.1966 29.4218 55.136 29.6784 55.136 29.9782C55.136 30.2723 55.1966 30.5288 55.3176 30.7479C55.4387 30.967 55.603 31.1342 55.8106 31.2495C56.0182 31.3648 56.2517 31.4225 56.5111 31.4225Z" fill="#7C6A62"/>
<path d="M50.7958 27.6172C51.1648 27.6172 51.4906 27.6893 51.7731 27.8334C52.0614 27.9775 52.2862 28.1995 52.4477 28.4993C52.6091 28.7934 52.6898 29.1739 52.6898 29.6409V32.2873H51.6088V29.7793C51.6088 29.3699 51.5194 29.0644 51.3407 28.8626C51.1619 28.6608 50.9054 28.5599 50.571 28.5599C50.3346 28.5599 50.1241 28.6118 49.9396 28.7155C49.7609 28.8193 49.6196 28.9721 49.5159 29.1739C49.4179 29.3757 49.3688 29.6323 49.3688 29.9436V32.2873H48.2878V29.7793C48.2878 29.3699 48.1984 29.0644 48.0197 28.8626C47.841 28.6608 47.5844 28.5599 47.25 28.5599C47.0136 28.5599 46.8031 28.6118 46.6186 28.7155C46.4399 28.8193 46.2987 28.9721 46.1949 29.1739C46.0969 29.3757 46.0478 29.6323 46.0478 29.9436V32.2873H44.9668V27.6691H45.996V28.8972L45.8143 28.5339C45.97 28.2341 46.1949 28.0064 46.4889 27.8507C46.7887 27.695 47.1289 27.6172 47.5094 27.6172C47.9419 27.6172 48.3166 27.7239 48.6337 27.9372C48.9566 28.1505 49.1699 28.4734 49.2737 28.9058L48.8499 28.7588C48.9998 28.4128 49.2478 28.1361 49.5937 27.9285C49.9396 27.721 50.3403 27.6172 50.7958 27.6172Z" fill="#7C6A62"/>
<path d="M41.4698 32.3479C40.997 32.3479 40.5762 32.247 40.2072 32.0452C39.8382 31.8376 39.547 31.5551 39.3337 31.1976C39.1203 30.8402 39.0137 30.4337 39.0137 29.9782C39.0137 29.517 39.1203 29.1105 39.3337 28.7588C39.547 28.4013 39.8382 28.1217 40.2072 27.9199C40.5762 27.7181 40.997 27.6172 41.4698 27.6172C41.9484 27.6172 42.3721 27.7181 42.7411 27.9199C43.1159 28.1217 43.4071 28.3984 43.6146 28.7501C43.828 29.1018 43.9346 29.5112 43.9346 29.9782C43.9346 30.4337 43.828 30.8402 43.6146 31.1976C43.4071 31.5551 43.1159 31.8376 42.7411 32.0452C42.3721 32.247 41.9484 32.3479 41.4698 32.3479ZM41.4698 31.4225C41.735 31.4225 41.9714 31.3648 42.179 31.2495C42.3866 31.1342 42.548 30.967 42.6633 30.7479C42.7844 30.5288 42.8449 30.2723 42.8449 29.9782C42.8449 29.6784 42.7844 29.4218 42.6633 29.2085C42.548 28.9894 42.3866 28.8222 42.179 28.7069C41.9714 28.5916 41.7379 28.5339 41.4785 28.5339C41.2133 28.5339 40.9769 28.5916 40.7693 28.7069C40.5675 28.8222 40.4061 28.9894 40.285 29.2085C40.1639 29.4218 40.1034 29.6784 40.1034 29.9782C40.1034 30.2723 40.1639 30.5288 40.285 30.7479C40.4061 30.967 40.5675 31.1342 40.7693 31.2495C40.9769 31.3648 41.2104 31.4225 41.4698 31.4225Z" fill="#7C6A62"/>
<path d="M36.1935 32.374C35.7322 32.374 35.3027 32.299 34.9049 32.1491C34.5128 31.9934 34.1698 31.7772 33.8757 31.5005C33.5874 31.218 33.3626 30.8864 33.2011 30.5059C33.0397 30.1254 32.959 29.7102 32.959 29.2605C32.959 28.8108 33.0397 28.3957 33.2011 28.0152C33.3626 27.6346 33.5903 27.306 33.8844 27.0292C34.1784 26.7467 34.5215 26.5305 34.9135 26.3806C35.3056 26.2249 35.7351 26.1471 36.2021 26.1471C36.698 26.1471 37.1506 26.2336 37.5599 26.4065C37.9693 26.5738 38.3152 26.8246 38.5978 27.159L37.8713 27.8422C37.6522 27.6058 37.4072 27.4299 37.1362 27.3146C36.8652 27.1936 36.5711 27.133 36.254 27.133C35.9369 27.133 35.6458 27.1849 35.3805 27.2887C35.1211 27.3925 34.8933 27.5395 34.6973 27.7298C34.5071 27.92 34.3571 28.1449 34.2476 28.4043C34.1438 28.6638 34.0919 28.9492 34.0919 29.2605C34.0919 29.5719 34.1438 29.8573 34.2476 30.1167C34.3571 30.3762 34.5071 30.601 34.6973 30.7913C34.8933 30.9816 35.1211 31.1286 35.3805 31.2324C35.6458 31.3361 35.9369 31.388 36.254 31.388C36.5711 31.388 36.8652 31.3304 37.1362 31.2151C37.4072 31.094 37.6522 30.9124 37.8713 30.6702L38.5978 31.3621C38.3152 31.6907 37.9693 31.9415 37.5599 32.1145C37.1506 32.2875 36.6951 32.374 36.1935 32.374Z" fill="#7C6A62"/>
<path d="M99.0335 13.0419H105.197V14.937H99.0335V13.0419ZM99.2106 18.3552H106.207V20.2857H96.9082V7.88794H105.959V9.81845H99.2106V18.3552Z" fill="#7C6A62"/>
<path d="M83.9531 20.2857V7.88794H89.0539C90.152 7.88794 91.0907 8.06505 91.87 8.41927C92.6611 8.7735 93.2692 9.28122 93.6942 9.94243C94.1193 10.6036 94.3318 11.3888 94.3318 12.298C94.3318 13.2072 94.1193 13.9924 93.6942 14.6536C93.2692 15.303 92.6611 15.8048 91.87 16.159C91.0907 16.5015 90.152 16.6727 89.0539 16.6727H85.2283L86.2556 15.6277V20.2857H83.9531ZM92.0648 20.2857L88.93 15.7871H91.3918L94.5444 20.2857H92.0648ZM86.2556 15.8757L85.2283 14.7776H88.9477C89.9631 14.7776 90.7247 14.5591 91.2324 14.1223C91.7519 13.6854 92.0117 13.0773 92.0117 12.298C92.0117 11.5069 91.7519 10.8988 91.2324 10.4738C90.7247 10.0487 89.9631 9.83616 88.9477 9.83616H85.2283L86.2556 8.70265V15.8757Z" fill="#7C6A62"/>
<path d="M74.2132 13.0419H80.3767V14.937H74.2132V13.0419ZM74.3903 18.3552H81.3862V20.2857H72.0879V7.88794H81.1383V9.81845H74.3903V18.3552Z" fill="#7C6A62"/>
<path d="M66.4639 7.88794H68.7663V20.2857H66.4639V7.88794ZM60.0524 20.2857H57.75V7.88794H60.0524V20.2857ZM66.641 14.9724H59.8576V13.0065H66.641V14.9724Z" fill="#7C6A62"/>
<path d="M45.0723 20.2857V7.88794H50.1731C51.2712 7.88794 52.2099 8.06505 52.9891 8.41927C53.7802 8.7735 54.3883 9.28122 54.8134 9.94243C55.2385 10.6036 55.451 11.3888 55.451 12.298C55.451 13.2072 55.2385 13.9924 54.8134 14.6536C54.3883 15.3148 53.7802 15.8225 52.9891 16.1768C52.2099 16.531 51.2712 16.7081 50.1731 16.7081H46.3475L47.3747 15.6277V20.2857H45.0723ZM47.3747 15.8757L46.3475 14.7599H50.0668C51.0822 14.7599 51.8438 14.5473 52.3515 14.1223C52.8711 13.6854 53.1308 13.0773 53.1308 12.298C53.1308 11.5069 52.8711 10.8988 52.3515 10.4738C51.8438 10.0487 51.0822 9.83616 50.0668 9.83616H46.3475L47.3747 8.70265V15.8757Z" fill="#7C6A62"/>
<path d="M37.7769 20.4632C36.8087 20.4632 35.8819 20.3274 34.9963 20.0558C34.1107 19.7725 33.4082 19.4123 32.8887 18.9755L33.6857 17.1866C34.1816 17.5763 34.7956 17.901 35.5276 18.1608C36.2597 18.4205 37.0095 18.5504 37.7769 18.5504C38.4264 18.5504 38.9518 18.4796 39.3532 18.3379C39.7547 18.1962 40.0499 18.0073 40.2388 17.7711C40.4277 17.5231 40.5222 17.2457 40.5222 16.9387C40.5222 16.5608 40.3864 16.2598 40.1148 16.0354C39.8432 15.7993 39.489 15.6163 39.0521 15.4864C38.6271 15.3447 38.1489 15.2148 37.6175 15.0967C37.098 14.9787 36.5726 14.8429 36.0413 14.6894C35.5217 14.5241 35.0435 14.3174 34.6067 14.0695C34.1816 13.8097 33.8333 13.4673 33.5617 13.0422C33.2901 12.6172 33.1543 12.074 33.1543 11.4128C33.1543 10.7398 33.3315 10.1258 33.6857 9.57085C34.0517 9.00409 34.6007 8.55541 35.3328 8.2248C36.0767 7.88239 37.0154 7.71118 38.1489 7.71118C38.8927 7.71118 39.6307 7.80564 40.3628 7.99456C41.0948 8.18348 41.7324 8.45505 42.2756 8.80927L41.5494 10.5981C40.9945 10.2675 40.4218 10.0254 39.8314 9.87194C39.2411 9.70664 38.6743 9.62398 38.1312 9.62398C37.4936 9.62398 36.974 9.70073 36.5726 9.85423C36.1829 10.0077 35.8937 10.2085 35.7047 10.4564C35.5276 10.7044 35.4391 10.9877 35.4391 11.3065C35.4391 11.6844 35.569 11.9914 35.8287 12.2275C36.1003 12.4519 36.4486 12.629 36.8737 12.7589C37.3106 12.8887 37.7947 13.0186 38.326 13.1485C38.8573 13.2666 39.3828 13.4024 39.9023 13.5559C40.4336 13.7094 40.9118 13.9101 41.3369 14.158C41.7738 14.406 42.1221 14.7425 42.3818 15.1676C42.6534 15.5926 42.7892 16.1299 42.7892 16.7793C42.7892 17.4405 42.6062 18.0545 42.2402 18.6212C41.8859 19.1762 41.3369 19.6249 40.593 19.9673C39.8491 20.2979 38.9105 20.4632 37.7769 20.4632Z" fill="#7C6A62"/>
<path d="M32.8887 23.4159H106.207" stroke="#67B3C4" stroke-width="1.20125"/>
</svg>
