<svg width="106" height="38" viewBox="0 0 106 38" fill="none" xmlns="http://www.w3.org/2000/svg">
<path d="M43.6117 31.3484C43.6117 31.3484 44.4334 32.1792 45.4967 32.1792C46.0767 32.1792 46.6084 31.8859 46.6084 31.2506C46.6084 29.8822 43.0317 30.1266 43.0317 27.7808C43.0317 26.5101 44.0951 25.5815 45.5451 25.5815C47.0434 25.5815 47.8168 26.4124 47.8168 26.4124L47.2367 27.5364C47.2367 27.5364 46.5117 26.8522 45.5451 26.8522C44.9167 26.8522 44.3851 27.2432 44.3851 27.7808C44.3851 29.1492 47.9134 28.8071 47.9134 31.2506C47.9134 32.4724 46.9951 33.4987 45.4484 33.4987C43.7567 33.4987 42.8384 32.4724 42.8384 32.4724L43.6117 31.3484Z" fill="#7B6961" stroke="#7B6961" stroke-width="0.0500162" stroke-miterlimit="10"/>
<path d="M49.2668 25.6794H52.1669C53.5685 25.6794 54.5836 26.6569 54.5836 28.1719C54.5836 29.638 53.6169 30.6643 52.1669 30.6643H50.6202V33.3034H49.2668V25.6794ZM51.9252 29.4425C52.7469 29.4425 53.1819 28.905 53.1819 28.123C53.1819 27.3411 52.6985 26.8524 51.9252 26.8524H50.6202V29.4425H51.9252Z" fill="#7B6961" stroke="#7B6961" stroke-width="0.0500162" stroke-miterlimit="10"/>
<path d="M55.7434 25.6794H57.0967V28.905H60.5768V25.6794H61.9301V33.3034H60.5768V30.0779H57.0967V33.3034H55.7434V25.6794Z" fill="#7B6961" stroke="#7B6961" stroke-width="0.0500162" stroke-miterlimit="10"/>
<path d="M63.8152 25.6794H68.3586V26.8524H65.2169V28.8561H67.7786V30.029H65.2169V32.0816H68.5519V33.2545H63.8635V25.6794H63.8152Z" fill="#7B6961" stroke="#7B6961" stroke-width="0.0500162" stroke-miterlimit="10"/>
<path d="M69.8569 25.6794H72.2736C73.0953 25.6794 73.482 25.7283 73.772 25.8749C74.5453 26.217 75.0286 26.9501 75.0286 27.9764C75.0286 28.905 74.5453 29.7358 73.772 30.0779C73.772 30.0779 73.8686 30.1756 74.0136 30.4688L75.5603 33.3034H74.0136L72.5153 30.4688H71.2586V33.3034H69.9053V25.6794H69.8569ZM72.467 29.2471C73.192 29.2471 73.6753 28.8072 73.6753 28.0253C73.6753 27.2922 73.3853 26.8524 72.2736 26.8524H71.2586V29.2471H72.467Z" fill="#7B6961" stroke="#7B6961" stroke-width="0.0500162" stroke-miterlimit="10"/>
<path d="M76.8169 25.6794H81.3603V26.8524H78.2186V28.8561H80.7803V30.029H78.2186V32.0816H81.5536V33.2545H76.8652V25.6794H76.8169Z" fill="#7B6961" stroke="#7B6961" stroke-width="0.0500162" stroke-miterlimit="10"/>
<path d="M11.505 19.9967C11.4709 19.7905 11.4369 19.55 11.4369 19.3095V19.2064L0.0680768 20.1341H0L0.0680768 20.993L11.539 20.0654L11.505 19.9967Z" fill="#7B6961"/>
<path d="M13.0027 14.4306C13.0708 14.3275 13.1389 14.2588 13.207 14.1558C13.2751 14.0527 13.3431 13.984 13.4452 13.8809L13.5133 13.8122L4.90161 6.18468L4.83354 6.11597L4.25488 6.76877L12.9347 14.4993L13.0027 14.4306Z" fill="#7B6961"/>
<path d="M11.9136 21.577C11.8455 21.3709 11.7775 21.1304 11.7094 20.9242L11.6753 20.8212L0.8171 24.257L0.749023 24.2913L1.02133 25.1159L11.9477 21.6458L11.9136 21.577Z" fill="#7B6961"/>
<path d="M11.7094 17.0072L11.7435 16.9041C11.8115 16.6979 11.8796 16.4574 11.9477 16.2513L11.9817 16.1826L1.08945 12.2657L0.817139 13.056L11.6413 16.9728L11.7094 17.0072Z" fill="#7B6961"/>
<path d="M11.471 18.4502V18.3471C11.505 18.1066 11.505 17.9004 11.5731 17.6599V17.5568L0.272346 15.942H0.204269L0.0681152 16.801L11.3689 18.4502H11.471Z" fill="#7B6961"/>
<path d="M21.0359 11.9566L21.104 11.991C21.3082 12.0597 21.5124 12.1627 21.7167 12.2315L21.7847 12.2658L26.0395 1.58045L26.0736 1.51174L25.2907 1.20251L21.0699 11.8535L21.0359 11.9566Z" fill="#7B6961"/>
<path d="M20.2189 11.7506L20.321 11.785L22.1251 0.343722V0.275006L21.2741 0.137573L19.436 11.5445V11.6475H19.5382C19.7764 11.6475 19.9807 11.6819 20.2189 11.7506Z" fill="#7B6961"/>
<path d="M22.3972 12.575L22.4653 12.6093C22.6695 12.7124 22.8397 12.8498 23.0439 12.9873L23.112 13.056L29.4091 3.29827L28.6943 2.81726L22.4313 12.4719L22.3972 12.575Z" fill="#7B6961"/>
<path d="M17.8359 11.6474H17.9381C18.1763 11.613 18.3806 11.613 18.6188 11.613H18.7209L18.0742 0.0687162L18.0402 0L17.1892 0.0343581L17.8359 11.5443V11.6474Z" fill="#7B6961"/>
<path d="M13.9216 13.4341C14.0918 13.2967 14.262 13.1249 14.4322 13.0218L14.5003 12.9531L7.48835 3.88256L7.42027 3.81384L6.7395 4.32921L13.8195 13.4685L13.9216 13.4341Z" fill="#7B6961"/>
<path d="M14.9769 12.6441L15.045 12.6097C15.2492 12.5067 15.4535 12.4036 15.6577 12.3005L15.7258 12.2662L10.5179 1.89001L9.76904 2.26795L14.9429 12.541L14.9769 12.6441Z" fill="#7B6961"/>
<path d="M16.4064 11.991C16.6107 11.9223 16.8489 11.8536 17.0532 11.7848L17.1553 11.7505L14.0918 0.584106L13.2749 0.824613L16.3384 12.0253L16.4064 11.991Z" fill="#7B6961"/>
<path d="M12.2198 15.6332L12.2538 15.5645C12.356 15.3583 12.4581 15.1522 12.5942 14.9804L12.6283 14.9117L2.85925 8.93335L2.41675 9.65487L12.1517 15.5988L12.2198 15.6332Z" fill="#7B6961"/>
<path d="M12.6622 23.02L12.5941 22.9513C12.458 22.7451 12.3558 22.5733 12.2537 22.3672L12.2197 22.2985L2.28048 28.0019L2.2124 28.0363L2.62086 28.7921L12.5941 23.0887L12.6622 23.02Z" fill="#7B6961"/>
<path d="M31.3495 4.98192L31.2814 4.91321L30.7028 5.56601L30.7708 5.63473C34.2768 8.79567 36.3872 13.1248 36.7276 17.8662C37.0679 22.6076 35.5703 27.2116 32.5068 30.8192C29.4093 34.4955 25.0864 36.7288 20.3211 37.1067C16.0322 37.4503 11.7434 36.2134 8.3055 33.6366C8.57781 33.3273 9.22454 32.4684 9.42877 32.1935C12.1859 34.2206 15.4536 35.3201 18.8914 35.3201C23.6228 35.3201 28.0478 33.2586 31.1112 29.651C33.9024 26.3526 35.2299 22.161 34.8895 17.8662C34.5491 13.6745 32.677 9.82641 29.5455 7.04341L29.4774 6.97469L27.1287 9.58591L27.1968 9.65462C32.3026 14.1899 32.8472 22.1266 28.4562 27.349C26.2778 29.9259 23.2484 31.472 19.9126 31.7469C16.9513 31.9874 13.9899 31.1628 11.6072 29.4105C11.6753 29.3418 11.7434 29.2387 11.8455 29.1013C12.1178 28.7234 12.5943 28.1393 12.7305 27.9675C14.7728 29.4449 17.2576 30.132 19.7764 29.9259C22.6357 29.6854 25.2226 28.3798 27.0607 26.1809C30.8389 21.7143 30.3283 14.9458 25.9714 11.0633L25.8693 10.9259L23.5207 13.5371L23.5887 13.6058C25.0184 14.8427 25.9034 16.595 26.0735 18.519C26.2097 20.4431 25.631 22.3328 24.3716 23.7758C23.1122 25.2532 21.3762 26.1465 19.4701 26.2839C17.598 26.4214 15.7599 25.8373 14.3303 24.6347L14.2622 24.566L13.7516 25.2532L13.8197 25.3219C17.1895 28.1049 22.1932 27.6583 25.0184 24.3255C26.4139 22.6763 27.0947 20.5805 26.9245 18.4159C26.7883 16.5262 25.9714 14.7396 24.678 13.3997C24.8822 13.1591 25.6651 12.3002 25.9034 12.0597C29.4774 15.7016 29.7157 21.5769 26.4139 25.4937C24.712 27.5208 22.3293 28.7234 19.7084 28.9295C17.1555 29.1357 14.7047 28.3454 12.7305 26.7306L12.6624 26.6619L10.4499 29.548L10.518 29.6167C13.207 31.7812 16.5428 32.8463 19.9807 32.5715C23.5547 32.2966 26.7884 30.6131 29.103 27.8644C33.6641 22.4702 33.2897 14.396 28.286 9.44847C28.4222 9.31104 28.7285 8.9331 29.0349 8.62388C29.3072 8.34902 29.4433 8.17723 29.5114 8.10851C35.2299 13.7089 35.6724 22.9168 30.4645 29.0669C27.8776 32.1248 24.2695 34.0145 20.3211 34.3924C16.3726 34.7704 12.4922 33.6022 9.39473 31.0941L9.32665 31.0254L7.18223 33.774L7.14819 33.8084L7.21627 33.8771C10.552 36.5914 14.6026 38 18.8574 38C19.368 38 19.8786 37.9657 20.3551 37.9313C25.3587 37.519 29.8858 35.1827 33.1195 31.3346C36.3191 27.5552 37.8849 22.7451 37.5445 17.7631C37.2381 12.8156 35.0256 8.2803 31.3495 4.98192Z" fill="#7B6961"/>
<path d="M13.6493 24.2223L13.5812 24.1535C13.411 23.9818 13.2749 23.81 13.1387 23.6382L13.0706 23.5695L4.62911 31.2657L4.56104 31.3344L5.13969 31.9872L13.5812 24.3253L13.6493 24.2223Z" fill="#7B6961"/>
<path d="M48.8011 11.0724H49.4613V10.7132C49.4613 8.50678 48.344 7.78841 46.7697 7.78841C45.0938 7.78841 43.9766 8.71203 43.9766 8.71203L43.5195 8.04497C43.5195 8.04497 44.6876 6.96741 46.8205 6.96741C49.055 6.96741 50.2738 8.25022 50.2738 10.7132V17.076H49.4613V15.7932C49.4613 15.28 49.5628 14.9209 49.5628 14.9209H49.512C49.512 14.9209 48.6487 17.3325 46.1095 17.3325C44.5352 17.3325 42.8085 16.4602 42.8085 14.459C42.7578 11.1237 47.0744 11.0724 48.8011 11.0724ZM46.1095 16.5629C48.2424 16.5629 49.4613 14.3564 49.4613 12.4065V11.8934H48.8518C47.176 11.8934 43.6719 11.8934 43.6719 14.459C43.6211 15.4853 44.4844 16.5629 46.1095 16.5629Z" fill="#7B6961" stroke="#7B6961" stroke-width="0.173432" stroke-miterlimit="10"/>
<path d="M58.6023 11.0724H59.2625V10.7132C59.2625 8.50678 58.1453 7.78841 56.571 7.78841C54.8951 7.78841 53.7779 8.71203 53.7779 8.71203L53.3208 8.04497C53.3208 8.04497 54.4888 6.96741 56.6218 6.96741C58.8563 6.96741 60.0751 8.25022 60.0751 10.7132V17.076H59.2625V15.7932C59.2625 15.28 59.3641 14.9209 59.3641 14.9209H59.3133C59.3133 14.9209 58.45 17.3325 55.9108 17.3325C54.3365 17.3325 52.6098 16.4602 52.6098 14.459C52.559 11.1237 56.8757 11.0724 58.6023 11.0724ZM55.9108 16.5629C58.0437 16.5629 59.2625 14.3564 59.2625 12.4065V11.8934H58.6531C56.9772 11.8934 53.4731 11.8934 53.4731 14.459C53.4224 15.4853 54.2857 16.5629 55.9108 16.5629Z" fill="#7B6961" stroke="#7B6961" stroke-width="0.173432" stroke-miterlimit="10"/>
<path d="M62.8682 15.28C62.8682 15.28 63.9347 16.5115 65.8644 16.5115C67.0325 16.5115 68.0989 15.8958 68.0989 14.6643C68.0989 12.1499 62.7158 12.8683 62.7158 9.68693C62.7158 7.9423 64.1886 7.01868 65.8137 7.01868C67.7942 7.01868 68.7084 8.09624 68.7084 8.09624L68.2005 8.7633C68.2005 8.7633 67.388 7.83968 65.7629 7.83968C64.6456 7.83968 63.5792 8.3528 63.5792 9.63562C63.5792 12.2012 68.9623 11.4316 68.9623 14.7156C68.9623 16.3063 67.6419 17.3838 65.8644 17.3838C63.5284 17.3838 62.3604 15.9471 62.3604 15.9471L62.8682 15.28Z" fill="#7B6961" stroke="#7B6961" stroke-width="0.173432" stroke-miterlimit="10"/>
<path d="M71.8062 8.04484H70.5366V7.27515H71.8062V4.50427H72.6188V7.27515H75.158V8.04484H72.6188V13.484C72.6188 16.1009 74.1423 16.4088 74.9548 16.4088C75.2088 16.4088 75.4119 16.3575 75.4119 16.3575V17.1272C75.4119 17.1272 75.2088 17.1785 74.904 17.1785C73.8884 17.1785 71.8062 16.8193 71.8062 13.5353V8.04484Z" fill="#7B6961" stroke="#7B6961" stroke-width="0.173432" stroke-miterlimit="10"/>
<path d="M46.9046 6.81067C46.2238 6.81067 45.6111 6.91374 45.0325 7.11989C44.4538 7.32604 44.0794 7.49783 43.8752 7.6009C43.705 7.70398 43.6029 7.80705 43.5008 7.87577L43.3646 7.97884L43.9773 8.87215L44.3858 8.56293C44.8623 8.21935 45.8834 7.87577 46.8025 7.87577C48.5384 7.87577 49.3894 8.80344 49.3894 10.7275V10.9336H48.9129C48.1981 10.9336 47.8577 10.9336 46.9386 11.0367C46.0196 11.1054 45.4409 11.2429 44.624 11.5864C43.3306 12.1362 42.6838 13.1326 42.6838 14.4725C42.6838 15.4345 43.0242 16.1904 43.739 16.7402C44.4198 17.2555 45.2367 17.496 46.1558 17.496C47.4833 17.496 48.4023 16.8432 48.9129 16.2591C49.1511 15.9843 49.3213 15.7438 49.4575 15.5033L49.4234 15.8125V17.2555H50.5127V10.6931C50.5127 8.15063 49.2873 6.81067 46.9046 6.81067ZM49.4575 11.9644V12.3767C49.4575 13.4074 49.1511 14.3694 48.5384 15.2284C47.9598 16.053 47.1769 16.4653 46.1898 16.4653C44.624 16.4653 43.8071 15.4345 43.8071 14.4038C43.705 12.9951 45.2027 12.411 45.6792 12.2736C45.9856 12.1705 46.36 12.0675 46.8365 12.0331C47.279 11.9644 47.6194 11.9644 47.9258 11.9644C48.164 11.93 48.5044 11.93 48.9129 11.93H49.4575V11.9644Z" fill="#7B6961"/>
<path d="M56.7416 6.81067C56.0608 6.81067 55.4482 6.91374 54.8695 7.11989C54.2909 7.32604 53.9164 7.49783 53.7122 7.6009C53.542 7.70398 53.4399 7.80705 53.3378 7.87577L53.2016 7.97884L53.8143 8.87215L54.2228 8.56293C54.6993 8.21935 55.7205 7.87577 56.6395 7.87577C58.3755 7.87577 59.2264 8.80344 59.2264 10.7275V10.9336H58.7158C58.001 10.9336 57.6607 10.9336 56.7416 11.0367C55.8226 11.1054 55.2439 11.2429 54.427 11.5864C53.1335 12.1362 52.4868 13.1326 52.4868 14.4725C52.4868 15.4345 52.8272 16.1904 53.542 16.7402C54.2228 17.2555 55.0397 17.496 55.9587 17.496C57.2862 17.496 58.2053 16.8432 58.7158 16.2591C58.9541 15.9843 59.1243 15.7438 59.2605 15.5033L59.2264 15.8125V17.2555H60.3156V10.6931C60.3497 8.15063 59.1243 6.81067 56.7416 6.81067ZM59.2945 11.9644V12.3767C59.2945 13.4074 58.9882 14.3694 58.3755 15.2284C57.7968 16.053 57.0139 16.4653 56.0268 16.4653C54.461 16.4653 53.6441 15.4345 53.6441 14.4038C53.542 12.9951 55.0397 12.411 55.5162 12.2736C55.8226 12.1705 56.197 12.0675 56.6735 12.0331C57.116 11.9644 57.4564 11.9644 57.7628 11.9644C58.001 11.93 58.3414 11.93 58.7499 11.93H59.2945V11.9644Z" fill="#7B6961"/>
<path d="M65.9663 11.5177L65.694 11.4147C64.4686 10.9336 63.8559 10.3152 63.8559 9.55932C63.8559 8.32242 64.9451 7.87577 65.9663 7.87577C66.9534 7.87577 67.9065 8.32242 68.0767 8.52857L68.4511 8.87215L69.0978 7.97884L68.7234 7.63526C68.349 7.29168 67.2597 6.81067 66.0003 6.81067C65.0813 6.81067 64.2984 7.05117 63.6857 7.56655C63.039 8.04756 62.7326 8.73472 62.7326 9.62803C62.7326 11.5177 64.6048 12.2049 66.1024 12.7546L66.3407 12.8233C67.5661 13.27 68.1788 13.8884 68.1788 14.6443C68.1788 15.6751 67.3278 16.3966 66.0344 16.3966C65.4898 16.3966 64.9451 16.2935 64.4005 16.053C63.8559 15.8125 63.5496 15.6407 63.4134 15.5033C63.2773 15.3658 63.1411 15.2628 63.073 15.1597L62.9709 15.0223L62.2561 15.8812L62.6986 16.3279C63.2432 16.8776 64.6048 17.4273 65.9663 17.4273C67.9065 17.4273 69.234 16.2591 69.234 14.61C69.3021 12.7546 67.464 12.0675 65.9663 11.5177Z" fill="#7B6961"/>
<path d="M73.7268 15.8469C73.1822 15.4346 72.8759 14.5756 72.8759 13.4762V8.11629H75.4628V7.08555H72.8759V4.26819H71.7866V7.08555H70.4932V8.11629H71.7866V13.5105C71.7866 16.9463 74.0672 17.3243 75.0543 17.3243C75.2585 17.3243 75.4287 17.2899 75.5649 17.2899H75.667V16.2592L75.0883 16.3279C74.6458 16.2935 74.2374 16.2248 73.7268 15.8469Z" fill="#7B6961"/>
<path d="M78.7987 9.14679V7.05095H77.7095V17.2553H78.7987V12.8231C78.7987 12.0672 78.9008 11.3801 79.105 10.7616C79.6156 9.07808 80.6368 8.08169 81.9302 8.08169C82.0664 8.08169 82.2025 8.11605 82.3727 8.11605L82.5089 8.15041V7.05095L81.7941 6.98223C80.5687 6.94788 79.4795 7.77247 78.7987 9.14679Z" fill="#7B6961"/>
<path d="M85.6138 3.06091H84.3884V4.77882H85.6138V3.06091Z" fill="#7B6961"/>
<path d="M85.5721 7.05115H84.4829V17.2555H85.5721V7.05115Z" fill="#7B6961"/>
<path d="M96.0903 7.05121H94.6607L91.461 10.968H89.8953V3.06567H88.8401V17.2556H89.8953V11.9988H91.461L95.0351 17.2556H96.3966L92.3801 11.4834L96.0903 7.05121Z" fill="#7B6961"/>
<path d="M101.434 6.81067C100.753 6.81067 100.141 6.91374 99.562 7.11989C98.9834 7.32604 98.609 7.49783 98.4047 7.6009C98.2345 7.70398 98.1324 7.80705 98.0303 7.87577L97.8941 7.97884L98.5068 8.87215L98.9493 8.56293C99.4259 8.21935 100.447 7.87577 101.366 7.87577C103.102 7.87577 103.953 8.80344 103.953 10.7275V10.9336H103.442C102.728 10.9336 102.387 10.9336 101.468 11.0367C100.549 11.1054 99.9705 11.2429 99.1536 11.5864C97.8601 12.1362 97.2134 13.1326 97.2134 14.4725C97.2134 15.4345 97.5538 16.1904 98.2686 16.7402C98.9493 17.2555 99.7663 17.496 100.685 17.496C102.013 17.496 102.932 16.8432 103.442 16.2591C103.681 15.9843 103.851 15.7438 103.987 15.5033L103.953 15.8125V17.2555H105.042V10.6931C105.042 8.15063 103.817 6.81067 101.434 6.81067ZM103.953 11.9644V12.3767C103.953 13.4074 103.647 14.3694 103.034 15.2284C102.455 16.053 101.672 16.4653 100.685 16.4653C99.1195 16.4653 98.3026 15.4345 98.3026 14.4038C98.2005 12.9951 99.6982 12.411 100.209 12.2736C100.515 12.1705 100.89 12.0675 101.366 12.0331C101.809 11.9644 102.149 11.9644 102.455 11.9644C102.694 11.93 103.034 11.93 103.442 11.93H103.953V11.9644Z" fill="#7B6961"/>
<path d="M105.463 20.8217H42.3457C42.0829 20.8217 41.9077 21.0783 41.9077 21.3348C41.9077 21.6427 42.1267 21.848 42.3457 21.848H105.463C105.726 21.848 105.901 21.5914 105.901 21.3348C105.901 21.027 105.726 20.8217 105.463 20.8217Z" fill="#57A9B7"/>
<path fill-rule="evenodd" clip-rule="evenodd" d="M41.8083 21.3348C41.8083 21.0218 42.0216 20.7054 42.3457 20.7054H105.463C105.617 20.7054 105.753 20.7661 105.851 20.8806C105.948 20.9952 106 21.1545 106 21.3348C106 21.6478 105.787 21.9642 105.463 21.9642H42.3457C42.0783 21.9642 41.8083 21.7142 41.8083 21.3348ZM42.3457 20.938C42.1441 20.938 42.007 21.1347 42.007 21.3348C42.007 21.5712 42.175 21.7317 42.3457 21.7317H105.463C105.664 21.7317 105.802 21.535 105.802 21.3348C105.802 21.2073 105.766 21.11 105.71 21.045C105.655 20.9799 105.572 20.938 105.463 20.938H42.3457Z" fill="#57A9B7"/>
</svg>
