<svg width="35" height="42" viewBox="0 0 35 42" fill="none" xmlns="http://www.w3.org/2000/svg">
<g clip-path="url(#clip0_7390_5619)">
<path d="M1.56648 24.0591C1.42932 23.7841 2.80095 23.406 2.86953 23.0967C2.90382 22.7874 1.08641 22.9592 0.98354 22.7186C0.812086 22.2718 3.0067 22.4093 2.93812 22.2031C2.86953 21.9969 0.640631 21.7219 0.846376 21.3095C1.05212 20.897 3.14386 21.825 3.17815 21.5501C3.21244 21.2751 1.15499 20.8627 1.1207 20.3128C1.1207 20.0034 4.54978 21.4813 4.89269 21.2751C5.26989 21.0689 4.30975 19.7285 4.61837 19.4879C4.89269 19.2473 6.09287 22.0313 6.3329 22.1C6.53865 22.1687 11.2708 23.6123 12.8824 23.8529C13.0196 23.3029 14.2198 20.3128 14.357 19.7972C15.2828 20.3471 16.483 19.6941 17.4774 20.1753C16.9973 21.8938 15.9 27.5304 15.4543 27.8054C14.1169 28.5959 7.15588 24.884 5.99 24.2309C4.82411 23.5779 4.24117 23.8872 3.48677 23.7154C2.66379 23.5779 1.66936 24.334 1.56648 24.0591Z" fill="#B28B67"/>
<path d="M13.3282 42.0001H18.2318L16.5173 36.0197L16.1401 34.7137L16.0372 34.3356L15.9686 34.0606L15.7629 33.3389L14.4255 33.82L14.2198 33.8888L13.7054 34.095C13.7054 34.095 13.7054 34.1294 13.7054 34.1637C13.7054 34.2325 13.6711 34.3356 13.6711 34.4731C13.6711 34.5418 13.6368 34.5762 13.6368 34.6449C13.6368 34.748 13.6026 34.8855 13.5683 35.023C13.5683 35.1605 13.534 35.2979 13.4997 35.4698C13.2939 37.0852 13.0196 39.8691 13.3282 42.0001Z" fill="#B28B67"/>
<path d="M14.0826 31.9297L14.1169 32.1359V32.2046L14.3912 33.8544L14.4598 34.3356L14.4941 34.5418L14.5627 34.9199L14.7341 35.9166L15.4885 40.3847L16.0715 42.0344H25.8444C25.8101 41.1064 25.7758 40.3159 25.6729 39.7317C25.6043 39.3536 25.5015 38.9411 25.3643 38.5631C24.9871 37.3945 24.4384 36.2259 23.9584 35.2292C23.4783 34.3012 22.9982 33.5451 22.8268 33.2357C22.7582 33.1326 22.7239 33.0639 22.7239 33.0639L21.6952 32.9264H21.6266L21.2151 32.8577H21.1122L15.1799 32.0672L14.0826 31.9297Z" fill="#B28B67"/>
<path d="M13.0881 41.9999H26.1187C26.0844 41.1407 26.0501 40.4189 25.9472 39.869C25.9472 39.8346 25.9129 39.8002 25.9129 39.7315C25.5357 37.9786 24.5413 36.0195 23.7869 34.7135C23.2725 33.8199 22.861 33.2356 22.861 33.2356H22.8267L21.7637 33.0981H21.6951L21.2151 33.0294H21.1122L14.4598 32.2045L14.1169 32.1701L13.8768 32.1357L13.9111 32.2389L14.2197 33.9573V34.0261L13.6711 34.1292C13.6711 34.1292 13.6711 34.1636 13.6711 34.1979C13.6711 34.2667 13.6368 34.3698 13.6025 34.5073C13.6025 34.576 13.5682 34.6104 13.5682 34.7135C13.5339 34.8166 13.5339 34.9541 13.4996 35.0916C13.4653 35.229 13.4653 35.3665 13.4311 35.504C13.191 37.0506 12.8138 39.8346 13.0881 41.9999Z" fill="#F0CE88"/>
<path d="M13.9798 7.42393C13.6368 5.84291 13.2939 4.22753 14.2198 2.47466C14.9742 1.0655 16.2772 0.24062 17.7517 0.0687709C22.0038 -0.446777 21.0779 3.54013 27.0103 4.39938C28.8277 4.63997 30.5422 4.88055 32.0853 5.80854C34.8628 7.4583 35.9259 10.1391 34.0742 14.4698C29.5478 25.09 18.7805 15.8445 17.1345 13.9886C15.4885 12.0982 14.1855 8.45502 13.9798 7.42393Z" fill="#473F3B"/>
<path d="M12.7453 42.0002H26.7703L25.913 39.7662L25.5701 38.9069C25.5701 38.9069 25.5015 38.7695 25.3643 38.5289C25.0214 37.9446 24.267 36.7073 23.3412 35.3325C22.8611 34.6107 22.3125 33.8546 21.7295 33.0984C21.6952 33.0641 21.6952 33.0297 21.6609 32.9953C21.6266 32.9609 21.6266 32.9266 21.5924 32.8922C21.4209 32.686 21.2494 32.4454 21.078 32.2392C21.0094 32.1704 20.9751 32.1017 20.9065 32.033C20.7351 31.8267 20.5636 31.6205 20.4265 31.4487C19.7064 30.6238 19.0205 29.902 18.3004 29.3177C16.6888 28.0117 15.18 27.6336 14.3227 29.4208C14.0827 29.902 13.8769 30.5551 13.774 31.3799C13.7398 31.6549 13.6712 31.8955 13.6369 32.1704C13.5683 32.6516 13.4997 33.1672 13.4311 33.6827C13.3969 33.9577 13.3626 34.2326 13.3283 34.5076C13.3283 34.5763 13.294 34.6107 13.294 34.6794C13.294 34.7826 13.2597 34.92 13.2597 35.0231C13.0197 37.3259 12.8482 39.6974 12.7453 42.0002Z" fill="#F0CE88"/>
<path d="M20.6322 12.4761C20.6322 12.4761 22.7582 12.7167 24.0613 14.1258C25.3643 15.535 22.0038 26.7396 21.7638 28.5268C21.5237 30.314 23.9927 35.2289 23.9927 35.2289C23.9927 35.2289 15.6257 36.9131 13.4654 35.4695C13.4654 35.4695 13.2597 21.7216 13.4997 20.4499C13.7397 19.1438 15.66 13.9883 16.1401 13.4728C16.5859 12.9916 20.6322 12.4761 20.6322 12.4761Z" fill="#F0CE88"/>
<path d="M19.5692 8.1457C19.5692 8.1457 19.5692 8.24881 19.6035 8.42066C19.7406 9.21116 20.2893 11.7889 20.6665 12.5107C21.1123 13.3699 19.1234 16.1195 17.1688 15.7758C16.5859 15.6727 17.6489 13.2668 17.6146 12.9919C17.5117 12.5107 17.3746 11.8233 17.2374 11.1359C17.1688 10.7578 17.1002 10.3454 16.9974 10.0017C16.7916 8.97058 16.6202 8.11133 16.6202 8.11133L19.5692 8.1457Z" fill="#B28B67"/>
<path d="M19.6034 8.38648C19.5691 8.249 19.5691 8.14589 19.5691 8.14589L16.6887 8.07715C16.6887 8.07715 16.8602 8.9364 17.0659 9.96749C17.1345 10.3456 17.2031 10.7236 17.306 11.1017C17.7517 11.033 18.2318 10.8267 18.6776 10.4143C19.1919 9.96749 19.5349 9.41757 19.7406 8.86766C19.672 8.66144 19.6377 8.52396 19.6034 8.38648Z" fill="#8E6F55"/>
<path d="M17.8204 1.23748C17.8204 1.23748 18.9863 1.40933 19.8435 2.50916C20.7008 3.609 21.6266 7.04599 19.5006 8.90196C17.3746 10.7579 15.2828 8.66137 14.9742 6.42733C14.6656 4.19329 14.7342 1.16874 17.8204 1.23748Z" fill="#B28B67"/>
<path d="M14.357 5.8773C14.4941 6.42722 14.837 6.77091 15.1457 6.70217C15.4543 6.59906 15.5914 6.11789 15.4543 5.56797C15.3171 5.01805 14.9742 4.67435 14.6656 4.74309C14.357 4.81183 14.2198 5.32738 14.357 5.8773Z" fill="#B28B67"/>
<path d="M16.5173 1.23722C16.5173 1.23722 19.2948 4.43362 20.5979 4.5711C21.9009 4.70858 22.0724 6.46145 22.0724 6.46145C22.0724 6.46145 21.5923 2.47454 20.3236 1.7184C19.0205 0.962264 16.5173 1.23722 16.5173 1.23722Z" fill="#473F3B"/>
<path d="M20.1521 5.36162C20.0493 5.94591 20.255 6.46146 20.6322 6.5302C21.0094 6.59894 21.3866 6.1865 21.4895 5.63658C21.5924 5.05229 21.3866 4.53675 21.0094 4.46801C20.6665 4.39927 20.255 4.77733 20.1521 5.36162Z" fill="#B28B67"/>
<path d="M19.0987 22.1152L21.0991 33.1045L12.6653 34.6468L10.6649 23.6576L19.0987 22.1152Z" fill="#BED9EA"/>
<path d="M19.6621 22.493L21.2725 33.5459L12.7898 34.7875L11.1794 23.7346L19.6621 22.493Z" fill="#D3E5F4"/>
<path d="M20.3912 22.918L21.7876 34L13.2826 35.0766L11.8862 23.9947L20.3912 22.918Z" fill="#F4F4F4"/>
<path d="M26.4959 24.6431L23.2383 24.9868C23.2383 24.9868 23.3069 27.7364 23.2383 28.0801C23.2383 28.0801 17.6832 29.6267 15.3514 30.0391C15.3514 30.0391 14.2884 29.4549 13.8769 29.2486C13.4654 29.0424 12.2995 28.8362 12.0595 28.8018C11.8195 28.7675 11.888 29.0424 12.0938 29.1455C12.2995 29.2486 12.8825 29.5236 13.0539 29.8329C13.0539 29.8329 12.6081 29.8673 12.3681 29.7642C12.1281 29.6611 11.7852 29.4205 11.7852 29.3174C11.7852 29.2143 11.7166 28.9049 11.648 28.9393C11.6137 28.9393 11.6137 29.0424 11.5794 29.1455C11.5451 29.2486 11.5108 29.3517 11.5108 29.4205C11.4765 29.5923 11.408 29.8329 11.408 29.936C11.3737 30.1766 11.5108 30.8984 11.5451 31.139C11.5794 31.5858 11.7166 31.792 11.9566 31.8951C12.3338 32.0326 12.7453 32.1013 13.3625 32.1701C14.4598 32.2732 15.4886 31.9639 15.9343 31.9295C16.3801 31.8951 23.444 31.1733 23.444 31.1733C23.444 31.1733 26.2559 30.7609 26.4273 30.2797C26.5645 29.8329 26.4959 24.6431 26.4959 24.6431Z" fill="#B28B67"/>
<path d="M23.684 13.7136C23.684 13.7136 24.7127 14.1948 25.6043 16.2914C26.4616 18.2848 26.4958 28.2521 26.4958 28.2521L23.3068 27.7022L21.5923 23.0622C20.3578 20.2783 20.6664 17.0131 22.4838 14.5729C22.9296 13.9198 23.3754 13.5074 23.684 13.7136Z" fill="#F0CE88"/>
</g>
<defs>
<clipPath id="clip0_7390_5619">
<rect width="34.2222" height="42" fill="white" transform="matrix(-1 0 0 1 35 0)"/>
</clipPath>
</defs>
</svg>
