<svg width="40" height="40" viewBox="0 0 40 40" fill="none" xmlns="http://www.w3.org/2000/svg">
<g clip-path="url(#clip0_5903_4188)">
<path d="M22 10L18 10L18 22L22 22L22 10ZM20 26C19.4333 26 18.958 26.192 18.574 26.576C18.19 26.96 17.9987 27.4347 18 28C18 28.5667 18.192 29.0413 18.576 29.424C18.96 29.8067 19.4347 29.9987 20 30C20.5667 30 21.0413 29.808 21.424 29.424C21.8067 29.04 21.9987 28.5653 22 28C22 27.4333 21.808 26.958 21.424 26.574C21.04 26.19 20.5653 25.9987 20 26ZM20 5.56315e-06C22.7667 5.32128e-06 25.3667 0.525338 27.8 1.57601C30.2333 2.62667 32.35 4.05134 34.15 5.85C35.95 7.65 37.3747 9.76667 38.424 12.2C39.4733 14.6333 39.9987 17.2333 40 20C40 22.7667 39.4747 25.3667 38.424 27.8C37.3733 30.2333 35.9487 32.35 34.15 34.15C32.35 35.95 30.2333 37.3747 27.8 38.424C25.3667 39.4733 22.7667 39.9987 20 40C17.2333 40 14.6333 39.4747 12.2 38.424C9.76667 37.3733 7.65 35.9487 5.85 34.15C4.05 32.35 2.62467 30.2333 1.574 27.8C0.523337 25.3667 -0.00132902 22.7667 2.06624e-06 20C1.82437e-06 17.2333 0.525335 14.6333 1.576 12.2C2.62667 9.76667 4.05133 7.65 5.85 5.85001C7.65 4.05001 9.76667 2.62467 12.2 1.57401C14.6333 0.523341 17.2333 -0.00132552 20 5.56315e-06Z" fill="#ED2C23"/>
</g>
<defs>
<clipPath id="clip0_5903_4188">
<rect width="40" height="40" fill="white" transform="translate(40 40) rotate(180)"/>
</clipPath>
</defs>
</svg>
