<svg width="7" height="7" viewBox="0 0 7 7" fill="none" xmlns="http://www.w3.org/2000/svg">
<path d="M0.164505 0.28986C0.269974 0.184523 0.412942 0.125355 0.562005 0.125355C0.711068 0.125355 0.854036 0.184523 0.959505 0.28986L3.37451 2.70486L5.78951 0.28986C5.85826 0.215817 5.94571 0.161688 6.04265 0.133178C6.13958 0.104667 6.24242 0.10283 6.34031 0.12786C6.4382 0.15289 6.52753 0.20386 6.59889 0.2754C6.67024 0.346941 6.72098 0.436403 6.74576 0.53436C6.77082 0.632143 6.76907 0.734871 6.74069 0.831744C6.71232 0.928617 6.65836 1.01605 6.58451 1.08486L4.16951 3.49986L6.58451 5.91486C6.65855 5.98361 6.71268 6.07107 6.74119 6.168C6.7697 6.26494 6.77154 6.36777 6.74651 6.46566C6.72148 6.56356 6.67051 6.65289 6.59897 6.72424C6.52742 6.7956 6.43796 6.84633 6.34001 6.87111C6.24222 6.89617 6.13949 6.89442 6.04262 6.86605C5.94575 6.83767 5.85831 6.78372 5.78951 6.70986L3.37451 4.29486L0.959505 6.70986C0.852809 6.80917 0.71177 6.86324 0.566032 6.86073C0.420295 6.85821 0.281207 6.79929 0.178005 6.69636C0.0750726 6.59316 0.016156 6.45407 0.0136385 6.30833C0.011121 6.1626 0.0651986 6.02156 0.164505 5.91486L2.5795 3.49986L0.164505 1.08486C0.0591672 0.979392 0 0.836423 0 0.68736C0 0.538297 0.0591672 0.395329 0.164505 0.28986Z" fill="#ED2C23"/>
</svg>
