<svg width="18" height="18" viewBox="0 0 18 18" fill="none" xmlns="http://www.w3.org/2000/svg">
<path d="M9.00008 15.6667C12.6667 15.6667 15.6667 12.6667 15.6667 9.00008C15.6667 5.33342 12.6667 2.33341 9.00008 2.33341C5.33342 2.33341 2.33341 5.33342 2.33341 9.00008C2.33341 12.6667 5.33342 15.6667 9.00008 15.6667ZM9.00008 0.666748C13.5834 0.666748 17.3334 4.41675 17.3334 9.00008C17.3334 13.5834 13.5834 17.3334 9.00008 17.3334C4.41675 17.3334 0.666748 13.5834 0.666748 9.00008C0.666748 4.41675 4.41675 0.666748 9.00008 0.666748ZM13.1667 10.5834L12.5834 11.6667L8.16675 9.25008V4.83342H9.41675V8.50008L13.1667 10.5834Z" fill="black"/>
</svg>
