<svg width="9" height="11" viewBox="0 0 9 11" fill="none" xmlns="http://www.w3.org/2000/svg">
<path d="M8.28125 4.12512C8.28184 3.48784 8.12136 2.86074 7.81471 2.30209C7.50806 1.74344 7.06519 1.27136 6.52724 0.929691C5.98928 0.588028 5.37371 0.387869 4.73769 0.347811C4.10167 0.307752 3.46584 0.429092 2.88927 0.70056C2.3127 0.972028 1.8141 1.38482 1.43977 1.90058C1.06545 2.41634 0.827559 3.01834 0.748191 3.65066C0.668822 4.28298 0.750556 4.9251 0.985798 5.51737C1.22104 6.10964 1.60216 6.63285 2.09375 7.0384V10.3126C2.0934 10.3713 2.10826 10.429 2.13687 10.4802C2.16549 10.5314 2.20689 10.5744 2.25703 10.6048C2.30677 10.6361 2.36369 10.6541 2.42237 10.6571C2.48104 10.6601 2.53951 10.648 2.59219 10.622L4.5 9.66379L6.40781 10.622C6.4566 10.6436 6.50917 10.6552 6.5625 10.6564C6.65367 10.6564 6.7411 10.6201 6.80557 10.5557C6.87003 10.4912 6.90625 10.4038 6.90625 10.3126V7.0384C7.33628 6.68441 7.6826 6.2396 7.92034 5.7359C8.15807 5.2322 8.28133 4.6821 8.28125 4.12512ZM1.40625 4.12512C1.40625 3.51323 1.58769 2.91508 1.92764 2.40632C2.26759 1.89756 2.75076 1.50102 3.31607 1.26686C3.88138 1.0327 4.50343 0.971438 5.10356 1.09081C5.70369 1.21018 6.25494 1.50484 6.68761 1.9375C7.12028 2.37017 7.41493 2.92143 7.5343 3.52155C7.65368 4.12168 7.59241 4.74373 7.35825 5.30904C7.12409 5.87435 6.72756 6.35753 6.21879 6.69748C5.71003 7.03742 5.11189 7.21887 4.5 7.21887C3.67983 7.21773 2.89359 6.89142 2.31364 6.31147C1.7337 5.73153 1.40739 4.94528 1.40625 4.12512ZM6.21875 9.75832L4.65469 8.97199C4.60643 8.94876 4.55356 8.9367 4.5 8.9367C4.44644 8.9367 4.39357 8.94876 4.34531 8.97199L2.78125 9.75832V7.49387C3.31357 7.76513 3.90254 7.90654 4.5 7.90654C5.09745 7.90654 5.68643 7.76513 6.21875 7.49387V9.75832ZM4.5 6.53137C4.97591 6.53137 5.44113 6.39024 5.83684 6.12584C6.23255 5.86144 6.54096 5.48563 6.72308 5.04595C6.90521 4.60626 6.95286 4.12245 6.86001 3.65568C6.76717 3.18891 6.53799 2.76016 6.20148 2.42364C5.86495 2.08712 5.4362 1.85795 4.96944 1.7651C4.50267 1.67226 4.01885 1.71991 3.57917 1.90203C3.13948 2.08415 2.76368 2.39257 2.49928 2.78827C2.23487 3.18398 2.09375 3.6492 2.09375 4.12512C2.09375 4.76329 2.34726 5.37533 2.79852 5.82659C3.24978 6.27785 3.86182 6.53137 4.5 6.53137ZM4.5 2.40637C4.83994 2.40637 5.17224 2.50717 5.45489 2.69603C5.73753 2.88489 5.95783 3.15332 6.08792 3.46738C6.21801 3.78144 6.25204 4.12702 6.18572 4.46043C6.11941 4.79383 5.95571 5.10008 5.71534 5.34046C5.47497 5.58083 5.16872 5.74452 4.83531 5.81084C4.50191 5.87716 4.15632 5.84312 3.84226 5.71303C3.5282 5.58295 3.25977 5.36265 3.07091 5.08C2.88205 4.79736 2.78125 4.46505 2.78125 4.12512C2.78238 3.66962 2.96383 3.23311 3.28591 2.91103C3.608 2.58895 4.04451 2.4075 4.5 2.40637Z" fill="black"/>
</svg>
