<svg width="15" height="20" viewBox="0 0 15 20" fill="none" xmlns="http://www.w3.org/2000/svg">
<path d="M15 7.33685C15.0012 6.10147 14.6829 4.88584 14.0746 3.80289C13.4664 2.71994 12.588 1.8048 11.521 1.14248C10.454 0.480161 9.23297 0.0921513 7.97144 0.0144971C6.70992 -0.063157 5.44877 0.172063 4.30516 0.698306C3.16155 1.22455 2.17259 2.02474 1.43013 3.02455C0.687676 4.02436 0.215819 5.19135 0.0583945 6.41711C-0.0990298 7.64286 0.0630858 8.88762 0.529681 10.0357C0.996277 11.1839 1.75221 12.1981 2.72727 12.9843V19.3314C2.72658 19.4451 2.75605 19.557 2.81281 19.6563C2.86957 19.7556 2.95168 19.8388 3.05113 19.8978C3.14979 19.9584 3.2627 19.9933 3.37908 19.9991C3.49546 20.005 3.61142 19.9815 3.71591 19.9311L7.5 18.0736L11.2841 19.9311C11.3809 19.9729 11.4851 19.9956 11.5909 19.9977C11.7717 19.9977 11.9452 19.9275 12.073 19.8026C12.2009 19.6776 12.2727 19.5081 12.2727 19.3314V12.9843C13.1257 12.2981 13.8126 11.4358 14.2841 10.4594C14.7557 9.48293 15.0001 8.41657 15 7.33685ZM1.36363 7.33685C1.36363 6.1507 1.72353 4.99119 2.3978 4.00494C3.07207 3.0187 4.03044 2.25001 5.15171 1.79609C6.27299 1.34217 7.5068 1.22341 8.69714 1.45481C9.88748 1.68622 10.9809 2.2574 11.8391 3.09614C12.6972 3.93487 13.2817 5.00348 13.5185 6.16684C13.7552 7.33019 13.6337 8.53604 13.1693 9.6319C12.7048 10.7278 11.9183 11.6644 10.9092 12.3234C9.90006 12.9824 8.71366 13.3341 7.5 13.3341C5.87323 13.3319 4.31373 12.6994 3.16342 11.5751C2.01312 10.4509 1.36589 8.92674 1.36363 7.33685ZM10.9091 18.2569L7.80682 16.7326C7.7111 16.6875 7.60623 16.6642 7.5 16.6642C7.39377 16.6642 7.2889 16.6875 7.19318 16.7326L4.09091 18.2569V13.8672C5.14676 14.3931 6.31496 14.6672 7.5 14.6672C8.68503 14.6672 9.85324 14.3931 10.9091 13.8672V18.2569ZM7.5 12.0014C8.44395 12.0014 9.36671 11.7278 10.1516 11.2153C10.9365 10.7027 11.5482 9.97422 11.9094 9.12189C12.2707 8.26956 12.3652 7.33167 12.181 6.42684C11.9969 5.52201 11.5423 4.69086 10.8748 4.03852C10.2073 3.38617 9.35693 2.94191 8.43111 2.76193C7.50529 2.58195 6.54566 2.67432 5.67355 3.02737C4.80145 3.38042 4.05605 3.97828 3.53162 4.74536C3.00719 5.51244 2.72727 6.41429 2.72727 7.33685C2.72727 8.57396 3.23011 9.7604 4.12517 10.6352C5.02023 11.5099 6.23419 12.0014 7.5 12.0014ZM7.5 4.00503C8.17425 4.00503 8.83336 4.20044 9.39399 4.56654C9.95461 4.93265 10.3916 5.45301 10.6496 6.06181C10.9076 6.67062 10.9751 7.34054 10.8436 7.98685C10.712 8.63316 10.3874 9.22683 9.91059 9.6928C9.43382 10.1588 8.82638 10.4761 8.16508 10.6046C7.50378 10.7332 6.81833 10.6672 6.1954 10.415C5.57247 10.1629 5.04004 9.73582 4.66544 9.1879C4.29085 8.63999 4.09091 7.99582 4.09091 7.33685C4.09316 6.45387 4.45305 5.60769 5.09189 4.98333C5.73073 4.35896 6.59654 4.00723 7.5 4.00503Z" fill="#808080"/>
</svg>
