<svg width="17" height="16" viewBox="0 0 17 16" fill="none" xmlns="http://www.w3.org/2000/svg">
<circle cx="8.5" cy="7.50012" r="6.5" fill="#2E6491"/>
<path d="M12.0057 6.00309L12.0078 6.00521L12.0078 6.00523C12.0832 6.0852 12.125 6.19117 12.125 6.30112C12.125 6.41106 12.0832 6.51703 12.0078 6.597L8.80904 9.99138C8.80904 9.99138 8.80904 9.99138 8.80904 9.99138C8.76931 10.0335 8.72145 10.0672 8.66831 10.0902C8.61517 10.1132 8.5579 10.1251 8.5 10.1251C8.4421 10.1251 8.38483 10.1132 8.33169 10.0902C8.27855 10.0672 8.23069 10.0335 8.19096 9.99138C8.19096 9.99138 8.19096 9.99138 8.19096 9.99138M12.0057 6.00309L8.28193 9.90565L8.19096 9.99138M12.0057 6.00309L12.0031 6.00047L12.0057 6.00309ZM8.19096 9.99138L4.99224 6.597L8.19096 9.99138ZM4.99691 6.00046L4.99431 6.00308L4.99429 6.00306L4.99224 6.00523C4.91684 6.0852 4.875 6.19117 4.875 6.30111C4.875 6.41105 4.91683 6.51701 4.99222 6.59697L5.0868 6.08733M4.99691 6.00046C4.99651 6.00089 4.99611 6.00131 4.99571 6.00173L5.0868 6.08733M4.99691 6.00046L4.99793 5.99943L5.0868 6.08733M4.99691 6.00046C5.03416 5.96116 5.07894 5.92975 5.12862 5.90818C5.17883 5.88638 5.23296 5.87512 5.2877 5.87512C5.34244 5.87512 5.39657 5.88638 5.44679 5.90818C5.49696 5.92996 5.54213 5.96177 5.5796 6.00162M5.0868 6.08733C5.11269 6.05978 5.14385 6.03784 5.17839 6.02284C5.21293 6.00785 5.25012 6.00012 5.2877 6.00012C5.32529 6.00012 5.36248 6.00785 5.39702 6.02284C5.43156 6.03784 5.46272 6.05978 5.4886 6.08733L5.5796 6.00162M5.5796 6.00162L5.5797 6.00173M5.5796 6.00162L5.5797 6.00173M5.5797 6.00173L8.49942 9.10149L11.4203 6.00173L11.4204 6.0016L11.5114 6.08733C11.5373 6.05978 11.5684 6.03784 11.603 6.02285C11.6375 6.00785 11.6747 6.00012 11.7123 6.00012C11.7499 6.00012 11.7871 6.00785 11.8216 6.02285L5.5797 6.00173Z" fill="white" stroke="white" stroke-width="0.25"/>
</svg>
