<svg width="21" height="21" viewBox="0 0 21 21" fill="none" xmlns="http://www.w3.org/2000/svg">
<path d="M4.37494 18.325L4.375 18.325L16.625 18.325C17.0929 18.325 17.4923 18.1589 17.826 17.8251C18.1597 17.4914 18.3256 17.0923 18.325 16.6251L18.325 16.625L18.325 10.55L16.675 10.55L16.675 16.625L16.675 16.675L16.625 16.675L4.375 16.675L4.325 16.675L4.325 16.625L4.325 10.55L2.675 10.55L2.675 16.625C2.675 17.0929 2.84115 17.4923 3.17485 17.826C3.50856 18.1597 3.90769 18.3256 4.37494 18.325Z" fill="black" stroke="white" stroke-width="0.1"/>
<path d="M11.2 11.1531V4.05H9.55V11.1531V11.2738L9.46464 11.1885L7.26782 8.99166L6.07166 10.126L10.375 14.4293L14.6783 10.126L13.4822 8.99166L11.2854 11.1885L11.2 11.2738V11.1531Z" fill="black" stroke="white" stroke-width="0.1"/>
</svg>
