<svg width="20" height="22" viewBox="0 0 20 22" fill="none" xmlns="http://www.w3.org/2000/svg">
<path d="M1.63711 19.3146H2.83765L14.925 6.60084L13.7244 5.33807L1.63711 18.0519V19.3146ZM18.3902 5.36677L14.8977 1.69326L16.0437 0.487888C16.3529 0.162629 16.7349 0 17.1896 0C17.6444 0 18.0264 0.162629 18.3356 0.487888L19.5362 1.75066C19.8454 2.07592 20 2.47771 20 2.95603C20 3.43435 19.8454 3.83614 19.5362 4.1614L18.3902 5.36677ZM17.2442 6.57214L3.4925 21.0366H0V17.3631L13.7517 2.89863L17.2442 6.57214ZM14.3247 5.96945L13.7244 5.33807L14.925 6.60084L14.3247 5.96945Z" fill="#1C5D95"/>
</svg>
