<svg width="23" height="23" viewBox="0 0 23 23" fill="none" xmlns="http://www.w3.org/2000/svg">
<ellipse cx="11.5" cy="11.1331" rx="11.5" ry="11.1331" fill="#1C5D95"/>
<path d="M16.7639 6.92762C16.4038 6.57901 15.9154 6.38316 15.4061 6.38316C14.8968 6.38316 14.4084 6.57901 14.0483 6.92762L7.6341 13.1372C7.41601 13.3484 7.26274 13.6141 7.19135 13.9046L6.6037 16.295C6.58779 16.3598 6.58928 16.4274 6.60803 16.4915C6.62678 16.5555 6.66217 16.6138 6.71082 16.6609C6.75947 16.7079 6.81976 16.7421 6.88593 16.7602C6.95211 16.7783 7.02197 16.7797 7.08884 16.7642L9.55805 16.1948C9.85814 16.1257 10.1325 15.9773 10.3507 15.7661L16.7639 9.55652C17.124 9.20791 17.3263 8.73509 17.3263 8.24207C17.3263 7.74906 17.124 7.27624 16.7639 6.92762ZM14.6172 7.47834C14.7208 7.37804 14.8438 7.29849 14.9792 7.24421C15.1145 7.18993 15.2596 7.16199 15.4061 7.16199C15.5526 7.16199 15.6977 7.18993 15.8331 7.24421C15.9684 7.29849 16.0914 7.37804 16.195 7.47834C16.2986 7.57863 16.3808 7.6977 16.4369 7.82874C16.4929 7.95978 16.5218 8.10023 16.5218 8.24207C16.5218 8.38391 16.4929 8.52436 16.4369 8.6554C16.3808 8.78644 16.2986 8.90551 16.195 9.00581L15.7163 9.46872L14.1385 7.94177L14.6172 7.47938V7.47834ZM13.5696 8.49353L15.1474 10.02L9.78076 15.2154C9.66806 15.3245 9.52638 15.4009 9.37129 15.4368L7.53803 15.8591L7.97434 14.0844C8.01137 13.9347 8.0908 13.7971 8.2035 13.688L13.5696 8.49249V8.49353Z" fill="white"/>
</svg>
