<svg width="86" height="86" viewBox="0 0 86 86" fill="none" xmlns="http://www.w3.org/2000/svg">
<path d="M43 5.375C52.9788 5.375 62.5488 9.33905 69.6049 16.3951C76.6609 23.4512 80.625 33.0212 80.625 43C80.625 52.9788 76.6609 62.5488 69.6049 69.6049C62.5488 76.6609 52.9788 80.625 43 80.625C33.0212 80.625 23.4512 76.6609 16.3951 69.6049C9.33905 62.5488 5.375 52.9788 5.375 43C5.375 33.0212 9.33905 23.4512 16.3951 16.3951C23.4512 9.33905 33.0212 5.375 43 5.375ZM38.313 50.4229L29.9549 42.0594C29.6552 41.7597 29.2995 41.5221 28.908 41.3599C28.5165 41.1977 28.0969 41.1143 27.6732 41.1143C27.2494 41.1143 26.8298 41.1977 26.4383 41.3599C26.0469 41.5221 25.6911 41.7597 25.3915 42.0594C24.7864 42.6645 24.4464 43.4853 24.4464 44.3411C24.4464 45.1969 24.7864 46.0176 25.3915 46.6227L36.034 57.2653C36.3328 57.5664 36.6882 57.8054 37.0798 57.9685C37.4715 58.1316 37.8915 58.2156 38.3157 58.2156C38.7399 58.2156 39.1599 58.1316 39.5515 57.9685C39.9431 57.8054 40.2986 57.5664 40.5974 57.2653L62.6349 35.2224C62.9385 34.924 63.1801 34.5684 63.3456 34.1762C63.5112 33.784 63.5974 33.3629 63.5994 32.9372C63.6014 32.5115 63.519 32.0896 63.3571 31.6958C63.1953 31.3021 62.957 30.9443 62.6562 30.6431C62.3553 30.3419 61.9978 30.1032 61.6043 29.9409C61.2107 29.7785 60.7889 29.6957 60.3632 29.6972C59.9375 29.6987 59.5163 29.7844 59.1239 29.9495C58.7315 30.1146 58.3756 30.3557 58.0769 30.659L38.313 50.4229Z" fill="#76DB74"/>
</svg>
