<svg width="13" height="14" viewBox="0 0 13 14" fill="none" xmlns="http://www.w3.org/2000/svg">
<path d="M10.122 7.65932L10.2104 7.57096C10.3667 7.41474 10.5786 7.32697 10.7996 7.32697C11.0205 7.32697 11.2324 7.41472 11.3887 7.57093L10.122 7.65932ZM10.122 7.65932L10.2104 7.74772M10.122 7.65932L10.2104 7.74772M10.2104 7.74772L11.212 8.75001L11.3003 8.83842M10.2104 7.74772L11.3003 8.83842M11.3003 8.83842L11.3887 8.75009M11.3003 8.83842L11.3887 8.75009M11.3887 8.75009C11.4662 8.6727 11.5277 8.58079 11.5696 8.47963M11.3887 8.75009L11.5696 8.47963M11.5696 8.47963C11.6115 8.37846 11.6331 8.27002 11.6331 8.16051M11.5696 8.47963L11.6331 8.16051M11.6331 8.16051C11.6331 8.051 11.6115 7.94256 11.5696 7.84139M11.6331 8.16051L11.5696 7.84139M11.5696 7.84139C11.5277 7.74024 11.4662 7.64835 11.3888 7.57096L11.5696 7.84139ZM1.41667 12.4583V12.5833H1.54167H3.54167V13.75H1.54167C1.1991 13.75 0.870555 13.6139 0.62832 13.3717C0.386086 13.1294 0.25 12.8009 0.25 12.4583V1.83332C0.25 1.49075 0.386086 1.16221 0.62832 0.919977C0.870555 0.677742 1.1991 0.541656 1.54167 0.541656H10.0417C10.3842 0.541656 10.7128 0.677742 10.955 0.919977C11.1972 1.16221 11.3333 1.49075 11.3333 1.83332V4.54166H10.1667V1.83332V1.70832H10.0417H1.54167H1.41667V1.83332V12.4583ZM8.20723 13.5819L8.20722 13.5819C8.09786 13.6913 7.94952 13.7528 7.79483 13.7528C7.79482 13.7528 7.79482 13.7528 7.79481 13.7528H5.79096C5.63625 13.7528 5.48788 13.6914 5.37848 13.582C5.26908 13.4726 5.20762 13.3242 5.20762 13.1695V11.1656C5.20762 11.1656 5.20762 11.1656 5.20762 11.1656C5.20766 11.0109 5.26914 10.8626 5.37854 10.7532L5.37856 10.7532L9.38486 6.7469C9.38499 6.74677 9.38511 6.74665 9.38524 6.74653C9.76135 6.37678 10.2683 6.17055 10.7957 6.17276C11.3233 6.17497 11.8287 6.38558 12.2017 6.7587C12.5748 7.13182 12.7852 7.63723 12.7873 8.16484C12.7894 8.69228 12.5831 9.19919 12.2132 9.57521C12.2131 9.57533 12.213 9.57545 12.2129 9.57556L8.20723 13.5819ZM10.3872 9.75163L10.4756 9.66324L10.3872 9.57485L9.3856 8.57327L9.29721 8.48488L9.20882 8.57327L6.4109 11.3712L6.37429 11.4078V11.4596V12.4612V12.5862H6.49929H7.50088H7.55265L7.58926 12.5495L10.3872 9.75163ZM3.25419 4.25418C3.36358 4.14478 3.51196 4.08332 3.66667 4.08332H6.5C6.65471 4.08332 6.80308 4.14478 6.91248 4.25418C7.02188 4.36357 7.08333 4.51195 7.08333 4.66666C7.08333 4.82137 7.02188 4.96974 6.91248 5.07913C6.80308 5.18853 6.65471 5.24999 6.5 5.24999H3.66667C3.51196 5.24999 3.36358 5.18853 3.25419 5.07913C3.14479 4.96974 3.08333 4.82137 3.08333 4.66666C3.08333 4.51195 3.14479 4.36357 3.25419 4.25418Z" fill="white" stroke="#1C5D95" stroke-width="0.25"/>
</svg>
