<svg width="19" height="17" viewBox="0 0 19 17" fill="none" xmlns="http://www.w3.org/2000/svg">
<path d="M9.74121 0.0849609C9.867 0.0850324 9.99012 0.116162 10.0996 0.174805L10.2041 0.243164L17.1152 5.57812C17.3713 5.77587 17.5848 6.02187 17.7432 6.30176L17.8076 6.42383C17.9704 6.75454 18.0549 7.1183 18.0547 7.48633V15.0049C18.0547 15.372 17.926 15.7262 17.6934 16.0078L17.5879 16.124C17.2889 16.4207 16.883 16.5869 16.46 16.5869H13.1006C12.7304 16.5869 12.3736 16.4592 12.0898 16.2285L11.9727 16.124C11.6736 15.8273 11.5059 15.4243 11.5059 15.0049V9.91895H7.97559V15.0049C7.97559 15.3719 7.8477 15.7262 7.61523 16.0078L7.50879 16.124C7.20979 16.4206 6.80386 16.5869 6.38086 16.5869H3.02148C2.65122 16.5869 2.29449 16.4593 2.01074 16.2285L1.89355 16.124C1.59454 15.8273 1.42676 15.4243 1.42676 15.0049V7.48633C1.42676 6.78604 1.73206 6.12524 2.25977 5.66699L2.36816 5.57812L9.27734 0.243164C9.40984 0.140896 9.57319 0.0849609 9.74121 0.0849609ZM9.68848 1.82227L3.29395 6.75879C3.21045 6.82325 3.13872 6.90115 3.08203 6.98926L3.03027 7.08105C2.96833 7.20719 2.93615 7.34595 2.93652 7.48633V15.0898H6.46582V10.0039C6.46582 9.63689 6.59466 9.28255 6.82715 9.00098L6.93262 8.88477C7.23155 8.58808 7.63753 8.42199 8.06055 8.42188H11.4209C11.7912 8.42195 12.1479 8.54946 12.4316 8.78027L12.5488 8.88477C12.8478 9.18153 13.0156 9.58451 13.0156 10.0039V15.0898H16.5449V7.48633L16.5391 7.38184C16.5312 7.31225 16.5157 7.24374 16.4922 7.17773L16.4512 7.08105C16.4048 6.98671 16.3426 6.90124 16.2676 6.82812L16.1875 6.75879L9.82617 1.84961V1.7168L9.68848 1.82227Z" fill="#1C5D95" stroke="white" stroke-width="0.17"/>
</svg>
