<svg width="18" height="17" viewBox="0 0 18 17" fill="none" xmlns="http://www.w3.org/2000/svg">
<path d="M9.29663 0.0498047C9.42832 0.0498762 9.557 0.0830706 9.67163 0.144531L9.78101 0.214844L16.6921 5.5498C16.9521 5.7505 17.1681 6.00098 17.3289 6.28516L17.3943 6.4082C17.5595 6.74373 17.6455 7.11293 17.6453 7.48633V15.0049C17.6453 15.3802 17.5139 15.7424 17.2761 16.0303L17.1677 16.1484C16.8621 16.4517 16.4477 16.6221 16.0154 16.6221H12.656C12.2777 16.6221 11.9128 16.4917 11.6228 16.2559L11.5037 16.1484C11.1981 15.8451 11.0261 15.4337 11.0261 15.0049V9.95312H7.56616V15.0049C7.56616 15.3803 7.43484 15.7424 7.19702 16.0303L7.0896 16.1484C6.78398 16.4518 6.36865 16.6221 5.93628 16.6221H2.5769C2.19854 16.622 1.83371 16.4918 1.5437 16.2559L1.42456 16.1484C1.11896 15.8451 0.947021 15.4337 0.947021 15.0049V7.48633C0.947021 6.77591 1.25667 6.10543 1.79175 5.64062L1.9021 5.5498L8.81128 0.214844C8.94988 0.107948 9.12099 0.0498047 9.29663 0.0498047ZM9.26538 1.84961L2.87085 6.78613C2.79037 6.84827 2.72132 6.92384 2.66675 7.00879L2.61694 7.09668C2.55737 7.218 2.52673 7.35133 2.5271 7.48633V15.0547H5.98706V10.0039C5.98706 9.62872 6.11764 9.2663 6.35522 8.97852L6.46362 8.86035C6.76914 8.55713 7.18375 8.38683 7.61597 8.38672H10.9763C11.3544 8.38679 11.7187 8.51728 12.0085 8.75293L12.1287 8.86035C12.4342 9.16365 12.6062 9.57519 12.6062 10.0039V15.0547H16.0652V7.48633L16.0603 7.38574C16.0528 7.31878 16.037 7.25297 16.0144 7.18945L15.9753 7.09668C15.9307 7.00572 15.871 6.923 15.7986 6.85254L15.7214 6.78613L9.34644 1.86621V1.78809L9.26538 1.84961Z" fill="white" stroke="#1C5D95" stroke-width="0.1"/>
</svg>
