<svg width="20" height="20" viewBox="0 0 20 20" fill="none" xmlns="http://www.w3.org/2000/svg">
<path d="M16.6667 10.0003V4.79116C16.6668 4.72538 16.6538 4.66024 16.6287 4.59946C16.6035 4.53869 16.5666 4.48348 16.52 4.43699L13.8967 1.81366C13.803 1.71986 13.6759 1.66711 13.5434 1.66699H3.83337C3.70077 1.66699 3.57359 1.71967 3.47982 1.81344C3.38605 1.90721 3.33337 2.03438 3.33337 2.16699V17.8337C3.33337 17.9663 3.38605 18.0934 3.47982 18.1872C3.57359 18.281 3.70077 18.3337 3.83337 18.3337H9.16671M6.66671 8.33366H13.3334M6.66671 5.00033H10M6.66671 11.667H9.16671M17.0834 17.0837L18.3334 18.3337" stroke="#808080" stroke-linecap="round" stroke-linejoin="round"/>
<path d="M13.3333 1.66699V4.50033C13.3333 4.63293 13.386 4.76011 13.4798 4.85388C13.5735 4.94765 13.7007 5.00033 13.8333 5.00033H16.6667M12.5 15.0003C12.5 15.6634 12.7634 16.2993 13.2322 16.7681C13.7011 17.2369 14.337 17.5003 15 17.5003C15.663 17.5003 16.2989 17.2369 16.7678 16.7681C17.2366 16.2993 17.5 15.6634 17.5 15.0003C17.5 14.3373 17.2366 13.7014 16.7678 13.2326C16.2989 12.7637 15.663 12.5003 15 12.5003C14.337 12.5003 13.7011 12.7637 13.2322 13.2326C12.7634 13.7014 12.5 14.3373 12.5 15.0003Z" stroke="#808080" stroke-linecap="round" stroke-linejoin="round"/>
</svg>
