<svg width="93" height="93" viewBox="0 0 93 93" fill="none" xmlns="http://www.w3.org/2000/svg">
<path d="M46.5 8C50.0342 8 53.443 8.45117 56.7266 9.35352C60.0101 10.2559 63.068 11.5592 65.9004 13.2637C68.7327 14.9681 71.327 16.9733 73.6831 19.2793C76.0392 21.5853 78.057 24.1795 79.7363 27.062C81.4157 29.9445 82.7065 33.015 83.6089 36.2734C84.5112 39.5319 84.9749 42.9408 85 46.5C85 50.0342 84.5488 53.443 83.6465 56.7266C82.7441 60.0101 81.4408 63.068 79.7363 65.9004C78.0319 68.7327 76.0267 71.327 73.7207 73.6831C71.4147 76.0392 68.8205 78.057 65.938 79.7363C63.0555 81.4157 59.985 82.7065 56.7266 83.6089C53.4681 84.5112 50.0592 84.9749 46.5 85C42.9658 85 39.557 84.5488 36.2734 83.6465C32.9899 82.7441 29.932 81.4408 27.0996 79.7363C24.2673 78.0319 21.673 76.0267 19.3169 73.7207C16.9608 71.4147 14.943 68.8205 13.2637 65.938C11.5843 63.0555 10.2935 59.985 9.39111 56.7266C8.48877 53.4681 8.02507 50.0592 8 46.5C8 42.9658 8.45117 39.557 9.35352 36.2734C10.2559 32.9899 11.5592 29.932 13.2637 27.0996C14.9681 24.2673 16.9733 21.673 19.2793 19.3169C21.5853 16.9608 24.1795 14.943 27.062 13.2637C29.9445 11.5843 33.015 10.2935 36.2734 9.39111C39.5319 8.48877 42.9408 8.02507 46.5 8ZM69.1714 33.7544L64.0581 28.6411L39.2812 53.418L28.9419 43.0786L23.8286 48.1919L39.2812 63.6445L69.1714 33.7544Z" fill="#6B9647"/>
</svg>
