<svg width="23" height="23" viewBox="0 0 23 23" fill="none" xmlns="http://www.w3.org/2000/svg">
<path d="M8.625 5.03125C8.81562 5.03125 8.99844 5.10698 9.13323 5.24177C9.26802 5.37656 9.34375 5.55938 9.34375 5.75V17.25C9.34375 17.4406 9.26802 17.6234 9.13323 17.7582C8.99844 17.893 8.81562 17.9688 8.625 17.9688C8.43438 17.9688 8.25156 17.893 8.11677 17.7582C7.98198 17.6234 7.90625 17.4406 7.90625 17.25V5.75C7.90625 5.55938 7.98198 5.37656 8.11677 5.24177C8.25156 5.10698 8.43438 5.03125 8.625 5.03125ZM14.375 5.03125C14.5656 5.03125 14.7484 5.10698 14.8832 5.24177C15.018 5.37656 15.0938 5.55938 15.0938 5.75V17.25C15.0938 17.4406 15.018 17.6234 14.8832 17.7582C14.7484 17.893 14.5656 17.9688 14.375 17.9688C14.1844 17.9688 14.0016 17.893 13.8668 17.7582C13.732 17.6234 13.6562 17.4406 13.6562 17.25V5.75C13.6562 5.55938 13.732 5.37656 13.8668 5.24177C14.0016 5.10698 14.1844 5.03125 14.375 5.03125Z" fill="#1C5D95"/>
</svg>
