<svg width="23" height="23" viewBox="0 0 23 23" fill="none" xmlns="http://www.w3.org/2000/svg">
<path d="M18.6875 2.33594H6.46875C5.75391 2.33594 5.06835 2.61991 4.56288 3.12538C4.05741 3.63085 3.77344 4.31641 3.77344 5.03125V20.125C3.77344 20.268 3.83023 20.4051 3.93133 20.5062C4.03242 20.6073 4.16953 20.6641 4.3125 20.6641H17.25C17.393 20.6641 17.5301 20.6073 17.6312 20.5062C17.7323 20.4051 17.7891 20.268 17.7891 20.125C17.7891 19.982 17.7323 19.8449 17.6312 19.7438C17.5301 19.6427 17.393 19.5859 17.25 19.5859H4.85156V19.4062C4.85156 18.9773 5.02194 18.566 5.32523 18.2627C5.62851 17.9594 6.03985 17.7891 6.46875 17.7891H18.6875C18.8305 17.7891 18.9676 17.7323 19.0687 17.6312C19.1698 17.5301 19.2266 17.393 19.2266 17.25V2.875C19.2266 2.73203 19.1698 2.59492 19.0687 2.49383C18.9676 2.39273 18.8305 2.33594 18.6875 2.33594ZM18.1484 16.7109H6.46875C5.88543 16.7101 5.31771 16.8993 4.85156 17.25V5.03125C4.85156 4.60235 5.02194 4.19101 5.32523 3.88773C5.62851 3.58444 6.03985 3.41406 6.46875 3.41406H18.1484V16.7109Z" fill="black"/>
</svg>
