<svg version="1.1" xmlns="http://www.w3.org/2000/svg" xmlns:xlink="http://www.w3.org/1999/xlink" width="19" height="19" viewBox="0,0,256,256"><g fill="#ffffff" fill-rule="nonzero" stroke="none" stroke-width="1" stroke-linecap="butt" stroke-linejoin="miter" stroke-miterlimit="10" stroke-dasharray="" stroke-dashoffset="0" font-family="none" font-weight="none" font-size="none" text-anchor="none" style="mix-blend-mode: normal"><g transform="translate(256.00021,255.99963) rotate(180) scale(13.47368,13.47368)"><path d="M15.9085,2.375c-0.1574,0 -0.3085,0.06255 -0.4198,0.1739c-0.1114,0.11135 -0.1739,0.26238 -0.1739,0.41985v13.06245c0,0.1575 0.0625,0.3085 0.1739,0.4199c0.1113,0.1113 0.2624,0.1739 0.4198,0.1739c0.1575,0 0.3085,-0.0626 0.4199,-0.1739c0.1113,-0.1114 0.1739,-0.2624 0.1739,-0.4199v-13.06245c0.001,-0.07827 -0.0136,-0.15596 -0.043,-0.22847c-0.0295,-0.07252 -0.0732,-0.1384 -0.1285,-0.19375c-0.0554,-0.05535 -0.1213,-0.09904 -0.1938,-0.1285c-0.0725,-0.02946 -0.1502,-0.0441 -0.2285,-0.04303zM13.2169,9.96629c0.0071,-0.27588 -0.05,-0.54963 -0.1668,-0.79968c-0.1168,-0.25004 -0.29,-0.46953 -0.5062,-0.64115l-7.21204,-5.61292c-0.25808,-0.19554 -0.56445,-0.31667 -0.88666,-0.34833h-0.18209c-0.27409,-0.00686 -0.54575,0.0529 -0.79166,0.17416c-0.29281,0.1429 -0.53966,0.36507 -0.7125,0.64125c-0.17211,0.27528 -0.26269,0.59369 -0.26125,0.91834v10.41044c0.00085,0.3122 0.08562,0.6184 0.24541,0.8866c0.16469,0.2667 0.39681,0.4851 0.67292,0.6334c0.27504,0.1486 0.58529,0.2198 0.89763,0.2059c0.31233,-0.014 0.61501,-0.1125 0.8757,-0.2851l7.22004,-4.8133c0.2295,-0.1512 0.4195,-0.3547 0.5541,-0.5938c0.1421,-0.2361 0.2287,-0.5014 0.2534,-0.77581z"></path></g></g></svg>