<svg version="1.1" xmlns="http://www.w3.org/2000/svg" xmlns:xlink="http://www.w3.org/1999/xlink" width="19" height="19" viewBox="0,0,256,256"><g fill="#1c5d95" fill-rule="nonzero" stroke="none" stroke-width="1" stroke-linecap="butt" stroke-linejoin="miter" stroke-miterlimit="10" stroke-dasharray="" stroke-dashoffset="0" font-family="none" font-weight="none" font-size="none" text-anchor="none" style="mix-blend-mode: normal"><g transform="translate(255.99987,256.00039) rotate(180) scale(13.47368,13.47368)"><path d="M3.09147,16.625c0.15747,0 0.30849,-0.0626 0.41984,-0.1739c0.11135,-0.1114 0.17391,-0.2624 0.17391,-0.4198v-13.06255c0,-0.15747 -0.06256,-0.30849 -0.17391,-0.41984c-0.11135,-0.11135 -0.26237,-0.17391 -0.41984,-0.17391c-0.15747,0 -0.3085,0.06256 -0.41985,0.17391c-0.11135,0.11135 -0.1739,0.26237 -0.1739,0.41984v13.06255c-0.00107,0.0782 0.01357,0.1559 0.04303,0.2284c0.02946,0.0725 0.07315,0.1384 0.1285,0.1938c0.05535,0.0553 0.12123,0.099 0.19375,0.1285c0.07252,0.0294 0.1502,0.0441 0.22847,0.043zM5.78314,9.03371c-0.00712,0.27588 0.04996,0.54963 0.16674,0.79968c0.11678,0.25001 0.29006,0.46951 0.50617,0.64111l7.21205,5.613c0.2581,0.1955 0.5645,0.3166 0.8867,0.3483h0.1821c0.2741,0.0069 0.5457,-0.0529 0.7917,-0.1742c0.2928,-0.1429 0.5396,-0.365 0.7125,-0.6412c0.1721,-0.2753 0.2626,-0.5937 0.2612,-0.9184v-10.41037c-0.0009,-0.31221 -0.0856,-0.61846 -0.2454,-0.88667c-0.1647,-0.26663 -0.3968,-0.4851 -0.6729,-0.63333c-0.2751,-0.14867 -0.5853,-0.21983 -0.8977,-0.20589c-0.3123,0.01394 -0.615,0.11247 -0.8757,0.28505l-7.21996,4.81334c-0.22959,0.1512 -0.41959,0.35466 -0.55417,0.59375c-0.14206,0.23611 -0.22868,0.50138 -0.25333,0.77583z"></path></g></g></svg>