<svg width="19" height="19" viewBox="0 0 19 19" fill="none" xmlns="http://www.w3.org/2000/svg">
<path d="M3.09147 16.625C3.24894 16.625 3.39996 16.5624 3.51131 16.4511C3.62266 16.3397 3.68522 16.1887 3.68522 16.0313L3.68522 2.96875C3.68522 2.81128 3.62266 2.66026 3.51131 2.54891C3.39996 2.43756 3.24894 2.375 3.09147 2.375C2.934 2.375 2.78297 2.43756 2.67162 2.54891C2.56027 2.66026 2.49772 2.81128 2.49772 2.96875L2.49772 16.0313C2.49665 16.1095 2.51129 16.1872 2.54075 16.2597C2.57021 16.3322 2.6139 16.3981 2.66925 16.4535C2.7246 16.5088 2.79048 16.5525 2.863 16.582C2.93552 16.6114 3.0132 16.6261 3.09147 16.625ZM5.78314 9.03371C5.77602 9.30959 5.8331 9.58334 5.94988 9.83339C6.06666 10.0834 6.23994 10.3029 6.45605 10.4745L13.6681 16.0875C13.9262 16.283 14.2326 16.4041 14.5548 16.4358L14.7369 16.4358C15.011 16.4427 15.2826 16.3829 15.5286 16.2616C15.8214 16.1187 16.0682 15.8966 16.2411 15.6204C16.4132 15.3451 16.5037 15.0267 16.5023 14.702L16.5023 4.29163C16.5014 3.97942 16.4167 3.67317 16.2569 3.40496C16.0922 3.13833 15.8601 2.91986 15.584 2.77163C15.3089 2.62296 14.9987 2.5518 14.6863 2.56574C14.374 2.57968 14.0713 2.67821 13.8106 2.85079L6.59064 7.66413C6.36105 7.81533 6.17105 8.01879 6.03647 8.25788C5.89441 8.49399 5.80779 8.75926 5.78314 9.03371Z" fill="#1C5D95"/>
</svg>
