<svg width="19" height="19" viewBox="0 0 19 19" fill="none" xmlns="http://www.w3.org/2000/svg">
<path d="M15.9085 2.375C15.7511 2.375 15.6 2.43755 15.4887 2.5489C15.3773 2.66025 15.3148 2.81128 15.3148 2.96875L15.3148 16.0312C15.3148 16.1887 15.3773 16.3397 15.4887 16.4511C15.6 16.5624 15.7511 16.625 15.9085 16.625C16.066 16.625 16.217 16.5624 16.3284 16.4511C16.4397 16.3397 16.5023 16.1887 16.5023 16.0312V2.96875C16.5033 2.89048 16.4887 2.81279 16.4593 2.74028C16.4298 2.66776 16.3861 2.60188 16.3308 2.54653C16.2754 2.49118 16.2095 2.44749 16.137 2.41803C16.0645 2.38857 15.9868 2.37393 15.9085 2.375ZM13.2169 9.96629C13.224 9.69041 13.1669 9.41666 13.0501 9.16661C12.9333 8.91657 12.7601 8.69708 12.5439 8.52546L5.33186 2.91254C5.07378 2.717 4.76741 2.59587 4.4452 2.56421H4.26311C3.98902 2.55735 3.71736 2.61711 3.47145 2.73837C3.17864 2.88127 2.93179 3.10344 2.75895 3.37962C2.58684 3.6549 2.49626 3.97331 2.4977 4.29796L2.4977 14.7084C2.49855 15.0206 2.58332 15.3268 2.74311 15.595C2.9078 15.8617 3.13992 16.0801 3.41603 16.2284C3.69107 16.377 4.00132 16.4482 4.31366 16.4343C4.62599 16.4203 4.92867 16.3218 5.18936 16.1492L12.4094 11.3359C12.6389 11.1847 12.8289 10.9812 12.9635 10.7421C13.1056 10.506 13.1922 10.2407 13.2169 9.96629Z" fill="white"/>
</svg>
