<svg width="12" height="11" viewBox="0 0 12 11" fill="none" xmlns="http://www.w3.org/2000/svg">
<path d="M9.76618 1.73335C9.27278 1.23659 8.68593 0.842395 8.03945 0.573508C7.39298 0.304621 6.69968 0.166357 5.99952 0.166688C3.05285 0.166688 0.672852 2.55335 0.672852 5.50002C0.672852 8.44669 3.05285 10.8334 5.99952 10.8334C8.48619 10.8334 10.5595 9.13335 11.1529 6.83335H9.76618C9.49156 7.61303 8.98175 8.28827 8.30708 8.76591C7.63241 9.24355 6.82615 9.50005 5.99952 9.50002C3.79285 9.50002 1.99952 7.70669 1.99952 5.50002C1.99952 3.29335 3.79285 1.50002 5.99952 1.50002C7.10618 1.50002 8.09285 1.96002 8.81285 2.68669L6.66618 4.83335H11.3329V0.166688L9.76618 1.73335Z" fill="black"/>
</svg>
