<svg width="16" height="15" viewBox="0 0 16 15" fill="none" xmlns="http://www.w3.org/2000/svg">
<path d="M13 0C13.1989 0 13.3897 0.0790176 13.5303 0.21967C13.671 0.360322 13.75 0.551088 13.75 0.75V3.56775L7.00075 10.3177L6.99625 13.4963L10.1807 13.5007L13.75 9.9315V14.25C13.75 14.4489 13.671 14.6397 13.5303 14.7803C13.3897 14.921 13.1989 15 13 15H1C0.801088 15 0.610322 14.921 0.46967 14.7803C0.329018 14.6397 0.25 14.4489 0.25 14.25V0.75C0.25 0.551088 0.329018 0.360322 0.46967 0.21967C0.610322 0.0790176 0.801088 0 1 0H13ZM14.3335 5.106L15.394 6.1665L9.5605 12L8.4985 11.9985L8.5 10.9395L14.3335 5.106ZM7 7.5H3.25V9H7V7.5ZM9.25 4.5H3.25V6H9.25V4.5Z" fill="#1C5D95"/>
</svg>
