<svg width="18" height="18" viewBox="0 0 18 18" fill="none" xmlns="http://www.w3.org/2000/svg">
<mask id="path-1-inside-1_3091_3048" fill="white">
<path d="M9 10.6665C9.16481 10.6665 9.32593 10.6176 9.46297 10.5261C9.60001 10.4345 9.70682 10.3043 9.7699 10.1521C9.83297 9.9998 9.84947 9.83225 9.81732 9.6706C9.78516 9.50894 9.7058 9.36046 9.58925 9.24391C9.47271 9.12737 9.32422 9.048 9.16257 9.01585C9.00092 8.9837 8.83337 9.0002 8.68109 9.06327C8.52882 9.12634 8.39867 9.23315 8.30711 9.37019C8.21554 9.50724 8.16666 9.66835 8.16666 9.83317C8.16666 10.0542 8.25446 10.2661 8.41074 10.4224C8.56702 10.5787 8.77898 10.6665 9 10.6665ZM13.1667 10.6665C13.3315 10.6665 13.4926 10.6176 13.6296 10.5261C13.7667 10.4345 13.8735 10.3043 13.9366 10.1521C13.9996 9.9998 14.0161 9.83225 13.984 9.6706C13.9518 9.50894 13.8725 9.36046 13.7559 9.24391C13.6394 9.12737 13.4909 9.048 13.3292 9.01585C13.1676 8.9837 13 9.0002 12.8478 9.06327C12.6955 9.12634 12.5653 9.23315 12.4738 9.37019C12.3822 9.50724 12.3333 9.66835 12.3333 9.83317C12.3333 10.0542 12.4211 10.2661 12.5774 10.4224C12.7337 10.5787 12.9457 10.6665 13.1667 10.6665ZM9 13.9998C9.16481 13.9998 9.32593 13.951 9.46297 13.8594C9.60001 13.7678 9.70682 13.6377 9.7699 13.4854C9.83297 13.3331 9.84947 13.1656 9.81732 13.0039C9.78516 12.8423 9.7058 12.6938 9.58925 12.5772C9.47271 12.4607 9.32422 12.3813 9.16257 12.3492C9.00092 12.317 8.83337 12.3335 8.68109 12.3966C8.52882 12.4597 8.39867 12.5665 8.30711 12.7035C8.21554 12.8406 8.16666 13.0017 8.16666 13.1665C8.16666 13.3875 8.25446 13.5995 8.41074 13.7558C8.56702 13.912 8.77898 13.9998 9 13.9998ZM13.1667 13.9998C13.3315 13.9998 13.4926 13.951 13.6296 13.8594C13.7667 13.7678 13.8735 13.6377 13.9366 13.4854C13.9996 13.3331 14.0161 13.1656 13.984 13.0039C13.9518 12.8423 13.8725 12.6938 13.7559 12.5772C13.6394 12.4607 13.4909 12.3813 13.3292 12.3492C13.1676 12.317 13 12.3335 12.8478 12.3966C12.6955 12.4597 12.5653 12.5665 12.4738 12.7035C12.3822 12.8406 12.3333 13.0017 12.3333 13.1665C12.3333 13.3875 12.4211 13.5995 12.5774 13.7558C12.7337 13.912 12.9457 13.9998 13.1667 13.9998ZM4.83333 10.6665C4.99815 10.6665 5.15927 10.6176 5.29631 10.5261C5.43335 10.4345 5.54016 10.3043 5.60323 10.1521C5.6663 9.9998 5.68281 9.83225 5.65065 9.6706C5.6185 9.50894 5.53913 9.36046 5.42259 9.24391C5.30604 9.12737 5.15756 9.048 4.99591 9.01585C4.83426 8.9837 4.6667 9.0002 4.51443 9.06327C4.36216 9.12634 4.23201 9.23315 4.14044 9.37019C4.04887 9.50724 4 9.66835 4 9.83317C4 10.0542 4.0878 10.2661 4.24408 10.4224C4.40036 10.5787 4.61232 10.6665 4.83333 10.6665ZM14.8333 2.33317H14V1.49984C14 1.27882 13.9122 1.06686 13.7559 0.910582C13.5996 0.754301 13.3877 0.666504 13.1667 0.666504C12.9457 0.666504 12.7337 0.754301 12.5774 0.910582C12.4211 1.06686 12.3333 1.27882 12.3333 1.49984V2.33317H5.66666V1.49984C5.66666 1.27882 5.57887 1.06686 5.42259 0.910582C5.26631 0.754301 5.05434 0.666504 4.83333 0.666504C4.61232 0.666504 4.40036 0.754301 4.24408 0.910582C4.0878 1.06686 4 1.27882 4 1.49984V2.33317H3.16666C2.50362 2.33317 1.86774 2.59656 1.3989 3.0654C0.930056 3.53424 0.666664 4.17013 0.666664 4.83317V14.8332C0.666664 15.4962 0.930056 16.1321 1.3989 16.6009C1.86774 17.0698 2.50362 17.3332 3.16666 17.3332H14.8333C15.4964 17.3332 16.1323 17.0698 16.6011 16.6009C17.0699 16.1321 17.3333 15.4962 17.3333 14.8332V4.83317C17.3333 4.17013 17.0699 3.53424 16.6011 3.0654C16.1323 2.59656 15.4964 2.33317 14.8333 2.33317ZM15.6667 14.8332C15.6667 15.0542 15.5789 15.2661 15.4226 15.4224C15.2663 15.5787 15.0543 15.6665 14.8333 15.6665H3.16666C2.94565 15.6665 2.73369 15.5787 2.57741 15.4224C2.42113 15.2661 2.33333 15.0542 2.33333 14.8332V7.33317H15.6667V14.8332ZM15.6667 5.6665H2.33333V4.83317C2.33333 4.61216 2.42113 4.4002 2.57741 4.24392C2.73369 4.08763 2.94565 3.99984 3.16666 3.99984H14.8333C15.0543 3.99984 15.2663 4.08763 15.4226 4.24392C15.5789 4.4002 15.6667 4.61216 15.6667 4.83317V5.6665ZM4.83333 13.9998C4.99815 13.9998 5.15927 13.951 5.29631 13.8594C5.43335 13.7678 5.54016 13.6377 5.60323 13.4854C5.6663 13.3331 5.68281 13.1656 5.65065 13.0039C5.6185 12.8423 5.53913 12.6938 5.42259 12.5772C5.30604 12.4607 5.15756 12.3813 4.99591 12.3492C4.83426 12.317 4.6667 12.3335 4.51443 12.3966C4.36216 12.4597 4.23201 12.5665 4.14044 12.7035C4.04887 12.8406 4 13.0017 4 13.1665C4 13.3875 4.0878 13.5995 4.24408 13.7558C4.40036 13.912 4.61232 13.9998 4.83333 13.9998Z"/>
</mask>
<path d="M9 10.6665C9.16481 10.6665 9.32593 10.6176 9.46297 10.5261C9.60001 10.4345 9.70682 10.3043 9.7699 10.1521C9.83297 9.9998 9.84947 9.83225 9.81732 9.6706C9.78516 9.50894 9.7058 9.36046 9.58925 9.24391C9.47271 9.12737 9.32422 9.048 9.16257 9.01585C9.00092 8.9837 8.83337 9.0002 8.68109 9.06327C8.52882 9.12634 8.39867 9.23315 8.30711 9.37019C8.21554 9.50724 8.16666 9.66835 8.16666 9.83317C8.16666 10.0542 8.25446 10.2661 8.41074 10.4224C8.56702 10.5787 8.77898 10.6665 9 10.6665ZM13.1667 10.6665C13.3315 10.6665 13.4926 10.6176 13.6296 10.5261C13.7667 10.4345 13.8735 10.3043 13.9366 10.1521C13.9996 9.9998 14.0161 9.83225 13.984 9.6706C13.9518 9.50894 13.8725 9.36046 13.7559 9.24391C13.6394 9.12737 13.4909 9.048 13.3292 9.01585C13.1676 8.9837 13 9.0002 12.8478 9.06327C12.6955 9.12634 12.5653 9.23315 12.4738 9.37019C12.3822 9.50724 12.3333 9.66835 12.3333 9.83317C12.3333 10.0542 12.4211 10.2661 12.5774 10.4224C12.7337 10.5787 12.9457 10.6665 13.1667 10.6665ZM9 13.9998C9.16481 13.9998 9.32593 13.951 9.46297 13.8594C9.60001 13.7678 9.70682 13.6377 9.7699 13.4854C9.83297 13.3331 9.84947 13.1656 9.81732 13.0039C9.78516 12.8423 9.7058 12.6938 9.58925 12.5772C9.47271 12.4607 9.32422 12.3813 9.16257 12.3492C9.00092 12.317 8.83337 12.3335 8.68109 12.3966C8.52882 12.4597 8.39867 12.5665 8.30711 12.7035C8.21554 12.8406 8.16666 13.0017 8.16666 13.1665C8.16666 13.3875 8.25446 13.5995 8.41074 13.7558C8.56702 13.912 8.77898 13.9998 9 13.9998ZM13.1667 13.9998C13.3315 13.9998 13.4926 13.951 13.6296 13.8594C13.7667 13.7678 13.8735 13.6377 13.9366 13.4854C13.9996 13.3331 14.0161 13.1656 13.984 13.0039C13.9518 12.8423 13.8725 12.6938 13.7559 12.5772C13.6394 12.4607 13.4909 12.3813 13.3292 12.3492C13.1676 12.317 13 12.3335 12.8478 12.3966C12.6955 12.4597 12.5653 12.5665 12.4738 12.7035C12.3822 12.8406 12.3333 13.0017 12.3333 13.1665C12.3333 13.3875 12.4211 13.5995 12.5774 13.7558C12.7337 13.912 12.9457 13.9998 13.1667 13.9998ZM4.83333 10.6665C4.99815 10.6665 5.15927 10.6176 5.29631 10.5261C5.43335 10.4345 5.54016 10.3043 5.60323 10.1521C5.6663 9.9998 5.68281 9.83225 5.65065 9.6706C5.6185 9.50894 5.53913 9.36046 5.42259 9.24391C5.30604 9.12737 5.15756 9.048 4.99591 9.01585C4.83426 8.9837 4.6667 9.0002 4.51443 9.06327C4.36216 9.12634 4.23201 9.23315 4.14044 9.37019C4.04887 9.50724 4 9.66835 4 9.83317C4 10.0542 4.0878 10.2661 4.24408 10.4224C4.40036 10.5787 4.61232 10.6665 4.83333 10.6665ZM14.8333 2.33317H14V1.49984C14 1.27882 13.9122 1.06686 13.7559 0.910582C13.5996 0.754301 13.3877 0.666504 13.1667 0.666504C12.9457 0.666504 12.7337 0.754301 12.5774 0.910582C12.4211 1.06686 12.3333 1.27882 12.3333 1.49984V2.33317H5.66666V1.49984C5.66666 1.27882 5.57887 1.06686 5.42259 0.910582C5.26631 0.754301 5.05434 0.666504 4.83333 0.666504C4.61232 0.666504 4.40036 0.754301 4.24408 0.910582C4.0878 1.06686 4 1.27882 4 1.49984V2.33317H3.16666C2.50362 2.33317 1.86774 2.59656 1.3989 3.0654C0.930056 3.53424 0.666664 4.17013 0.666664 4.83317V14.8332C0.666664 15.4962 0.930056 16.1321 1.3989 16.6009C1.86774 17.0698 2.50362 17.3332 3.16666 17.3332H14.8333C15.4964 17.3332 16.1323 17.0698 16.6011 16.6009C17.0699 16.1321 17.3333 15.4962 17.3333 14.8332V4.83317C17.3333 4.17013 17.0699 3.53424 16.6011 3.0654C16.1323 2.59656 15.4964 2.33317 14.8333 2.33317ZM15.6667 14.8332C15.6667 15.0542 15.5789 15.2661 15.4226 15.4224C15.2663 15.5787 15.0543 15.6665 14.8333 15.6665H3.16666C2.94565 15.6665 2.73369 15.5787 2.57741 15.4224C2.42113 15.2661 2.33333 15.0542 2.33333 14.8332V7.33317H15.6667V14.8332ZM15.6667 5.6665H2.33333V4.83317C2.33333 4.61216 2.42113 4.4002 2.57741 4.24392C2.73369 4.08763 2.94565 3.99984 3.16666 3.99984H14.8333C15.0543 3.99984 15.2663 4.08763 15.4226 4.24392C15.5789 4.4002 15.6667 4.61216 15.6667 4.83317V5.6665ZM4.83333 13.9998C4.99815 13.9998 5.15927 13.951 5.29631 13.8594C5.43335 13.7678 5.54016 13.6377 5.60323 13.4854C5.6663 13.3331 5.68281 13.1656 5.65065 13.0039C5.6185 12.8423 5.53913 12.6938 5.42259 12.5772C5.30604 12.4607 5.15756 12.3813 4.99591 12.3492C4.83426 12.317 4.6667 12.3335 4.51443 12.3966C4.36216 12.4597 4.23201 12.5665 4.14044 12.7035C4.04887 12.8406 4 13.0017 4 13.1665C4 13.3875 4.0878 13.5995 4.24408 13.7558C4.40036 13.912 4.61232 13.9998 4.83333 13.9998Z" fill="#808080" stroke="white" stroke-width="0.5" mask="url(#path-1-inside-1_3091_3048)"/>
</svg>
