<svg width="14" height="15" viewBox="0 0 14 15" fill="none" xmlns="http://www.w3.org/2000/svg">
<path d="M11.2186 9.62511C10.821 9.62711 10.4289 9.71836 10.0712 9.89215C9.71352 10.0659 9.39942 10.3178 9.15209 10.6292L5.26865 8.20136C5.41018 7.74457 5.41018 7.25565 5.26865 6.79886L9.15209 4.37105C9.54625 4.85911 10.1004 5.19192 10.7165 5.31051C11.3325 5.4291 11.9706 5.32583 12.5178 5.01897C13.065 4.71212 13.4859 4.2215 13.706 3.63402C13.9261 3.04654 13.9312 2.40012 13.7203 1.80927C13.5094 1.21842 13.0962 0.721284 12.5539 0.405918C12.0115 0.0905527 11.3751 -0.0226837 10.7573 0.0862682C10.1395 0.19522 9.58015 0.519328 9.17841 1.00118C8.77668 1.48303 8.55845 2.09152 8.5624 2.71886C8.56491 2.95642 8.60067 3.19246 8.66865 3.42011L4.78521 5.84792C4.44237 5.41632 3.97375 5.10207 3.44431 4.94873C2.91487 4.79538 2.35085 4.81053 1.83041 4.99208C1.30997 5.17364 0.858897 5.5126 0.539721 5.96198C0.220544 6.41137 0.0490723 6.94891 0.0490723 7.50011C0.0490723 8.05131 0.220544 8.58885 0.539721 9.03824C0.858897 9.48762 1.30997 9.82658 1.83041 10.0081C2.35085 10.1897 2.91487 10.2048 3.44431 10.0515C3.97375 9.89815 4.44237 9.58389 4.78521 9.1523L8.66865 11.5801C8.60067 11.8078 8.56491 12.0438 8.5624 12.2814C8.5624 12.8067 8.71818 13.3203 9.01006 13.7571C9.30193 14.1939 9.71678 14.5344 10.2021 14.7354C10.6875 14.9365 11.2216 14.9891 11.7369 14.8866C12.2521 14.7841 12.7254 14.5311 13.0969 14.1596C13.4684 13.7881 13.7214 13.3148 13.8239 12.7996C13.9264 12.2843 13.8737 11.7502 13.6727 11.2649C13.4717 10.7795 13.1312 10.3646 12.6944 10.0728C12.2576 9.7809 11.744 9.62511 11.2186 9.62511ZM11.2186 1.12511C11.5339 1.12511 11.842 1.21858 12.1041 1.3937C12.3662 1.56883 12.5705 1.81774 12.6911 2.10896C12.8117 2.40018 12.8433 2.72063 12.7818 3.02978C12.7203 3.33894 12.5685 3.62292 12.3456 3.84581C12.1227 4.0687 11.8387 4.22049 11.5296 4.28199C11.2204 4.34348 10.9 4.31192 10.6087 4.19129C10.3175 4.07066 10.0686 3.86639 9.89349 3.6043C9.71837 3.34221 9.6249 3.03407 9.6249 2.71886C9.6249 2.29617 9.79281 1.89079 10.0917 1.59191C10.3906 1.29302 10.796 1.12511 11.2186 1.12511ZM2.71865 9.09386C2.40344 9.09386 2.0953 9.00039 1.83321 8.82526C1.57112 8.65014 1.36684 8.40123 1.24622 8.11001C1.12559 7.81879 1.09403 7.49834 1.15552 7.18918C1.21702 6.88003 1.36881 6.59605 1.5917 6.37316C1.81459 6.15027 2.09857 5.99848 2.40772 5.93698C2.71688 5.87549 3.03733 5.90705 3.32855 6.02768C3.61977 6.1483 3.86868 6.35258 4.0438 6.61467C4.21893 6.87676 4.3124 7.1849 4.3124 7.50011C4.3124 7.9228 4.14449 8.32817 3.8456 8.62706C3.54672 8.92595 3.14134 9.09386 2.71865 9.09386ZM11.2186 13.8751C10.9034 13.8751 10.5953 13.7816 10.3332 13.6065C10.0711 13.4314 9.86684 13.1825 9.74622 12.8913C9.62559 12.6 9.59403 12.2796 9.65552 11.9704C9.71702 11.6613 9.86881 11.3773 10.0917 11.1544C10.3146 10.9315 10.5986 10.7797 10.9077 10.7182C11.2169 10.6567 11.5373 10.6883 11.8286 10.8089C12.1198 10.9296 12.3687 11.1338 12.5438 11.3959C12.7189 11.658 12.8124 11.9661 12.8124 12.2814C12.8124 12.704 12.6445 13.1094 12.3456 13.4083C12.0467 13.7072 11.6413 13.8751 11.2186 13.8751Z" fill="#1C5D95"/>
</svg>
