<svg width="107" height="39" viewBox="0 0 107 39" fill="none" xmlns="http://www.w3.org/2000/svg">
<g id="Frame 121">
<g id="Group 269">
<g id="Group">
<g id="Group_2">
<path id="Vector" d="M43.7912 31.6036C43.7912 31.6036 44.6162 32.4412 45.6839 32.4412C46.2663 32.4412 46.8002 32.1455 46.8002 31.505C46.8002 30.1255 43.2088 30.3718 43.2088 28.0069C43.2088 26.7259 44.2765 25.7898 45.7325 25.7898C47.237 25.7898 48.0135 26.6274 48.0135 26.6274L47.4311 27.7606C47.4311 27.7606 46.7031 27.0708 45.7325 27.0708C45.1016 27.0708 44.5677 27.465 44.5677 28.0069C44.5677 29.3865 48.1106 29.0416 48.1106 31.505C48.1106 32.7368 47.1885 33.7714 45.6354 33.7714C43.9368 33.7714 43.0146 32.7368 43.0146 32.7368L43.7912 31.6036Z" fill="#7B6961" stroke="#7B6961" stroke-width="0.0500162" stroke-miterlimit="10"/>
<path id="Vector_2" d="M49.4692 25.8885H52.3812C53.7886 25.8885 54.8078 26.8739 54.8078 28.4013C54.8078 29.8794 53.8372 30.914 52.3812 30.914H50.8282V33.5746H49.4692V25.8885ZM52.1385 29.6823C52.9636 29.6823 53.4004 29.1403 53.4004 28.352C53.4004 27.5637 52.9151 27.071 52.1385 27.071H50.8282V29.6823H52.1385V29.6823Z" fill="#7B6961" stroke="#7B6961" stroke-width="0.0500162" stroke-miterlimit="10"/>
<path id="Vector_3" d="M55.9727 25.8885H57.3316V29.1403H60.8259V25.8885H62.1848V33.5746H60.8259V30.3228H57.3316V33.5746H55.9727V25.8885Z" fill="#7B6961" stroke="#7B6961" stroke-width="0.0500162" stroke-miterlimit="10"/>
<path id="Vector_4" d="M64.0776 25.8885H68.6397V27.071H65.4851V29.0911H68.0573V30.2735H65.4851V32.3428H68.8338V33.5253H64.1262V25.8885H64.0776Z" fill="#7B6961" stroke="#7B6961" stroke-width="0.0500162" stroke-miterlimit="10"/>
<path id="Vector_5" d="M70.1445 25.8885H72.5712C73.3962 25.8885 73.7845 25.9378 74.0757 26.0856C74.8522 26.4305 75.3375 27.1696 75.3375 28.2042C75.3375 29.1403 74.8522 29.9779 74.0757 30.3228C74.0757 30.3228 74.1727 30.4213 74.3183 30.7169L75.8714 33.5746H74.3183L72.8138 30.7169H71.552V33.5746H70.1931V25.8885H70.1445ZM72.7653 29.4852C73.4933 29.4852 73.9786 29.0418 73.9786 28.2535C73.9786 27.5144 73.6874 27.071 72.5712 27.071H71.552V29.4852H72.7653Z" fill="#7B6961" stroke="#7B6961" stroke-width="0.0500162" stroke-miterlimit="10"/>
<path id="Vector_6" d="M77.1328 25.8885H81.6949V27.071H78.5403V29.0911H81.1125V30.2735H78.5403V32.3428H81.889V33.5253H77.1813V25.8885H77.1328Z" fill="#7B6961" stroke="#7B6961" stroke-width="0.0500162" stroke-miterlimit="10"/>
</g>
</g>
<g id="Group 262">
<path id="Vector_7" d="M11.5523 20.1595C11.5181 19.9516 11.484 19.7092 11.484 19.4667V19.3628L0.0683569 20.298H0L0.0683569 21.164L11.5865 20.2287L11.5523 20.1595Z" fill="#7B6961"/>
<path id="Vector_8" d="M13.0563 14.5482C13.1247 14.4443 13.193 14.375 13.2614 14.2711C13.3298 14.1672 13.3981 14.0979 13.5006 13.994L13.569 13.9247L4.92185 6.23511L4.85349 6.16583L4.27246 6.82395L12.988 14.6175L13.0563 14.5482Z" fill="#7B6961"/>
<path id="Vector_9" d="M11.9625 21.7527C11.8941 21.5449 11.8258 21.3024 11.7574 21.0946L11.7232 20.9907L0.82031 24.4544L0.751953 24.4891L1.02538 25.3204L11.9967 21.822L11.9625 21.7527Z" fill="#7B6961"/>
<path id="Vector_10" d="M11.7574 17.1457L11.7916 17.0418C11.86 16.834 11.9283 16.5915 11.9967 16.3837L12.0308 16.3144L1.09374 12.3657L0.820312 13.1624L11.6891 17.1111L11.7574 17.1457Z" fill="#7B6961"/>
<path id="Vector_11" d="M11.5181 18.6005V18.4966C11.5523 18.2541 11.5523 18.0463 11.6207 17.8038V17.6999L0.27343 16.0719H0.205073L0.0683594 16.9378L11.4156 18.6005H11.5181Z" fill="#7B6961"/>
<path id="Vector_12" d="M21.1226 12.054L21.1909 12.0886C21.396 12.1579 21.6011 12.2618 21.8061 12.3311L21.8745 12.3657L26.1468 1.59336L26.181 1.52408L25.3949 1.21234L21.1567 11.9501L21.1226 12.054Z" fill="#7B6961"/>
<path id="Vector_13" d="M20.3022 11.8463L20.4048 11.8809L22.2162 0.346499V0.277223L21.3618 0.138672L19.5161 11.6384V11.7424H19.6186C19.8579 11.7424 20.063 11.777 20.3022 11.8463Z" fill="#7B6961"/>
<path id="Vector_14" d="M22.4893 12.6774L22.5576 12.712C22.7627 12.8159 22.9336 12.9545 23.1386 13.093L23.207 13.1623L29.53 3.32514L28.8123 2.84021L22.5234 12.5735L22.4893 12.6774Z" fill="#7B6961"/>
<path id="Vector_15" d="M17.9092 11.7422H18.0117C18.2509 11.7076 18.456 11.7076 18.6953 11.7076H18.7978L18.1484 0.0692758L18.1142 0L17.2598 0.0346379L17.9092 11.6383V11.7422Z" fill="#7B6961"/>
<path id="Vector_16" d="M13.9787 13.5435C14.1496 13.4049 14.3205 13.2317 14.4914 13.1278L14.5598 13.0585L7.51902 3.91412L7.45066 3.84485L6.76709 4.36442L13.8762 13.5781L13.9787 13.5435Z" fill="#7B6961"/>
<path id="Vector_17" d="M15.0384 12.747L15.1067 12.7124C15.3118 12.6085 15.5169 12.5046 15.722 12.4007L15.7903 12.366L10.561 1.9054L9.80908 2.28641L15.0042 12.6431L15.0384 12.747Z" fill="#7B6961"/>
<path id="Vector_18" d="M16.474 12.0887C16.6791 12.0194 16.9183 11.9501 17.1234 11.8809L17.2259 11.8462L14.1499 0.588928L13.3296 0.831393L16.4057 12.1233L16.474 12.0887Z" fill="#7B6961"/>
<path id="Vector_19" d="M12.2702 15.7604L12.3043 15.6912C12.4069 15.4833 12.5094 15.2755 12.6461 15.1023L12.6803 15.033L2.87108 9.00604L2.42676 9.73344L12.2018 15.7258L12.2702 15.7604Z" fill="#7B6961"/>
<path id="Vector_20" d="M12.7145 23.2074L12.6461 23.1382C12.5094 22.9303 12.4069 22.7571 12.3043 22.5493L12.2701 22.48L2.29004 28.2299L2.22168 28.2646L2.63182 29.0266L12.6461 23.2767L12.7145 23.2074Z" fill="#7B6961"/>
<path id="Vector_21" d="M31.4786 5.02246L31.4103 4.95319L30.8292 5.61131L30.8976 5.68058C34.418 8.86727 36.537 13.2316 36.8788 18.0117C37.2206 22.7917 35.7167 27.4332 32.6407 31.0701C29.5304 34.7764 25.1898 37.0279 20.4048 37.4089C16.0983 37.7553 11.7918 36.5083 8.3398 33.9105C8.61323 33.5987 9.26262 32.7328 9.46769 32.4557C12.2361 34.4993 15.5173 35.6077 18.9693 35.6077C23.7201 35.6077 28.1633 33.5294 31.2394 29.8925C34.042 26.5672 35.375 22.3414 35.0332 18.0117C34.6914 13.7858 32.8116 9.9064 29.6672 7.10073L29.5988 7.03146L27.2405 9.66394L27.3088 9.73321C32.4356 14.3054 32.9825 22.3068 28.5734 27.5717C26.386 30.1696 23.3441 31.7283 19.9947 32.0054C17.0211 32.2478 14.0476 31.4165 11.6551 29.65C11.7235 29.5807 11.7918 29.4768 11.8944 29.3382C12.1678 28.9572 12.6463 28.3684 12.783 28.1952C14.8337 29.6846 17.3287 30.3774 19.8579 30.1696C22.7289 29.9271 25.3265 28.6109 27.1721 26.394C30.9659 21.8911 30.4533 15.0674 26.0784 11.1534L25.9759 11.0148L23.6176 13.6473L23.6859 13.7166C25.1214 14.9635 26.0101 16.7301 26.181 18.6698C26.3177 20.6095 25.7366 22.5146 24.472 23.9694C23.2074 25.4588 21.4643 26.3594 19.5503 26.4979C17.6705 26.6365 15.8249 26.0477 14.3894 24.8353L14.321 24.7661L13.8084 25.4588L13.8767 25.5281C17.2604 28.3338 22.2846 27.8835 25.1214 24.5236C26.5227 22.861 27.2063 20.7481 27.0354 18.5659C26.8987 16.6608 26.0784 14.8596 24.7796 13.5087C24.9847 13.2663 25.7708 12.4003 26.0101 12.1579C29.5988 15.8295 29.8381 21.7526 26.5227 25.7013C24.8138 27.7449 22.4213 28.9572 19.7896 29.1651C17.2262 29.3729 14.7654 28.5762 12.783 26.9482L12.7146 26.879L10.493 29.7885L10.5614 29.8578C13.2615 32.04 16.611 33.1138 20.063 32.8367C23.6518 32.5596 26.8987 30.8623 29.2228 28.0913C33.8028 22.6531 33.4268 14.5132 28.4026 9.52539C28.5393 9.38683 28.8469 9.00582 29.1545 8.69408C29.4279 8.41697 29.5646 8.24378 29.633 8.17451C35.375 13.8205 35.8193 23.1034 30.59 29.3036C27.9924 32.3864 24.3695 34.2915 20.4048 34.6725C16.4401 35.0535 12.5438 33.8758 9.43351 31.3472L9.36516 31.278L7.21191 34.049L7.17773 34.0836L7.24609 34.1529C10.5956 36.8893 14.6628 38.3095 18.9351 38.3095C19.4478 38.3095 19.9605 38.2748 20.439 38.2402C25.4632 37.8245 30.0089 35.4692 33.2559 31.5897C36.4687 27.7795 38.0409 22.9302 37.6991 17.9078C37.3915 12.9199 35.1699 8.3477 31.4786 5.02246Z" fill="#7B6961"/>
<path id="Vector_22" d="M13.7057 24.4195L13.6374 24.3503C13.4665 24.1771 13.3298 24.0039 13.1931 23.8307L13.1247 23.7614L4.64844 31.5203L4.58008 31.5896L5.16111 32.2477L13.6374 24.5234L13.7057 24.4195Z" fill="#7B6961"/>
</g>
<g id="Group_3">
<g id="Group_4">
<path id="Vector_23" d="M49.002 11.1625H49.6649V10.8004C49.6649 8.57596 48.5431 7.85174 46.9623 7.85174C45.2795 7.85174 44.1577 8.78288 44.1577 8.78288L43.6987 8.11039C43.6987 8.11039 44.8716 7.02405 47.0133 7.02405C49.257 7.02405 50.4808 8.31731 50.4808 10.8004V17.2149H49.6649V15.9217C49.6649 15.4044 49.7669 15.0423 49.7669 15.0423H49.7159C49.7159 15.0423 48.849 17.4736 46.2994 17.4736C44.7186 17.4736 42.9848 16.5942 42.9848 14.5767C42.9338 11.2142 47.2682 11.1625 49.002 11.1625ZM46.2994 16.6976C48.4411 16.6976 49.6649 14.4732 49.6649 12.5075V11.9902H49.053C47.3702 11.9902 43.8517 11.9902 43.8517 14.5767C43.8007 15.6113 44.6676 16.6976 46.2994 16.6976Z" fill="#7B6961" stroke="#7B6961" stroke-width="0.173432" stroke-miterlimit="10"/>
<path id="Vector_24" d="M58.8433 11.1625H59.5062V10.8004C59.5062 8.57596 58.3844 7.85174 56.8036 7.85174C55.1208 7.85174 53.999 8.78288 53.999 8.78288L53.54 8.11039C53.54 8.11039 54.7129 7.02405 56.8546 7.02405C59.0983 7.02405 60.3221 8.31731 60.3221 10.8004V17.2149H59.5062V15.9217C59.5062 15.4044 59.6082 15.0423 59.6082 15.0423H59.5572C59.5572 15.0423 58.6903 17.4736 56.1407 17.4736C54.5599 17.4736 52.8261 16.5942 52.8261 14.5767C52.7751 11.2142 57.1095 11.1625 58.8433 11.1625ZM56.1407 16.6976C58.2824 16.6976 59.5062 14.4732 59.5062 12.5075V11.9902H58.8943C57.2115 11.9902 53.693 11.9902 53.693 14.5767C53.642 15.6113 54.5089 16.6976 56.1407 16.6976Z" fill="#7B6961" stroke="#7B6961" stroke-width="0.173432" stroke-miterlimit="10"/>
<path id="Vector_25" d="M63.1271 15.4043C63.1271 15.4043 64.198 16.6459 66.1357 16.6459C67.3085 16.6459 68.3794 16.0251 68.3794 14.7836C68.3794 12.2488 62.9741 12.973 62.9741 9.76573C62.9741 8.00689 64.4529 7.07574 66.0847 7.07574C68.0734 7.07574 68.9913 8.16208 68.9913 8.16208L68.4814 8.83458C68.4814 8.83458 67.6655 7.90343 66.0337 7.90343C64.9119 7.90343 63.841 8.42074 63.841 9.714C63.841 12.3005 69.2463 11.5246 69.2463 14.8353C69.2463 16.439 67.9205 17.5253 66.1357 17.5253C63.79 17.5253 62.6172 16.0768 62.6172 16.0768L63.1271 15.4043Z" fill="#7B6961" stroke="#7B6961" stroke-width="0.173432" stroke-miterlimit="10"/>
<path id="Vector_26" d="M72.1015 8.1103H70.8267V7.33434H72.1015V4.54089H72.9174V7.33434H75.467V8.1103H72.9174V13.5937C72.9174 16.232 74.4472 16.5424 75.2631 16.5424C75.518 16.5424 75.722 16.4906 75.722 16.4906V17.2666C75.722 17.2666 75.518 17.3183 75.2121 17.3183C74.1922 17.3183 72.1015 16.9562 72.1015 13.6455V8.1103Z" fill="#7B6961" stroke="#7B6961" stroke-width="0.173432" stroke-miterlimit="10"/>
<g id="Group 263">
<path id="Vector_27" d="M47.0975 6.86609C46.4139 6.86609 45.7987 6.97 45.2177 7.17783C44.6367 7.38566 44.2607 7.55885 44.0556 7.66276C43.8847 7.76667 43.7822 7.87059 43.6797 7.93986L43.5429 8.04378L44.1582 8.94436L44.5683 8.63262C45.0468 8.28624 46.0722 7.93986 46.995 7.93986C48.7381 7.93986 49.5925 8.87508 49.5925 10.8148V11.0226H49.114C48.3963 11.0226 48.0545 11.0226 47.1317 11.1265C46.2089 11.1958 45.6278 11.3344 44.8075 11.6808C43.5088 12.235 42.8594 13.2395 42.8594 14.5903C42.8594 15.5602 43.2012 16.3222 43.9189 16.8764C44.6025 17.396 45.4228 17.6385 46.3456 17.6385C47.6785 17.6385 48.6014 16.9803 49.114 16.3915C49.3533 16.1144 49.5242 15.8719 49.6609 15.6295L49.6267 15.9412V17.396H50.7204V10.7802C50.7204 8.21697 49.49 6.86609 47.0975 6.86609ZM49.6609 12.0618V12.4774C49.6609 13.5166 49.3533 14.4864 48.7381 15.3524C48.157 16.1837 47.3709 16.5993 46.3798 16.5993C44.8075 16.5993 43.9873 15.5602 43.9873 14.5211C43.8847 13.1009 45.3886 12.5121 45.8671 12.3735C46.1747 12.2696 46.5506 12.1657 47.0291 12.131C47.4735 12.0618 47.8153 12.0618 48.1229 12.0618C48.3621 12.0271 48.7039 12.0271 49.114 12.0271H49.6609V12.0618Z" fill="#7B6961"/>
<path id="Vector_28" d="M56.9749 6.86609C56.2914 6.86609 55.6762 6.97 55.0951 7.17783C54.5141 7.38566 54.1381 7.55885 53.9331 7.66276C53.7622 7.76667 53.6596 7.87059 53.5571 7.93986L53.4204 8.04378L54.0356 8.94436L54.4457 8.63262C54.9242 8.28624 55.9496 7.93986 56.8724 7.93986C58.6155 7.93986 59.47 8.87508 59.47 10.8148V11.0226H58.9573C58.2395 11.0226 57.8978 11.0226 56.9749 11.1265C56.0521 11.1958 55.4711 11.3344 54.6508 11.6808C53.352 12.235 52.7026 13.2395 52.7026 14.5903C52.7026 15.5602 53.0444 16.3222 53.7622 16.8764C54.4457 17.396 55.266 17.6385 56.1888 17.6385C57.5218 17.6385 58.4446 16.9803 58.9573 16.3915C59.1965 16.1144 59.3674 15.8719 59.5041 15.6295L59.47 15.9412V17.396H60.5637V10.7802C60.5979 8.21697 59.3674 6.86609 56.9749 6.86609ZM59.5383 12.0618V12.4774C59.5383 13.5166 59.2307 14.4864 58.6155 15.3524C58.0345 16.1837 57.2484 16.5993 56.2572 16.5993C54.685 16.5993 53.8647 15.5602 53.8647 14.5211C53.7622 13.1009 55.266 12.5121 55.7445 12.3735C56.0521 12.2696 56.4281 12.1657 56.9066 12.131C57.3509 12.0618 57.6927 12.0618 58.0003 12.0618C58.2395 12.0271 58.5813 12.0271 58.9915 12.0271H59.5383V12.0618Z" fill="#7B6961"/>
<path id="Vector_29" d="M66.2377 11.6115L65.9642 11.5076C64.7338 11.0226 64.1186 10.3992 64.1186 9.63712C64.1186 8.39016 65.2123 7.93986 66.2377 7.93986C67.2288 7.93986 68.1858 8.39016 68.3567 8.59798L68.7327 8.94436L69.3821 8.04378L69.0061 7.6974C68.6302 7.35102 67.5364 6.86609 66.2718 6.86609C65.349 6.86609 64.5629 7.10855 63.9477 7.62812C63.2983 8.11305 62.9907 8.80581 62.9907 9.70639C62.9907 11.6115 64.8705 12.3042 66.3744 12.8584L66.6136 12.9277C67.844 13.378 68.4593 14.0015 68.4593 14.7635C68.4593 15.8027 67.6048 16.5301 66.306 16.5301C65.7592 16.5301 65.2123 16.4261 64.6655 16.1837C64.1186 15.9412 63.811 15.768 63.6743 15.6295C63.5376 15.4909 63.4009 15.387 63.3325 15.2831L63.23 15.1445L62.5122 16.0105L62.9565 16.4608C63.5034 17.015 64.8705 17.5692 66.2377 17.5692C68.1858 17.5692 69.5188 16.3915 69.5188 14.7289C69.5871 12.8584 67.7415 12.1657 66.2377 11.6115Z" fill="#7B6961"/>
<path id="Vector_30" d="M74.0302 15.9759C73.4833 15.5602 73.1757 14.6943 73.1757 13.5859V8.18236H75.7733V7.14322H73.1757V4.30292H72.082V7.14322H70.7832V8.18236H72.082V13.6205C72.082 17.0843 74.3719 17.4653 75.3631 17.4653C75.5682 17.4653 75.7391 17.4307 75.8758 17.4307H75.9783V16.3915L75.3973 16.4608C74.953 16.4262 74.5428 16.3569 74.0302 15.9759Z" fill="#7B6961"/>
<path id="Vector_31" d="M79.123 9.22113V7.10822H78.0293V17.3957H79.123V12.9274C79.123 12.1654 79.2255 11.4726 79.4306 10.8491C79.9433 9.15185 80.9686 8.14736 82.2674 8.14736C82.4041 8.14736 82.5409 8.18199 82.7117 8.18199L82.8485 8.21663V7.10822L82.1307 7.03894C80.9003 7.00431 79.8066 7.83562 79.123 9.22113Z" fill="#7B6961"/>
<path id="Vector_32" d="M85.9658 3.08575H84.7354V4.81765H85.9658V3.08575Z" fill="#7B6961"/>
<path id="Vector_33" d="M85.9243 7.10846H84.8306V17.3959H85.9243V7.10846Z" fill="#7B6961"/>
<path id="Vector_34" d="M96.4856 7.10857H95.0501L91.8373 11.0573H90.2651V3.09058H89.2056V17.396H90.2651V12.0964H91.8373L95.4261 17.396H96.7932L92.7601 11.5769L96.4856 7.10857Z" fill="#7B6961"/>
<path id="Vector_35" d="M101.851 6.86609C101.168 6.86609 100.553 6.97 99.9716 7.17783C99.3906 7.38566 99.0146 7.55885 98.8095 7.66276C98.6386 7.76667 98.5361 7.87059 98.4336 7.93986L98.2969 8.04378L98.9121 8.94436L99.3564 8.63262C99.8349 8.28624 100.86 7.93986 101.783 7.93986C103.526 7.93986 104.381 8.87508 104.381 10.8148V11.0226H103.868C103.15 11.0226 102.808 11.0226 101.886 11.1265C100.963 11.1958 100.382 11.3344 99.5615 11.6808C98.2627 12.235 97.6133 13.2395 97.6133 14.5903C97.6133 15.5602 97.9551 16.3222 98.6728 16.8764C99.3564 17.396 100.177 17.6385 101.099 17.6385C102.432 17.6385 103.355 16.9803 103.868 16.3915C104.107 16.1144 104.278 15.8719 104.415 15.6295L104.381 15.9412V17.396H105.474V10.7802C105.474 8.21697 104.244 6.86609 101.851 6.86609ZM104.381 12.0618V12.4774C104.381 13.5166 104.073 14.4864 103.458 15.3524C102.877 16.1837 102.091 16.5993 101.099 16.5993C99.5273 16.5993 98.707 15.5602 98.707 14.5211C98.6045 13.1009 100.108 12.5121 100.621 12.3735C100.929 12.2696 101.305 12.1657 101.783 12.131C102.227 12.0618 102.569 12.0618 102.877 12.0618C103.116 12.0271 103.458 12.0271 103.868 12.0271H104.381V12.0618Z" fill="#7B6961"/>
</g>
</g>
<g id="Vector_36">
<path d="M105.897 20.9912H42.52C42.2561 20.9912 42.0802 21.2498 42.0802 21.5085C42.0802 21.8189 42.3001 22.0258 42.52 22.0258H105.897C106.161 22.0258 106.337 21.7671 106.337 21.5085C106.337 21.1981 106.161 20.9912 105.897 20.9912Z" fill="#57A9B7"/>
<path fill-rule="evenodd" clip-rule="evenodd" d="M41.9805 21.5085C41.9805 21.1929 42.1946 20.874 42.52 20.874H105.897C106.052 20.874 106.188 20.9351 106.286 21.0506C106.384 21.1661 106.436 21.3267 106.436 21.5085C106.436 21.824 106.222 22.143 105.897 22.143H42.52C42.2515 22.143 41.9805 21.891 41.9805 21.5085ZM42.52 21.1084C42.3176 21.1084 42.1799 21.3067 42.1799 21.5085C42.1799 21.7467 42.3487 21.9086 42.52 21.9086H105.897C106.099 21.9086 106.237 21.7102 106.237 21.5085C106.237 21.3799 106.201 21.2818 106.145 21.2163C106.089 21.1507 106.006 21.1084 105.897 21.1084H42.52Z" fill="#57A9B7"/>
</g>
</g>
</g>
</g>
</svg>
