<svg width="17" height="17" viewBox="0 0 17 17" fill="none" xmlns="http://www.w3.org/2000/svg">
<path d="M16.6635 5.43794L15.4105 5.93904L15.41 5.93922L13.8827 6.55701L13.8046 6.58861V6.67289V10.0483C13.8046 10.5446 13.555 10.9618 13.2492 11.2547C12.943 11.5474 12.5587 11.7575 12.0845 11.9491L12.0844 11.9491C11.1393 12.3317 9.88642 12.5578 8.5 12.5578C7.11369 12.5578 5.8608 12.3311 4.91557 11.9498C4.44131 11.7576 4.05702 11.5474 3.75078 11.2554C3.44491 10.9618 3.19542 10.5445 3.19542 10.0483V6.67289V6.58804L3.11657 6.55672L2.03066 6.12532L1.85951 6.05733V6.24149V11.5499V11.6148L1.91248 11.6521C2.20019 11.855 2.40247 12.2319 2.40247 12.6828C2.40247 13.0059 2.29643 13.3121 2.11296 13.5347C1.93006 13.7565 1.68775 13.875 1.44155 13.875C1.19535 13.875 0.953047 13.7565 0.770145 13.5347C0.586678 13.3121 0.480637 13.0059 0.480637 12.6828C0.480637 12.2319 0.682919 11.855 0.970624 11.6521L1.02359 11.6148V11.5499V5.78705V5.7015L0.943857 5.67053L0.340855 5.43629L1.5895 4.93692L1.5895 4.93692L1.59015 4.93666L8.37519 2.17915L8.49993 2.13323L8.6242 2.17913L15.4093 4.936L15.4099 4.93625L16.6635 5.43794ZM8.54686 3.26392L8.5 3.24497L8.45314 3.26392L3.36292 5.32209L3.07631 5.43798L3.36292 5.55387L8.45314 7.61204L8.5 7.63099L8.54686 7.61204L13.6371 5.55387L13.9237 5.43798L13.6371 5.32209L8.54686 3.26392ZM4.20319 7.01013L4.03134 6.94066V7.12602V10.0483C4.03134 10.0469 4.03132 10.0504 4.03138 10.0533C4.03146 10.0566 4.03165 10.0605 4.03203 10.0649C4.0328 10.0737 4.03427 10.0836 4.03681 10.0946C4.04187 10.1165 4.05087 10.1416 4.06558 10.17C4.09469 10.2262 4.14705 10.2971 4.23992 10.3856C4.42476 10.5623 4.74728 10.7784 5.16114 10.9459C5.98527 11.2796 7.18854 11.4905 8.5 11.4905C9.81153 11.4905 11.0147 11.2789 11.8382 10.9467L11.8384 10.9466C12.2531 10.7785 12.5751 10.5631 12.7601 10.3856C12.8527 10.2973 12.905 10.2265 12.9342 10.1703C12.9489 10.1419 12.9579 10.1169 12.963 10.095C12.9656 10.0841 12.9671 10.0742 12.9679 10.0654C12.9683 10.061 12.9685 10.0571 12.9686 10.0537C12.9687 10.0506 12.9687 10.0475 12.9687 10.0483V7.12536V6.93999L12.7968 7.00947L8.6249 8.69611L8.49984 8.74216L8.37548 8.69671L4.20319 7.01013Z" fill="white" stroke="#1C5D95" stroke-width="0.25"/>
</svg>
