<svg width="12" height="12" viewBox="0 0 12 12" fill="none" xmlns="http://www.w3.org/2000/svg">
<path d="M6.5 5.79302V5.7516V3.00299L6.49616 2.93877C6.48128 2.8182 6.42301 2.70713 6.33217 2.62636C6.24066 2.54498 6.12246 2.50002 6 2.5L6.5 5.79302ZM6.5 5.79302L6.52929 5.82231M6.5 5.79302L6.52929 5.82231M6.52929 5.82231L8.15337 7.44639L6.52929 5.82231ZM8.29898 7.78408C8.29511 7.65716 8.24309 7.53648 8.15349 7.44651L8.29898 7.78408ZM8.29898 7.78408C8.30286 7.91106 8.25826 8.03475 8.17425 8.13003M8.29898 7.78408L8.17425 8.13003M8.17425 8.13003C8.09023 8.22531 7.97309 8.28504 7.84663 8.29709M8.17425 8.13003L7.84663 8.29709M7.84663 8.29709C7.72121 8.30904 7.59593 8.27319 7.49584 8.19679M7.84663 8.29709L7.49584 8.19679M7.49584 8.19679L7.44432 8.15129L5.64654 6.35352C5.64653 6.35351 5.64652 6.3535 5.64651 6.35349C5.56952 6.27642 5.51983 6.17634 5.50494 6.06848L5.5 5.99657V3C5.5 2.86739 5.55268 2.74022 5.64645 2.64645C5.74021 2.55268 5.86738 2.5 5.99999 2.5L7.49584 8.19679ZM6 0.1C9.25857 0.1 11.9 2.74143 11.9 6C11.9 9.25857 9.25857 11.9 6 11.9C2.74143 11.9 0.1 9.25857 0.1 6C0.1 2.74143 2.74143 0.1 6 0.1ZM6 1.1C4.70044 1.1 3.45411 1.61625 2.53518 2.53518C1.61625 3.45411 1.1 4.70044 1.1 6C1.1 7.29956 1.61625 8.5459 2.53518 9.46482C3.45411 10.3838 4.70044 10.9 6 10.9C7.29956 10.9 8.5459 10.3838 9.46482 9.46482C10.3838 8.5459 10.9 7.29956 10.9 6C10.9 4.70044 10.3838 3.45411 9.46482 2.53518C8.5459 1.61625 7.29956 1.1 6 1.1Z" fill="white" stroke="#3B88A0" stroke-width="0.2"/>
</svg>
