<svg width="23" height="23" viewBox="0 0 23 23" fill="none" xmlns="http://www.w3.org/2000/svg">
<mask id="path-1-inside-1_113_3345" fill="white">
<path d="M10.5415 8.62484H12.4582V6.70817H10.5415M11.4998 19.1665C7.27359 19.1665 3.83317 15.7261 3.83317 11.4998C3.83317 7.27359 7.27359 3.83317 11.4998 3.83317C15.7261 3.83317 19.1665 7.27359 19.1665 11.4998C19.1665 15.7261 15.7261 19.1665 11.4998 19.1665ZM11.4998 1.9165C10.2413 1.9165 8.99516 2.16438 7.83245 2.64599C6.66975 3.1276 5.61329 3.8335 4.7234 4.7234C2.92617 6.52062 1.9165 8.95818 1.9165 11.4998C1.9165 14.0415 2.92617 16.4791 4.7234 18.2763C5.61329 19.1662 6.66975 19.8721 7.83245 20.3537C8.99516 20.8353 10.2413 21.0832 11.4998 21.0832C14.0415 21.0832 16.4791 20.0735 18.2763 18.2763C20.0735 16.4791 21.0832 14.0415 21.0832 11.4998C21.0832 10.2413 20.8353 8.99516 20.3537 7.83245C19.8721 6.66975 19.1662 5.61329 18.2763 4.7234C17.3864 3.8335 16.3299 3.1276 15.1672 2.64599C14.0045 2.16438 12.7583 1.9165 11.4998 1.9165ZM10.5415 16.2915H12.4582V10.5415H10.5415V16.2915Z"/>
</mask>
<path d="M10.5415 8.62484H12.4582V6.70817H10.5415M11.4998 19.1665C7.27359 19.1665 3.83317 15.7261 3.83317 11.4998C3.83317 7.27359 7.27359 3.83317 11.4998 3.83317C15.7261 3.83317 19.1665 7.27359 19.1665 11.4998C19.1665 15.7261 15.7261 19.1665 11.4998 19.1665ZM11.4998 1.9165C10.2413 1.9165 8.99516 2.16438 7.83245 2.64599C6.66975 3.1276 5.61329 3.8335 4.7234 4.7234C2.92617 6.52062 1.9165 8.95818 1.9165 11.4998C1.9165 14.0415 2.92617 16.4791 4.7234 18.2763C5.61329 19.1662 6.66975 19.8721 7.83245 20.3537C8.99516 20.8353 10.2413 21.0832 11.4998 21.0832C14.0415 21.0832 16.4791 20.0735 18.2763 18.2763C20.0735 16.4791 21.0832 14.0415 21.0832 11.4998C21.0832 10.2413 20.8353 8.99516 20.3537 7.83245C19.8721 6.66975 19.1662 5.61329 18.2763 4.7234C17.3864 3.8335 16.3299 3.1276 15.1672 2.64599C14.0045 2.16438 12.7583 1.9165 11.4998 1.9165ZM10.5415 16.2915H12.4582V10.5415H10.5415V16.2915Z" fill="black"/>
<path d="M12.4582 8.62484V8.92484H12.7582V8.62484H12.4582ZM12.4582 6.70817H12.7582V6.40817H12.4582V6.70817ZM1.9165 11.4998H1.6165H1.9165ZM11.4998 21.0832V21.3832V21.0832ZM10.5415 16.2915H10.2415V16.5915H10.5415V16.2915ZM12.4582 16.2915V16.5915H12.7582V16.2915H12.4582ZM12.4582 10.5415H12.7582V10.2415H12.4582V10.5415ZM10.5415 10.5415V10.2415H10.2415V10.5415H10.5415ZM10.5415 8.92484H12.4582V8.32484H10.5415V8.92484ZM12.7582 8.62484V6.70817H12.1582V8.62484H12.7582ZM12.4582 6.40817H10.5415V7.00817H12.4582V6.40817ZM11.4998 18.8665C7.43927 18.8665 4.13317 15.5604 4.13317 11.4998H3.53317C3.53317 15.8918 7.1079 19.4665 11.4998 19.4665V18.8665ZM4.13317 11.4998C4.13317 7.43927 7.43927 4.13317 11.4998 4.13317V3.53317C7.1079 3.53317 3.53317 7.1079 3.53317 11.4998H4.13317ZM11.4998 4.13317C15.5604 4.13317 18.8665 7.43927 18.8665 11.4998H19.4665C19.4665 7.1079 15.8918 3.53317 11.4998 3.53317V4.13317ZM18.8665 11.4998C18.8665 15.5604 15.5604 18.8665 11.4998 18.8665V19.4665C15.8918 19.4665 19.4665 15.8918 19.4665 11.4998H18.8665ZM11.4998 1.6165C10.2019 1.6165 8.91675 1.87214 7.71765 2.36883L7.94726 2.92316C9.07356 2.45662 10.2807 2.2165 11.4998 2.2165V1.6165ZM7.71765 2.36883C6.51855 2.86551 5.42902 3.59351 4.51127 4.51127L4.93553 4.93553C5.79757 4.07349 6.82095 3.38969 7.94726 2.92316L7.71765 2.36883ZM4.51127 4.51127C2.65778 6.36475 1.6165 8.87861 1.6165 11.4998H2.2165C2.2165 9.03774 3.19457 6.67649 4.93553 4.93553L4.51127 4.51127ZM1.6165 11.4998C1.6165 14.1211 2.65778 16.6349 4.51127 18.4884L4.93553 18.0641C3.19457 16.3232 2.2165 13.9619 2.2165 11.4998H1.6165ZM4.51127 18.4884C5.42902 19.4062 6.51855 20.1342 7.71765 20.6308L7.94726 20.0765C6.82095 19.61 5.79757 18.9262 4.93553 18.0641L4.51127 18.4884ZM7.71765 20.6308C8.91675 21.1275 10.2019 21.3832 11.4998 21.3832V20.7832C10.2807 20.7832 9.07356 20.5431 7.94726 20.0765L7.71765 20.6308ZM11.4998 21.3832C14.1211 21.3832 16.6349 20.3419 18.4884 18.4884L18.0641 18.0641C16.3232 19.8051 13.9619 20.7832 11.4998 20.7832V21.3832ZM18.4884 18.4884C20.3419 16.6349 21.3832 14.1211 21.3832 11.4998H20.7832C20.7832 13.9619 19.8051 16.3232 18.0641 18.0641L18.4884 18.4884ZM21.3832 11.4998C21.3832 10.2019 21.1275 8.91675 20.6308 7.71765L20.0765 7.94726C20.5431 9.07356 20.7832 10.2807 20.7832 11.4998H21.3832ZM20.6308 7.71765C20.1342 6.51855 19.4062 5.42902 18.4884 4.51127L18.0641 4.93553C18.9262 5.79757 19.61 6.82095 20.0765 7.94726L20.6308 7.71765ZM18.4884 4.51127C17.5707 3.59351 16.4811 2.86551 15.282 2.36883L15.0524 2.92316C16.1787 3.38969 17.2021 4.07349 18.0641 4.93553L18.4884 4.51127ZM15.282 2.36883C14.0829 1.87214 12.7977 1.6165 11.4998 1.6165V2.2165C12.7189 2.2165 13.9261 2.45662 15.0524 2.92316L15.282 2.36883ZM10.5415 16.5915H12.4582V15.9915H10.5415V16.5915ZM12.7582 16.2915V10.5415H12.1582V16.2915H12.7582ZM12.4582 10.2415H10.5415V10.8415H12.4582V10.2415ZM10.2415 10.5415V16.2915H10.8415V10.5415H10.2415Z" fill="white" mask="url(#path-1-inside-1_113_3345)"/>
</svg>
